<svg xmlns="http://www.w3.org/2000/svg" xmlns:xlink="http://www.w3.org/1999/xlink" contentStyleType="text/css" data-diagram-type="DESCRIPTION" height="517px" preserveAspectRatio="none" style="width:1075px;height:517px;background:#F7F9FB;" version="1.1" viewBox="0 0 1075 517" width="1075px" zoomAndPan="magnify"><title>&#128156; &lt;b&gt;Online Course Enrollment &amp; Management System (OCEMS) - Software Architecture&lt;/b&gt;</title><defs><filter height="300%" id="fbcx57tv15h59" width="300%" x="-1" y="-1"><feGaussianBlur result="blurOut" stdDeviation="2"/><feColorMatrix in="blurOut" result="blurOut2" type="matrix" values="0 0 0 0 0 0 0 0 0 0 0 0 0 0 0 0 0 0 .4 0"/><feOffset dx="4" dy="4" in="blurOut2" result="blurOut3"/><feBlend in="SourceGraphic" in2="blurOut3" mode="normal"/></filter></defs><g><rect fill="#F7F9FB" height="517" style="stroke:none;stroke-width:1;" width="1075" x="0" y="0"/><g class="title" data-source-line="35"><text fill="#311B92" font-family="Segoe UI" font-size="22" font-weight="bold" lengthAdjust="spacing" textLength="13.2021" x="10" y="30.4209">&#128156;</text><text fill="#311B92" font-family="Segoe UI" font-size="22" font-weight="bold" lengthAdjust="spacing" textLength="1026.6631" x="30.8613" y="30.4209">Online Course Enrollment &amp; Management System (OCEMS) - Software Architecture</text></g><!--cluster ? Input Layer--><g class="cluster" data-entity="&#128229; Input Layer" data-source-line="37" data-uid="ent0002" id="cluster_&#128229; Input Layer"><path d="M83.2622,52.6094 L168.1616,52.6094 A18.75,18.75 0 0 1 180.6616,65.1094 L187.6616,74.9063 L997.2622,74.9063 A12.5,12.5 0 0 1 1009.7622,87.4063 L1009.7622,137.1094 A12.5,12.5 0 0 1 997.2622,149.6094 L83.2622,149.6094 A12.5,12.5 0 0 1 70.7622,137.1094 L70.7622,65.1094 A12.5,12.5 0 0 1 83.2622,52.6094" fill="#D1C4E9" filter="url(#fbcx57tv15h59)" style="stroke:#4527A0;stroke-width:1.5;"/><line style="stroke:#4527A0;stroke-width:1.5;" x1="70.7622" x2="187.6616" y1="74.9063" y2="74.9063"/><text fill="#311B92" font-family="Segoe UI" font-size="14" font-weight="bold" lengthAdjust="spacing" textLength="103.8994" x="74.7622" y="67.6045">&#128229; Input Layer</text></g><!--cluster ?? Transformation Layer--><g class="cluster" data-entity="&#9881;&#65039; Transformation Layer" data-source-line="44" data-uid="ent0007" id="cluster_&#9881;&#65039; Transformation Layer"><path d="M382.2622,173.6094 L551.3804,173.6094 A18.75,18.75 0 0 1 563.8804,186.1094 L570.8804,195.9063 L991.2622,195.9063 A12.5,12.5 0 0 1 1003.7622,208.4063 L1003.7622,364.1094 A12.5,12.5 0 0 1 991.2622,376.6094 L382.2622,376.6094 A12.5,12.5 0 0 1 369.7622,364.1094 L369.7622,186.1094 A12.5,12.5 0 0 1 382.2622,173.6094" fill="#EDE7F6" filter="url(#fbcx57tv15h59)" style="stroke:#4527A0;stroke-width:1.5;"/><line style="stroke:#4527A0;stroke-width:1.5;" x1="369.7622" x2="570.8804" y1="195.9063" y2="195.9063"/><text fill="#311B92" font-family="Segoe UI" font-size="14" font-weight="bold" lengthAdjust="spacing" textLength="188.1182" x="373.7622" y="188.6045">&#9881;&#65039; Transformation Layer</text></g><!--cluster ? Output Layer--><g class="cluster" data-entity="&#128202; Output Layer" data-source-line="51" data-uid="ent0012" id="cluster_&#128202; Output Layer"><path d="M360.2622,400.6094 L458.5464,400.6094 A18.75,18.75 0 0 1 471.0464,413.1094 L478.0464,422.9063 L961.2622,422.9063 A12.5,12.5 0 0 1 973.7622,435.4063 L973.7622,485.1094 A12.5,12.5 0 0 1 961.2622,497.6094 L360.2622,497.6094 A12.5,12.5 0 0 1 347.7622,485.1094 L347.7622,413.1094 A12.5,12.5 0 0 1 360.2622,400.6094" fill="#C8E6C9" filter="url(#fbcx57tv15h59)" style="stroke:#4527A0;stroke-width:1.5;"/><line style="stroke:#4527A0;stroke-width:1.5;" x1="347.7622" x2="478.0464" y1="422.9063" y2="422.9063"/><text fill="#311B92" font-family="Segoe UI" font-size="14" font-weight="bold" lengthAdjust="spacing" textLength="117.2842" x="351.7622" y="415.6045">&#128202; Output Layer</text></g><!--entity LoginInterface--><g class="entity" data-entity="LoginInterface" data-source-line="38" data-uid="ent0003" id="entity_LoginInterface"><rect fill="#FFFFFF" filter="url(#fbcx57tv15h59)" height="46.2969" rx="10" ry="10" style="stroke:#90A4AE;stroke-width:0.5;" width="140.6934" x="852.2622" y="87.6094"/><rect fill="#FFFFFF" height="10" style="stroke:#90A4AE;stroke-width:0.5;" width="15" x="972.9556" y="92.6094"/><rect fill="#FFFFFF" height="2" style="stroke:#90A4AE;stroke-width:0.5;" width="4" x="970.9556" y="94.6094"/><rect fill="#FFFFFF" height="2" style="stroke:#90A4AE;stroke-width:0.5;" width="4" x="970.9556" y="98.6094"/><text fill="#263238" font-family="Segoe UI" font-size="14" lengthAdjust="spacing" textLength="100.6934" x="867.2622" y="120.6045">LoginInterface</text></g><!--entity CourseSelectionInterface--><g class="entity" data-entity="CourseSelectionInterface" data-source-line="39" data-uid="ent0004" id="entity_CourseSelectionInterface"><rect fill="#FFFFFF" filter="url(#fbcx57tv15h59)" height="46.2969" rx="10" ry="10" style="stroke:#90A4AE;stroke-width:0.5;" width="216.0732" x="600.7622" y="87.6094"/><rect fill="#FFFFFF" height="10" style="stroke:#90A4AE;stroke-width:0.5;" width="15" x="796.8354" y="92.6094"/><rect fill="#FFFFFF" height="2" style="stroke:#90A4AE;stroke-width:0.5;" width="4" x="794.8354" y="94.6094"/><rect fill="#FFFFFF" height="2" style="stroke:#90A4AE;stroke-width:0.5;" width="4" x="794.8354" y="98.6094"/><text fill="#263238" font-family="Segoe UI" font-size="14" lengthAdjust="spacing" textLength="176.0732" x="615.7622" y="120.6045">CourseSelectionInterface</text></g><!--entity InstructorUploadInterface--><g class="entity" data-entity="InstructorUploadInterface" data-source-line="40" data-uid="ent0005" id="entity_InstructorUploadInterface"><rect fill="#FFFFFF" filter="url(#fbcx57tv15h59)" height="46.2969" rx="10" ry="10" style="stroke:#90A4AE;stroke-width:0.5;" width="219.6553" x="345.7622" y="87.6094"/><rect fill="#FFFFFF" height="10" style="stroke:#90A4AE;stroke-width:0.5;" width="15" x="545.4175" y="92.6094"/><rect fill="#FFFFFF" height="2" style="stroke:#90A4AE;stroke-width:0.5;" width="4" x="543.4175" y="94.6094"/><rect fill="#FFFFFF" height="2" style="stroke:#90A4AE;stroke-width:0.5;" width="4" x="543.4175" y="98.6094"/><text fill="#263238" font-family="Segoe UI" font-size="14" lengthAdjust="spacing" textLength="179.6553" x="360.7622" y="120.6045">InstructorUploadInterface</text></g><!--entity AdminDashboardInterface--><g class="entity" data-entity="AdminDashboardInterface" data-source-line="41" data-uid="ent0006" id="entity_AdminDashboardInterface"><rect fill="#FFFFFF" filter="url(#fbcx57tv15h59)" height="46.2969" rx="10" ry="10" style="stroke:#90A4AE;stroke-width:0.5;" width="223.7432" x="86.7622" y="87.6094"/><rect fill="#FFFFFF" height="10" style="stroke:#90A4AE;stroke-width:0.5;" width="15" x="290.5054" y="92.6094"/><rect fill="#FFFFFF" height="2" style="stroke:#90A4AE;stroke-width:0.5;" width="4" x="288.5054" y="94.6094"/><rect fill="#FFFFFF" height="2" style="stroke:#90A4AE;stroke-width:0.5;" width="4" x="288.5054" y="98.6094"/><text fill="#263238" font-family="Segoe UI" font-size="14" lengthAdjust="spacing" textLength="183.7432" x="101.7622" y="120.6045">AdminDashboardInterface</text></g><!--entity AuthenticationManager--><g class="entity" data-entity="AuthenticationManager" data-source-line="45" data-uid="ent0008" id="entity_AuthenticationManager"><rect fill="#FFFFFF" filter="url(#fbcx57tv15h59)" height="46.2969" rx="10" ry="10" style="stroke:#90A4AE;stroke-width:0.5;" width="204.1377" x="783.7622" y="208.6094"/><rect fill="#FFFFFF" height="10" style="stroke:#90A4AE;stroke-width:0.5;" width="15" x="967.8999" y="213.6094"/><rect fill="#FFFFFF" height="2" style="stroke:#90A4AE;stroke-width:0.5;" width="4" x="965.8999" y="215.6094"/><rect fill="#FFFFFF" height="2" style="stroke:#90A4AE;stroke-width:0.5;" width="4" x="965.8999" y="219.6094"/><text fill="#263238" font-family="Segoe UI" font-size="14" lengthAdjust="spacing" textLength="164.1377" x="798.7622" y="241.6045">AuthenticationManager</text></g><!--entity EnrollmentManager--><g class="entity" data-entity="EnrollmentManager" data-source-line="46" data-uid="ent0009" id="entity_EnrollmentManager"><rect fill="#FFFFFF" filter="url(#fbcx57tv15h59)" height="46.2969" rx="10" ry="10" style="stroke:#90A4AE;stroke-width:0.5;" width="177.7988" x="570.7622" y="208.6094"/><rect fill="#FFFFFF" height="10" style="stroke:#90A4AE;stroke-width:0.5;" width="15" x="728.561" y="213.6094"/><rect fill="#FFFFFF" height="2" style="stroke:#90A4AE;stroke-width:0.5;" width="4" x="726.561" y="215.6094"/><rect fill="#FFFFFF" height="2" style="stroke:#90A4AE;stroke-width:0.5;" width="4" x="726.561" y="219.6094"/><text fill="#263238" font-family="Segoe UI" font-size="14" lengthAdjust="spacing" textLength="137.7988" x="585.7622" y="241.6045">EnrollmentManager</text></g><!--entity CourseManager--><g class="entity" data-entity="CourseManager" data-source-line="47" data-uid="ent0010" id="entity_CourseManager"><rect fill="#FFFFFF" filter="url(#fbcx57tv15h59)" height="46.2969" rx="10" ry="10" style="stroke:#90A4AE;stroke-width:0.5;" width="150.2432" x="385.7622" y="208.6094"/><rect fill="#FFFFFF" height="10" style="stroke:#90A4AE;stroke-width:0.5;" width="15" x="516.0054" y="213.6094"/><rect fill="#FFFFFF" height="2" style="stroke:#90A4AE;stroke-width:0.5;" width="4" x="514.0054" y="215.6094"/><rect fill="#FFFFFF" height="2" style="stroke:#90A4AE;stroke-width:0.5;" width="4" x="514.0054" y="219.6094"/><text fill="#263238" font-family="Segoe UI" font-size="14" lengthAdjust="spacing" textLength="110.2432" x="400.7622" y="241.6045">CourseManager</text></g><!--entity ValidationService--><g class="entity" data-entity="ValidationService" data-source-line="48" data-uid="ent0011" id="entity_ValidationService"><rect fill="#FFFFFF" filter="url(#fbcx57tv15h59)" height="46.2969" rx="10" ry="10" style="stroke:#90A4AE;stroke-width:0.5;" width="161.96" x="578.7622" y="314.6094"/><rect fill="#FFFFFF" height="10" style="stroke:#90A4AE;stroke-width:0.5;" width="15" x="720.7222" y="319.6094"/><rect fill="#FFFFFF" height="2" style="stroke:#90A4AE;stroke-width:0.5;" width="4" x="718.7222" y="321.6094"/><rect fill="#FFFFFF" height="2" style="stroke:#90A4AE;stroke-width:0.5;" width="4" x="718.7222" y="325.6094"/><text fill="#263238" font-family="Segoe UI" font-size="14" lengthAdjust="spacing" textLength="121.96" x="593.7622" y="347.6045">ValidationService</text></g><!--entity ConfirmationService--><g class="entity" data-entity="ConfirmationService" data-source-line="52" data-uid="ent0013" id="entity_ConfirmationService"><rect fill="#FFFFFF" filter="url(#fbcx57tv15h59)" height="46.2969" rx="10" ry="10" style="stroke:#90A4AE;stroke-width:0.5;" width="182.5635" x="774.2622" y="435.6094"/><rect fill="#FFFFFF" height="10" style="stroke:#90A4AE;stroke-width:0.5;" width="15" x="936.8257" y="440.6094"/><rect fill="#FFFFFF" height="2" style="stroke:#90A4AE;stroke-width:0.5;" width="4" x="934.8257" y="442.6094"/><rect fill="#FFFFFF" height="2" style="stroke:#90A4AE;stroke-width:0.5;" width="4" x="934.8257" y="446.6094"/><text fill="#263238" font-family="Segoe UI" font-size="14" lengthAdjust="spacing" textLength="142.5635" x="789.2622" y="468.6045">ConfirmationService</text></g><!--entity ReportGenerator--><g class="entity" data-entity="ReportGenerator" data-source-line="53" data-uid="ent0014" id="entity_ReportGenerator"><rect fill="#FFFFFF" filter="url(#fbcx57tv15h59)" height="46.2969" rx="10" ry="10" style="stroke:#90A4AE;stroke-width:0.5;" width="158.1318" x="580.7622" y="435.6094"/><rect fill="#FFFFFF" height="10" style="stroke:#90A4AE;stroke-width:0.5;" width="15" x="718.894" y="440.6094"/><rect fill="#FFFFFF" height="2" style="stroke:#90A4AE;stroke-width:0.5;" width="4" x="716.894" y="442.6094"/><rect fill="#FFFFFF" height="2" style="stroke:#90A4AE;stroke-width:0.5;" width="4" x="716.894" y="446.6094"/><text fill="#263238" font-family="Segoe UI" font-size="14" lengthAdjust="spacing" textLength="118.1318" x="595.7622" y="468.6045">ReportGenerator</text></g><!--entity NotificationManager--><g class="entity" data-entity="NotificationManager" data-source-line="54" data-uid="ent0015" id="entity_NotificationManager"><rect fill="#FFFFFF" filter="url(#fbcx57tv15h59)" height="46.2969" rx="10" ry="10" style="stroke:#90A4AE;stroke-width:0.5;" width="181.6953" x="363.7622" y="435.6094"/><rect fill="#FFFFFF" height="10" style="stroke:#90A4AE;stroke-width:0.5;" width="15" x="525.4575" y="440.6094"/><rect fill="#FFFFFF" height="2" style="stroke:#90A4AE;stroke-width:0.5;" width="4" x="523.4575" y="442.6094"/><rect fill="#FFFFFF" height="2" style="stroke:#90A4AE;stroke-width:0.5;" width="4" x="523.4575" y="446.6094"/><text fill="#263238" font-family="Segoe UI" font-size="14" lengthAdjust="spacing" textLength="141.6953" x="378.7622" y="468.6045">NotificationManager</text></g><!--link LoginInterface to AuthenticationManager--><g class="link" data-entity-1="LoginInterface" data-entity-2="AuthenticationManager" data-source-line="57" data-uid="lnk16" id="link_LoginInterface_AuthenticationManager"><path d="M915.8922,133.7094 C909.2822,154.9494 901.1456,181.1605 894.5056,202.4905" fill="none" id="LoginInterface-to-AuthenticationManager" style="stroke:#455A64;stroke-width:1.3;"/><polygon fill="#455A64" points="892.7222,208.2194,899.2165,200.815,894.2084,203.4453,891.5781,198.4372,892.7222,208.2194" style="stroke:#455A64;stroke-width:1.3;"/></g><!--link CourseSelectionInterface to EnrollmentManager--><g class="link" data-entity-1="CourseSelectionInterface" data-entity-2="EnrollmentManager" data-source-line="58" data-uid="lnk17" id="link_CourseSelectionInterface_EnrollmentManager"><path d="M699.6622,133.7094 C690.9122,154.9494 680.0461,181.341 671.2661,202.671" fill="none" id="CourseSelectionInterface-to-EnrollmentManager" style="stroke:#455A64;stroke-width:1.3;"/><polygon fill="#455A64" points="668.9822,208.2194,676.1069,201.4194,670.8854,203.5958,668.7091,198.3743,668.9822,208.2194" style="stroke:#455A64;stroke-width:1.3;"/></g><!--link InstructorUploadInterface to CourseManager--><g class="link" data-entity-1="InstructorUploadInterface" data-entity-2="CourseManager" data-source-line="59" data-uid="lnk18" id="link_InstructorUploadInterface_CourseManager"><path d="M456.6922,133.7094 C457.5822,154.9494 458.6693,180.8947 459.5693,202.2247" fill="none" id="InstructorUploadInterface-to-CourseManager" style="stroke:#455A64;stroke-width:1.3;"/><polygon fill="#455A64" points="459.8222,208.2194,463.4392,199.0587,459.6114,203.2238,455.4464,199.396,459.8222,208.2194" style="stroke:#455A64;stroke-width:1.3;"/></g><!--link AdminDashboardInterface to CourseManager--><g class="link" data-entity-1="AdminDashboardInterface" data-entity-2="CourseManager" data-source-line="60" data-uid="lnk19" id="link_AdminDashboardInterface_CourseManager"><path d="M247.4322,133.7094 C294.3422,155.0194 359.4791,184.6085 406.4491,205.9385" fill="none" id="AdminDashboardInterface-to-CourseManager" style="stroke:#455A64;stroke-width:1.3;"/><polygon fill="#455A64" points="411.9122,208.4194,405.3715,201.056,407.3596,206.352,402.0637,208.3401,411.9122,208.4194" style="stroke:#455A64;stroke-width:1.3;"/></g><!--link AuthenticationManager to ValidationService--><g class="link" data-entity-1="AuthenticationManager" data-entity-2="ValidationService" data-source-line="62" data-uid="lnk20" id="link_AuthenticationManager_ValidationService"><path d="M837.8322,254.6694 C799.4822,272.3094 751.4027,294.441 713.0727,312.081" fill="none" id="AuthenticationManager-to-ValidationService" style="stroke:#455A64;stroke-width:1.3;"/><polygon fill="#455A64" points="707.6222,314.5894,717.4702,314.4604,712.1643,312.499,714.1257,307.1931,707.6222,314.5894" style="stroke:#455A64;stroke-width:1.3;"/></g><!--link EnrollmentManager to ValidationService--><g class="link" data-entity-1="EnrollmentManager" data-entity-2="ValidationService" data-source-line="63" data-uid="lnk21" id="link_EnrollmentManager_ValidationService"><path d="M659.7622,254.6694 C659.7622,272.3094 659.7622,290.9494 659.7622,308.5894" fill="none" id="EnrollmentManager-to-ValidationService" style="stroke:#455A64;stroke-width:1.3;"/><polygon fill="#455A64" points="659.7622,314.5894,663.7622,305.5894,659.7622,309.5894,655.7622,305.5894,659.7622,314.5894" style="stroke:#455A64;stroke-width:1.3;"/></g><!--link CourseManager to ValidationService--><g class="link" data-entity-1="CourseManager" data-entity-2="ValidationService" data-source-line="64" data-uid="lnk22" id="link_CourseManager_ValidationService"><path d="M502.9622,254.6694 C536.7322,272.3094 578.5444,294.1707 612.3044,311.8107" fill="none" id="CourseManager-to-ValidationService" style="stroke:#455A64;stroke-width:1.3;"/><polygon fill="#455A64" points="617.6222,314.5894,611.4979,306.8762,613.1907,312.2739,607.7931,313.9667,617.6222,314.5894" style="stroke:#455A64;stroke-width:1.3;"/></g><!--link ValidationService to ConfirmationService--><g class="link" data-entity-1="ValidationService" data-entity-2="ConfirmationService" data-source-line="66" data-uid="lnk23" id="link_ValidationService_ConfirmationService"><path d="M700.0322,360.6794 C717.5322,370.3594 738.2222,381.9294 756.7622,392.6094 C781.0022,406.5794 802.8813,419.5956 823.9513,432.2756" fill="none" id="ValidationService-to-ConfirmationService" style="stroke:#455A64;stroke-width:1.3;"/><polygon fill="#455A64" points="829.0922,435.3694,823.4434,427.3014,824.8082,432.7912,819.3184,434.1559,829.0922,435.3694" style="stroke:#455A64;stroke-width:1.3;"/></g><!--link ValidationService to ReportGenerator--><g class="link" data-entity-1="ValidationService" data-entity-2="ReportGenerator" data-source-line="67" data-uid="lnk24" id="link_ValidationService_ReportGenerator"><path d="M659.7622,360.7094 C659.7622,381.9494 659.7622,407.8894 659.7622,429.2194" fill="none" id="ValidationService-to-ReportGenerator" style="stroke:#455A64;stroke-width:1.3;"/><polygon fill="#455A64" points="659.7622,435.2194,663.7622,426.2194,659.7622,430.2194,655.7622,426.2194,659.7622,435.2194" style="stroke:#455A64;stroke-width:1.3;"/></g><!--link ValidationService to NotificationManager--><g class="link" data-entity-1="ValidationService" data-entity-2="NotificationManager" data-source-line="68" data-uid="lnk25" id="link_ValidationService_NotificationManager"><path d="M619.9322,360.7194 C602.6122,370.4094 582.1322,381.9694 563.7622,392.6094 C539.5522,406.6394 517.6748,419.6485 496.5948,432.3185" fill="none" id="ValidationService-to-NotificationManager" style="stroke:#455A64;stroke-width:1.3;"/><polygon fill="#455A64" points="491.4522,435.4094,501.2267,434.2014,495.7377,432.8336,497.1055,427.3446,491.4522,435.4094" style="stroke:#455A64;stroke-width:1.3;"/></g><!--SRC=[VPFDJjj04CVlVefHa5euq98F0f4GKXfe6ucF2aClLG_ZzJXPiTwnrciGL4WzLvKgjIUgIfpw3htrNNY1yWZTs84wnguFaJCpE_Fx_sVz5EvkFl-6WztNmzkFrocyGKNM4gp24KLIKmXFO9z3CXgMz_2Cj7k57OwbHcrNlFHKwWGDnX2WE9qOpdGuOiK6bgADQ105fOgG8ioKVSdQ7c1CqF9fmWGdurPzqRnFfz_jT3TB9UaKGpwNUWBMP5HAvDC56-qGE-kb11h3v_DslVLrxFUgoUEf5AUQqXJQpxfUAPiuMJWX-E01lAXAf90seluimyRvyZ2Xiu5hBbeIqMstWq5d7lFjXI88M8KkS5JqkuS6y1VbNPLf1CS9QzAsdYVAdohFO0rxI8iySrFBF8b2gH_Fhn2kBG9PQLLXJgDOUKdGgPK-L7AYuvaQuNx8p5eN3Uzkllw0hM3xK2jt1s74cKa9ThLXfV83xbAYTdl9__WNgQKObWz7k_l-YhkwFaVs70t1q8Yfj2HiPcZhUR3jUVVxRDtTVFi9Ovra5lRmWamBbiAswD4WL_DkZoTIZsTK4GfwFmiL53ufrqzo9JdMgRDBM3OdYM8C5xF3q7qmEvXE0qPJpbsLY6w_N__vzGME3UeqOXFZRCe3N77N2hXXPgTEk1HvIU64oGVziwWSBSZBaRUeP9YVzicSoIgAC-SJ76Qsx8xOfBwOkpDY7SavuKC35p-YX8rzHUwgeBCYZnsmbL4LrGshMWohgzkDqfhDBuxLwFxFIeep5LSQbrHRxJMG5iKrzjOWDjSk3ckiysg2zxGr2sgiVhIsnigwPVu5]--></g></svg>