<svg xmlns="http://www.w3.org/2000/svg" xmlns:xlink="http://www.w3.org/1999/xlink" contentStyleType="text/css" data-diagram-type="DESCRIPTION" height="843.75px" preserveAspectRatio="none" style="width:632px;height:843px;background:#F5F7FA;" version="1.1" viewBox="0 0 632 843" width="632.2917px" zoomAndPan="magnify"><title>&lt;b&gt;&lt;color:#1a237e&gt;&#129504; DFD - Online Exam Grading System&lt;/color&gt;&lt;/b&gt;</title><defs><filter height="300%" id="f1mwq7eqpqfdew" width="300%" x="-1" y="-1"><feGaussianBlur result="blurOut" stdDeviation="2.0833"/><feColorMatrix in="blurOut" result="blurOut2" type="matrix" values="0 0 0 0 0 0 0 0 0 0 0 0 0 0 0 0 0 0 .4 0"/><feOffset dx="4.1667" dy="4.1667" in="blurOut2" result="blurOut3"/><feBlend in="SourceGraphic" in2="blurOut3" mode="normal"/></filter></defs><g><rect fill="#F5F7FA" height="843.75" style="stroke:none;stroke-width:1.0417;" width="632.2917" x="0" y="0"/><g class="title" data-source-line="4"><text fill="#1A237E" font-family="Segoe UI" font-size="14.5833" font-weight="bold" lengthAdjust="spacing" textLength="302.9032" x="157.7245" y="23.9532">&#129504; DFD - Online Exam Grading System</text></g><!--cluster ? Online Exam Grading System--><g class="cluster" data-entity="&#128187; Online Exam Grading System" data-source-line="66" data-uid="ent0004" id="cluster_&#128187; Online Exam Grading System"><rect fill="#E3F2FD" filter="url(#f1mwq7eqpqfdew)" height="629.6875" rx="13.0208" ry="13.0208" style="stroke:#1E88E5;stroke-width:1.0417;" width="275" x="232.2917" y="46.1426"/><text fill="#0D47A1" font-family="Segoe UI" font-size="14.5833" font-weight="bold" lengthAdjust="spacing" textLength="258.3557" x="240.6138" y="61.7625">&#128187; Online Exam Grading System</text></g><!--entity P1--><g class="entity" data-entity="P1" data-source-line="67" data-uid="ent0005" id="entity_P1"><rect fill="#BBDEFB" filter="url(#f1mwq7eqpqfdew)" height="47.0133" rx="13.0208" ry="13.0208" style="stroke:#9FA8DA;stroke-width:1.25;" width="233.3262" x="248.9583" y="82.6009"/><rect fill="#BBDEFB" height="10.4167" style="stroke:#9FA8DA;stroke-width:1.25;" width="15.625" x="461.4512" y="87.8092"/><rect fill="#BBDEFB" height="2.0833" style="stroke:#9FA8DA;stroke-width:1.25;" width="4.1667" x="459.3679" y="89.8926"/><rect fill="#BBDEFB" height="2.0833" style="stroke:#9FA8DA;stroke-width:1.25;" width="4.1667" x="459.3679" y="94.0592"/><text fill="#1A237E" font-family="Segoe UI" font-size="13.5417" lengthAdjust="spacing" textLength="191.6595" x="264.5833" y="116.0039">1&#65039;&#8419; Collect Student Answers</text></g><!--entity P2--><g class="entity" data-entity="P2" data-source-line="68" data-uid="ent0006" id="entity_P2"><rect fill="#EDE7F6" filter="url(#f1mwq7eqpqfdew)" height="47.0133" rx="13.0208" ry="13.0208" style="stroke:#9FA8DA;stroke-width:1.25;" width="188.5157" x="249.4792" y="210.7259"/><rect fill="#EDE7F6" height="10.4167" style="stroke:#9FA8DA;stroke-width:1.25;" width="15.625" x="417.1616" y="215.9342"/><rect fill="#EDE7F6" height="2.0833" style="stroke:#9FA8DA;stroke-width:1.25;" width="4.1667" x="415.0782" y="218.0176"/><rect fill="#EDE7F6" height="2.0833" style="stroke:#9FA8DA;stroke-width:1.25;" width="4.1667" x="415.0782" y="222.1842"/><text fill="#1A237E" font-family="Segoe UI" font-size="13.5417" lengthAdjust="spacing" textLength="146.8491" x="265.1042" y="244.1289">2&#65039;&#8419; Evaluate Answers</text></g><!--entity P3--><g class="entity" data-entity="P3" data-source-line="69" data-uid="ent0007" id="entity_P3"><rect fill="#C8E6C9" filter="url(#f1mwq7eqpqfdew)" height="47.0133" rx="13.0208" ry="13.0208" style="stroke:#9FA8DA;stroke-width:1.25;" width="210.64" x="252.0833" y="338.8509"/><rect fill="#C8E6C9" height="10.4167" style="stroke:#9FA8DA;stroke-width:1.25;" width="15.625" x="441.89" y="344.0592"/><rect fill="#C8E6C9" height="2.0833" style="stroke:#9FA8DA;stroke-width:1.25;" width="4.1667" x="439.8066" y="346.1426"/><rect fill="#C8E6C9" height="2.0833" style="stroke:#9FA8DA;stroke-width:1.25;" width="4.1667" x="439.8066" y="350.3092"/><text fill="#1A237E" font-family="Segoe UI" font-size="13.5417" lengthAdjust="spacing" textLength="168.9733" x="267.7083" y="372.2539">3&#65039;&#8419; Compute Total Score</text></g><!--entity P4--><g class="entity" data-entity="P4" data-source-line="70" data-uid="ent0008" id="entity_P4"><rect fill="#FFF59D" filter="url(#f1mwq7eqpqfdew)" height="47.0133" rx="13.0208" ry="13.0208" style="stroke:#9FA8DA;stroke-width:1.25;" width="158.0338" x="278.125" y="466.9759"/><rect fill="#FFF59D" height="10.4167" style="stroke:#9FA8DA;stroke-width:1.25;" width="15.625" x="415.3254" y="472.1842"/><rect fill="#FFF59D" height="2.0833" style="stroke:#9FA8DA;stroke-width:1.25;" width="4.1667" x="413.2421" y="474.2676"/><rect fill="#FFF59D" height="2.0833" style="stroke:#9FA8DA;stroke-width:1.25;" width="4.1667" x="413.2421" y="478.4342"/><text fill="#1A237E" font-family="Segoe UI" font-size="13.5417" lengthAdjust="spacing" textLength="116.3671" x="293.75" y="500.3789">4&#65039;&#8419; Assign Grade</text></g><!--entity P5--><g class="entity" data-entity="P5" data-source-line="71" data-uid="ent0009" id="entity_P5"><rect fill="#FFE0B2" filter="url(#f1mwq7eqpqfdew)" height="47.0133" rx="13.0208" ry="13.0208" style="stroke:#9FA8DA;stroke-width:1.25;" width="158.0271" x="278.125" y="612.2884"/><rect fill="#FFE0B2" height="10.4167" style="stroke:#9FA8DA;stroke-width:1.25;" width="15.625" x="415.3188" y="617.4967"/><rect fill="#FFE0B2" height="2.0833" style="stroke:#9FA8DA;stroke-width:1.25;" width="4.1667" x="413.2355" y="619.5801"/><rect fill="#FFE0B2" height="2.0833" style="stroke:#9FA8DA;stroke-width:1.25;" width="4.1667" x="413.2355" y="623.7467"/><text fill="#1A237E" font-family="Segoe UI" font-size="13.5417" lengthAdjust="spacing" textLength="116.3605" x="293.75" y="645.6914">5&#65039;&#8419; Store Results</text></g><!--entity Student--><g class="entity" data-entity="Student" data-source-line="63" data-uid="ent0002" id="entity_Student"><ellipse cx="162.4049" cy="774.7884" fill="#283593" filter="url(#f1mwq7eqpqfdew)" rx="16.6667" ry="16.6667" style="stroke:#3F51B5;stroke-width:0.5208;"/><path d="M162.4049,795.6217 C166.5716,795.6217 169.6966,795.6217 173.8632,791.4551 C182.1966,791.4551 190.5299,799.7884 190.5299,808.1217 L190.5299,812.2884 C190.5299,816.4551 186.3632,820.6217 182.1966,820.6217 L142.6132,820.6217 C138.4466,820.6217 134.2799,816.4551 134.2799,812.2884 L134.2799,808.1217 C134.2799,799.7884 142.6132,791.4551 150.9466,791.4551 C155.1132,795.6217 158.2382,795.6217 162.4049,795.6217" fill="#283593" filter="url(#f1mwq7eqpqfdew)" style="stroke:#3F51B5;stroke-width:0.5208;"/><text fill="#1A237E" font-family="Segoe UI" font-size="15.625" lengthAdjust="spacing" textLength="75.8514" x="124.4792" y="835.6461">&#127891; Student</text></g><!--entity Admin--><g class="entity" data-entity="Admin" data-source-line="64" data-uid="ent0003" id="entity_Admin"><ellipse cx="561.3749" cy="612.2884" fill="#6A1B9A" filter="url(#f1mwq7eqpqfdew)" rx="16.6667" ry="16.6667" style="stroke:#3F51B5;stroke-width:0.5208;"/><path d="M561.3749,633.1217 C565.5416,633.1217 568.6666,633.1217 572.8333,628.9551 C581.1666,628.9551 589.4999,637.2884 589.4999,645.6217 L589.4999,649.7884 C589.4999,653.9551 585.3333,658.1217 581.1666,658.1217 L541.5833,658.1217 C537.4166,658.1217 533.2499,653.9551 533.2499,649.7884 L533.2499,645.6217 C533.2499,637.2884 541.5833,628.9551 549.9166,628.9551 C554.0833,633.1217 557.2083,633.1217 561.3749,633.1217" fill="#6A1B9A" filter="url(#f1mwq7eqpqfdew)" style="stroke:#3F51B5;stroke-width:0.5208;"/><text fill="#1A237E" font-family="Segoe UI" font-size="15.625" lengthAdjust="spacing" textLength="73.7915" x="524.4792" y="673.1461">&#128105;&#8205;&#128188; Admin</text></g><!--entity QB--><g class="entity" data-entity="QB" data-source-line="74" data-uid="ent0010" id="entity_QB"><path d="M61.4583,349.2676 C61.4583,338.8509 138.707,338.8509 138.707,338.8509 C138.707,338.8509 215.9556,338.8509 215.9556,349.2676 L215.9556,375.6185 C215.9556,386.0352 138.707,386.0352 138.707,386.0352 C138.707,386.0352 61.4583,386.0352 61.4583,375.6185 L61.4583,349.2676" fill="#E3F2FD" filter="url(#f1mwq7eqpqfdew)" style="stroke:#1565C0;stroke-width:0.5208;"/><path d="M61.4583,349.2676 C61.4583,359.6842 138.707,359.6842 138.707,359.6842 C138.707,359.6842 215.9556,359.6842 215.9556,349.2676" fill="none" style="stroke:#1565C0;stroke-width:0.5208;"/><text fill="#0D47A1" font-family="Segoe UI" font-size="14.5833" font-weight="bold" lengthAdjust="spacing" textLength="133.6639" x="71.875" y="377.3875">&#128218; Question Bank</text></g><!--entity RD--><g class="entity" data-entity="RD" data-source-line="75" data-uid="ent0011" id="entity_RD"><path d="M332.8125,785.2051 C332.8125,774.7884 417.5629,774.7884 417.5629,774.7884 C417.5629,774.7884 502.3132,774.7884 502.3132,785.2051 L502.3132,811.556 C502.3132,821.9727 417.5629,821.9727 417.5629,821.9727 C417.5629,821.9727 332.8125,821.9727 332.8125,811.556 L332.8125,785.2051" fill="#E8EAF6" filter="url(#f1mwq7eqpqfdew)" style="stroke:#1565C0;stroke-width:0.5208;"/><path d="M332.8125,785.2051 C332.8125,795.6217 417.5629,795.6217 417.5629,795.6217 C417.5629,795.6217 502.3132,795.6217 502.3132,785.2051" fill="none" style="stroke:#1565C0;stroke-width:0.5208;"/><text fill="#0D47A1" font-family="Segoe UI" font-size="14.5833" font-weight="bold" lengthAdjust="spacing" textLength="148.6674" x="343.2292" y="813.325">&#128452;&#65039; Result Database</text></g><!--link Student to P1--><g class="link" data-entity-1="Student" data-entity-2="P1" data-source-line="77" data-uid="lnk12" id="link_Student_P1"><path d="M124.2813,778.9551 C78.0208,753.9238 6.25,704.2155 6.25,636.7676 C6.25,233.1217 6.25,233.1217 6.25,233.1217 C6.25,180.7259 137.8676,146.045 242.8051,126.3575" fill="none" id="Student-to-P1" style="stroke:#37474F;stroke-width:1.5625;"/><polygon fill="#37474F" points="248.9479,125.2051,238.9654,122.8386,243.8289,126.1655,240.502,131.029,248.9479,125.2051" style="stroke:#37474F;stroke-width:1.5625;"/><text fill="#000000" font-family="Segoe UI" font-size="14.5833" lengthAdjust="spacing" textLength="117.6778" x="7.2917" y="431.5542">Submit Answers</text></g><!--link P1 to P2--><g class="link" data-entity-1="P1" data-entity-2="P2" data-source-line="78" data-uid="lnk13" id="link_P1_P2"><path d="M361.7188,129.6113 C357.7604,152.4134 352.7477,181.3183 348.7686,204.2037" fill="none" id="P1-to-P2" style="stroke:#37474F;stroke-width:1.5625;"/><polygon fill="#37474F" points="347.6979,210.3613,353.409,201.8387,348.5901,205.23,345.1988,200.4111,347.6979,210.3613" style="stroke:#37474F;stroke-width:1.5625;"/><text fill="#000000" font-family="Segoe UI" font-size="14.5833" lengthAdjust="spacing" textLength="140.3361" x="356.25" y="175.3042">Student Responses</text></g><!--link P2 to P3--><g class="link" data-entity-1="P2" data-entity-2="P3" data-source-line="79" data-uid="lnk14" id="link_P2_P3"><path d="M346.1667,257.7363 C348.625,280.5384 351.7179,309.3867 354.1762,332.2721" fill="none" id="P2-to-P3" style="stroke:#37474F;stroke-width:1.5625;"/><polygon fill="#37474F" points="354.8438,338.4863,357.9853,328.7199,354.2875,333.3078,349.6996,329.61,354.8438,338.4863" style="stroke:#37474F;stroke-width:1.5625;"/><text fill="#000000" font-family="Segoe UI" font-size="14.5833" lengthAdjust="spacing" textLength="138.9048" x="352.0833" y="303.4292">Evaluated Answers</text></g><!--link P3 to P4--><g class="link" data-entity-1="P3" data-entity-2="P4" data-source-line="80" data-uid="lnk15" id="link_P3_P4"><path d="M357.2917,385.8613 C357.2917,408.6634 357.2917,437.4759 357.2917,460.3613" fill="none" id="P3-to-P4" style="stroke:#37474F;stroke-width:1.5625;"/><polygon fill="#37474F" points="357.2917,466.6113,361.4583,457.2363,357.2917,461.403,353.125,457.2363,357.2917,466.6113" style="stroke:#37474F;stroke-width:1.5625;"/><text fill="#000000" font-family="Segoe UI" font-size="14.5833" lengthAdjust="spacing" textLength="84.73" x="358.3333" y="431.5542">Total Marks</text></g><!--link P4 to P5--><g class="link" data-entity-1="P4" data-entity-2="P5" data-source-line="81" data-uid="lnk16" id="link_P4_P5"><path d="M357.2917,514.153 C357.2917,540.9655 357.2917,579.0697 357.2917,605.8405" fill="none" id="P4-to-P5" style="stroke:#37474F;stroke-width:1.5625;"/><polygon fill="#37474F" points="357.2917,612.0905,361.4583,602.7155,357.2917,606.8822,353.125,602.7155,357.2917,612.0905" style="stroke:#37474F;stroke-width:1.5625;"/><text fill="#000000" font-family="Segoe UI" font-size="14.5833" lengthAdjust="spacing" textLength="107.1177" x="358.3333" y="559.6792">Grade + Score</text></g><!--link P2 to QB--><g class="link" data-entity-1="P2" data-entity-2="QB" data-source-line="82" data-uid="lnk17" id="link_P2_QB"><path d="M270.625,257.6426 C249.5833,265.7884 227.2396,276.1842 208.3333,288.8509 C187.8854,302.5592 172.7806,318.3102 159.7493,334.0289" fill="none" id="P2-to-QB" style="stroke:#37474F;stroke-width:1.5625;"/><polygon fill="#37474F" points="155.7604,338.8405,164.9515,334.2824,159.0845,334.8309,158.5361,328.9639,155.7604,338.8405" style="stroke:#37474F;stroke-width:1.5625;"/><text fill="#000000" font-family="Segoe UI" font-size="14.5833" lengthAdjust="spacing" textLength="130.4881" x="209.375" y="303.4292">Fetch Answer Key</text></g><!--link P5 to RD--><g class="link" data-entity-1="P5" data-entity-2="RD" data-source-line="83" data-uid="lnk18" id="link_P5_RD"><path d="M365.8229,659.4134 C377.3333,689.9863 395.5266,738.2936 407.0161,768.804" fill="none" id="P5-to-RD" style="stroke:#37474F;stroke-width:1.5625;"/><polygon fill="#37474F" points="409.2188,774.653,409.8142,764.4111,407.3832,769.7788,402.0155,767.3479,409.2188,774.653" style="stroke:#37474F;stroke-width:1.5625;"/><text fill="#000000" font-family="Segoe UI" font-size="14.5833" lengthAdjust="spacing" textLength="91.7297" x="389.5833" y="722.1792">Save Record</text></g><!--link Admin to RD--><g class="link" data-entity-1="Admin" data-entity-2="RD" data-source-line="84" data-uid="lnk19" id="link_Admin_RD"><path d="M531.8542,676.4863 C519.5521,692.3717 504.8438,710.6009 490.625,726.3509 C475.3646,743.2467 461.5333,756.8315 447.0333,770.394" fill="none" id="Admin-to-RD" style="stroke:#37474F;stroke-width:1.5625;"/><polygon fill="#37474F" points="442.4688,774.6634,452.1618,771.3023,446.2725,771.1056,446.4693,765.2163,442.4688,774.6634" style="stroke:#37474F;stroke-width:1.5625;"/><text fill="#000000" font-family="Segoe UI" font-size="14.5833" lengthAdjust="spacing" textLength="119.3939" x="505.2083" y="722.1792">Retrieve Results</text></g><!--link P5 to Student--><g class="link" data-entity-1="P5" data-entity-2="Student" data-source-line="85" data-uid="lnk20" id="link_P5_Student"><path d="M328.0313,659.4759 C310.4271,673.2363 287.6354,691.2467 267.7083,707.6009 C245.2708,726.0176 225.2832,742.9665 205.4394,760.0081" fill="none" id="P5-to-Student" style="stroke:#37474F;stroke-width:1.5625;"/><polygon fill="#37474F" points="200.6979,764.0801,210.5248,761.1331,204.6492,760.6868,205.0955,754.8112,200.6979,764.0801" style="stroke:#37474F;stroke-width:1.5625;"/><text fill="#000000" font-family="Segoe UI" font-size="14.5833" lengthAdjust="spacing" textLength="107.3883" x="268.75" y="722.1792">Display Report</text></g><!--SRC=[fLNDRYD54BxFKnIsn2v2PZqpdjYE4ajEuYm_6_1cmaeSUsPgd9PdkgsUTen1I4XmPH6x1oGkGUA0U0CaU9fz0V88LFVysF6QtGC-M4vzzLLzzNLrvm7StRvu3k7uuyda2LnzEBcOG0V2374Efr9cS98j4Tw5Prncg67Aw5kZym3EE9ifbX_2sVaPCJuJ6HS8aozP3eyLIxYOGRWkDEQEbWlG4YAfjSmXuGfZpQLmDDSPmb4qEefb9jLXssMUtyVHtUtllxwrwj4ZIneTFOf6ZbFCkLWmaWCHY-Sp9PSYEJKujDCWxQTiAwEuPebScKfQBN4BiAnOAe4Al60B62ibLrKvlz_hzz9TyEgQntE1HG7k1zlCPC71xNQt8vYoPQRFfT2ViXoX5U9C8dp-KMj_KiY_Gd1x3ZdUwNHW76jI4UerEKT_Rt6OHRvs04vsBS01ilJ0858bgEf9qi2D0egQDbMiF84gLhOs6MK_ji92vWODxrluJQrkgcHiJ7WuoJA-AF2zlKfZcI-aGA7tgqtjPrVjC6M3XBrLhV-wkhhGzXbv6ysNj8rCp4ZbmtApA9t4CBNUhrur-VkzzbClJNRLkpWOe77oiaojT-pUEDsarsTkFOvj7SaiUOFVPqopY1Ka_NHD5uNwxTUSr7d_iHvfDyNN90S7GTpzlmh7SMmEsl8BIAd8CwOuC_VVQdo7LjtSy2TyTgtjKzEE8ef53HBAL5UFJniJxDCYrz055_gnGXJGZWTu40ytfAKGwoymo-JABbGmJEuLd78n9y3780qQu9Hb-HHPV6qes8qyCyJnyR6r6SvDhUhHCr6dl72jkzldBydqPK9pje0LzMzeUmC_6FgRl9_-UFNj3_JQ_WtZ9EV29jjVq3vWRZHaZhDPBif_yTSRth-MFKlOkamjzvy_VtprtM_6x8pgD4B6ebYXAco_gTiOlCFsAlRaXcLBfl4-pMlCtw7vJTDyiIJMbTGiWv2UKIoPVdCuEynUnHmN1Py9Erv5wJLdjaC9Aaf8ZYBTt88UoKfWq1mQxLwpx-JYor_WwH8Bkt4dJCnj-jEJvgPkv_xyFJMewZQNon8kpvfdrAbzxNH6niz3shOevutF3iKiv1ceogMQD4I1X7ebwXDQUvrik7w9zWWjhRnWQaxnNXaFA6wTWlTBa-jwDD4XdAEcxIrhmIUuTYZVWAIUfB0RuncH4gTSkmQwHAqutZIMrhnQFVsJvyKYOsjAM4Yb_mK0]--></g></svg>