<svg xmlns="http://www.w3.org/2000/svg" xmlns:xlink="http://www.w3.org/1999/xlink" contentStyleType="text/css" data-diagram-type="ACTIVITY" height="945px" preserveAspectRatio="none" style="width:899px;height:945px;background:#F7F9FB;" version="1.1" viewBox="0 0 899 945" width="899px" zoomAndPan="magnify"><title>&lt;b&gt;&#127911; Mood-Based Music Recommendation System&lt;/b&gt;</title><defs><filter height="300%" id="fxvij4j7az7ce" width="300%" x="-1" y="-1"><feGaussianBlur result="blurOut" stdDeviation="2"/><feColorMatrix in="blurOut" result="blurOut2" type="matrix" values="0 0 0 0 0 0 0 0 0 0 0 0 0 0 0 0 0 0 .4 0"/><feOffset dx="4" dy="4" in="blurOut2" result="blurOut3"/><feBlend in="SourceGraphic" in2="blurOut3" mode="normal"/></filter></defs><g><rect fill="#F7F9FB" height="945" style="stroke:none;stroke-width:1;" width="899" x="0" y="0"/><g class="title" data-source-line="21"><text fill="#000000" font-family="sans-serif" font-size="14" font-weight="bold" lengthAdjust="spacing" textLength="365.8867" x="265.1235" y="32.9951">&#127911; Mood-Based Music Recommendation System</text><text fill="#263238" font-family="sans-serif" font-size="14" font-weight="bold" lengthAdjust="spacing" textLength="132.0703" x="382.0317" y="49.292">Activity Diagram</text></g><ellipse cx="290.1123" cy="73.5938" fill="#222222" filter="url(#fxvij4j7az7ce)" rx="10" ry="10" style="stroke:#222222;stroke-width:1;"/><rect fill="#EDE7F6" filter="url(#fxvij4j7az7ce)" height="138.5625" rx="11.5" ry="11.5" style="stroke:#4527A0;stroke-width:1.5;" width="267.3159" x="156.4543" y="93.5938"/><path d="M223.7668,93.5938 L223.7668,102.8906 L213.7668,112.8906 L156.4543,112.8906" fill="none" style="stroke:#4527A0;stroke-width:1.5;"/><text fill="#311B92" font-family="sans-serif" font-size="14" lengthAdjust="spacing" textLength="57.3125" x="159.4543" y="107.5889">&#129485;&#8205;&#9794;&#65039; User</text><rect fill="#FFFFFF" filter="url(#fxvij4j7az7ce)" height="35.1328" rx="11.5" ry="11.5" style="stroke:#90A4AE;stroke-width:0.5;" width="125.3711" x="227.4267" y="129.8906"/><text fill="#263238" font-family="Segoe UI" font-size="13" lengthAdjust="spacing" textLength="105.3711" x="237.4267" y="151.9575">Open Music App</text><rect fill="#FFFFFF" filter="url(#fxvij4j7az7ce)" height="35.1328" rx="11.5" ry="11.5" style="stroke:#90A4AE;stroke-width:0.5;" width="247.3159" x="166.4543" y="185.0234"/><text fill="#263238" font-family="Segoe UI" font-size="13" lengthAdjust="spacing" textLength="227.3159" x="176.4543" y="207.0903">Allow Camera / Microphone Access</text><rect fill="#EDE7F6" filter="url(#fxvij4j7az7ce)" height="495.9609" rx="11.5" ry="11.5" style="stroke:#4527A0;stroke-width:1.5;" width="871.1338" x="11" y="242.1563"/><path d="M86.0576,242.1563 L86.0576,251.4531 L76.0576,261.4531 L11,261.4531" fill="none" style="stroke:#4527A0;stroke-width:1.5;"/><text fill="#311B92" font-family="sans-serif" font-size="14" lengthAdjust="spacing" textLength="65.0576" x="14" y="256.1514">&#129302; System</text><rect fill="#FFFFFF" filter="url(#fxvij4j7az7ce)" height="35.1328" rx="11.5" ry="11.5" style="stroke:#90A4AE;stroke-width:0.5;" width="282.3042" x="148.9602" y="278.4531"/><text fill="#263238" font-family="Segoe UI" font-size="13" lengthAdjust="spacing" textLength="262.3042" x="158.9602" y="300.52">Capture Facial Expression or Voice Tone</text><rect fill="#FFFFFF" filter="url(#fxvij4j7az7ce)" height="35.1328" rx="11.5" ry="11.5" style="stroke:#90A4AE;stroke-width:0.5;" width="228.3618" x="175.9314" y="333.5859"/><text fill="#263238" font-family="Segoe UI" font-size="13" lengthAdjust="spacing" textLength="208.3618" x="185.9314" y="355.6528">Analyze Emotion using AI Model</text><rect fill="#FFFFFF" filter="url(#fxvij4j7az7ce)" height="35.1328" rx="11.5" ry="11.5" style="stroke:#90A4AE;stroke-width:0.5;" width="303.5562" x="138.3342" y="388.7188"/><text fill="#263238" font-family="Segoe UI" font-size="13" lengthAdjust="spacing" textLength="283.5562" x="148.3342" y="410.7856">Detect Mood (Happy, Sad, Energetic, Calm)</text><polygon fill="#FFFFFF" filter="url(#fxvij4j7az7ce)" points="236.4301,443.8516,343.7944,443.8516,355.7944,455.8516,343.7944,467.8516,236.4301,467.8516,224.4301,455.8516,236.4301,443.8516" style="stroke:#90A4AE;stroke-width:0.5;"/><text fill="#263238" font-family="Segoe UI" font-size="13" lengthAdjust="spacing" textLength="107.3643" x="236.4301" y="460.3521">Mood == Happy</text><text fill="#000000" font-family="sans-serif" font-size="11" lengthAdjust="spacing" textLength="19.2178" x="205.2124" y="453.2573">Yes</text><text fill="#000000" font-family="sans-serif" font-size="11" lengthAdjust="spacing" textLength="14.9585" x="355.7944" y="453.2573">No</text><rect fill="#FFFFFF" filter="url(#fxvij4j7az7ce)" height="35.1328" rx="11.5" ry="11.5" style="stroke:#90A4AE;stroke-width:0.5;" width="150.7744" x="23" y="477.8516"/><text fill="#263238" font-family="Segoe UI" font-size="13" lengthAdjust="spacing" textLength="130.7744" x="33" y="499.9185">Fetch Upbeat Songs</text><polygon fill="#FFFFFF" filter="url(#fxvij4j7az7ce)" points="436.8896,477.8516,526.7851,477.8516,538.7851,489.8516,526.7851,501.8516,436.8896,501.8516,424.8896,489.8516,436.8896,477.8516" style="stroke:#90A4AE;stroke-width:0.5;"/><text fill="#263238" font-family="Segoe UI" font-size="13" lengthAdjust="spacing" textLength="89.8955" x="436.8896" y="494.3521">Mood == Sad</text><text fill="#000000" font-family="sans-serif" font-size="11" lengthAdjust="spacing" textLength="19.2178" x="405.6718" y="487.2573">Yes</text><rect fill="#FFFFFF" filter="url(#fxvij4j7az7ce)" height="35.1328" rx="11.5" ry="11.5" style="stroke:#90A4AE;stroke-width:0.5;" width="207.5288" x="203.7744" y="511.8516"/><text fill="#263238" font-family="Segoe UI" font-size="13" lengthAdjust="spacing" textLength="187.5288" x="213.7744" y="533.9185">Fetch Soft / Emotional Songs</text><polygon fill="#FFFFFF" filter="url(#fxvij4j7az7ce)" points="592.472,511.8516,719.7997,511.8516,731.7997,523.8516,719.7997,535.8516,592.472,535.8516,580.472,523.8516,592.472,511.8516" style="stroke:#90A4AE;stroke-width:0.5;"/><text fill="#263238" font-family="Segoe UI" font-size="13" lengthAdjust="spacing" textLength="127.3276" x="592.472" y="528.3521">Mood == Energetic</text><text fill="#000000" font-family="sans-serif" font-size="11" lengthAdjust="spacing" textLength="19.2178" x="561.2543" y="521.2573">Yes</text><rect fill="#FFFFFF" filter="url(#fxvij4j7az7ce)" height="35.1328" rx="11.5" ry="11.5" style="stroke:#90A4AE;stroke-width:0.5;" width="205.25" x="441.3032" y="545.8516"/><text fill="#263238" font-family="Segoe UI" font-size="13" lengthAdjust="spacing" textLength="185.25" x="451.3032" y="567.9185">Fetch Workout / Party Songs</text><rect fill="#FFFFFF" filter="url(#fxvij4j7az7ce)" height="35.1328" rx="11.5" ry="11.5" style="stroke:#90A4AE;stroke-width:0.5;" width="203.5806" x="666.5532" y="545.8516"/><text fill="#263238" font-family="Segoe UI" font-size="13" lengthAdjust="spacing" textLength="183.5806" x="676.5532" y="567.9185">Fetch Relaxing / Calm Music</text><polygon fill="#FFFFFF" filter="url(#fxvij4j7az7ce)" points="656.1359,586.9844,668.1359,598.9844,656.1359,610.9844,644.1359,598.9844,656.1359,586.9844" style="stroke:#90A4AE;stroke-width:0.5;"/><polygon fill="#FFFFFF" filter="url(#fxvij4j7az7ce)" points="481.8373,616.9844,493.8373,628.9844,481.8373,640.9844,469.8373,628.9844,481.8373,616.9844" style="stroke:#90A4AE;stroke-width:0.5;"/><polygon fill="#FFFFFF" filter="url(#fxvij4j7az7ce)" points="290.1123,646.9844,302.1123,658.9844,290.1123,670.9844,278.1123,658.9844,290.1123,646.9844" style="stroke:#90A4AE;stroke-width:0.5;"/><rect fill="#FFFFFF" filter="url(#fxvij4j7az7ce)" height="35.1328" rx="11.5" ry="11.5" style="stroke:#90A4AE;stroke-width:0.5;" width="234.9253" x="172.6496" y="690.9844"/><text fill="#263238" font-family="Segoe UI" font-size="13" lengthAdjust="spacing" textLength="214.9253" x="182.6496" y="713.0513">Generate Playlist Based on Mood</text><rect fill="#EDE7F6" filter="url(#fxvij4j7az7ce)" height="138.5625" rx="11.5" ry="11.5" style="stroke:#4527A0;stroke-width:1.5;" width="278.6909" x="150.7668" y="748.1172"/><path d="M225.2229,748.1172 L225.2229,757.4141 L215.2229,767.4141 L150.7668,767.4141" fill="none" style="stroke:#4527A0;stroke-width:1.5;"/><text fill="#311B92" font-family="sans-serif" font-size="14" lengthAdjust="spacing" textLength="64.4561" x="153.7668" y="762.1123">&#128241; Display</text><rect fill="#FFFFFF" filter="url(#fxvij4j7az7ce)" height="35.1328" rx="11.5" ry="11.5" style="stroke:#90A4AE;stroke-width:0.5;" width="258.6909" x="160.7668" y="784.4141"/><text fill="#263238" font-family="Segoe UI" font-size="13" lengthAdjust="spacing" textLength="238.6909" x="170.7668" y="806.481">Show Recommended Playlist to User</text><rect fill="#FFFFFF" filter="url(#fxvij4j7az7ce)" height="35.1328" rx="11.5" ry="11.5" style="stroke:#90A4AE;stroke-width:0.5;" width="210.1187" x="185.0529" y="839.5469"/><text fill="#263238" font-family="Segoe UI" font-size="13" lengthAdjust="spacing" textLength="190.1187" x="195.0529" y="861.6138">Play Preview or Allow Play All</text><ellipse cx="290.1123" cy="917.6797" fill="none" filter="url(#fxvij4j7az7ce)" rx="11" ry="11" style="stroke:#222222;stroke-width:1;"/><ellipse cx="290.1123" cy="917.6797" fill="#222222" rx="6" ry="6" style="stroke:#222222;stroke-width:1;"/><line style="stroke:#455A64;stroke-width:1;" x1="290.1123" x2="290.1123" y1="165.0234" y2="185.0234"/><polygon fill="#455A64" points="286.1123,175.0234,290.1123,185.0234,294.1123,175.0234,290.1123,179.0234" style="stroke:#455A64;stroke-width:1;"/><line style="stroke:#455A64;stroke-width:1;" x1="290.1123" x2="290.1123" y1="83.5938" y2="129.8906"/><polygon fill="#455A64" points="286.1123,119.8906,290.1123,129.8906,294.1123,119.8906,290.1123,123.8906" style="stroke:#455A64;stroke-width:1;"/><line style="stroke:#455A64;stroke-width:1;" x1="290.1123" x2="290.1123" y1="313.5859" y2="333.5859"/><polygon fill="#455A64" points="286.1123,323.5859,290.1123,333.5859,294.1123,323.5859,290.1123,327.5859" style="stroke:#455A64;stroke-width:1;"/><line style="stroke:#455A64;stroke-width:1;" x1="290.1123" x2="290.1123" y1="368.7188" y2="388.7188"/><polygon fill="#455A64" points="286.1123,378.7188,290.1123,388.7188,294.1123,378.7188,290.1123,382.7188" style="stroke:#455A64;stroke-width:1;"/><line style="stroke:#455A64;stroke-width:1;" x1="580.472" x2="543.9282" y1="523.8516" y2="523.8516"/><line style="stroke:#455A64;stroke-width:1;" x1="543.9282" x2="543.9282" y1="523.8516" y2="545.8516"/><polygon fill="#455A64" points="539.9282,535.8516,543.9282,545.8516,547.9282,535.8516,543.9282,539.8516" style="stroke:#455A64;stroke-width:1;"/><line style="stroke:#455A64;stroke-width:1;" x1="731.7997" x2="768.3435" y1="523.8516" y2="523.8516"/><line style="stroke:#455A64;stroke-width:1;" x1="768.3435" x2="768.3435" y1="523.8516" y2="545.8516"/><polygon fill="#455A64" points="764.3435,535.8516,768.3435,545.8516,772.3435,535.8516,768.3435,539.8516" style="stroke:#455A64;stroke-width:1;"/><line style="stroke:#455A64;stroke-width:1;" x1="543.9282" x2="543.9282" y1="580.9844" y2="598.9844"/><line style="stroke:#455A64;stroke-width:1;" x1="543.9282" x2="644.1359" y1="598.9844" y2="598.9844"/><polygon fill="#455A64" points="634.1359,594.9844,644.1359,598.9844,634.1359,602.9844,638.1359,598.9844" style="stroke:#455A64;stroke-width:1;"/><line style="stroke:#455A64;stroke-width:1;" x1="768.3435" x2="768.3435" y1="580.9844" y2="598.9844"/><line style="stroke:#455A64;stroke-width:1;" x1="768.3435" x2="668.1359" y1="598.9844" y2="598.9844"/><polygon fill="#455A64" points="678.1359,594.9844,668.1359,598.9844,678.1359,602.9844,674.1359,598.9844" style="stroke:#455A64;stroke-width:1;"/><line style="stroke:#455A64;stroke-width:1;" x1="424.8896" x2="307.5388" y1="489.8516" y2="489.8516"/><line style="stroke:#455A64;stroke-width:1;" x1="307.5388" x2="307.5388" y1="489.8516" y2="511.8516"/><polygon fill="#455A64" points="303.5388,501.8516,307.5388,511.8516,311.5388,501.8516,307.5388,505.8516" style="stroke:#455A64;stroke-width:1;"/><line style="stroke:#455A64;stroke-width:1;" x1="538.7851" x2="656.1359" y1="489.8516" y2="489.8516"/><line style="stroke:#455A64;stroke-width:1;" x1="656.1359" x2="656.1359" y1="489.8516" y2="511.8516"/><polygon fill="#455A64" points="652.1359,501.8516,656.1359,511.8516,660.1359,501.8516,656.1359,505.8516" style="stroke:#455A64;stroke-width:1;"/><line style="stroke:#455A64;stroke-width:1;" x1="307.5388" x2="307.5388" y1="546.9844" y2="628.9844"/><line style="stroke:#455A64;stroke-width:1;" x1="307.5388" x2="469.8373" y1="628.9844" y2="628.9844"/><polygon fill="#455A64" points="459.8373,624.9844,469.8373,628.9844,459.8373,632.9844,463.8373,628.9844" style="stroke:#455A64;stroke-width:1;"/><line style="stroke:#455A64;stroke-width:1;" x1="656.1359" x2="656.1359" y1="610.9844" y2="628.9844"/><line style="stroke:#455A64;stroke-width:1;" x1="656.1359" x2="493.8373" y1="628.9844" y2="628.9844"/><polygon fill="#455A64" points="503.8373,624.9844,493.8373,628.9844,503.8373,632.9844,499.8373,628.9844" style="stroke:#455A64;stroke-width:1;"/><line style="stroke:#455A64;stroke-width:1;" x1="224.4301" x2="98.3872" y1="455.8516" y2="455.8516"/><line style="stroke:#455A64;stroke-width:1;" x1="98.3872" x2="98.3872" y1="455.8516" y2="477.8516"/><polygon fill="#455A64" points="94.3872,467.8516,98.3872,477.8516,102.3872,467.8516,98.3872,471.8516" style="stroke:#455A64;stroke-width:1;"/><line style="stroke:#455A64;stroke-width:1;" x1="355.7944" x2="481.8373" y1="455.8516" y2="455.8516"/><line style="stroke:#455A64;stroke-width:1;" x1="481.8373" x2="481.8373" y1="455.8516" y2="477.8516"/><polygon fill="#455A64" points="477.8373,467.8516,481.8373,477.8516,485.8373,467.8516,481.8373,471.8516" style="stroke:#455A64;stroke-width:1;"/><line style="stroke:#455A64;stroke-width:1;" x1="98.3872" x2="98.3872" y1="512.9844" y2="658.9844"/><line style="stroke:#455A64;stroke-width:1;" x1="98.3872" x2="278.1123" y1="658.9844" y2="658.9844"/><polygon fill="#455A64" points="268.1123,654.9844,278.1123,658.9844,268.1123,662.9844,272.1123,658.9844" style="stroke:#455A64;stroke-width:1;"/><line style="stroke:#455A64;stroke-width:1;" x1="481.8373" x2="481.8373" y1="640.9844" y2="658.9844"/><line style="stroke:#455A64;stroke-width:1;" x1="481.8373" x2="302.1123" y1="658.9844" y2="658.9844"/><polygon fill="#455A64" points="312.1123,654.9844,302.1123,658.9844,312.1123,662.9844,308.1123,658.9844" style="stroke:#455A64;stroke-width:1;"/><line style="stroke:#455A64;stroke-width:1;" x1="290.1123" x2="290.1123" y1="423.8516" y2="443.8516"/><polygon fill="#455A64" points="286.1123,433.8516,290.1123,443.8516,294.1123,433.8516,290.1123,437.8516" style="stroke:#455A64;stroke-width:1;"/><line style="stroke:#455A64;stroke-width:1;" x1="290.1123" x2="290.1123" y1="670.9844" y2="690.9844"/><polygon fill="#455A64" points="286.1123,680.9844,290.1123,690.9844,294.1123,680.9844,290.1123,684.9844" style="stroke:#455A64;stroke-width:1;"/><line style="stroke:#455A64;stroke-width:1;" x1="290.1123" x2="290.1123" y1="220.1563" y2="278.4531"/><polygon fill="#455A64" points="286.1123,268.4531,290.1123,278.4531,294.1123,268.4531,290.1123,272.4531" style="stroke:#455A64;stroke-width:1;"/><line style="stroke:#455A64;stroke-width:1;" x1="290.1123" x2="290.1123" y1="819.5469" y2="839.5469"/><polygon fill="#455A64" points="286.1123,829.5469,290.1123,839.5469,294.1123,829.5469,290.1123,833.5469" style="stroke:#455A64;stroke-width:1;"/><line style="stroke:#455A64;stroke-width:1;" x1="290.1123" x2="290.1123" y1="726.1172" y2="784.4141"/><polygon fill="#455A64" points="286.1123,774.4141,290.1123,784.4141,294.1123,774.4141,290.1123,778.4141" style="stroke:#455A64;stroke-width:1;"/><line style="stroke:#455A64;stroke-width:1;" x1="290.1123" x2="290.1123" y1="874.6797" y2="906.6797"/><polygon fill="#455A64" points="286.1123,896.6797,290.1123,906.6797,294.1123,896.6797,290.1123,900.6797" style="stroke:#455A64;stroke-width:1;"/><!--SRC=[RPD1JnD15CVl-obUQY8bWHJQ0YAbIO5ME80D2neJBzFPj-s4tPdDp9HIZOdnB7emCV74nOIpDsz-5xw0V0JVpAxh8lJGRj-y-Rt_U- -_2t1xzV4N76Ci94Rm60vLX5h2oGHJX6Kuwk_t5WmCMOBM8lIoB14O1UPCo8nfbiA8yREnLbCPxQf4QNWKRyIRyQYIOIOiKZCXns3r52i7_XPNMgA6PgjoqDDQpGfSUssDhRU3oYdZLfmBEuUt0S3ElVB-uqwKfawAwEOAQpEaw419MyIQwwrcwqaH2yKRXDLMyU-8KVEr4CSAuVIW5hohrgTlAwnGyc416E56lFw_WFPQSuEjt1NGMbqTRJOTd7W9GcVKlRtwT4qhKD7o3ZEqZyEf4PosmrMQeeoOBnlEZSMqqnXrNyjEJ3pW3hXTArggTNj_HxGds9WqTnekhKjTM18V1FzQgDrUNL_UlB-y-VRXzy_FS6fGrtnVJvzdA8lwjFKj5-ebYPh1BWr7CsZ0eU1QPHCboHUSep5RhfSxxEzV2xK5T9TbTgeH1emBba3_8jDqpoNJG5uemH5EY9TNaooPqrRwgV8uaa8UwXruYoO-PGyjSki71lLzbcNp9GXPj0HzyjGOhU1B93T95xS2IXSnr7tgzZRuv4Mm4sgo_WhD8fqJS82MJ-0q6o6p42evDguE9WQXVgJof2g6Yjs3b9XGnPR6LEYdTajWZYoogxnIzmFKaljIwJCrTUWXpNfUnTu1bnUECM4NRdWDFuryg-K56Oaug3xblsw-pv3qC7hlXmcR9y9Oo6r9st2Ax-_xom-odCaekrXuE277bFwbgoN9AkyslqSNXA76Su4pvuJSQ3vAZxwCiIhx0m00]--></g></svg>