<svg xmlns="http://www.w3.org/2000/svg" xmlns:xlink="http://www.w3.org/1999/xlink" contentStyleType="text/css" data-diagram-type="ACTIVITY" height="604px" preserveAspectRatio="none" style="width:992px;height:604px;background:#F7F9FB;" version="1.1" viewBox="0 0 992 604" width="992px" zoomAndPan="magnify"><title>&lt;b&gt;&#127911; Mood-Based Music Recommendation System&lt;/b&gt;</title><defs><filter height="300%" id="f8gfrswfx4q6j" width="300%" x="-1" y="-1"><feGaussianBlur result="blurOut" stdDeviation="2"/><feColorMatrix in="blurOut" result="blurOut2" type="matrix" values="0 0 0 0 0 0 0 0 0 0 0 0 0 0 0 0 0 0 .4 0"/><feOffset dx="4" dy="4" in="blurOut2" result="blurOut3"/><feBlend in="SourceGraphic" in2="blurOut3" mode="normal"/></filter></defs><g><rect fill="#F7F9FB" height="604" style="stroke:none;stroke-width:1;" width="992" x="0" y="0"/><g class="title" data-source-line="25"><text fill="#000000" font-family="sans-serif" font-size="14" font-weight="bold" lengthAdjust="spacing" textLength="365.8867" x="311.5977" y="32.9951">&#127911; Mood-Based Music Recommendation System</text><text fill="#263238" font-family="sans-serif" font-size="14" font-weight="bold" lengthAdjust="spacing" textLength="78.2236" x="455.4292" y="49.292">Flowchart</text></g><ellipse cx="319.974" cy="73.5938" fill="#222222" filter="url(#f8gfrswfx4q6j)" rx="10" ry="10" style="stroke:#222222;stroke-width:1;"/><rect fill="#F1F1F1" filter="url(#f8gfrswfx4q6j)" height="33.9688" rx="11" ry="11" style="stroke:#181818;stroke-width:0.5;" width="253.8945" x="193.0267" y="103.5938"/><text fill="#000000" font-family="sans-serif" font-size="12" lengthAdjust="spacing" textLength="233.8945" x="203.0267" y="124.7324">Capture Facial Expression / Voice Tone</text><rect fill="#F1F1F1" filter="url(#f8gfrswfx4q6j)" height="33.9688" rx="11" ry="11" style="stroke:#181818;stroke-width:0.5;" width="212.334" x="213.807" y="157.5625"/><text fill="#000000" font-family="sans-serif" font-size="12" lengthAdjust="spacing" textLength="192.334" x="223.807" y="178.7012">Analyze Emotion using AI Model</text><rect fill="#F1F1F1" filter="url(#f8gfrswfx4q6j)" height="33.9688" rx="11" ry="11" style="stroke:#181818;stroke-width:0.5;" width="96.4824" x="271.7328" y="211.5313"/><text fill="#000000" font-family="sans-serif" font-size="12" lengthAdjust="spacing" textLength="76.4824" x="281.7328" y="232.6699">Detect Mood</text><polygon fill="#F1F1F1" filter="url(#f8gfrswfx4q6j)" points="271.6315,265.5,368.3165,265.5,380.3165,277.5,368.3165,289.5,271.6315,289.5,259.6315,277.5,271.6315,265.5" style="stroke:#181818;stroke-width:0.5;"/><text fill="#000000" font-family="sans-serif" font-size="11" lengthAdjust="spacing" textLength="96.6851" x="271.6315" y="281.3081">Mood == Happy?</text><text fill="#000000" font-family="sans-serif" font-size="11" lengthAdjust="spacing" textLength="19.2178" x="240.4137" y="274.9058">Yes</text><text fill="#000000" font-family="sans-serif" font-size="11" lengthAdjust="spacing" textLength="14.9585" x="380.3165" y="274.9058">No</text><rect fill="#F1F1F1" filter="url(#f8gfrswfx4q6j)" height="33.9688" rx="11" ry="11" style="stroke:#181818;stroke-width:0.5;" width="183.166" x="11" y="299.5"/><text fill="#000000" font-family="sans-serif" font-size="12" lengthAdjust="spacing" textLength="163.166" x="21" y="320.6387">Recommend Upbeat Songs</text><polygon fill="#F1F1F1" filter="url(#f8gfrswfx4q6j)" points="496.4131,299.5,578.3169,299.5,590.3169,311.5,578.3169,323.5,496.4131,323.5,484.4131,311.5,496.4131,299.5" style="stroke:#181818;stroke-width:0.5;"/><text fill="#000000" font-family="sans-serif" font-size="11" lengthAdjust="spacing" textLength="81.9038" x="496.4131" y="315.3081">Mood == Sad?</text><text fill="#000000" font-family="sans-serif" font-size="11" lengthAdjust="spacing" textLength="19.2178" x="465.1953" y="308.9058">Yes</text><text fill="#000000" font-family="sans-serif" font-size="11" lengthAdjust="spacing" textLength="14.9585" x="590.3169" y="308.9058">No</text><rect fill="#F1F1F1" filter="url(#f8gfrswfx4q6j)" height="33.9688" rx="11" ry="11" style="stroke:#181818;stroke-width:0.5;" width="235.5547" x="224.166" y="333.5"/><text fill="#000000" font-family="sans-serif" font-size="12" lengthAdjust="spacing" textLength="215.5547" x="234.166" y="354.6387">Recommend Soft / Emotional Songs</text><polygon fill="#F1F1F1" filter="url(#f8gfrswfx4q6j)" points="675.998,333.5,789.5752,333.5,801.5752,345.5,789.5752,357.5,675.998,357.5,663.998,345.5,675.998,333.5" style="stroke:#181818;stroke-width:0.5;"/><text fill="#000000" font-family="sans-serif" font-size="11" lengthAdjust="spacing" textLength="113.5771" x="675.998" y="349.3081">Mood == Energetic?</text><text fill="#000000" font-family="sans-serif" font-size="11" lengthAdjust="spacing" textLength="19.2178" x="644.7803" y="342.9058">Yes</text><text fill="#000000" font-family="sans-serif" font-size="11" lengthAdjust="spacing" textLength="14.9585" x="801.5752" y="342.9058">No</text><rect fill="#F1F1F1" filter="url(#f8gfrswfx4q6j)" height="33.9688" rx="11" ry="11" style="stroke:#181818;stroke-width:0.5;" width="233.4512" x="489.7207" y="367.5"/><text fill="#000000" font-family="sans-serif" font-size="12" lengthAdjust="spacing" textLength="213.4512" x="499.7207" y="388.6387">Recommend Workout / Party Songs</text><rect fill="#F1F1F1" filter="url(#f8gfrswfx4q6j)" height="33.9688" rx="11" ry="11" style="stroke:#181818;stroke-width:0.5;" width="231.9102" x="743.1719" y="367.5"/><text fill="#000000" font-family="sans-serif" font-size="12" lengthAdjust="spacing" textLength="211.9102" x="753.1719" y="388.6387">Recommend Calm / Relaxing Music</text><polygon fill="#F1F1F1" filter="url(#f8gfrswfx4q6j)" points="732.7866,407.4688,744.7866,419.4688,732.7866,431.4688,720.7866,419.4688,732.7866,407.4688" style="stroke:#181818;stroke-width:0.5;"/><polygon fill="#F1F1F1" filter="url(#f8gfrswfx4q6j)" points="537.365,437.4688,549.365,449.4688,537.365,461.4688,525.365,449.4688,537.365,437.4688" style="stroke:#181818;stroke-width:0.5;"/><polygon fill="#F1F1F1" filter="url(#f8gfrswfx4q6j)" points="319.974,467.4688,331.974,479.4688,319.974,491.4688,307.974,479.4688,319.974,467.4688" style="stroke:#181818;stroke-width:0.5;"/><rect fill="#F1F1F1" filter="url(#f8gfrswfx4q6j)" height="33.9688" rx="11" ry="11" style="stroke:#181818;stroke-width:0.5;" width="157.7246" x="241.1117" y="511.4688"/><text fill="#000000" font-family="sans-serif" font-size="12" lengthAdjust="spacing" textLength="137.7246" x="251.1117" y="532.6074">Display Playlist to User</text><ellipse cx="319.974" cy="576.4375" fill="none" filter="url(#f8gfrswfx4q6j)" rx="11" ry="11" style="stroke:#222222;stroke-width:1;"/><ellipse cx="319.974" cy="576.4375" fill="#222222" rx="6" ry="6" style="stroke:#222222;stroke-width:1;"/><line style="stroke:#455A64;stroke-width:1;" x1="319.974" x2="319.974" y1="83.5938" y2="103.5938"/><polygon fill="#455A64" points="315.974,93.5938,319.974,103.5938,323.974,93.5938,319.974,97.5938" style="stroke:#455A64;stroke-width:1;"/><line style="stroke:#455A64;stroke-width:1;" x1="319.974" x2="319.974" y1="137.5625" y2="157.5625"/><polygon fill="#455A64" points="315.974,147.5625,319.974,157.5625,323.974,147.5625,319.974,151.5625" style="stroke:#455A64;stroke-width:1;"/><line style="stroke:#455A64;stroke-width:1;" x1="319.974" x2="319.974" y1="191.5313" y2="211.5313"/><polygon fill="#455A64" points="315.974,201.5313,319.974,211.5313,323.974,201.5313,319.974,205.5313" style="stroke:#455A64;stroke-width:1;"/><line style="stroke:#455A64;stroke-width:1;" x1="663.998" x2="606.4463" y1="345.5" y2="345.5"/><line style="stroke:#455A64;stroke-width:1;" x1="606.4463" x2="606.4463" y1="345.5" y2="367.5"/><polygon fill="#455A64" points="602.4463,357.5,606.4463,367.5,610.4463,357.5,606.4463,361.5" style="stroke:#455A64;stroke-width:1;"/><line style="stroke:#455A64;stroke-width:1;" x1="801.5752" x2="859.127" y1="345.5" y2="345.5"/><line style="stroke:#455A64;stroke-width:1;" x1="859.127" x2="859.127" y1="345.5" y2="367.5"/><polygon fill="#455A64" points="855.127,357.5,859.127,367.5,863.127,357.5,859.127,361.5" style="stroke:#455A64;stroke-width:1;"/><line style="stroke:#455A64;stroke-width:1;" x1="606.4463" x2="606.4463" y1="401.4688" y2="419.4688"/><line style="stroke:#455A64;stroke-width:1;" x1="606.4463" x2="720.7866" y1="419.4688" y2="419.4688"/><polygon fill="#455A64" points="710.7866,415.4688,720.7866,419.4688,710.7866,423.4688,714.7866,419.4688" style="stroke:#455A64;stroke-width:1;"/><line style="stroke:#455A64;stroke-width:1;" x1="859.127" x2="859.127" y1="401.4688" y2="419.4688"/><line style="stroke:#455A64;stroke-width:1;" x1="859.127" x2="744.7866" y1="419.4688" y2="419.4688"/><polygon fill="#455A64" points="754.7866,415.4688,744.7866,419.4688,754.7866,423.4688,750.7866,419.4688" style="stroke:#455A64;stroke-width:1;"/><line style="stroke:#455A64;stroke-width:1;" x1="484.4131" x2="341.9434" y1="311.5" y2="311.5"/><line style="stroke:#455A64;stroke-width:1;" x1="341.9434" x2="341.9434" y1="311.5" y2="333.5"/><polygon fill="#455A64" points="337.9434,323.5,341.9434,333.5,345.9434,323.5,341.9434,327.5" style="stroke:#455A64;stroke-width:1;"/><line style="stroke:#455A64;stroke-width:1;" x1="590.3169" x2="732.7866" y1="311.5" y2="311.5"/><line style="stroke:#455A64;stroke-width:1;" x1="732.7866" x2="732.7866" y1="311.5" y2="333.5"/><polygon fill="#455A64" points="728.7866,323.5,732.7866,333.5,736.7866,323.5,732.7866,327.5" style="stroke:#455A64;stroke-width:1;"/><line style="stroke:#455A64;stroke-width:1;" x1="341.9434" x2="341.9434" y1="367.4688" y2="449.4688"/><line style="stroke:#455A64;stroke-width:1;" x1="341.9434" x2="525.365" y1="449.4688" y2="449.4688"/><polygon fill="#455A64" points="515.365,445.4688,525.365,449.4688,515.365,453.4688,519.365,449.4688" style="stroke:#455A64;stroke-width:1;"/><line style="stroke:#455A64;stroke-width:1;" x1="732.7866" x2="732.7866" y1="431.4688" y2="449.4688"/><line style="stroke:#455A64;stroke-width:1;" x1="732.7866" x2="549.365" y1="449.4688" y2="449.4688"/><polygon fill="#455A64" points="559.365,445.4688,549.365,449.4688,559.365,453.4688,555.365,449.4688" style="stroke:#455A64;stroke-width:1;"/><line style="stroke:#455A64;stroke-width:1;" x1="259.6315" x2="102.583" y1="277.5" y2="277.5"/><line style="stroke:#455A64;stroke-width:1;" x1="102.583" x2="102.583" y1="277.5" y2="299.5"/><polygon fill="#455A64" points="98.583,289.5,102.583,299.5,106.583,289.5,102.583,293.5" style="stroke:#455A64;stroke-width:1;"/><line style="stroke:#455A64;stroke-width:1;" x1="380.3165" x2="537.365" y1="277.5" y2="277.5"/><line style="stroke:#455A64;stroke-width:1;" x1="537.365" x2="537.365" y1="277.5" y2="299.5"/><polygon fill="#455A64" points="533.365,289.5,537.365,299.5,541.365,289.5,537.365,293.5" style="stroke:#455A64;stroke-width:1;"/><line style="stroke:#455A64;stroke-width:1;" x1="102.583" x2="102.583" y1="333.4688" y2="479.4688"/><line style="stroke:#455A64;stroke-width:1;" x1="102.583" x2="307.974" y1="479.4688" y2="479.4688"/><polygon fill="#455A64" points="297.974,475.4688,307.974,479.4688,297.974,483.4688,301.974,479.4688" style="stroke:#455A64;stroke-width:1;"/><line style="stroke:#455A64;stroke-width:1;" x1="537.365" x2="537.365" y1="461.4688" y2="479.4688"/><line style="stroke:#455A64;stroke-width:1;" x1="537.365" x2="331.974" y1="479.4688" y2="479.4688"/><polygon fill="#455A64" points="341.974,475.4688,331.974,479.4688,341.974,483.4688,337.974,479.4688" style="stroke:#455A64;stroke-width:1;"/><line style="stroke:#455A64;stroke-width:1;" x1="319.974" x2="319.974" y1="245.5" y2="265.5"/><polygon fill="#455A64" points="315.974,255.5,319.974,265.5,323.974,255.5,319.974,259.5" style="stroke:#455A64;stroke-width:1;"/><line style="stroke:#455A64;stroke-width:1;" x1="319.974" x2="319.974" y1="491.4688" y2="511.4688"/><polygon fill="#455A64" points="315.974,501.4688,319.974,511.4688,323.974,501.4688,319.974,505.4688" style="stroke:#455A64;stroke-width:1;"/><line style="stroke:#455A64;stroke-width:1;" x1="319.974" x2="319.974" y1="545.4375" y2="565.4375"/><polygon fill="#455A64" points="315.974,555.4375,319.974,565.4375,323.974,555.4375,319.974,559.4375" style="stroke:#455A64;stroke-width:1;"/><!--SRC=[dLB1Rjf04BtxAqPKAiaXIW8aQGAX8XIKg0r2aBIgrCjWZs75UiVQNKhSgdzGzHTox6Vqb_897HD33UsfFgpjsNblthoPAZmzVly58ugLeGXUmYr7P0tSpIWXE811xxfJTJ14JTuJxBt3psGaGn2XHpFLvFO3DrScHOi9J32SJoqlJDHbpHPUn6VnUJmfPRWPHhnKPWhUBgXqiKA5R8sGrsgbYuwrl2pe6YSdUDe8oh2r3lWQ05pjrgU8pk9JW2fib6yGBWUmbTY6lNQ6HnBji_55h7vyF3cl5R6n-a9mN2_-1YWMLSOqPOBxcuf4Hy-LrpryAmkD52Pied_BZ5TFBlCjKRhETR2SAN4zbfHGerK-svLyVeGDf6t9jTDwhVxgloLxvSNDrgJzzFZZf-m3HmTNw6GvRXTEXVdWEKd4IlIA3Ompvobf7KxQdqmhbX8GvYekAuMCIhklUHdEqFhMONxV5bEy_0KNNKpzmXBqCLIeeVUGMd8k9ps4zwn2WZisr0mkEWPr9ctq4bxL51soFvsRrR9gINX3NeQwqjeC0XN3Nlu9bvTmZMcQlTu7FoC3Un_pRGMusFG0z-c4qCEOpTGr0z9ETdp0ULAPPOpHBiSMovXZBw8BVT9BmGTGPjpcx8dZK_8g_9jvY_i3spalSlgXk9RzeTubtq9rKIS26P76XzoirUmAb8bK7ApVpwTOg5ogCOEX75ev3vxXtf5johGu_Gq0]--></g></svg>