<svg xmlns="http://www.w3.org/2000/svg" xmlns:xlink="http://www.w3.org/1999/xlink" contentStyleType="text/css" data-diagram-type="DESCRIPTION" height="555px" preserveAspectRatio="none" style="width:944px;height:555px;background:#F8FAFF;" version="1.1" viewBox="0 0 944 555" width="944px" zoomAndPan="magnify"><title>&#128722; Web-Based Order Processing System Architecture</title><defs><filter height="300%" id="fr7qkqcvxvb4a" width="300%" x="-1" y="-1"><feGaussianBlur result="blurOut" stdDeviation="2"/><feColorMatrix in="blurOut" result="blurOut2" type="matrix" values="0 0 0 0 0 0 0 0 0 0 0 0 0 0 0 0 0 0 .4 0"/><feOffset dx="4" dy="4" in="blurOut2" result="blurOut3"/><feBlend in="SourceGraphic" in2="blurOut3" mode="normal"/></filter></defs><g><rect fill="#F8FAFF" height="555" style="stroke:none;stroke-width:1;" width="944" x="0" y="0"/><g class="title" data-source-line="2"><text fill="#283593" font-family="Segoe UI" font-size="14" font-weight="bold" lengthAdjust="spacing" textLength="409.4316" x="260.2842" y="22.9951">&#128722; Web-Based Order Processing System Architecture</text></g><!--cluster ???? Customer Browser--><g class="cluster" data-entity="&#129485;&#8205;&#9794;&#65039; Customer Browser" data-source-line="37" data-uid="ent0002" id="cluster_&#129485;&#8205;&#9794;&#65039; Customer Browser"><polygon fill="#E8EAF6" filter="url(#fr7qkqcvxvb4a)" points="164,53.2969,174,43.2969,423,43.2969,423,153.2969,413,163.2969,164,163.2969,164,53.2969" style="stroke:#3F51B5;stroke-width:1;"/><line style="stroke:#3F51B5;stroke-width:1;" x1="413" x2="423" y1="53.2969" y2="43.2969"/><line style="stroke:#3F51B5;stroke-width:1;" x1="164" x2="413" y1="53.2969" y2="53.2969"/><line style="stroke:#3F51B5;stroke-width:1;" x1="413" x2="413" y1="53.2969" y2="163.2969"/><text fill="#1A237E" font-family="Segoe UI" font-size="15" font-weight="bold" lengthAdjust="spacing" textLength="183.6768" x="197.6616" y="70.2202">&#129485;&#8205;&#9794;&#65039; Customer Browser</text></g><!--cluster ? Internet--><g class="cluster" data-entity="&#127760; Internet" data-source-line="41" data-uid="ent0004" id="cluster_&#127760; Internet"><polygon fill="#E8EAF6" filter="url(#fr7qkqcvxvb4a)" points="16,222.2969,26,212.2969,927,212.2969,927,528.2969,917,538.2969,16,538.2969,16,222.2969" style="stroke:#3F51B5;stroke-width:1;"/><line style="stroke:#3F51B5;stroke-width:1;" x1="917" x2="927" y1="222.2969" y2="212.2969"/><line style="stroke:#3F51B5;stroke-width:1;" x1="16" x2="917" y1="222.2969" y2="222.2969"/><line style="stroke:#3F51B5;stroke-width:1;" x1="917" x2="917" y1="222.2969" y2="538.2969"/><text fill="#1A237E" font-family="Segoe UI" font-size="15" font-weight="bold" lengthAdjust="spacing" textLength="89.2456" x="422.8772" y="239.2202">&#127760; Internet</text></g><!--cluster ?? Web Server--><g class="cluster" data-entity="&#128421;&#65039; Web Server" data-source-line="42" data-uid="ent0005" id="cluster_&#128421;&#65039; Web Server"><polygon fill="#E8EAF6" filter="url(#fr7qkqcvxvb4a)" points="40,271.2969,50,261.2969,494,261.2969,494,504.2969,484,514.2969,40,514.2969,40,271.2969" style="stroke:#3F51B5;stroke-width:1;"/><line style="stroke:#3F51B5;stroke-width:1;" x1="484" x2="494" y1="271.2969" y2="261.2969"/><line style="stroke:#3F51B5;stroke-width:1;" x1="40" x2="484" y1="271.2969" y2="271.2969"/><line style="stroke:#3F51B5;stroke-width:1;" x1="484" x2="484" y1="271.2969" y2="514.2969"/><text fill="#1A237E" font-family="Segoe UI" font-size="15" font-weight="bold" lengthAdjust="spacing" textLength="112.6245" x="206.6877" y="288.2202">&#128421;&#65039; Web Server</text></g><!--cluster ? Backend Servers--><g class="cluster" data-entity="&#129513; Backend Servers" data-source-line="48" data-uid="ent0009" id="cluster_&#129513; Backend Servers"><polygon fill="#E8EAF6" filter="url(#fr7qkqcvxvb4a)" points="518,421.2969,528,411.2969,903,411.2969,903,504.2969,893,514.2969,518,514.2969,518,421.2969" style="stroke:#3F51B5;stroke-width:1;"/><line style="stroke:#3F51B5;stroke-width:1;" x1="893" x2="903" y1="421.2969" y2="411.2969"/><line style="stroke:#3F51B5;stroke-width:1;" x1="518" x2="893" y1="421.2969" y2="421.2969"/><line style="stroke:#3F51B5;stroke-width:1;" x1="893" x2="893" y1="421.2969" y2="514.2969"/><text fill="#1A237E" font-family="Segoe UI" font-size="15" font-weight="bold" lengthAdjust="spacing" textLength="156.1084" x="628.4458" y="438.2202">&#129513; Backend Servers</text></g><!--entity UI--><g class="entity" data-entity="UI" data-source-line="38" data-uid="ent0003" id="entity_UI"><rect fill="#EDE7F6" filter="url(#fr7qkqcvxvb4a)" height="62.5938" rx="11" ry="11" style="stroke:#5E35B1;stroke-width:0.5;" width="193.084" x="196.5" y="84.2969"/><rect fill="#EDE7F6" height="10" style="stroke:#5E35B1;stroke-width:0.5;" width="15" x="369.584" y="89.2969"/><rect fill="#EDE7F6" height="2" style="stroke:#5E35B1;stroke-width:0.5;" width="4" x="367.584" y="91.2969"/><rect fill="#EDE7F6" height="2" style="stroke:#5E35B1;stroke-width:0.5;" width="4" x="367.584" y="95.2969"/><text fill="#311B92" font-family="Segoe UI" font-size="14" lengthAdjust="spacing" textLength="153.084" x="211.5" y="117.292">&#128717;&#65039; Web Store Interface</text><text fill="#311B92" font-family="Segoe UI" font-size="14" lengthAdjust="spacing" textLength="74.0332" x="211.5" y="133.5889">(Frontend)</text></g><!--entity ? Order Controller--><g class="entity" data-entity="&#128230; Order Controller" data-source-line="43" data-uid="ent0006" id="entity_&#128230; Order Controller"><rect fill="#EDE7F6" filter="url(#fr7qkqcvxvb4a)" height="46.2969" rx="11" ry="11" style="stroke:#5E35B1;stroke-width:0.5;" width="166.5059" x="311.5" y="302.2969"/><rect fill="#EDE7F6" height="10" style="stroke:#5E35B1;stroke-width:0.5;" width="15" x="458.0059" y="307.2969"/><rect fill="#EDE7F6" height="2" style="stroke:#5E35B1;stroke-width:0.5;" width="4" x="456.0059" y="309.2969"/><rect fill="#EDE7F6" height="2" style="stroke:#5E35B1;stroke-width:0.5;" width="4" x="456.0059" y="313.2969"/><text fill="#311B92" font-family="Segoe UI" font-size="14" lengthAdjust="spacing" textLength="126.5059" x="326.5" y="335.292">&#128230; Order Controller</text></g><!--entity ? Product Catalog Service--><g class="entity" data-entity="&#129534; Product Catalog Service" data-source-line="44" data-uid="ent0007" id="entity_&#129534; Product Catalog Service"><rect fill="#EDE7F6" filter="url(#fr7qkqcvxvb4a)" height="46.2969" rx="11" ry="11" style="stroke:#5E35B1;stroke-width:0.5;" width="220.9678" x="55.5" y="302.2969"/><rect fill="#EDE7F6" height="10" style="stroke:#5E35B1;stroke-width:0.5;" width="15" x="256.4678" y="307.2969"/><rect fill="#EDE7F6" height="2" style="stroke:#5E35B1;stroke-width:0.5;" width="4" x="254.4678" y="309.2969"/><rect fill="#EDE7F6" height="2" style="stroke:#5E35B1;stroke-width:0.5;" width="4" x="254.4678" y="313.2969"/><text fill="#311B92" font-family="Segoe UI" font-size="14" lengthAdjust="spacing" textLength="180.9678" x="70.5" y="335.292">&#129534; Product Catalog Service</text></g><!--entity ? Payment Processor--><g class="entity" data-entity="&#128179; Payment Processor" data-source-line="45" data-uid="ent0008" id="entity_&#128179; Payment Processor"><rect fill="#EDE7F6" filter="url(#fr7qkqcvxvb4a)" height="46.2969" rx="11" ry="11" style="stroke:#5E35B1;stroke-width:0.5;" width="187.2051" x="198.5" y="452.2969"/><rect fill="#EDE7F6" height="10" style="stroke:#5E35B1;stroke-width:0.5;" width="15" x="365.7051" y="457.2969"/><rect fill="#EDE7F6" height="2" style="stroke:#5E35B1;stroke-width:0.5;" width="4" x="363.7051" y="459.2969"/><rect fill="#EDE7F6" height="2" style="stroke:#5E35B1;stroke-width:0.5;" width="4" x="363.7051" y="463.2969"/><text fill="#311B92" font-family="Segoe UI" font-size="14" lengthAdjust="spacing" textLength="147.2051" x="213.5" y="485.292">&#128179; Payment Processor</text></g><!--entity DB--><g class="entity" data-entity="DB" data-source-line="49" data-uid="ent0010" id="entity_DB"><path d="M534.5,462.7969 C534.5,452.7969 605.2065,452.7969 605.2065,452.7969 C605.2065,452.7969 675.9131,452.7969 675.9131,462.7969 L675.9131,488.0938 C675.9131,498.0938 605.2065,498.0938 605.2065,498.0938 C605.2065,498.0938 534.5,498.0938 534.5,488.0938 L534.5,462.7969" fill="#D1C4E9" filter="url(#fr7qkqcvxvb4a)" style="stroke:#4527A0;stroke-width:0.5;"/><path d="M534.5,462.7969 C534.5,472.7969 605.2065,472.7969 605.2065,472.7969 C605.2065,472.7969 675.9131,472.7969 675.9131,462.7969" fill="none" style="stroke:#4527A0;stroke-width:0.5;"/><text fill="#311B92" font-family="Segoe UI" font-size="14" lengthAdjust="spacing" textLength="121.4131" x="544.5" y="489.792">&#128451;&#65039; Store Database</text></g><!--entity ? Inventory System--><g class="entity" data-entity="&#128230; Inventory System" data-source-line="50" data-uid="ent0011" id="entity_&#128230; Inventory System"><rect fill="#EDE7F6" filter="url(#fr7qkqcvxvb4a)" height="46.2969" rx="11" ry="11" style="stroke:#5E35B1;stroke-width:0.5;" width="176.377" x="711" y="452.2969"/><rect fill="#EDE7F6" height="10" style="stroke:#5E35B1;stroke-width:0.5;" width="15" x="867.377" y="457.2969"/><rect fill="#EDE7F6" height="2" style="stroke:#5E35B1;stroke-width:0.5;" width="4" x="865.377" y="459.2969"/><rect fill="#EDE7F6" height="2" style="stroke:#5E35B1;stroke-width:0.5;" width="4" x="865.377" y="463.2969"/><text fill="#311B92" font-family="Segoe UI" font-size="14" lengthAdjust="spacing" textLength="136.377" x="726" y="485.292">&#128230; Inventory System</text></g><!--link UI to ? Order Controller--><g class="link" data-entity-1="UI" data-entity-2="&#128230; Order Controller" data-source-line="54" data-uid="lnk12" id="link_UI_&#128230; Order Controller"><path d="M308.05,147.4169 C328.83,189.6869 363.1621,259.5428 381.4721,296.7728" fill="none" id="UI-to-&#128230; Order Controller" style="stroke:#5C6BC0;stroke-width:1.3;"/><polygon fill="#5C6BC0" points="384.12,302.1569,383.7375,292.3154,381.9134,297.6701,376.5587,295.846,384.12,302.1569" style="stroke:#5C6BC0;stroke-width:1.3;"/><text fill="#283593" font-family="Segoe UI" font-size="13" lengthAdjust="spacing" textLength="75.8672" x="332" y="192.3638">Place Order</text></g><!--link UI to ? Product Catalog Service--><g class="link" data-entity-1="UI" data-entity-2="&#129534; Product Catalog Service" data-source-line="55" data-uid="lnk13" id="link_UI_&#129534; Product Catalog Service"><path d="M252.99,147.4569 C242.57,156.8369 232.03,167.7569 224,179.2969 C196.76,218.4769 181.1305,266.5261 173.0405,296.3561" fill="none" id="UI-to-&#129534; Product Catalog Service" style="stroke:#5C6BC0;stroke-width:1.3;"/><polygon fill="#5C6BC0" points="171.47,302.1469,177.6863,294.5076,172.7787,297.3212,169.9652,292.4137,171.47,302.1469" style="stroke:#5C6BC0;stroke-width:1.3;"/><text fill="#283593" font-family="Segoe UI" font-size="13" lengthAdjust="spacing" textLength="91.9141" x="225" y="192.3638">View Products</text></g><!--link ? Order Controller to ? Payment Processor--><g class="link" data-entity-1="&#128230; Order Controller" data-entity-2="&#128179; Payment Processor" data-source-line="56" data-uid="lnk14" id="link_&#128230; Order Controller_&#128179; Payment Processor"><path d="M322.35,348.4069 C309.1,355.7769 296.97,365.5069 289,378.2969 C275.24,400.3769 277.8639,425.3864 283.1939,446.0864" fill="none" id="&#128230; Order Controller-to-&#128179; Payment Processor" style="stroke:#5C6BC0;stroke-width:1.3;"/><polygon fill="#5C6BC0" points="284.69,451.8969,286.3195,442.1837,283.4432,447.0548,278.5722,444.1786,284.69,451.8969" style="stroke:#5C6BC0;stroke-width:1.3;"/><text fill="#283593" font-family="Segoe UI" font-size="13" lengthAdjust="spacing" textLength="111.4585" x="290" y="391.3638">Process Payment</text></g><!--link ? Order Controller to ? Inventory System--><g class="link" data-entity-1="&#128230; Order Controller" data-entity-2="&#128230; Inventory System" data-source-line="57" data-uid="lnk15" id="link_&#128230; Order Controller_&#128230; Inventory System"><path d="M478.57,333.9269 C558.02,342.2769 671.01,357.3269 710,378.2969 C742.43,395.7369 766.0471,424.6052 781.5271,447.0852" fill="none" id="&#128230; Order Controller-to-&#128230; Inventory System" style="stroke:#5C6BC0;stroke-width:1.3;"/><polygon fill="#5C6BC0" points="784.93,452.0269,783.1201,442.3457,782.0942,447.9088,776.5312,446.883,784.93,452.0269" style="stroke:#5C6BC0;stroke-width:1.3;"/><text fill="#283593" font-family="Segoe UI" font-size="13" lengthAdjust="spacing" textLength="87.1914" x="734" y="391.3638">Update Stock</text></g><!--link ? Order Controller to DB--><g class="link" data-entity-1="&#128230; Order Controller" data-entity-2="DB" data-source-line="58" data-uid="lnk16" id="link_&#128230; Order Controller_DB"><path d="M478.62,336.4069 C509.17,343.7469 542.06,356.4269 566,378.2969 C587.39,397.8269 596.1077,424.8865 600.5177,446.6365" fill="none" id="&#128230; Order Controller-to-DB" style="stroke:#5C6BC0;stroke-width:1.3;"/><polygon fill="#5C6BC0" points="601.71,452.5169,603.8418,442.9015,600.7164,447.6166,596.0013,444.4912,601.71,452.5169" style="stroke:#5C6BC0;stroke-width:1.3;"/><text fill="#283593" font-family="Segoe UI" font-size="13" lengthAdjust="spacing" textLength="122.4146" x="579" y="391.3638">Save Order Details</text></g><!--link ? Product Catalog Service to DB--><g class="link" data-entity-1="&#129534; Product Catalog Service" data-entity-2="DB" data-source-line="59" data-uid="lnk17" id="link_&#129534; Product Catalog Service_DB"><path d="M276.58,347.2269 C327.52,357.4769 381.93,369.4869 406,378.2969 C421.12,383.8369 422.69,390.3069 438,395.2969 C461.9,403.0869 470.43,394.5469 494,403.2969 C525.31,414.9169 552.232,432.7477 573.692,449.0477" fill="none" id="&#129534; Product Catalog Service-to-DB" style="stroke:#5C6BC0;stroke-width:1.3;"/><polygon fill="#5C6BC0" points="578.47,452.6769,573.7224,444.0478,574.4883,449.6526,568.8836,450.4185,578.47,452.6769" style="stroke:#5C6BC0;stroke-width:1.3;"/><text fill="#283593" font-family="Segoe UI" font-size="13" lengthAdjust="spacing" textLength="118.7012" x="439" y="391.3638">Fetch Product Info</text></g><!--SRC=[dLDDZn914BtpAogO-770x02pW0UJ1KB2HKb6rekNdfuQcD1qavuU21eJerTHWud6x65FIZnxyUIFsJ_W_WHhXe4TM3uIBvDqrUltNhsUkWVNb_CFu0Z40JIK4b0N4S9TE0-KG0CTHb-3K83dw1RgB4GFdceFDNIquXY6WUo1CmqD3dCcC0A9xs9-70ndclS3Wzn46dEvS1384TDi22xZWvvMaVGQIYWDT_ogptm_WmZxp5EJcChe23EDv1PNMf9WiPXfd6cj9YcTpKzTVhBTVDOF-42IGx0UbZ9D3tqM2TDIqgJtYzMINTi3USA627a7UmgXsyvdnvBAGtYL0wXlpuTLPFvft55nL6crvDkMQrCr8ssnOgc2QSq9NY9OAuHZfXIzguH71MSpeDTP7rmDHqgYD7lCU5YvRSR6akrQcsPAbkNMYXjcoaUqFMQOIp_5RcdFucMiRKkNxMA5dVodT19w_lfoCRjwCxlwzlRlxu_GY4AZXlI7rEdPGzJvnCrDB0I_cCL0-eN1CKeZjAL1xJEEB-JzbYPDbDw3FB2G7Zahy_xJ4YhHB5bNZI_VruIenolDBTNFFz9TQP22La8GxZPgyIVU9I_Y1XeKfr2zX3FWk0Cy_qNxEnt6ftG1LS99dc_CBNucRq4pfUx2bRtrUn7gwxjuX6KUpRIUHD2ixnobBSTqK7gQxljIbeIxRIWK7kyR61v1Hr3Ioqu6V61kkdCUu6JL3tFxk5EgdQd4mil3gdcCPjUGnD8TKMmO9yK71ocQTK8xR9pE2aqqB129-qF3hg-sqF3-6jUMlle7]--></g></svg>