<svg xmlns="http://www.w3.org/2000/svg" xmlns:xlink="http://www.w3.org/1999/xlink" contentStyleType="text/css" data-diagram-type="DESCRIPTION" height="554px" preserveAspectRatio="none" style="width:822px;height:554px;background:#F9FBFA;" version="1.1" viewBox="0 0 822 554" width="822px" zoomAndPan="magnify"><title>&#127891; Network-Based Course Registration System Architecture</title><defs><filter height="300%" id="f1ee5ej73186fa" width="300%" x="-1" y="-1"><feGaussianBlur result="blurOut" stdDeviation="2"/><feColorMatrix in="blurOut" result="blurOut2" type="matrix" values="0 0 0 0 0 0 0 0 0 0 0 0 0 0 0 0 0 0 .4 0"/><feOffset dx="4" dy="4" in="blurOut2" result="blurOut3"/><feBlend in="SourceGraphic" in2="blurOut3" mode="normal"/></filter></defs><g><rect fill="#F9FBFA" height="554" style="stroke:none;stroke-width:1;" width="822" x="0" y="0"/><g class="title" data-source-line="2"><text fill="#2E4053" font-family="Segoe UI" font-size="14" font-weight="bold" lengthAdjust="spacing" textLength="462.0273" x="172.9863" y="22.9951">&#127891; Network-Based Course Registration System Architecture</text></g><!--cluster ? Client Devices--><g class="cluster" data-entity="&#128187; Client Devices" data-source-line="37" data-uid="ent0002" id="cluster_&#128187; Client Devices"><polygon fill="#E3F2FD" filter="url(#f1ee5ej73186fa)" points="106,53.2969,116,43.2969,484,43.2969,484,153.2969,474,163.2969,106,163.2969,106,53.2969" style="stroke:#0277BD;stroke-width:1;"/><line style="stroke:#0277BD;stroke-width:1;" x1="474" x2="484" y1="53.2969" y2="43.2969"/><line style="stroke:#0277BD;stroke-width:1;" x1="106" x2="474" y1="53.2969" y2="53.2969"/><line style="stroke:#0277BD;stroke-width:1;" x1="474" x2="474" y1="53.2969" y2="163.2969"/><text fill="#01579B" font-family="Segoe UI" font-size="15" font-weight="bold" lengthAdjust="spacing" textLength="140.2954" x="220.8523" y="70.2202">&#128187; Client Devices</text></g><!--cluster ? University Network--><g class="cluster" data-entity="&#127979; University Network" data-source-line="42" data-uid="ent0005" id="cluster_&#127979; University Network"><polygon fill="#E3F2FD" filter="url(#f1ee5ej73186fa)" points="16,222.2969,26,212.2969,805,212.2969,805,527.7969,795,537.7969,16,537.7969,16,222.2969" style="stroke:#0277BD;stroke-width:1;"/><line style="stroke:#0277BD;stroke-width:1;" x1="795" x2="805" y1="222.2969" y2="212.2969"/><line style="stroke:#0277BD;stroke-width:1;" x1="16" x2="795" y1="222.2969" y2="222.2969"/><line style="stroke:#0277BD;stroke-width:1;" x1="795" x2="795" y1="222.2969" y2="537.7969"/><text fill="#01579B" font-family="Segoe UI" font-size="15" font-weight="bold" lengthAdjust="spacing" textLength="177.2461" x="317.877" y="239.2202">&#127979; University Network</text></g><!--cluster ?? Application Server--><g class="cluster" data-entity="&#9881;&#65039; Application Server" data-source-line="43" data-uid="ent0006" id="cluster_&#9881;&#65039; Application Server"><polygon fill="#E3F2FD" filter="url(#f1ee5ej73186fa)" points="40,271.2969,50,261.2969,527,261.2969,527,503.7969,517,513.7969,40,513.7969,40,271.2969" style="stroke:#0277BD;stroke-width:1;"/><line style="stroke:#0277BD;stroke-width:1;" x1="517" x2="527" y1="271.2969" y2="261.2969"/><line style="stroke:#0277BD;stroke-width:1;" x1="40" x2="517" y1="271.2969" y2="271.2969"/><line style="stroke:#0277BD;stroke-width:1;" x1="517" x2="517" y1="271.2969" y2="513.7969"/><text fill="#01579B" font-family="Segoe UI" font-size="15" font-weight="bold" lengthAdjust="spacing" textLength="175.2905" x="191.8547" y="288.2202">&#9881;&#65039; Application Server</text></g><!--cluster ?? Database Server--><g class="cluster" data-entity="&#128452;&#65039; Database Server" data-source-line="49" data-uid="ent0010" id="cluster_&#128452;&#65039; Database Server"><polygon fill="#E3F2FD" filter="url(#f1ee5ej73186fa)" points="551,421.2969,561,411.2969,781,411.2969,781,503.2969,771,513.2969,551,513.2969,551,421.2969" style="stroke:#0277BD;stroke-width:1;"/><line style="stroke:#0277BD;stroke-width:1;" x1="771" x2="781" y1="421.2969" y2="411.2969"/><line style="stroke:#0277BD;stroke-width:1;" x1="551" x2="771" y1="421.2969" y2="421.2969"/><line style="stroke:#0277BD;stroke-width:1;" x1="771" x2="771" y1="421.2969" y2="513.2969"/><text fill="#01579B" font-family="Segoe UI" font-size="15" font-weight="bold" lengthAdjust="spacing" textLength="154.9951" x="584.5024" y="438.2202">&#128452;&#65039; Database Server</text></g><!--entity UI1--><g class="entity" data-entity="UI1" data-source-line="38" data-uid="ent0003" id="entity_UI1"><rect fill="#E8F5E9" filter="url(#f1ee5ej73186fa)" height="62.5938" rx="12.5" ry="12.5" style="stroke:#2E7D32;stroke-width:0.5;" width="153.1348" x="122.5" y="84.2969"/><rect fill="#E8F5E9" height="10" style="stroke:#2E7D32;stroke-width:0.5;" width="15" x="255.6348" y="89.2969"/><rect fill="#E8F5E9" height="2" style="stroke:#2E7D32;stroke-width:0.5;" width="4" x="253.6348" y="91.2969"/><rect fill="#E8F5E9" height="2" style="stroke:#2E7D32;stroke-width:0.5;" width="4" x="253.6348" y="95.2969"/><text fill="#1B5E20" font-family="Segoe UI" font-size="14" lengthAdjust="spacing" textLength="113.1348" x="137.5" y="117.292">&#127891; Student Portal</text><text fill="#1B5E20" font-family="Segoe UI" font-size="14" lengthAdjust="spacing" textLength="61.0928" x="137.5" y="133.5889">(Web UI)</text></g><!--entity UI2--><g class="entity" data-entity="UI2" data-source-line="39" data-uid="ent0004" id="entity_UI2"><rect fill="#E8F5E9" filter="url(#f1ee5ej73186fa)" height="62.5938" rx="12.5" ry="12.5" style="stroke:#2E7D32;stroke-width:0.5;" width="157.291" x="310.5" y="84.2969"/><rect fill="#E8F5E9" height="10" style="stroke:#2E7D32;stroke-width:0.5;" width="15" x="447.791" y="89.2969"/><rect fill="#E8F5E9" height="2" style="stroke:#2E7D32;stroke-width:0.5;" width="4" x="445.791" y="91.2969"/><rect fill="#E8F5E9" height="2" style="stroke:#2E7D32;stroke-width:0.5;" width="4" x="445.791" y="95.2969"/><text fill="#1B5E20" font-family="Segoe UI" font-size="14" lengthAdjust="spacing" textLength="117.291" x="325.5" y="117.292">&#128104;&#8205;&#127979; Faculty Portal</text><text fill="#1B5E20" font-family="Segoe UI" font-size="14" lengthAdjust="spacing" textLength="61.0928" x="325.5" y="133.5889">(Web UI)</text></g><!--entity ? Registration Manager--><g class="entity" data-entity="&#129517; Registration Manager" data-source-line="44" data-uid="ent0007" id="entity_&#129517; Registration Manager"><rect fill="#E8F5E9" filter="url(#f1ee5ej73186fa)" height="46.2969" rx="12.5" ry="12.5" style="stroke:#2E7D32;stroke-width:0.5;" width="203.7207" x="56" y="302.2969"/><rect fill="#E8F5E9" height="10" style="stroke:#2E7D32;stroke-width:0.5;" width="15" x="239.7207" y="307.2969"/><rect fill="#E8F5E9" height="2" style="stroke:#2E7D32;stroke-width:0.5;" width="4" x="237.7207" y="309.2969"/><rect fill="#E8F5E9" height="2" style="stroke:#2E7D32;stroke-width:0.5;" width="4" x="237.7207" y="313.2969"/><text fill="#1B5E20" font-family="Segoe UI" font-size="14" lengthAdjust="spacing" textLength="163.7207" x="71" y="335.292">&#129517; Registration Manager</text></g><!--entity ? Course Catalog Service--><g class="entity" data-entity="&#128218; Course Catalog Service" data-source-line="45" data-uid="ent0008" id="entity_&#128218; Course Catalog Service"><rect fill="#E8F5E9" filter="url(#f1ee5ej73186fa)" height="46.2969" rx="12.5" ry="12.5" style="stroke:#2E7D32;stroke-width:0.5;" width="216.1348" x="295" y="302.2969"/><rect fill="#E8F5E9" height="10" style="stroke:#2E7D32;stroke-width:0.5;" width="15" x="491.1348" y="307.2969"/><rect fill="#E8F5E9" height="2" style="stroke:#2E7D32;stroke-width:0.5;" width="4" x="489.1348" y="309.2969"/><rect fill="#E8F5E9" height="2" style="stroke:#2E7D32;stroke-width:0.5;" width="4" x="489.1348" y="313.2969"/><text fill="#1B5E20" font-family="Segoe UI" font-size="14" lengthAdjust="spacing" textLength="176.1348" x="310" y="335.292">&#128218; Course Catalog Service</text></g><!--entity ? Authentication Service--><g class="entity" data-entity="&#128272; Authentication Service" data-source-line="46" data-uid="ent0009" id="entity_&#128272; Authentication Service"><rect fill="#E8F5E9" filter="url(#f1ee5ej73186fa)" height="46.2969" rx="12.5" ry="12.5" style="stroke:#2E7D32;stroke-width:0.5;" width="211.8145" x="56" y="451.7969"/><rect fill="#E8F5E9" height="10" style="stroke:#2E7D32;stroke-width:0.5;" width="15" x="247.8145" y="456.7969"/><rect fill="#E8F5E9" height="2" style="stroke:#2E7D32;stroke-width:0.5;" width="4" x="245.8145" y="458.7969"/><rect fill="#E8F5E9" height="2" style="stroke:#2E7D32;stroke-width:0.5;" width="4" x="245.8145" y="462.7969"/><text fill="#1B5E20" font-family="Segoe UI" font-size="14" lengthAdjust="spacing" textLength="171.8145" x="71" y="484.792">&#128272; Authentication Service</text></g><!--entity DB--><g class="entity" data-entity="DB" data-source-line="50" data-uid="ent0011" id="entity_DB"><path d="M567,462.2969 C567,452.2969 631.1543,452.2969 631.1543,452.2969 C631.1543,452.2969 695.3086,452.2969 695.3086,462.2969 L695.3086,487.5938 C695.3086,497.5938 631.1543,497.5938 631.1543,497.5938 C631.1543,497.5938 567,497.5938 567,487.5938 L567,462.2969" fill="#FFF9C4" filter="url(#f1ee5ej73186fa)" style="stroke:#FBC02D;stroke-width:0.5;"/><path d="M567,462.2969 C567,472.2969 631.1543,472.2969 631.1543,472.2969 C631.1543,472.2969 695.3086,472.2969 695.3086,462.2969" fill="none" style="stroke:#FBC02D;stroke-width:0.5;"/><text fill="#795548" font-family="Segoe UI" font-size="14" lengthAdjust="spacing" textLength="108.3086" x="577" y="489.292">&#127979; University DB</text></g><!--link UI1 to ? Registration Manager--><g class="link" data-entity-1="UI1" data-entity-2="&#129517; Registration Manager" data-source-line="54" data-uid="lnk12" id="link_UI1_&#129517; Registration Manager"><path d="M192.95,147.4169 C184.6,189.6869 170.8936,259.0408 163.5336,296.2708" fill="none" id="UI1-to-&#129517; Registration Manager" style="stroke:#4A6572;stroke-width:1.3;"/><polygon fill="#4A6572" points="162.37,302.1569,168.0395,294.1035,163.3397,297.2518,160.1914,292.552,162.37,302.1569" style="stroke:#4A6572;stroke-width:1.3;"/><text fill="#2E4053" font-family="Segoe UI" font-size="13" lengthAdjust="spacing" textLength="129.2256" x="187" y="192.3638">Submit Registration</text></g><!--link UI2 to ? Course Catalog Service--><g class="link" data-entity-1="UI2" data-entity-2="&#128218; Course Catalog Service" data-source-line="55" data-uid="lnk13" id="link_UI2_&#128218; Course Catalog Service"><path d="M391.07,147.4169 C393.92,189.6869 398.5848,258.9406 401.1048,296.1706" fill="none" id="UI2-to-&#128218; Course Catalog Service" style="stroke:#4A6572;stroke-width:1.3;"/><polygon fill="#4A6572" points="401.51,302.1569,404.8931,292.9073,401.1723,297.1683,396.9113,293.4476,401.51,302.1569" style="stroke:#4A6572;stroke-width:1.3;"/><text fill="#2E4053" font-family="Segoe UI" font-size="13" lengthAdjust="spacing" textLength="107.9292" x="395" y="192.3638">Manage Courses</text></g><!--link ? Registration Manager to ? Authentication Service--><g class="link" data-entity-1="&#129517; Registration Manager" data-entity-2="&#128272; Authentication Service" data-source-line="56" data-uid="lnk14" id="link_&#129517; Registration Manager_&#128272; Authentication Service"><path d="M158.6,348.3769 C159.35,376.1869 160.4765,417.6891 161.2365,445.5691" fill="none" id="&#129517; Registration Manager-to-&#128272; Authentication Service" style="stroke:#4A6572;stroke-width:1.3;"/><polygon fill="#4A6572" points="161.4,451.5669,165.1533,442.4612,161.2638,446.5687,157.1562,442.6792,161.4,451.5669" style="stroke:#4A6572;stroke-width:1.3;"/><text fill="#2E4053" font-family="Segoe UI" font-size="13" lengthAdjust="spacing" textLength="77.5493" x="161" y="391.3638">Verify Login</text></g><!--link ? Registration Manager to DB--><g class="link" data-entity-1="&#129517; Registration Manager" data-entity-2="DB" data-source-line="57" data-uid="lnk15" id="link_&#129517; Registration Manager_DB"><path d="M208.43,348.3069 C248.01,364.4569 304.94,385.2669 357,395.2969 C394.14,402.4569 491.12,391.3469 527,403.2969 C557.63,413.4969 583.012,431.6004 602.852,448.3204" fill="none" id="&#129517; Registration Manager-to-DB" style="stroke:#4A6572;stroke-width:1.3;"/><polygon fill="#4A6572" points="607.44,452.1869,603.1356,443.3284,603.6166,448.9648,597.9803,449.4458,607.44,452.1869" style="stroke:#4A6572;stroke-width:1.3;"/><text fill="#2E4053" font-family="Segoe UI" font-size="13" lengthAdjust="spacing" textLength="152.9277" x="358" y="391.3638">Store Registration Data</text></g><!--link ? Course Catalog Service to DB--><g class="link" data-entity-1="&#128218; Course Catalog Service" data-entity-2="DB" data-source-line="58" data-uid="lnk16" id="link_&#128218; Course Catalog Service_DB"><path d="M460.72,348.3169 C479.87,356.6169 500.9,366.8569 519,378.2969 C553.13,399.8669 583.4749,427.028 605.0149,447.838" fill="none" id="&#128218; Course Catalog Service-to-DB" style="stroke:#4A6572;stroke-width:1.3;"/><polygon fill="#4A6572" points="609.33,452.0069,605.6366,442.8768,605.7341,448.5328,600.078,448.6303,609.33,452.0069" style="stroke:#4A6572;stroke-width:1.3;"/><text fill="#2E4053" font-family="Segoe UI" font-size="13" lengthAdjust="spacing" textLength="160.8496" x="543" y="391.3638">Update/View Course Info</text></g><!--SRC=[ZLHDRzD04BtxLupC0JW44ZV63GUaVAYY4bGLRig5ozgUTLPnTgFrkb6ea3Xm10eK2T5BZY0XxaWS-2_z0-Gdi7RiOhjDsfErE-_Dl7cpuzkmNBpz0y-GCeu1z8M86WU28poUUv85i4yYL0gX0NkePaAE6pqIPy14ngXv8OkL98e93kuyLZWn55CHwhJlJs_CWQxqHqoXhnA9XX6F6PyIIIRW4NySIf7me2yY8U4MxL2FaX8Y7f50p1WFGSa4Iu6CvGl9KO9bbm9TASKiJzSc3sp7gWSFHimVSunZQDtRAWK3f2I9r8xWAkTRs6xQQo1xP89WkXWAXE6kMMwBYm3Xs03erVl3BMhH88q86Q3CRvkMutZfRQbqisKx7I-_SzbBX9PTdDHSJy0JKKfngmQzAklmnMIgXytL6Z7RrCPENOo5Jh1bLSMqF1kjPaLC-vhQ0L74q-_YwjAKqexVhfUcdj-qQZuu7TjkRz-WT6QwkLny-WtzYALD3_28-HYRcOJ_NfZPstLL4gIdVI4LYLxmEy_HqtEyQmA9zRTLftpyVlxwtN9nyWDsYA-Vm7mTqogBqV0XPqSeOwOP-Rwi1AqWvsTV__uwWUvq6Z4_tncKch02rKHy-rbThwU4ar1ZBoDFpufzxEj1H2BCqcexhi1-_W3TH8tqgImXn-fc2gtBnPStgTX1CTggqek9N-fxqCky6VIoV3gZzXSQZKURMeA7u2RUXAbAM3EjWhc-HSrTfSa1iR6fK9vklGiwtI5AHkVmH8ICNvjiq4l5Ao5hFyFKDsEpy0lwSAhjnFk736S5U9TJyGy0]--></g></svg>