<svg xmlns="http://www.w3.org/2000/svg" xmlns:xlink="http://www.w3.org/1999/xlink" contentStyleType="text/css" data-diagram-type="CLASS" height="1286px" preserveAspectRatio="none" style="width:979px;height:1286px;background:#F5F7FA;" version="1.1" viewBox="0 0 979 1286" width="979px" zoomAndPan="magnify"><title>&#128737;&#65039; Security and Privacy Protection - Class Diagram (Structured View)</title><defs><filter height="300%" id="f16k7vz6qkciiz" width="300%" x="-1" y="-1"><feGaussianBlur result="blurOut" stdDeviation="2"/><feColorMatrix in="blurOut" result="blurOut2" type="matrix" values="0 0 0 0 0 0 0 0 0 0 0 0 0 0 0 0 0 0 .4 0"/><feOffset dx="4" dy="4" in="blurOut2" result="blurOut3"/><feBlend in="SourceGraphic" in2="blurOut3" mode="normal"/></filter></defs><g><rect fill="#F5F7FA" height="1286" style="stroke:none;stroke-width:1;" width="979" x="0" y="0"/><g class="title" data-source-line="2"><text fill="#283593" font-family="sans-serif" font-size="22" font-weight="bold" lengthAdjust="spacing" textLength="843.9922" x="60.9014" y="30.4209">&#128737;&#65039; Security and Privacy Protection - Class Diagram (Structured View)</text></g><!--class SecurityEngine--><g class="entity" data-entity="SecurityEngine" data-source-line="30" data-uid="ent0002" id="entity_SecurityEngine"><rect fill="#E8EAF6" filter="url(#f16k7vz6qkciiz)" height="113.1875" rx="11" ry="11" style="stroke:#5C6BC0;stroke-width:0.5;" width="327.9912" x="205" y="243.6094"/><ellipse cx="305.1567" cy="259.6094" fill="#A9DCDF" rx="11" ry="11" style="stroke:#181818;stroke-width:1;"/><path d="M305.2661,254.9531 L304.1099,260.0313 L306.438,260.0313 L305.2661,254.9531 Z M303.7817,252.7188 L306.7661,252.7188 L310.1255,265.1094 L307.6724,265.1094 L306.9067,262.0469 L303.6255,262.0469 L302.8755,265.1094 L300.438,265.1094 L303.7817,252.7188 Z " fill="#000000"/><text fill="#1A237E" font-family="sans-serif" font-size="14" font-style="italic" font-weight="bold" lengthAdjust="spacing" textLength="119.1777" x="325.6567" y="264.4561">SecurityEngine</text><line style="stroke:#5C6BC0;stroke-width:0.5;" x1="206" x2="531.9912" y1="275.6094" y2="275.6094"/><line style="stroke:#5C6BC0;stroke-width:0.5;" x1="206" x2="531.9912" y1="283.6094" y2="283.6094"/><ellipse cx="216" cy="297.2578" fill="#84BE84" rx="3" ry="3" style="stroke:#038048;stroke-width:1;"/><text fill="#000000" font-family="sans-serif" font-size="14" lengthAdjust="spacing" textLength="214.498" x="225" y="300.6045">detectThreat(data: Data): void</text><ellipse cx="216" cy="313.5547" fill="#84BE84" rx="3" ry="3" style="stroke:#038048;stroke-width:1;"/><text fill="#000000" font-family="sans-serif" font-size="14" lengthAdjust="spacing" textLength="301.9912" x="225" y="316.9014">respondToIncident(incident: Incident): void</text><ellipse cx="216" cy="329.8516" fill="#84BE84" rx="3" ry="3" style="stroke:#038048;stroke-width:1;"/><text fill="#000000" font-family="sans-serif" font-size="14" lengthAdjust="spacing" textLength="299.2227" x="225" y="333.1982">updateThreatModel(info: ThreatIntel): void</text><ellipse cx="216" cy="346.1484" fill="#84BE84" rx="3" ry="3" style="stroke:#038048;stroke-width:1;"/><text fill="#000000" font-family="sans-serif" font-size="14" lengthAdjust="spacing" textLength="177.5908" x="225" y="349.4951">generateReport(): Report</text></g><!--class AuthenticationManager--><g class="entity" data-entity="AuthenticationManager" data-source-line="37" data-uid="ent0003" id="entity_AuthenticationManager"><rect fill="#EDE7F6" filter="url(#f16k7vz6qkciiz)" height="113.1875" rx="11" ry="11" style="stroke:#5C6BC0;stroke-width:0.5;" width="419.6543" x="7" y="433.6094"/><ellipse cx="119.3521" cy="449.6094" fill="#ADD1B2" rx="11" ry="11" style="stroke:#181818;stroke-width:1;"/><path d="M122.3208,455.25 Q121.7427,455.5469 121.1021,455.6875 Q120.4614,455.8438 119.7583,455.8438 Q117.2583,455.8438 115.9302,454.2031 Q114.6177,452.5469 114.6177,449.4219 Q114.6177,446.2969 115.9302,444.6406 Q117.2583,442.9844 119.7583,442.9844 Q120.4614,442.9844 121.1021,443.1406 Q121.7583,443.2969 122.3208,443.5938 L122.3208,446.3125 Q121.6958,445.7344 121.1021,445.4688 Q120.5083,445.1875 119.8833,445.1875 Q118.5396,445.1875 117.8521,446.2656 Q117.1646,447.3281 117.1646,449.4219 Q117.1646,451.5156 117.8521,452.5938 Q118.5396,453.6563 119.8833,453.6563 Q120.5083,453.6563 121.1021,453.3906 Q121.6958,453.1094 122.3208,452.5313 L122.3208,455.25 Z " fill="#000000"/><text fill="#1A237E" font-family="sans-serif" font-size="14" font-weight="bold" lengthAdjust="spacing" textLength="186.4502" x="139.8521" y="454.4561">AuthenticationManager</text><line style="stroke:#5C6BC0;stroke-width:0.5;" x1="8" x2="425.6543" y1="465.6094" y2="465.6094"/><rect fill="none" height="6" style="stroke:#C82930;stroke-width:1;" width="6" x="15" y="476.2578"/><text fill="#000000" font-family="sans-serif" font-size="14" lengthAdjust="spacing" textLength="148.9072" x="27" y="482.6045">userCredentials: Map</text><line style="stroke:#5C6BC0;stroke-width:0.5;" x1="8" x2="425.6543" y1="489.9063" y2="489.9063"/><ellipse cx="18" cy="503.5547" fill="#84BE84" rx="3" ry="3" style="stroke:#038048;stroke-width:1;"/><text fill="#000000" font-family="sans-serif" font-size="14" lengthAdjust="spacing" textLength="393.6543" x="27" y="506.9014">verifyCredentials(user: User, password: String): boolean</text><ellipse cx="18" cy="519.8516" fill="#84BE84" rx="3" ry="3" style="stroke:#038048;stroke-width:1;"/><text fill="#000000" font-family="sans-serif" font-size="14" lengthAdjust="spacing" textLength="240.5498" x="27" y="523.1982">generateToken(user: User): Token</text><ellipse cx="18" cy="536.1484" fill="#84BE84" rx="3" ry="3" style="stroke:#038048;stroke-width:1;"/><text fill="#000000" font-family="sans-serif" font-size="14" lengthAdjust="spacing" textLength="237.3574" x="27" y="539.4951">revokeAccess(token: Token): void</text></g><!--class EncryptionModule--><g class="entity" data-entity="EncryptionModule" data-source-line="44" data-uid="ent0004" id="entity_EncryptionModule"><rect fill="#E3F2FD" filter="url(#f16k7vz6qkciiz)" height="113.1875" rx="11" ry="11" style="stroke:#5C6BC0;stroke-width:0.5;" width="318.1611" x="462" y="433.6094"/><ellipse cx="545.436" cy="449.6094" fill="#ADD1B2" rx="11" ry="11" style="stroke:#181818;stroke-width:1;"/><path d="M548.4048,455.25 Q547.8267,455.5469 547.186,455.6875 Q546.5454,455.8438 545.8423,455.8438 Q543.3423,455.8438 542.0142,454.2031 Q540.7017,452.5469 540.7017,449.4219 Q540.7017,446.2969 542.0142,444.6406 Q543.3423,442.9844 545.8423,442.9844 Q546.5454,442.9844 547.186,443.1406 Q547.8423,443.2969 548.4048,443.5938 L548.4048,446.3125 Q547.7798,445.7344 547.186,445.4688 Q546.5923,445.1875 545.9673,445.1875 Q544.6235,445.1875 543.936,446.2656 Q543.2485,447.3281 543.2485,449.4219 Q543.2485,451.5156 543.936,452.5938 Q544.6235,453.6563 545.9673,453.6563 Q546.5923,453.6563 547.186,453.3906 Q547.7798,453.1094 548.4048,452.5313 L548.4048,455.25 Z " fill="#000000"/><text fill="#1A237E" font-family="sans-serif" font-size="14" font-weight="bold" lengthAdjust="spacing" textLength="142.7891" x="565.936" y="454.4561">EncryptionModule</text><line style="stroke:#5C6BC0;stroke-width:0.5;" x1="463" x2="779.1611" y1="465.6094" y2="465.6094"/><rect fill="none" height="6" style="stroke:#C82930;stroke-width:1;" width="6" x="470" y="476.2578"/><text fill="#000000" font-family="sans-serif" font-size="14" lengthAdjust="spacing" textLength="172.6348" x="482" y="482.6045">keyStore: KeyRepository</text><line style="stroke:#5C6BC0;stroke-width:0.5;" x1="463" x2="779.1611" y1="489.9063" y2="489.9063"/><ellipse cx="473" cy="503.5547" fill="#84BE84" rx="3" ry="3" style="stroke:#038048;stroke-width:1;"/><text fill="#000000" font-family="sans-serif" font-size="14" lengthAdjust="spacing" textLength="252.5811" x="482" y="506.9014">encrypt(data: Data): EncryptedData</text><ellipse cx="473" cy="519.8516" fill="#84BE84" rx="3" ry="3" style="stroke:#038048;stroke-width:1;"/><text fill="#000000" font-family="sans-serif" font-size="14" lengthAdjust="spacing" textLength="292.1611" x="482" y="523.1982">decrypt(encrypted: EncryptedData): Data</text><ellipse cx="473" cy="536.1484" fill="#84BE84" rx="3" ry="3" style="stroke:#038048;stroke-width:1;"/><text fill="#000000" font-family="sans-serif" font-size="14" lengthAdjust="spacing" textLength="125.583" x="482" y="539.4951">rotateKeys(): void</text></g><!--class FirewallController--><g class="entity" data-entity="FirewallController" data-source-line="51" data-uid="ent0005" id="entity_FirewallController"><rect fill="#C5CAE9" filter="url(#f16k7vz6qkciiz)" height="113.1875" rx="11" ry="11" style="stroke:#5C6BC0;stroke-width:0.5;" width="316.8281" x="591.5" y="623.6094"/><ellipse cx="674.7583" cy="639.6094" fill="#ADD1B2" rx="11" ry="11" style="stroke:#181818;stroke-width:1;"/><path d="M677.7271,645.25 Q677.1489,645.5469 676.5083,645.6875 Q675.8677,645.8438 675.1646,645.8438 Q672.6646,645.8438 671.3364,644.2031 Q670.0239,642.5469 670.0239,639.4219 Q670.0239,636.2969 671.3364,634.6406 Q672.6646,632.9844 675.1646,632.9844 Q675.8677,632.9844 676.5083,633.1406 Q677.1646,633.2969 677.7271,633.5938 L677.7271,636.3125 Q677.1021,635.7344 676.5083,635.4688 Q675.9146,635.1875 675.2896,635.1875 Q673.9458,635.1875 673.2583,636.2656 Q672.5708,637.3281 672.5708,639.4219 Q672.5708,641.5156 673.2583,642.5938 Q673.9458,643.6563 675.2896,643.6563 Q675.9146,643.6563 676.5083,643.3906 Q677.1021,643.1094 677.7271,642.5313 L677.7271,645.25 Z " fill="#000000"/><text fill="#1A237E" font-family="sans-serif" font-size="14" font-weight="bold" lengthAdjust="spacing" textLength="141.8115" x="695.2583" y="644.4561">FirewallController</text><line style="stroke:#5C6BC0;stroke-width:0.5;" x1="592.5" x2="907.3281" y1="655.6094" y2="655.6094"/><rect fill="none" height="6" style="stroke:#C82930;stroke-width:1;" width="6" x="599.5" y="666.2578"/><text fill="#000000" font-family="sans-serif" font-size="14" lengthAdjust="spacing" textLength="122.6299" x="611.5" y="672.6045">rules: List&lt;Rule&gt;</text><line style="stroke:#5C6BC0;stroke-width:0.5;" x1="592.5" x2="907.3281" y1="679.9063" y2="679.9063"/><ellipse cx="602.5" cy="693.5547" fill="#84BE84" rx="3" ry="3" style="stroke:#038048;stroke-width:1;"/><text fill="#000000" font-family="sans-serif" font-size="14" lengthAdjust="spacing" textLength="144.4502" x="611.5" y="696.9014">monitorTraffic(): Log</text><ellipse cx="602.5" cy="709.8516" fill="#84BE84" rx="3" ry="3" style="stroke:#038048;stroke-width:1;"/><text fill="#000000" font-family="sans-serif" font-size="14" lengthAdjust="spacing" textLength="290.8281" x="611.5" y="713.1982">blockSuspicious(packet: Packet): boolean</text><ellipse cx="602.5" cy="726.1484" fill="#84BE84" rx="3" ry="3" style="stroke:#038048;stroke-width:1;"/><text fill="#000000" font-family="sans-serif" font-size="14" lengthAdjust="spacing" textLength="197.5518" x="611.5" y="729.4951">updateRule(rule: Rule): void</text></g><!--class AccessControl--><g class="entity" data-entity="AccessControl" data-source-line="58" data-uid="ent0006" id="entity_AccessControl"><rect fill="#D1C4E9" filter="url(#f16k7vz6qkciiz)" height="96.8906" rx="11" ry="11" style="stroke:#5C6BC0;stroke-width:0.5;" width="435.2949" x="532.5" y="813.6094"/><ellipse cx="690.1641" cy="829.6094" fill="#ADD1B2" rx="11" ry="11" style="stroke:#181818;stroke-width:1;"/><path d="M693.1328,835.25 Q692.5547,835.5469 691.9141,835.6875 Q691.2734,835.8438 690.5703,835.8438 Q688.0703,835.8438 686.7422,834.2031 Q685.4297,832.5469 685.4297,829.4219 Q685.4297,826.2969 686.7422,824.6406 Q688.0703,822.9844 690.5703,822.9844 Q691.2734,822.9844 691.9141,823.1406 Q692.5703,823.2969 693.1328,823.5938 L693.1328,826.3125 Q692.5078,825.7344 691.9141,825.4688 Q691.3203,825.1875 690.6953,825.1875 Q689.3516,825.1875 688.6641,826.2656 Q687.9766,827.3281 687.9766,829.4219 Q687.9766,831.5156 688.6641,832.5938 Q689.3516,833.6563 690.6953,833.6563 Q691.3203,833.6563 691.9141,833.3906 Q692.5078,833.1094 693.1328,832.5313 L693.1328,835.25 Z " fill="#000000"/><text fill="#1A237E" font-family="sans-serif" font-size="14" font-weight="bold" lengthAdjust="spacing" textLength="111.4668" x="710.6641" y="834.4561">AccessControl</text><line style="stroke:#5C6BC0;stroke-width:0.5;" x1="533.5" x2="966.7949" y1="845.6094" y2="845.6094"/><rect fill="none" height="6" style="stroke:#C82930;stroke-width:1;" width="6" x="540.5" y="856.2578"/><text fill="#000000" font-family="sans-serif" font-size="14" lengthAdjust="spacing" textLength="172.3818" x="552.5" y="862.6045">accessPolicies: PolicySet</text><line style="stroke:#5C6BC0;stroke-width:0.5;" x1="533.5" x2="966.7949" y1="869.9063" y2="869.9063"/><ellipse cx="543.5" cy="883.5547" fill="#84BE84" rx="3" ry="3" style="stroke:#038048;stroke-width:1;"/><text fill="#000000" font-family="sans-serif" font-size="14" lengthAdjust="spacing" textLength="409.2949" x="552.5" y="886.9014">checkPermission(user: User, resource: Resource): boolean</text><ellipse cx="543.5" cy="899.8516" fill="#84BE84" rx="3" ry="3" style="stroke:#038048;stroke-width:1;"/><text fill="#000000" font-family="sans-serif" font-size="14" lengthAdjust="spacing" textLength="230.9658" x="552.5" y="903.1982">updatePolicy(policy: Policy): void</text></g><!--class PrivacyAuditor--><g class="entity" data-entity="PrivacyAuditor" data-source-line="64" data-uid="ent0007" id="entity_PrivacyAuditor"><rect fill="#C8E6C9" filter="url(#f16k7vz6qkciiz)" height="113.1875" rx="11" ry="11" style="stroke:#5C6BC0;stroke-width:0.5;" width="237.3262" x="631.5" y="987.6094"/><ellipse cx="687.5137" cy="1003.6094" fill="#ADD1B2" rx="11" ry="11" style="stroke:#181818;stroke-width:1;"/><path d="M690.4824,1009.25 Q689.9043,1009.5469 689.2637,1009.6875 Q688.623,1009.8438 687.9199,1009.8438 Q685.4199,1009.8438 684.0918,1008.2031 Q682.7793,1006.5469 682.7793,1003.4219 Q682.7793,1000.2969 684.0918,998.6406 Q685.4199,996.9844 687.9199,996.9844 Q688.623,996.9844 689.2637,997.1406 Q689.9199,997.2969 690.4824,997.5938 L690.4824,1000.3125 Q689.8574,999.7344 689.2637,999.4688 Q688.6699,999.1875 688.0449,999.1875 Q686.7012,999.1875 686.0137,1000.2656 Q685.3262,1001.3281 685.3262,1003.4219 Q685.3262,1005.5156 686.0137,1006.5938 Q686.7012,1007.6563 688.0449,1007.6563 Q688.6699,1007.6563 689.2637,1007.3906 Q689.8574,1007.1094 690.4824,1006.5313 L690.4824,1009.25 Z " fill="#000000"/><text fill="#1A237E" font-family="sans-serif" font-size="14" font-weight="bold" lengthAdjust="spacing" textLength="116.7988" x="708.0137" y="1008.4561">PrivacyAuditor</text><line style="stroke:#5C6BC0;stroke-width:0.5;" x1="632.5" x2="867.8262" y1="1019.6094" y2="1019.6094"/><rect fill="none" height="6" style="stroke:#C82930;stroke-width:1;" width="6" x="639.5" y="1030.2578"/><text fill="#000000" font-family="sans-serif" font-size="14" lengthAdjust="spacing" textLength="211.3262" x="651.5" y="1036.6045">auditLogs: List&lt;AuditRecord&gt;</text><line style="stroke:#5C6BC0;stroke-width:0.5;" x1="632.5" x2="867.8262" y1="1043.9063" y2="1043.9063"/><ellipse cx="642.5" cy="1057.5547" fill="#84BE84" rx="3" ry="3" style="stroke:#038048;stroke-width:1;"/><text fill="#000000" font-family="sans-serif" font-size="14" lengthAdjust="spacing" textLength="208.3799" x="651.5" y="1060.9014">logAccess(event: Event): void</text><ellipse cx="642.5" cy="1073.8516" fill="#84BE84" rx="3" ry="3" style="stroke:#038048;stroke-width:1;"/><text fill="#000000" font-family="sans-serif" font-size="14" lengthAdjust="spacing" textLength="146.2822" x="651.5" y="1077.1982">reviewLogs(): Report</text><ellipse cx="642.5" cy="1090.1484" fill="#84BE84" rx="3" ry="3" style="stroke:#038048;stroke-width:1;"/><text fill="#000000" font-family="sans-serif" font-size="14" lengthAdjust="spacing" textLength="171.124" x="651.5" y="1093.4951">detectAnomalies(): Alert</text></g><!--class UserInterface--><g class="entity" data-entity="UserInterface" data-source-line="71" data-uid="ent0008" id="entity_UserInterface"><rect fill="#F3E5F5" filter="url(#f16k7vz6qkciiz)" height="96.8906" rx="11" ry="11" style="stroke:#5C6BC0;stroke-width:0.5;" width="315.7002" x="592" y="1177.6094"/><ellipse cx="691.75" cy="1193.6094" fill="#ADD1B2" rx="11" ry="11" style="stroke:#181818;stroke-width:1;"/><path d="M694.7188,1199.25 Q694.1406,1199.5469 693.5,1199.6875 Q692.8594,1199.8438 692.1563,1199.8438 Q689.6563,1199.8438 688.3281,1198.2031 Q687.0156,1196.5469 687.0156,1193.4219 Q687.0156,1190.2969 688.3281,1188.6406 Q689.6563,1186.9844 692.1563,1186.9844 Q692.8594,1186.9844 693.5,1187.1406 Q694.1563,1187.2969 694.7188,1187.5938 L694.7188,1190.3125 Q694.0938,1189.7344 693.5,1189.4688 Q692.9063,1189.1875 692.2813,1189.1875 Q690.9375,1189.1875 690.25,1190.2656 Q689.5625,1191.3281 689.5625,1193.4219 Q689.5625,1195.5156 690.25,1196.5938 Q690.9375,1197.6563 692.2813,1197.6563 Q692.9063,1197.6563 693.5,1197.3906 Q694.0938,1197.1094 694.7188,1196.5313 L694.7188,1199.25 Z " fill="#000000"/><text fill="#1A237E" font-family="sans-serif" font-size="14" font-weight="bold" lengthAdjust="spacing" textLength="107.7002" x="712.25" y="1198.4561">UserInterface</text><line style="stroke:#5C6BC0;stroke-width:0.5;" x1="593" x2="906.7002" y1="1209.6094" y2="1209.6094"/><line style="stroke:#5C6BC0;stroke-width:0.5;" x1="593" x2="906.7002" y1="1217.6094" y2="1217.6094"/><ellipse cx="603" cy="1231.2578" fill="#84BE84" rx="3" ry="3" style="stroke:#038048;stroke-width:1;"/><text fill="#000000" font-family="sans-serif" font-size="14" lengthAdjust="spacing" textLength="196.4785" x="612" y="1234.6045">notifyUser(alert: Alert): void</text><ellipse cx="603" cy="1247.5547" fill="#84BE84" rx="3" ry="3" style="stroke:#038048;stroke-width:1;"/><text fill="#000000" font-family="sans-serif" font-size="14" lengthAdjust="spacing" textLength="209.3369" x="612" y="1250.9014">requestVerification(): boolean</text><ellipse cx="603" cy="1263.8516" fill="#84BE84" rx="3" ry="3" style="stroke:#038048;stroke-width:1;"/><text fill="#000000" font-family="sans-serif" font-size="14" lengthAdjust="spacing" textLength="289.7002" x="612" y="1267.1982">showSecurityReport(report: Report): void</text></g><!--class DeviceSecurityAgent--><g class="entity" data-entity="DeviceSecurityAgent" data-source-line="77" data-uid="ent0009" id="entity_DeviceSecurityAgent"><rect fill="#F0F4C3" filter="url(#f16k7vz6qkciiz)" height="113.1875" rx="11" ry="11" style="stroke:#5C6BC0;stroke-width:0.5;" width="295.8213" x="453" y="53.6094"/><ellipse cx="514.0552" cy="69.6094" fill="#ADD1B2" rx="11" ry="11" style="stroke:#181818;stroke-width:1;"/><path d="M517.0239,75.25 Q516.4458,75.5469 515.8052,75.6875 Q515.1646,75.8438 514.4614,75.8438 Q511.9614,75.8438 510.6333,74.2031 Q509.3208,72.5469 509.3208,69.4219 Q509.3208,66.2969 510.6333,64.6406 Q511.9614,62.9844 514.4614,62.9844 Q515.1646,62.9844 515.8052,63.1406 Q516.4614,63.2969 517.0239,63.5938 L517.0239,66.3125 Q516.3989,65.7344 515.8052,65.4688 Q515.2114,65.1875 514.5864,65.1875 Q513.2427,65.1875 512.5552,66.2656 Q511.8677,67.3281 511.8677,69.4219 Q511.8677,71.5156 512.5552,72.5938 Q513.2427,73.6563 514.5864,73.6563 Q515.2114,73.6563 515.8052,73.3906 Q516.3989,73.1094 517.0239,72.5313 L517.0239,75.25 Z " fill="#000000"/><text fill="#1A237E" font-family="sans-serif" font-size="14" font-weight="bold" lengthAdjust="spacing" textLength="165.2109" x="534.5552" y="74.4561">DeviceSecurityAgent</text><line style="stroke:#5C6BC0;stroke-width:0.5;" x1="454" x2="747.8213" y1="85.6094" y2="85.6094"/><rect fill="none" height="6" style="stroke:#C82930;stroke-width:1;" width="6" x="461" y="96.2578"/><text fill="#000000" font-family="sans-serif" font-size="14" lengthAdjust="spacing" textLength="109.9492" x="473" y="102.6045">deviceId: String</text><line style="stroke:#5C6BC0;stroke-width:0.5;" x1="454" x2="747.8213" y1="109.9063" y2="109.9063"/><ellipse cx="464" cy="123.5547" fill="#84BE84" rx="3" ry="3" style="stroke:#038048;stroke-width:1;"/><text fill="#000000" font-family="sans-serif" font-size="14" lengthAdjust="spacing" textLength="182.6631" x="473" y="126.9014">scanSystem(): ScanResult</text><ellipse cx="464" cy="139.8516" fill="#84BE84" rx="3" ry="3" style="stroke:#038048;stroke-width:1;"/><text fill="#000000" font-family="sans-serif" font-size="14" lengthAdjust="spacing" textLength="269.8213" x="473" y="143.1982">quarantineThreat(threat: Threat): void</text><ellipse cx="464" cy="156.1484" fill="#84BE84" rx="3" ry="3" style="stroke:#038048;stroke-width:1;"/><text fill="#000000" font-family="sans-serif" font-size="14" lengthAdjust="spacing" textLength="180.1816" x="473" y="159.4951">getDeviceStatus(): Status</text></g><g class="entity" data-entity="GMN18" data-source-line="96" data-uid="ent0019" id="entity_GMN18"><path d="M568,283.6094 L568,296.1094 L533.12,300.1094 L568,304.1094 L568,317.0078 A11,11 0 0 0 579,328.0078 L768.5186,328.0078 A11,11 0 0 0 779.5186,317.0078 L779.5186,282.6094 L769.5186,272.6094 L579,272.6094 A11,11 0 0 0 568,283.6094" fill="#FEFFDD" filter="url(#f16k7vz6qkciiz)" style="stroke:#181818;stroke-width:0.5;"/><path d="M769.5186,272.6094 L769.5186,277.1094 A5.5,5.5 0 0 0 775.0186,282.6094 L779.5186,282.6094 L769.5186,272.6094" fill="#FEFFDD" style="stroke:#181818;stroke-width:0.5;"/><text fill="#000000" font-family="sans-serif" font-size="13" lengthAdjust="spacing" textLength="7.8013" x="574" y="289.6763">&#128161;</text><text fill="#000000" font-family="sans-serif" font-size="13" font-weight="bold" lengthAdjust="spacing" textLength="110.665" x="585.9336" y="289.6763">SecurityEngine</text><text fill="#000000" font-family="sans-serif" font-size="13" lengthAdjust="spacing" textLength="52.4951" x="700.731" y="289.6763">detects,</text><text fill="#000000" font-family="sans-serif" font-size="13" lengthAdjust="spacing" textLength="153.5117" x="574" y="304.8091">analyzes, and responds</text><text fill="#000000" font-family="sans-serif" font-size="13" lengthAdjust="spacing" textLength="190.5186" x="574" y="319.9419">to threats across the system.</text></g><g class="entity" data-entity="GMN21" data-source-line="102" data-uid="ent0022" id="entity_GMN21"><path d="M391.5,1019.6094 L391.5,1068.1406 A11,11 0 0 0 402.5,1079.1406 L585.6519,1079.1406 A11,11 0 0 0 596.6519,1068.1406 L596.6519,1048.1094 L631.28,1044.1094 L596.6519,1040.1094 L596.6519,1018.6094 L586.6519,1008.6094 L402.5,1008.6094 A11,11 0 0 0 391.5,1019.6094" fill="#FEFFDD" filter="url(#f16k7vz6qkciiz)" style="stroke:#181818;stroke-width:0.5;"/><path d="M586.6519,1008.6094 L586.6519,1013.1094 A5.5,5.5 0 0 0 592.1519,1018.6094 L596.6519,1018.6094 L586.6519,1008.6094" fill="#FEFFDD" style="stroke:#181818;stroke-width:0.5;"/><text fill="#000000" font-family="sans-serif" font-size="13" lengthAdjust="spacing" textLength="7.8013" x="397.5" y="1025.6763">&#128274;</text><text fill="#000000" font-family="sans-serif" font-size="13" font-weight="bold" lengthAdjust="spacing" textLength="108.4561" x="409.4336" y="1025.6763">PrivacyAuditor</text><text fill="#000000" font-family="sans-serif" font-size="13" lengthAdjust="spacing" textLength="51.3652" x="522.022" y="1025.6763">ensures</text><text fill="#000000" font-family="sans-serif" font-size="13" lengthAdjust="spacing" textLength="144.1362" x="397.5" y="1040.8091">all actions are logged,</text><text fill="#000000" font-family="sans-serif" font-size="13" lengthAdjust="spacing" textLength="153.0547" x="397.5" y="1055.9419">monitored, and verified</text><text fill="#000000" font-family="sans-serif" font-size="13" lengthAdjust="spacing" textLength="100.731" x="397.5" y="1071.0747">for compliance.</text></g><!--reverse link SecurityEngine to AuthenticationManager--><g class="link" data-entity-1="SecurityEngine" data-entity-2="AuthenticationManager" data-source-line="85" data-uid="lnk10" id="link_SecurityEngine_AuthenticationManager"><path codeLine="85" d="M316.4664,366.0818 C296.8564,390.3418 281.47,409.3694 261.87,433.6094" fill="none" id="SecurityEngine-backto-AuthenticationManager" style="stroke:#3949AB;stroke-width:1.3;"/><polygon fill="#3949AB" points="324.01,356.7494,317.1274,358.901,316.4664,366.0818,323.349,363.9301,324.01,356.7494" style="stroke:#3949AB;stroke-width:1.3;"/><text fill="#000000" font-family="sans-serif" font-size="13" lengthAdjust="spacing" textLength="107.7959" x="299" y="399.6763">manages access</text></g><!--link SecurityEngine to EncryptionModule--><g class="link" data-entity-1="SecurityEngine" data-entity-2="EncryptionModule" data-source-line="86" data-uid="lnk11" id="link_SecurityEngine_EncryptionModule"><path codeLine="86" d="M443.59,356.7494 C476.1,381.0094 509.311,405.7815 541.801,430.0215" fill="none" id="SecurityEngine-to-EncryptionModule" style="stroke:#3949AB;stroke-width:1.3;"/><polygon fill="#3949AB" points="546.61,433.6094,541.7884,425.0215,542.6025,430.6194,537.0045,431.4335,546.61,433.6094" style="stroke:#3949AB;stroke-width:1.3;"/><text fill="#000000" font-family="sans-serif" font-size="13" lengthAdjust="spacing" textLength="158.2026" x="504" y="399.6763">handles data encryption</text></g><!--link EncryptionModule to FirewallController--><g class="link" data-entity-1="EncryptionModule" data-entity-2="FirewallController" data-source-line="87" data-uid="lnk12" id="link_EncryptionModule_FirewallController"><path codeLine="87" d="M659.18,546.7494 C675.82,571.0094 691.8957,594.4218 708.5257,618.6618" fill="none" id="EncryptionModule-to-FirewallController" style="stroke:#3949AB;stroke-width:1.3;"/><polygon fill="#3949AB" points="711.92,623.6094,710.1269,613.9251,709.0914,619.4864,703.5301,618.4509,711.92,623.6094" style="stroke:#3949AB;stroke-width:1.3;"/><text fill="#000000" font-family="sans-serif" font-size="13" lengthAdjust="spacing" textLength="92.7266" x="691" y="589.6763">secures traffic</text></g><!--link FirewallController to AccessControl--><g class="link" data-entity-1="FirewallController" data-entity-2="AccessControl" data-source-line="88" data-uid="lnk13" id="link_FirewallController_AccessControl"><path codeLine="88" d="M750,737.0794 C750,761.5394 750,783.9294 750,807.3694" fill="none" id="FirewallController-to-AccessControl" style="stroke:#3949AB;stroke-width:1.3;"/><polygon fill="#3949AB" points="750,813.3694,754,804.3694,750,808.3694,746,804.3694,750,813.3694" style="stroke:#3949AB;stroke-width:1.3;"/><text fill="#000000" font-family="sans-serif" font-size="13" lengthAdjust="spacing" textLength="129.7334" x="751" y="779.6763">verifies permissions</text></g><!--link AccessControl to PrivacyAuditor--><g class="link" data-entity-1="AccessControl" data-entity-2="PrivacyAuditor" data-source-line="89" data-uid="lnk14" id="link_AccessControl_PrivacyAuditor"><path codeLine="89" d="M750,910.8694 C750,934.4094 750,956.9394 750,981.4594" fill="none" id="AccessControl-to-PrivacyAuditor" style="stroke:#3949AB;stroke-width:1.3;"/><polygon fill="#3949AB" points="750,987.4594,754,978.4594,750,982.4594,746,978.4594,750,987.4594" style="stroke:#3949AB;stroke-width:1.3;"/><text fill="#000000" font-family="sans-serif" font-size="13" lengthAdjust="spacing" textLength="147.1895" x="751" y="953.6763">logs and audits access</text></g><!--link PrivacyAuditor to UserInterface--><g class="link" data-entity-1="PrivacyAuditor" data-entity-2="UserInterface" data-source-line="90" data-uid="lnk15" id="link_PrivacyAuditor_UserInterface"><path codeLine="90" d="M750,1101.0794 C750,1125.5394 750,1147.9294 750,1171.3694" fill="none" id="PrivacyAuditor-to-UserInterface" style="stroke:#3949AB;stroke-width:1.3;"/><polygon fill="#3949AB" points="750,1177.3694,754,1168.3694,750,1172.3694,746,1168.3694,750,1177.3694" style="stroke:#3949AB;stroke-width:1.3;"/><text fill="#000000" font-family="sans-serif" font-size="13" lengthAdjust="spacing" textLength="101.9561" x="751" y="1143.6763">alerts &amp; reports</text></g><!--link DeviceSecurityAgent to FirewallController--><g class="link" data-entity-1="DeviceSecurityAgent" data-entity-2="FirewallController" data-source-line="91" data-uid="lnk16" id="link_DeviceSecurityAgent_FirewallController"><path codeLine="91" d="M722.31,166.6694 C752.07,186.4894 780.19,211.9594 797,243.6094 C869.97,381.0094 835.19,444.1494 792,593.6094 C789.15,603.4594 787.6716,608.0731 783.3516,617.7231" fill="none" id="DeviceSecurityAgent-to-FirewallController" style="stroke:#3949AB;stroke-width:1.3;"/><polygon fill="#3949AB" points="780.9,623.1994,788.2282,616.6193,782.943,618.6358,780.9265,613.3506,780.9,623.1994" style="stroke:#3949AB;stroke-width:1.3;"/><text fill="#000000" font-family="sans-serif" font-size="13" lengthAdjust="spacing" textLength="89.2925" x="840" y="399.6763">provides data</text></g><!--link DeviceSecurityAgent to SecurityEngine--><g class="link" data-entity-1="DeviceSecurityAgent" data-entity-2="SecurityEngine" data-source-line="92" data-uid="lnk17" id="link_DeviceSecurityAgent_SecurityEngine"><path codeLine="92" d="M532.33,166.7494 C502.4,191.0094 472.0614,215.5916 442.1514,239.8316" fill="none" id="DeviceSecurityAgent-to-SecurityEngine" style="stroke:#3949AB;stroke-width:1.3;"/><polygon fill="#3949AB" points="437.49,243.6094,447.0006,241.0504,441.3745,240.4613,441.9636,234.8352,437.49,243.6094" style="stroke:#3949AB;stroke-width:1.3;"/><text fill="#000000" font-family="sans-serif" font-size="13" lengthAdjust="spacing" textLength="97.4111" x="493" y="209.6763">reports threats</text></g><!--SRC=[hLRDRXit4BxhAGWRQDPk5CIMvH-X3g3OJc4aBWnBpPtYpag4A793SYLiWhv22mIvzL3aBVfMxIDqXkJAMic-LGSjV-RdcvblPlS5-_Ulhx-p4OZAIbyphdDsR-MIYngVneFmqcZMPLUAEyUk9PzQlc3PoDjA-Cf2pZvAM1rqlFGAqDYVt__v-u__mLxd1Rkyl6G_ApFXYeryhS3HISVDfIuvAKsuc4-jgNH-PPInRB_e5sS5tv1mCvwRbTHJXkPXuo9e2MCrM7Pyl74njDQiahdUnSa5dsnVZcTIp3KW-ADNlGPcZEQjCc8Ui9BBDbWH9Bvq67kx0plywCRO76mwxOlJYNYDf- -CzkdiY1_tpY2TZUHdO4SdpOuon2P6vNZm4At7yCZ6g9s8tnhSur2rfn77Ydvf8pW-x_KlUfi8C7qx2DRs4GF4vAJgyOdpbWkVyj7mv4PFfGQs3-V0YzFWz4UM0z5bFBF0VPPppmVi6lyF1cnfP1v4BBZIw7niRhMGEMYVoRGOiEPeKxugqGv4atSc1uNoXHcmU7AhFQXDyIbW1b7X0KfZVOPNSKK1nW26bP-X3oauyVgEQpx5dEz33cSfZYwh71OLcKroNBa1k-DbCBy4AujwuoeZqG7x5VzViXBjhv0H0woFnVAWzuan2hXkOHkREUWDHHGBHoa_IrmFXK2-PfwEqsqJvJgG6oriNOOWJ5ufgaMlE2xo5CCSwf77OWxOUwWf2KxYjWvE8AgsIvJiGKxxLCue1itDbj11r8suZSVGq9NBTf2-anPMNAahv9mrIb6-HLzmk4XOBSB7B7-Gpl_qWEitmUJ2Q88yjhmef22p7ymqt4oeRKULAwMGfd9PYGqAIA3xyDnAUsGGcSt83p82_tSmnemdX6m_Fn8dQtWytDqRXUu8PrZL8_31lfY1cD-3NKZdi1WjHY3RJMK5EKsh9y55WraP7etz7OXfAW-hdDA2AJo7Kx76IAUOdoQDGUe1S6BcCPlAJ1EhO1cwxMQvrMf8FHpaP6EZRnxRUgZDWYjC0DqEiOWRJKNHKY_QWWiaOj63Vj5FGq4RZpr34XadhQJSzlof0kS_KdUbnios4kLcPjNCdjJSDZmQf3lfkiPm13GwG-m-ZyXU5oUYbtAM1udRTRz6HuBhKUqyB0Z227TOkah5J7ogSD1Yv-iqaJ8V7iquQayYdn1WOrGXQN7rE6iVG8LOtKoMSTXkJTV3RlUPUJLWUukmT8cTUzkwtUwRtH61QZDymTERcNg_6GGeiDVP4IOBJxGksd3a2ctus9fxdIV4IBlTLAWOvYTIY9NhVa7aRJ5ItA8wQY9zNVWs2KH_Z7fBafJRP4JTG3l7Vc2HCQZr53UU3xUqPealffYpvvMt2e2AoH-BB46_gV2_u6TLB3Ws1p0hfpFFJB5b0Mc4dthVsU5X-_pmC7MaUyaO2Y4FLFqPS4VvIIzO5wwyQNnZmgnn10MO2_H-rG4K9m2T24D14L2qKnfGVFkAADhdY0Aq2pG889H25u7DZECd1DPh2da4c0OvRGbX8a4UxWeicZ2BKack1JnY-Wy0]--></g></svg>