<svg xmlns="http://www.w3.org/2000/svg" xmlns:xlink="http://www.w3.org/1999/xlink" contentStyleType="text/css" data-diagram-type="SEQUENCE" height="627px" preserveAspectRatio="none" style="width:900px;height:627px;background:#F8F6FF;" version="1.1" viewBox="0 0 900 627" width="900px" zoomAndPan="magnify"><title>&lt;b&gt;&lt;color:#4A148C&gt;Security &amp; Privacy Protection - UML Sequence Diagram&lt;/color&gt;&lt;/b&gt;</title><defs/><g><rect fill="#F8F6FF" height="627" style="stroke:none;stroke-width:1;" width="900" x="0" y="0"/><text fill="#4A148C" font-family="sans-serif" font-size="14" font-weight="bold" lengthAdjust="spacing" textLength="435.6816" x="228.658" y="27.9951">Security &amp; Privacy Protection - UML Sequence Diagram</text><g><title>User</title><rect fill="#000000" fill-opacity="0.00000" height="518.9922" width="8" x="51.0503" y="73.5938"/><line style="stroke:#7E57C2;stroke-width:0.5;" x1="55" x2="55" y1="73.5938" y2="592.5859"/></g><g><title>App</title><rect fill="#000000" fill-opacity="0.00000" height="518.9922" width="8" x="246.894" y="73.5938"/><line style="stroke:#7E57C2;stroke-width:0.5;" x1="250.4551" x2="250.4551" y1="73.5938" y2="592.5859"/></g><g><title>PrivacyManager</title><rect fill="#000000" fill-opacity="0.00000" height="518.9922" width="8" x="490.6499" y="73.5938"/><line style="stroke:#7E57C2;stroke-width:0.5;" x1="494.062" x2="494.062" y1="73.5938" y2="592.5859"/></g><g><title>AuthSystem</title><rect fill="#000000" fill-opacity="0.00000" height="518.9922" width="8" x="676.127" y="73.5938"/><line style="stroke:#7E57C2;stroke-width:0.5;" x1="679.2378" x2="679.2378" y1="73.5938" y2="592.5859"/></g><g><title>Logger</title><rect fill="#000000" fill-opacity="0.00000" height="518.9922" width="8" x="825.5068" y="73.5938"/><line style="stroke:#7E57C2;stroke-width:0.5;" x1="829.0161" x2="829.0161" y1="73.5938" y2="592.5859"/></g><g class="participant participant-head" data-participant="User"><rect fill="#F3E5F5" height="30.2969" rx="10" ry="10" style="stroke:#7E57C2;stroke-width:0.5;" width="50.1006" x="30" y="42.2969"/><text fill="#311B92" font-family="sans-serif" font-size="14" font-weight="bold" lengthAdjust="spacing" textLength="36.1006" x="37" y="62.292">User</text></g><g class="participant participant-tail" data-participant="User"><rect fill="#F3E5F5" height="30.2969" rx="10" ry="10" style="stroke:#7E57C2;stroke-width:0.5;" width="50.1006" x="30" y="591.5859"/><text fill="#311B92" font-family="sans-serif" font-size="14" font-weight="bold" lengthAdjust="spacing" textLength="36.1006" x="37" y="611.5811">User</text></g><g class="participant participant-head" data-participant="APP"><rect fill="#C5CAE9" height="30.2969" rx="10" ry="10" style="stroke:#7E57C2;stroke-width:0.5;" width="44.8779" x="228.4551" y="42.2969"/><text fill="#311B92" font-family="sans-serif" font-size="14" font-weight="bold" lengthAdjust="spacing" textLength="30.8779" x="235.4551" y="62.292">App</text></g><g class="participant participant-tail" data-participant="APP"><rect fill="#C5CAE9" height="30.2969" rx="10" ry="10" style="stroke:#7E57C2;stroke-width:0.5;" width="44.8779" x="228.4551" y="591.5859"/><text fill="#311B92" font-family="sans-serif" font-size="14" font-weight="bold" lengthAdjust="spacing" textLength="30.8779" x="235.4551" y="611.5811">App</text></g><g class="participant participant-head" data-participant="PRM"><rect fill="#E1BEE7" height="30.2969" rx="10" ry="10" style="stroke:#7E57C2;stroke-width:0.5;" width="141.1758" x="424.062" y="42.2969"/><text fill="#311B92" font-family="sans-serif" font-size="14" font-weight="bold" lengthAdjust="spacing" textLength="127.1758" x="431.062" y="62.292">PrivacyManager</text></g><g class="participant participant-tail" data-participant="PRM"><rect fill="#E1BEE7" height="30.2969" rx="10" ry="10" style="stroke:#7E57C2;stroke-width:0.5;" width="141.1758" x="424.062" y="591.5859"/><text fill="#311B92" font-family="sans-serif" font-size="14" font-weight="bold" lengthAdjust="spacing" textLength="127.1758" x="431.062" y="611.5811">PrivacyManager</text></g><g class="participant participant-head" data-participant="AUTH"><rect fill="#B2DFDB" height="30.2969" rx="10" ry="10" style="stroke:#7E57C2;stroke-width:0.5;" width="109.7783" x="625.2378" y="42.2969"/><text fill="#311B92" font-family="sans-serif" font-size="14" font-weight="bold" lengthAdjust="spacing" textLength="95.7783" x="632.2378" y="62.292">AuthSystem</text></g><g class="participant participant-tail" data-participant="AUTH"><rect fill="#B2DFDB" height="30.2969" rx="10" ry="10" style="stroke:#7E57C2;stroke-width:0.5;" width="109.7783" x="625.2378" y="591.5859"/><text fill="#311B92" font-family="sans-serif" font-size="14" font-weight="bold" lengthAdjust="spacing" textLength="95.7783" x="632.2378" y="611.5811">AuthSystem</text></g><g class="participant participant-head" data-participant="LOG"><rect fill="#D1C4E9" height="30.2969" rx="10" ry="10" style="stroke:#7E57C2;stroke-width:0.5;" width="68.9814" x="795.0161" y="42.2969"/><text fill="#311B92" font-family="sans-serif" font-size="14" font-weight="bold" lengthAdjust="spacing" textLength="54.9814" x="802.0161" y="62.292">Logger</text></g><g class="participant participant-tail" data-participant="LOG"><rect fill="#D1C4E9" height="30.2969" rx="10" ry="10" style="stroke:#7E57C2;stroke-width:0.5;" width="68.9814" x="795.0161" y="591.5859"/><text fill="#311B92" font-family="sans-serif" font-size="14" font-weight="bold" lengthAdjust="spacing" textLength="54.9814" x="802.0161" y="611.5811">Logger</text></g><rect fill="#EEEEEE" height="3" rx="10" ry="10" style="stroke:#EEEEEE;stroke-width:1;" width="893.9976" x="0" y="104.1602"/><line style="stroke:#000000;stroke-width:1;" x1="0" x2="893.9976" y1="104.1602" y2="104.1602"/><line style="stroke:#000000;stroke-width:1;" x1="0" x2="893.9976" y1="107.1602" y2="107.1602"/><rect fill="#EEEEEE" height="23.1328" rx="10" ry="10" style="stroke:#000000;stroke-width:2;" width="173.4023" x="360.2976" y="93.5938"/><text fill="#4A148C" font-family="sans-serif" font-size="13" font-weight="bold" lengthAdjust="spacing" textLength="143.9839" x="366.2976" y="109.6606">1&#65039;&#8419; User Opens App</text><text fill="#000000" font-family="sans-serif" font-size="13" font-weight="bold" lengthAdjust="spacing" textLength="10.8926" x="510.2815" y="109.6606">&gt;</text><g class="message" data-participant-1="User" data-participant-2="APP"><polygon fill="#6A1B9A" points="238.894,143.8594,248.894,147.8594,238.894,151.8594,242.894,147.8594" style="stroke:#6A1B9A;stroke-width:1;"/><line style="stroke:#6A1B9A;stroke-width:1.3;" x1="55.0503" x2="244.894" y1="147.8594" y2="147.8594"/><text fill="#000000" font-family="sans-serif" font-size="13" lengthAdjust="spacing" textLength="78.9839" x="62.0503" y="142.7935">launchApp()</text></g><rect fill="#EEEEEE" height="3" rx="10" ry="10" style="stroke:#EEEEEE;stroke-width:1;" width="893.9976" x="0" y="176.4258"/><line style="stroke:#000000;stroke-width:1;" x1="0" x2="893.9976" y1="176.4258" y2="176.4258"/><line style="stroke:#000000;stroke-width:1;" x1="0" x2="893.9976" y1="179.4258" y2="179.4258"/><rect fill="#EEEEEE" height="23.1328" rx="10" ry="10" style="stroke:#000000;stroke-width:2;" width="158.3013" x="367.8481" y="165.8594"/><text fill="#4A148C" font-family="sans-serif" font-size="13" font-weight="bold" lengthAdjust="spacing" textLength="128.8828" x="373.8481" y="181.9263">2&#65039;&#8419; Privacy Check</text><text fill="#000000" font-family="sans-serif" font-size="13" font-weight="bold" lengthAdjust="spacing" textLength="10.8926" x="502.731" y="181.9263">&gt;</text><g class="message" data-participant-1="APP" data-participant-2="PRM"><polygon fill="#6A1B9A" points="482.6499,216.125,492.6499,220.125,482.6499,224.125,486.6499,220.125" style="stroke:#6A1B9A;stroke-width:1;"/><line style="stroke:#6A1B9A;stroke-width:1.3;" x1="250.894" x2="488.6499" y1="220.125" y2="220.125"/><text fill="#000000" font-family="sans-serif" font-size="13" lengthAdjust="spacing" textLength="219.7559" x="257.894" y="215.0591">checkConsent("Contacts Access")</text></g><g class="message" data-participant-1="PRM" data-participant-2="APP"><polygon fill="#6A1B9A" points="261.894,245.2578,251.894,249.2578,261.894,253.2578,257.894,249.2578" style="stroke:#6A1B9A;stroke-width:1;"/><line style="stroke:#6A1B9A;stroke-width:1.3;stroke-dasharray:2.0,2.0;" x1="255.894" x2="493.6499" y1="249.2578" y2="249.2578"/><text fill="#000000" font-family="sans-serif" font-size="13" lengthAdjust="spacing" textLength="104.4189" x="267.894" y="244.1919">consentGranted</text></g><rect fill="#EEEEEE" height="3" rx="10" ry="10" style="stroke:#EEEEEE;stroke-width:1;" width="893.9976" x="0" y="277.8242"/><line style="stroke:#000000;stroke-width:1;" x1="0" x2="893.9976" y1="277.8242" y2="277.8242"/><line style="stroke:#000000;stroke-width:1;" x1="0" x2="893.9976" y1="280.8242" y2="280.8242"/><rect fill="#EEEEEE" height="23.1328" rx="10" ry="10" style="stroke:#000000;stroke-width:2;" width="164.8521" x="364.5728" y="267.2578"/><text fill="#4A148C" font-family="sans-serif" font-size="13" font-weight="bold" lengthAdjust="spacing" textLength="135.4336" x="370.5728" y="283.3247">3&#65039;&#8419; Authentication</text><text fill="#000000" font-family="sans-serif" font-size="13" font-weight="bold" lengthAdjust="spacing" textLength="10.8926" x="506.0063" y="283.3247">&gt;</text><g class="message" data-participant-1="APP" data-participant-2="AUTH"><polygon fill="#6A1B9A" points="668.127,317.5234,678.127,321.5234,668.127,325.5234,672.127,321.5234" style="stroke:#6A1B9A;stroke-width:1;"/><line style="stroke:#6A1B9A;stroke-width:1.3;" x1="250.894" x2="674.127" y1="321.5234" y2="321.5234"/><text fill="#000000" font-family="sans-serif" font-size="13" lengthAdjust="spacing" textLength="76.6924" x="257.894" y="316.4575">verifyUser()</text></g><g class="message" data-participant-1="AUTH" data-participant-2="APP"><polygon fill="#6A1B9A" points="261.894,346.6563,251.894,350.6563,261.894,354.6563,257.894,350.6563" style="stroke:#6A1B9A;stroke-width:1;"/><line style="stroke:#6A1B9A;stroke-width:1.3;stroke-dasharray:2.0,2.0;" x1="255.894" x2="679.127" y1="350.6563" y2="350.6563"/><text fill="#000000" font-family="sans-serif" font-size="13" lengthAdjust="spacing" textLength="49.0864" x="267.894" y="345.5903">verified</text></g><rect fill="#EEEEEE" height="3" rx="10" ry="10" style="stroke:#EEEEEE;stroke-width:1;" width="893.9976" x="0" y="379.2227"/><line style="stroke:#000000;stroke-width:1;" x1="0" x2="893.9976" y1="379.2227" y2="379.2227"/><line style="stroke:#000000;stroke-width:1;" x1="0" x2="893.9976" y1="382.2227" y2="382.2227"/><rect fill="#EEEEEE" height="23.1328" rx="10" ry="10" style="stroke:#000000;stroke-width:2;" width="152.6646" x="370.6665" y="368.6563"/><text fill="#4A148C" font-family="sans-serif" font-size="13" font-weight="bold" lengthAdjust="spacing" textLength="123.2461" x="376.6665" y="384.7231">4&#65039;&#8419; Access &amp; Log</text><text fill="#000000" font-family="sans-serif" font-size="13" font-weight="bold" lengthAdjust="spacing" textLength="10.8926" x="499.9126" y="384.7231">&gt;</text><g class="message" data-participant-1="APP" data-participant-2="LOG"><polygon fill="#6A1B9A" points="817.5068,418.9219,827.5068,422.9219,817.5068,426.9219,821.5068,422.9219" style="stroke:#6A1B9A;stroke-width:1;"/><line style="stroke:#6A1B9A;stroke-width:1.3;" x1="250.894" x2="823.5068" y1="422.9219" y2="422.9219"/><text fill="#000000" font-family="sans-serif" font-size="13" lengthAdjust="spacing" textLength="159.3706" x="257.894" y="417.856">record("Data accessed")</text></g><g class="message" data-participant-1="LOG" data-participant-2="APP"><polygon fill="#6A1B9A" points="261.894,448.0547,251.894,452.0547,261.894,456.0547,257.894,452.0547" style="stroke:#6A1B9A;stroke-width:1;"/><line style="stroke:#6A1B9A;stroke-width:1.3;stroke-dasharray:2.0,2.0;" x1="255.894" x2="828.5068" y1="452.0547" y2="452.0547"/><text fill="#000000" font-family="sans-serif" font-size="13" lengthAdjust="spacing" textLength="44.3193" x="267.894" y="446.9888">logged</text></g><rect fill="#EEEEEE" height="3" rx="10" ry="10" style="stroke:#EEEEEE;stroke-width:1;" width="893.9976" x="0" y="480.6211"/><line style="stroke:#000000;stroke-width:1;" x1="0" x2="893.9976" y1="480.6211" y2="480.6211"/><line style="stroke:#000000;stroke-width:1;" x1="0" x2="893.9976" y1="483.6211" y2="483.6211"/><rect fill="#EEEEEE" height="23.1328" rx="10" ry="10" style="stroke:#000000;stroke-width:2;" width="164.2871" x="364.8552" y="470.0547"/><text fill="#4A148C" font-family="sans-serif" font-size="13" font-weight="bold" lengthAdjust="spacing" textLength="134.8687" x="370.8552" y="486.1216">5&#65039;&#8419; User Feedback</text><text fill="#000000" font-family="sans-serif" font-size="13" font-weight="bold" lengthAdjust="spacing" textLength="10.8926" x="505.7239" y="486.1216">&gt;</text><g class="message" data-participant-1="APP" data-participant-2="User"><polygon fill="#6A1B9A" points="66.0503,520.3203,56.0503,524.3203,66.0503,528.3203,62.0503,524.3203" style="stroke:#6A1B9A;stroke-width:1;"/><line style="stroke:#6A1B9A;stroke-width:1.3;" x1="60.0503" x2="249.894" y1="524.3203" y2="524.3203"/><text fill="#000000" font-family="sans-serif" font-size="13" lengthAdjust="spacing" textLength="171.8438" x="72.0503" y="519.2544">show("Access successful")</text></g><path d="M255,547.3203 L255,567.3203 A10,10 0 0 0 265,577.3203 L533,577.3203 A10,10 0 0 0 543,567.3203 L543,547.3203 L533,537.3203 L265,537.3203 A10,10 0 0 0 255,547.3203" fill="#FEFFDD" style="stroke:#181818;stroke-width:0.5;"/><path d="M533,537.3203 L533,542.3203 A5,5 0 0 0 538,547.3203 L543,547.3203 L533,537.3203" fill="#FEFFDD" style="stroke:#181818;stroke-width:0.5;"/><text fill="#000000" font-family="sans-serif" font-size="13" lengthAdjust="spacing" textLength="176.7314" x="261" y="554.3872">Simple 5-step privacy flow:</text><text fill="#000000" font-family="sans-serif" font-size="13" lengthAdjust="spacing" textLength="267.3125" x="261" y="569.52">Consent &#8594; Auth &#8594; Access &#8594; Log &#8594; Notify</text><!--SRC=[TLJDRjf04BxxAKP1QiZ1JVaB2G8aC3WvG8C2UO1bFS0Ai-kkboAtwgbIJvKgzGLww4lqrdV92xIFq5bZ6XFWvFL-izytyytidiFV7rz_mmFEXCG0FAL2Tw8ambqorIA0oG9N22uCXHGh5i8OtwrHSeIUO7FDLd3kE4QO4A4vRJUv2fLk5AgTKlNQQu-HhxKm2Ro2aHRl6K_egmno8vGapiVXu82lUPboj9kNqxRZn4iX8sPbfemlvrgjPU1P70h-jN_b-xc85EHAIzHGVfC3uWKBr4R8ESnO66CEwMYjDXdVLQVKlUcy12SBmPSIunXAhoivSCIq4Ln4J9eH2m9BNgxby86OOKYEZerc1kS9n2eKWUESW-kw-TCmDabeZzD-xdoKY_Ze07HVbj_lzUl-bKMK3b1dk_L-hUwLQTTNqcHxbH8LjjiRYmy8fUhkZxGHfYeCd4zvi-DTKwpqaAfdSpp6c457R8JKWG4vS9XvnI_xlNp4qGhUqg0SdFKh_PfVsw4dp-LotOwYBU_0-XYAIeO9B341clZu8kr1tld769z5yq0dYe35q1cDeE3Ll4x_PW_Efdt89BcZRUJeOKYLbxhzVdsVQ6qMuoGsk4hv7YTtKEYMUtwlknSsKFECQ71_2uLUoQkIfDDg7RbrfJ-_lZrz_hbD_Zv26TjqT_Ug3QsMaq9kEys_0I5RIxwWcEB52SfoHhcxnTu2-NAFqJ8HeIsp0Tp2df8nIbCyeuLXdDpkS4xpSdRXs2ZtlppV1jvgAXI34nbKiWoiNnGiEBDloB4KKWyRy1wrc2MsKAegtNjMJ35nKgkwqqhpfSUBt3-cP5lH08tqvWJ5inup35Xw10CgqgBFag5ju2d1MhvZFc9W7xjZYcb0WnuqjIcUPUd5w_GxMuSawaYQVj1YlZ2WPbQRRiHOh2AwvZMNnYo2AElXB5IR1g5Pd-3fo_VKtUrYossNL7pwfNj5XZee0x0Y_m00]--></g></svg>