<svg xmlns="http://www.w3.org/2000/svg" xmlns:xlink="http://www.w3.org/1999/xlink" contentStyleType="text/css" data-diagram-type="CLASS" height="938px" preserveAspectRatio="none" style="width:1146px;height:938px;background:#F5F7FA;" version="1.1" viewBox="0 0 1146 938" width="1146px" zoomAndPan="magnify"><title>&#129302; AI and Automation - Class Diagram (Structured View)</title><defs><filter height="300%" id="facj7krgkxidu" width="300%" x="-1" y="-1"><feGaussianBlur result="blurOut" stdDeviation="2"/><feColorMatrix in="blurOut" result="blurOut2" type="matrix" values="0 0 0 0 0 0 0 0 0 0 0 0 0 0 0 0 0 0 .4 0"/><feOffset dx="4" dy="4" in="blurOut2" result="blurOut3"/><feBlend in="SourceGraphic" in2="blurOut3" mode="normal"/></filter></defs><g><rect fill="#F5F7FA" height="938" style="stroke:none;stroke-width:1;" width="1146" x="0" y="0"/><g class="title" data-source-line="2"><text fill="#283593" font-family="sans-serif" font-size="22" font-weight="bold" lengthAdjust="spacing" textLength="683.2676" x="224.6343" y="30.4209">&#129302; AI and Automation - Class Diagram (Structured View)</text></g><!--class AIEngine--><g class="entity" data-entity="AIEngine" data-source-line="30" data-uid="ent0002" id="entity_AIEngine"><rect fill="#E8EAF6" filter="url(#facj7krgkxidu)" height="113.1875" rx="11" ry="11" style="stroke:#5C6BC0;stroke-width:0.5;" width="270.6445" x="160.5" y="433.6094"/><ellipse cx="256.644" cy="449.6094" fill="#A9DCDF" rx="11" ry="11" style="stroke:#181818;stroke-width:1;"/><path d="M256.7534,444.9531 L255.5972,450.0313 L257.9253,450.0313 L256.7534,444.9531 Z M255.269,442.7188 L258.2534,442.7188 L261.6128,455.1094 L259.1597,455.1094 L258.394,452.0469 L255.1128,452.0469 L254.3628,455.1094 L251.9253,455.1094 L255.269,442.7188 Z " fill="#000000"/><text fill="#1A237E" font-family="sans-serif" font-size="14" font-style="italic" font-weight="bold" lengthAdjust="spacing" textLength="69.8564" x="277.144" y="454.4561">AIEngine</text><line style="stroke:#5C6BC0;stroke-width:0.5;" x1="161.5" x2="430.1445" y1="465.6094" y2="465.6094"/><line style="stroke:#5C6BC0;stroke-width:0.5;" x1="161.5" x2="430.1445" y1="473.6094" y2="473.6094"/><ellipse cx="171.5" cy="487.2578" fill="#84BE84" rx="3" ry="3" style="stroke:#038048;stroke-width:1;"/><text fill="#000000" font-family="sans-serif" font-size="14" lengthAdjust="spacing" textLength="244.6445" x="180.5" y="490.6045">processContext(ctx: Context): void</text><ellipse cx="171.5" cy="503.5547" fill="#84BE84" rx="3" ry="3" style="stroke:#038048;stroke-width:1;"/><text fill="#000000" font-family="sans-serif" font-size="14" lengthAdjust="spacing" textLength="157.4932" x="180.5" y="506.9014">predictAction(): Action</text><ellipse cx="171.5" cy="519.8516" fill="#84BE84" rx="3" ry="3" style="stroke:#038048;stroke-width:1;"/><text fill="#000000" font-family="sans-serif" font-size="14" lengthAdjust="spacing" textLength="215.209" x="180.5" y="523.1982">updateModel(data: Data): void</text><ellipse cx="171.5" cy="536.1484" fill="#84BE84" rx="3" ry="3" style="stroke:#038048;stroke-width:1;"/><text fill="#000000" font-family="sans-serif" font-size="14" lengthAdjust="spacing" textLength="172.4912" x="180.5" y="539.4951">explainDecision(): String</text></g><!--class UserBehaviorModel--><g class="entity" data-entity="UserBehaviorModel" data-source-line="37" data-uid="ent0003" id="entity_UserBehaviorModel"><rect fill="#EDE7F6" filter="url(#facj7krgkxidu)" height="129.4844" rx="11" ry="11" style="stroke:#5C6BC0;stroke-width:0.5;" width="235.4805" x="178.5" y="623.6094"/><ellipse cx="215.7693" cy="639.6094" fill="#ADD1B2" rx="11" ry="11" style="stroke:#181818;stroke-width:1;"/><path d="M218.738,645.25 Q218.1599,645.5469 217.5193,645.6875 Q216.8787,645.8438 216.1755,645.8438 Q213.6755,645.8438 212.3474,644.2031 Q211.0349,642.5469 211.0349,639.4219 Q211.0349,636.2969 212.3474,634.6406 Q213.6755,632.9844 216.1755,632.9844 Q216.8787,632.9844 217.5193,633.1406 Q218.1755,633.2969 218.738,633.5938 L218.738,636.3125 Q218.113,635.7344 217.5193,635.4688 Q216.9255,635.1875 216.3005,635.1875 Q214.9568,635.1875 214.2693,636.2656 Q213.5818,637.3281 213.5818,639.4219 Q213.5818,641.5156 214.2693,642.5938 Q214.9568,643.6563 216.3005,643.6563 Q216.9255,643.6563 217.5193,643.3906 Q218.113,643.1094 218.738,642.5313 L218.738,645.25 Z " fill="#000000"/><text fill="#1A237E" font-family="sans-serif" font-size="14" font-weight="bold" lengthAdjust="spacing" textLength="153.9932" x="234.718" y="644.4561">UserBehaviorModel</text><line style="stroke:#5C6BC0;stroke-width:0.5;" x1="179.5" x2="412.9805" y1="655.6094" y2="655.6094"/><rect fill="none" height="6" style="stroke:#C82930;stroke-width:1;" width="6" x="186.5" y="666.2578"/><text fill="#000000" font-family="sans-serif" font-size="14" lengthAdjust="spacing" textLength="97.6924" x="198.5" y="672.6045">patterns: Map</text><rect fill="none" height="6" style="stroke:#C82930;stroke-width:1;" width="6" x="186.5" y="682.5547"/><text fill="#000000" font-family="sans-serif" font-size="14" lengthAdjust="spacing" textLength="162.1621" x="198.5" y="688.9014">lastUpdated: DateTime</text><line style="stroke:#5C6BC0;stroke-width:0.5;" x1="179.5" x2="412.9805" y1="696.2031" y2="696.2031"/><ellipse cx="189.5" cy="709.8516" fill="#84BE84" rx="3" ry="3" style="stroke:#038048;stroke-width:1;"/><text fill="#000000" font-family="sans-serif" font-size="14" lengthAdjust="spacing" textLength="209.4805" x="198.5" y="713.1982">getPreferences(): Preferences</text><ellipse cx="189.5" cy="726.1484" fill="#84BE84" rx="3" ry="3" style="stroke:#038048;stroke-width:1;"/><text fill="#000000" font-family="sans-serif" font-size="14" lengthAdjust="spacing" textLength="173.1748" x="198.5" y="729.4951">update(data: Data): void</text><ellipse cx="189.5" cy="742.4453" fill="#84BE84" rx="3" ry="3" style="stroke:#038048;stroke-width:1;"/><text fill="#000000" font-family="sans-serif" font-size="14" lengthAdjust="spacing" textLength="112.4717" x="198.5" y="745.792">serialize(): JSON</text></g><!--class ContextSensor--><g class="entity" data-entity="ContextSensor" data-source-line="45" data-uid="ent0004" id="entity_ContextSensor"><rect fill="#E3F2FD" filter="url(#facj7krgkxidu)" height="113.1875" rx="11" ry="11" style="stroke:#5C6BC0;stroke-width:0.5;" width="148.1699" x="7" y="53.6094"/><ellipse cx="22" cy="69.6094" fill="#ADD1B2" rx="11" ry="11" style="stroke:#181818;stroke-width:1;"/><path d="M24.9688,75.25 Q24.3906,75.5469 23.75,75.6875 Q23.1094,75.8438 22.4063,75.8438 Q19.9063,75.8438 18.5781,74.2031 Q17.2656,72.5469 17.2656,69.4219 Q17.2656,66.2969 18.5781,64.6406 Q19.9063,62.9844 22.4063,62.9844 Q23.1094,62.9844 23.75,63.1406 Q24.4063,63.2969 24.9688,63.5938 L24.9688,66.3125 Q24.3438,65.7344 23.75,65.4688 Q23.1563,65.1875 22.5313,65.1875 Q21.1875,65.1875 20.5,66.2656 Q19.8125,67.3281 19.8125,69.4219 Q19.8125,71.5156 20.5,72.5938 Q21.1875,73.6563 22.5313,73.6563 Q23.1563,73.6563 23.75,73.3906 Q24.3438,73.1094 24.9688,72.5313 L24.9688,75.25 Z " fill="#000000"/><text fill="#1A237E" font-family="sans-serif" font-size="14" font-weight="bold" lengthAdjust="spacing" textLength="116.1699" x="36" y="74.4561">ContextSensor</text><line style="stroke:#5C6BC0;stroke-width:0.5;" x1="8" x2="154.1699" y1="85.6094" y2="85.6094"/><rect fill="none" height="6" style="stroke:#C82930;stroke-width:1;" width="6" x="15" y="96.2578"/><text fill="#000000" font-family="sans-serif" font-size="14" lengthAdjust="spacing" textLength="110.3594" x="27" y="102.6045">sensorId: String</text><line style="stroke:#5C6BC0;stroke-width:0.5;" x1="8" x2="154.1699" y1="109.9063" y2="109.9063"/><ellipse cx="18" cy="123.5547" fill="#84BE84" rx="3" ry="3" style="stroke:#038048;stroke-width:1;"/><text fill="#000000" font-family="sans-serif" font-size="14" lengthAdjust="spacing" textLength="107.0166" x="27" y="126.9014">read(): Context</text><ellipse cx="18" cy="139.8516" fill="#84BE84" rx="3" ry="3" style="stroke:#038048;stroke-width:1;"/><text fill="#000000" font-family="sans-serif" font-size="14" lengthAdjust="spacing" textLength="120.9277" x="27" y="143.1982">subscribe(target)</text><ellipse cx="18" cy="156.1484" fill="#84BE84" rx="3" ry="3" style="stroke:#038048;stroke-width:1;"/><text fill="#000000" font-family="sans-serif" font-size="14" lengthAdjust="spacing" textLength="98.0684" x="27" y="159.4951">sendLifeTick()</text></g><!--class AutomationController--><g class="entity" data-entity="AutomationController" data-source-line="52" data-uid="ent0005" id="entity_AutomationController"><rect fill="#C5CAE9" filter="url(#facj7krgkxidu)" height="113.1875" rx="11" ry="11" style="stroke:#5C6BC0;stroke-width:0.5;" width="352.6621" x="560.5" y="631.6094"/><ellipse cx="646.9336" cy="647.6094" fill="#ADD1B2" rx="11" ry="11" style="stroke:#181818;stroke-width:1;"/><path d="M649.9023,653.25 Q649.3242,653.5469 648.6836,653.6875 Q648.043,653.8438 647.3398,653.8438 Q644.8398,653.8438 643.5117,652.2031 Q642.1992,650.5469 642.1992,647.4219 Q642.1992,644.2969 643.5117,642.6406 Q644.8398,640.9844 647.3398,640.9844 Q648.043,640.9844 648.6836,641.1406 Q649.3398,641.2969 649.9023,641.5938 L649.9023,644.3125 Q649.2773,643.7344 648.6836,643.4688 Q648.0898,643.1875 647.4648,643.1875 Q646.1211,643.1875 645.4336,644.2656 Q644.7461,645.3281 644.7461,647.4219 Q644.7461,649.5156 645.4336,650.5938 Q646.1211,651.6563 647.4648,651.6563 Q648.0898,651.6563 648.6836,651.3906 Q649.2773,651.1094 649.9023,650.5313 L649.9023,653.25 Z " fill="#000000"/><text fill="#1A237E" font-family="sans-serif" font-size="14" font-weight="bold" lengthAdjust="spacing" textLength="171.2949" x="667.4336" y="652.4561">AutomationController</text><line style="stroke:#5C6BC0;stroke-width:0.5;" x1="561.5" x2="912.1621" y1="663.6094" y2="663.6094"/><rect fill="none" height="6" style="stroke:#C82930;stroke-width:1;" width="6" x="568.5" y="674.2578"/><text fill="#000000" font-family="sans-serif" font-size="14" lengthAdjust="spacing" textLength="145.0518" x="580.5" y="680.6045">queue: List&lt;Action&gt;</text><line style="stroke:#5C6BC0;stroke-width:0.5;" x1="561.5" x2="912.1621" y1="687.9063" y2="687.9063"/><ellipse cx="571.5" cy="701.5547" fill="#84BE84" rx="3" ry="3" style="stroke:#038048;stroke-width:1;"/><text fill="#000000" font-family="sans-serif" font-size="14" lengthAdjust="spacing" textLength="216.5146" x="580.5" y="704.9014">execute(action: Action): Result</text><ellipse cx="571.5" cy="717.8516" fill="#84BE84" rx="3" ry="3" style="stroke:#038048;stroke-width:1;"/><text fill="#000000" font-family="sans-serif" font-size="14" lengthAdjust="spacing" textLength="326.6621" x="580.5" y="721.1982">schedule(action: Action, time: DateTime): void</text><ellipse cx="571.5" cy="734.1484" fill="#84BE84" rx="3" ry="3" style="stroke:#038048;stroke-width:1;"/><text fill="#000000" font-family="sans-serif" font-size="14" lengthAdjust="spacing" textLength="202.125" x="580.5" y="737.4951">cancel(actionId: String): void</text></g><!--class SystemOptimizer--><g class="entity" data-entity="SystemOptimizer" data-source-line="59" data-uid="ent0006" id="entity_SystemOptimizer"><rect fill="#D1C4E9" filter="url(#facj7krgkxidu)" height="96.8906" rx="11" ry="11" style="stroke:#5C6BC0;stroke-width:0.5;" width="370.4902" x="367" y="829.6094"/><ellipse cx="480.1621" cy="845.6094" fill="#ADD1B2" rx="11" ry="11" style="stroke:#181818;stroke-width:1;"/><path d="M483.1309,851.25 Q482.5527,851.5469 481.9121,851.6875 Q481.2715,851.8438 480.5684,851.8438 Q478.0684,851.8438 476.7402,850.2031 Q475.4277,848.5469 475.4277,845.4219 Q475.4277,842.2969 476.7402,840.6406 Q478.0684,838.9844 480.5684,838.9844 Q481.2715,838.9844 481.9121,839.1406 Q482.5684,839.2969 483.1309,839.5938 L483.1309,842.3125 Q482.5059,841.7344 481.9121,841.4688 Q481.3184,841.1875 480.6934,841.1875 Q479.3496,841.1875 478.6621,842.2656 Q477.9746,843.3281 477.9746,845.4219 Q477.9746,847.5156 478.6621,848.5938 Q479.3496,849.6563 480.6934,849.6563 Q481.3184,849.6563 481.9121,849.3906 Q482.5059,849.1094 483.1309,848.5313 L483.1309,851.25 Z " fill="#000000"/><text fill="#1A237E" font-family="sans-serif" font-size="14" font-weight="bold" lengthAdjust="spacing" textLength="135.666" x="500.6621" y="850.4561">SystemOptimizer</text><line style="stroke:#5C6BC0;stroke-width:0.5;" x1="368" x2="736.4902" y1="861.6094" y2="861.6094"/><rect fill="none" height="6" style="stroke:#C82930;stroke-width:1;" width="6" x="375" y="872.2578"/><text fill="#000000" font-family="sans-serif" font-size="14" lengthAdjust="spacing" textLength="91.1504" x="387" y="878.6045">policy: Policy</text><line style="stroke:#5C6BC0;stroke-width:0.5;" x1="368" x2="736.4902" y1="885.9063" y2="885.9063"/><ellipse cx="378" cy="899.5547" fill="#84BE84" rx="3" ry="3" style="stroke:#038048;stroke-width:1;"/><text fill="#000000" font-family="sans-serif" font-size="14" lengthAdjust="spacing" textLength="344.4902" x="387" y="902.9014">adjustResources(params: ResourceParams): void</text><ellipse cx="378" cy="915.8516" fill="#84BE84" rx="3" ry="3" style="stroke:#038048;stroke-width:1;"/><text fill="#000000" font-family="sans-serif" font-size="14" lengthAdjust="spacing" textLength="132.3027" x="387" y="919.1982">getStatus(): Status</text></g><!--class PrivacyManager--><g class="entity" data-entity="PrivacyManager" data-source-line="65" data-uid="ent0007" id="entity_PrivacyManager"><rect fill="#C8E6C9" filter="url(#facj7krgkxidu)" height="113.1875" rx="11" ry="11" style="stroke:#5C6BC0;stroke-width:0.5;" width="296.8877" x="483.5" y="243.6094"/><ellipse cx="564.106" cy="259.6094" fill="#ADD1B2" rx="11" ry="11" style="stroke:#181818;stroke-width:1;"/><path d="M567.0747,265.25 Q566.4966,265.5469 565.856,265.6875 Q565.2153,265.8438 564.5122,265.8438 Q562.0122,265.8438 560.6841,264.2031 Q559.3716,262.5469 559.3716,259.4219 Q559.3716,256.2969 560.6841,254.6406 Q562.0122,252.9844 564.5122,252.9844 Q565.2153,252.9844 565.856,253.1406 Q566.5122,253.2969 567.0747,253.5938 L567.0747,256.3125 Q566.4497,255.7344 565.856,255.4688 Q565.2622,255.1875 564.6372,255.1875 Q563.2935,255.1875 562.606,256.2656 Q561.9185,257.3281 561.9185,259.4219 Q561.9185,261.5156 562.606,262.5938 Q563.2935,263.6563 564.6372,263.6563 Q565.2622,263.6563 565.856,263.3906 Q566.4497,263.1094 567.0747,262.5313 L567.0747,265.25 Z " fill="#000000"/><text fill="#1A237E" font-family="sans-serif" font-size="14" font-weight="bold" lengthAdjust="spacing" textLength="127.1758" x="584.606" y="264.4561">PrivacyManager</text><line style="stroke:#5C6BC0;stroke-width:0.5;" x1="484.5" x2="779.3877" y1="275.6094" y2="275.6094"/><rect fill="none" height="6" style="stroke:#C82930;stroke-width:1;" width="6" x="491.5" y="286.2578"/><text fill="#000000" font-family="sans-serif" font-size="14" lengthAdjust="spacing" textLength="236.2568" x="503.5" y="292.6045">consentDB: Map&lt;User, Consent&gt;</text><line style="stroke:#5C6BC0;stroke-width:0.5;" x1="484.5" x2="779.3877" y1="299.9063" y2="299.9063"/><ellipse cx="494.5" cy="313.5547" fill="#84BE84" rx="3" ry="3" style="stroke:#038048;stroke-width:1;"/><text fill="#000000" font-family="sans-serif" font-size="14" lengthAdjust="spacing" textLength="270.8877" x="503.5" y="316.9014">checkConsent(action: Action): boolean</text><ellipse cx="494.5" cy="329.8516" fill="#84BE84" rx="3" ry="3" style="stroke:#038048;stroke-width:1;"/><text fill="#000000" font-family="sans-serif" font-size="14" lengthAdjust="spacing" textLength="204.3125" x="503.5" y="333.1982">anonymize(data: Data): Data</text><ellipse cx="494.5" cy="346.1484" fill="#84BE84" rx="3" ry="3" style="stroke:#038048;stroke-width:1;"/><text fill="#000000" font-family="sans-serif" font-size="14" lengthAdjust="spacing" textLength="251.3779" x="503.5" y="349.4951">logAccess(entry: AuditRecord): void</text></g><!--class UserInterface--><g class="entity" data-entity="UserInterface" data-source-line="72" data-uid="ent0008" id="entity_UserInterface"><rect fill="#F3E5F5" filter="url(#facj7krgkxidu)" height="96.8906" rx="11" ry="11" style="stroke:#5C6BC0;stroke-width:0.5;" width="319.0361" x="815.5" y="251.6094"/><ellipse cx="916.918" cy="267.6094" fill="#ADD1B2" rx="11" ry="11" style="stroke:#181818;stroke-width:1;"/><path d="M919.8867,273.25 Q919.3086,273.5469 918.668,273.6875 Q918.0273,273.8438 917.3242,273.8438 Q914.8242,273.8438 913.4961,272.2031 Q912.1836,270.5469 912.1836,267.4219 Q912.1836,264.2969 913.4961,262.6406 Q914.8242,260.9844 917.3242,260.9844 Q918.0273,260.9844 918.668,261.1406 Q919.3242,261.2969 919.8867,261.5938 L919.8867,264.3125 Q919.2617,263.7344 918.668,263.4688 Q918.0742,263.1875 917.4492,263.1875 Q916.1055,263.1875 915.418,264.2656 Q914.7305,265.3281 914.7305,267.4219 Q914.7305,269.5156 915.418,270.5938 Q916.1055,271.6563 917.4492,271.6563 Q918.0742,271.6563 918.668,271.3906 Q919.2617,271.1094 919.8867,270.5313 L919.8867,273.25 Z " fill="#000000"/><text fill="#1A237E" font-family="sans-serif" font-size="14" font-weight="bold" lengthAdjust="spacing" textLength="107.7002" x="937.418" y="272.4561">UserInterface</text><line style="stroke:#5C6BC0;stroke-width:0.5;" x1="816.5" x2="1133.5361" y1="283.6094" y2="283.6094"/><line style="stroke:#5C6BC0;stroke-width:0.5;" x1="816.5" x2="1133.5361" y1="291.6094" y2="291.6094"/><ellipse cx="826.5" cy="305.2578" fill="#84BE84" rx="3" ry="3" style="stroke:#038048;stroke-width:1;"/><text fill="#000000" font-family="sans-serif" font-size="14" lengthAdjust="spacing" textLength="170.5156" x="835.5" y="308.6045">notify(msg: String): void</text><ellipse cx="826.5" cy="321.5547" fill="#84BE84" rx="3" ry="3" style="stroke:#038048;stroke-width:1;"/><text fill="#000000" font-family="sans-serif" font-size="14" lengthAdjust="spacing" textLength="293.0361" x="835.5" y="324.9014">askConfirmation(prompt: String): boolean</text><ellipse cx="826.5" cy="337.8516" fill="#84BE84" rx="3" ry="3" style="stroke:#038048;stroke-width:1;"/><text fill="#000000" font-family="sans-serif" font-size="14" lengthAdjust="spacing" textLength="179.9014" x="835.5" y="341.1982">getUserOverride(): Action</text></g><!--class DeviceComponent--><g class="entity" data-entity="DeviceComponent" data-source-line="78" data-uid="ent0009" id="entity_DeviceComponent"><rect fill="#F0F4C3" filter="url(#facj7krgkxidu)" height="96.8906" rx="11" ry="11" style="stroke:#5C6BC0;stroke-width:0.5;" width="298.5488" x="772.5" y="829.6094"/><ellipse cx="845.9863" cy="845.6094" fill="#ADD1B2" rx="11" ry="11" style="stroke:#181818;stroke-width:1;"/><path d="M848.9551,851.25 Q848.377,851.5469 847.7363,851.6875 Q847.0957,851.8438 846.3926,851.8438 Q843.8926,851.8438 842.5645,850.2031 Q841.252,848.5469 841.252,845.4219 Q841.252,842.2969 842.5645,840.6406 Q843.8926,838.9844 846.3926,838.9844 Q847.0957,838.9844 847.7363,839.1406 Q848.3926,839.2969 848.9551,839.5938 L848.9551,842.3125 Q848.3301,841.7344 847.7363,841.4688 Q847.1426,841.1875 846.5176,841.1875 Q845.1738,841.1875 844.4863,842.2656 Q843.7988,843.3281 843.7988,845.4219 Q843.7988,847.5156 844.4863,848.5938 Q845.1738,849.6563 846.5176,849.6563 Q847.1426,849.6563 847.7363,849.3906 Q848.3301,849.1094 848.9551,848.5313 L848.9551,851.25 Z " fill="#000000"/><text fill="#1A237E" font-family="sans-serif" font-size="14" font-weight="bold" lengthAdjust="spacing" textLength="143.0762" x="866.4863" y="850.4561">DeviceComponent</text><line style="stroke:#5C6BC0;stroke-width:0.5;" x1="773.5" x2="1070.0488" y1="861.6094" y2="861.6094"/><rect fill="none" height="6" style="stroke:#C82930;stroke-width:1;" width="6" x="780.5" y="872.2578"/><text fill="#000000" font-family="sans-serif" font-size="14" lengthAdjust="spacing" textLength="143.165" x="792.5" y="878.6045">componentId: String</text><line style="stroke:#5C6BC0;stroke-width:0.5;" x1="773.5" x2="1070.0488" y1="885.9063" y2="885.9063"/><ellipse cx="783.5" cy="899.5547" fill="#84BE84" rx="3" ry="3" style="stroke:#038048;stroke-width:1;"/><text fill="#000000" font-family="sans-serif" font-size="14" lengthAdjust="spacing" textLength="272.5488" x="792.5" y="902.9014">applySetting(setting: Setting): boolean</text><ellipse cx="783.5" cy="915.8516" fill="#84BE84" rx="3" ry="3" style="stroke:#038048;stroke-width:1;"/><text fill="#000000" font-family="sans-serif" font-size="14" lengthAdjust="spacing" textLength="117.1953" x="792.5" y="919.1982">getState(): State</text></g><g class="entity" data-entity="GMN20" data-source-line="98" data-uid="ent0021" id="entity_GMN20"><path d="M467,465.6094 L467,486.1094 L431.76,490.1094 L467,494.1094 L467,514.1406 A11,11 0 0 0 478,525.1406 L655.5596,525.1406 A11,11 0 0 0 666.5596,514.1406 L666.5596,464.6094 L656.5596,454.6094 L478,454.6094 A11,11 0 0 0 467,465.6094" fill="#FEFFDD" filter="url(#facj7krgkxidu)" style="stroke:#181818;stroke-width:0.5;"/><path d="M656.5596,454.6094 L656.5596,459.1094 A5.5,5.5 0 0 0 662.0596,464.6094 L666.5596,464.6094 L656.5596,454.6094" fill="#FEFFDD" style="stroke:#181818;stroke-width:0.5;"/><text fill="#000000" font-family="sans-serif" font-size="13" lengthAdjust="spacing" textLength="7.8013" x="473" y="471.6763">&#128161;</text><text fill="#000000" font-family="sans-serif" font-size="13" font-weight="bold" lengthAdjust="spacing" textLength="64.8667" x="484.9336" y="471.6763">AIEngine</text><text fill="#000000" font-family="sans-serif" font-size="13" lengthAdjust="spacing" textLength="86.0615" x="553.9326" y="471.6763">encapsulates</text><text fill="#000000" font-family="sans-serif" font-size="13" lengthAdjust="spacing" textLength="167.6479" x="473" y="486.8091">inference, prediction, and</text><text fill="#000000" font-family="sans-serif" font-size="13" lengthAdjust="spacing" textLength="148.9414" x="473" y="501.9419">adaptive learning logic</text><text fill="#000000" font-family="sans-serif" font-size="13" lengthAdjust="spacing" textLength="178.5596" x="473" y="517.0747">(on-device or cloud-based).</text></g><g class="entity" data-entity="GMN23" data-source-line="105" data-uid="ent0024" id="entity_GMN23"><path d="M182,283.6094 L182,317.0078 A11,11 0 0 0 193,328.0078 L437.1528,328.0078 A11,11 0 0 0 448.1528,317.0078 L448.1528,304.1094 L483.31,300.1094 L448.1528,296.1094 L448.1528,282.6094 L438.1528,272.6094 L193,272.6094 A11,11 0 0 0 182,283.6094" fill="#FEFFDD" filter="url(#facj7krgkxidu)" style="stroke:#181818;stroke-width:0.5;"/><path d="M438.1528,272.6094 L438.1528,277.1094 A5.5,5.5 0 0 0 443.6528,282.6094 L448.1528,282.6094 L438.1528,272.6094" fill="#FEFFDD" style="stroke:#181818;stroke-width:0.5;"/><text fill="#000000" font-family="sans-serif" font-size="13" lengthAdjust="spacing" textLength="7.8013" x="188" y="289.6763">&#128737;&#65039;</text><text fill="#000000" font-family="sans-serif" font-size="13" font-weight="bold" lengthAdjust="spacing" textLength="118.0918" x="199.9336" y="289.6763">PrivacyManager</text><text fill="#000000" font-family="sans-serif" font-size="13" lengthAdjust="spacing" textLength="51.3652" x="322.1577" y="289.6763">ensures</text><text fill="#000000" font-family="sans-serif" font-size="13" lengthAdjust="spacing" textLength="236.8882" x="188" y="304.8091">consent verification, anonymization,</text><text fill="#000000" font-family="sans-serif" font-size="13" lengthAdjust="spacing" textLength="165.8262" x="188" y="319.9419">and secure audit logging.</text></g><!--reverse link AIEngine to UserBehaviorModel--><g class="link" data-entity-1="AIEngine" data-entity-2="UserBehaviorModel" data-source-line="85" data-uid="lnk10" id="link_AIEngine_UserBehaviorModel"><path codeLine="85" d="M296,558.7494 C296,582.6294 296,598.6694 296,623.3794" fill="none" id="AIEngine-backto-UserBehaviorModel" style="stroke:#3949AB;stroke-width:1.3;"/><polygon fill="#3949AB" points="296,546.7494,292,552.7494,296,558.7494,300,552.7494,296,546.7494" style="stroke:#3949AB;stroke-width:1.3;"/><text fill="#000000" font-family="sans-serif" font-size="13" lengthAdjust="spacing" textLength="98.8203" x="297" y="589.6763">owns / updates</text></g><!--link ContextSensor to AIEngine--><g class="link" data-entity-1="ContextSensor" data-entity-2="AIEngine" data-source-line="86" data-uid="lnk11" id="link_ContextSensor_AIEngine"><path codeLine="86" d="M62.4,166.7794 C48.38,219.3194 36.7,298.4894 70,356.6094 C90.46,392.3294 119.4654,416.417 155.1854,436.427" fill="none" id="ContextSensor-to-AIEngine" style="stroke:#3949AB;stroke-width:1.3;"/><polygon fill="#3949AB" points="160.42,439.3594,154.523,431.4711,156.0578,436.9157,150.6132,438.4505,160.42,439.3594" style="stroke:#3949AB;stroke-width:1.3;"/><text fill="#000000" font-family="sans-serif" font-size="13" lengthAdjust="spacing" textLength="93.3232" x="71" y="304.6763">sends Context</text></g><!--link AIEngine to AutomationController--><g class="link" data-entity-1="AIEngine" data-entity-2="AutomationController" data-source-line="87" data-uid="lnk12" id="link_AIEngine_AutomationController"><path codeLine="87" d="M420.9,546.6194 C480.75,573.2194 546.7671,602.5625 606.6171,629.1625" fill="none" id="AIEngine-to-AutomationController" style="stroke:#3949AB;stroke-width:1.3;"/><polygon fill="#3949AB" points="612.1,631.5994,605.5002,624.2889,607.5309,629.5687,602.2511,631.5994,612.1,631.5994" style="stroke:#3949AB;stroke-width:1.3;"/><text fill="#000000" font-family="sans-serif" font-size="13" lengthAdjust="spacing" textLength="85.2427" x="517" y="589.6763">issues Action</text></g><!--link AutomationController to SystemOptimizer--><g class="link" data-entity-1="AutomationController" data-entity-2="SystemOptimizer" data-source-line="88" data-uid="lnk13" id="link_AutomationController_SystemOptimizer"><path codeLine="88" d="M682.24,744.7494 C655.71,771.7094 628.3885,799.4829 602.9985,825.2829" fill="none" id="AutomationController-to-SystemOptimizer" style="stroke:#3949AB;stroke-width:1.3;"/><polygon fill="#3949AB" points="598.79,829.5594,607.9538,825.9503,602.2971,825.9956,602.2518,820.339,598.79,829.5594" style="stroke:#3949AB;stroke-width:1.3;"/><text fill="#000000" font-family="sans-serif" font-size="13" lengthAdjust="spacing" textLength="202.249" x="645" y="795.6763">requests resource adjustments</text></g><!--link AutomationController to DeviceComponent--><g class="link" data-entity-1="AutomationController" data-entity-2="DeviceComponent" data-source-line="89" data-uid="lnk14" id="link_AutomationController_DeviceComponent"><path codeLine="89" d="M814.79,744.7994 C829.16,756.5694 843.55,769.4394 856,782.6094 C869.33,796.7194 878.668,808.7365 889.308,824.3965" fill="none" id="AutomationController-to-DeviceComponent" style="stroke:#3949AB;stroke-width:1.3;"/><polygon fill="#3949AB" points="892.68,829.3594,890.9306,819.6671,889.87,825.2237,884.3135,824.1631,892.68,829.3594" style="stroke:#3949AB;stroke-width:1.3;"/><text fill="#000000" font-family="sans-serif" font-size="13" lengthAdjust="spacing" textLength="97.1445" x="871" y="795.6763">applies Setting</text></g><!--link PrivacyManager to AIEngine--><g class="link" data-entity-1="PrivacyManager" data-entity-2="AIEngine" data-source-line="90" data-uid="lnk15" id="link_PrivacyManager_AIEngine"><path codeLine="90" d="M532.55,356.7494 C489.21,381.0094 443.746,406.4395 400.426,430.6795" fill="none" id="PrivacyManager-to-AIEngine" style="stroke:#3949AB;stroke-width:1.3;stroke-dasharray:7.0,7.0;"/><polygon fill="#3949AB" points="395.19,433.6094,404.9973,432.7053,399.5534,431.1678,401.0908,425.7239,395.19,433.6094" style="stroke:#3949AB;stroke-width:1.3;"/><text fill="#000000" font-family="sans-serif" font-size="13" lengthAdjust="spacing" textLength="179.3467" x="475" y="399.6763">policy / consent verification</text></g><!--link PrivacyManager to AutomationController--><g class="link" data-entity-1="PrivacyManager" data-entity-2="AutomationController" data-source-line="91" data-uid="lnk16" id="link_PrivacyManager_AutomationController"><path codeLine="91" d="M656.82,356.7394 C666.58,380.1394 677.28,407.8594 685,433.6094 C705.07,500.5294 718.9703,573.7599 727.5503,625.5999" fill="none" id="PrivacyManager-to-AutomationController" style="stroke:#3949AB;stroke-width:1.3;stroke-dasharray:7.0,7.0;"/><polygon fill="#3949AB" points="728.53,631.5194,731.0067,621.987,727.7136,626.5865,723.1141,623.2933,728.53,631.5194" style="stroke:#3949AB;stroke-width:1.3;"/><text fill="#000000" font-family="sans-serif" font-size="13" lengthAdjust="spacing" textLength="125.6582" x="713" y="494.6763">policy enforcement</text></g><!--reverse link UserInterface to AIEngine--><g class="link" data-entity-1="UserInterface" data-entity-2="AIEngine" data-source-line="92" data-uid="lnk17" id="link_UserInterface_AIEngine"><path codeLine="92" d="M841.7608,350.6641 C785.8108,370.0541 724.64,389.2594 663,403.6094 C569.89,425.2794 542.79,410.6194 450,433.6094 C443.93,435.1094 437.77,436.7694 431.57,438.5394" fill="none" id="UserInterface-backto-AIEngine" style="stroke:#3949AB;stroke-width:1.3;stroke-dasharray:7.0,7.0;"/><polygon fill="#3949AB" points="847.43,348.6994,837.6164,347.867,842.7057,350.3366,840.236,355.4259,847.43,348.6994" style="stroke:#3949AB;stroke-width:1.3;"/><text fill="#000000" font-family="sans-serif" font-size="13" lengthAdjust="spacing" textLength="155.7651" x="724" y="399.6763">feedback / explanations</text></g><!--link UserInterface to AutomationController--><g class="link" data-entity-1="UserInterface" data-entity-2="AutomationController" data-source-line="93" data-uid="lnk18" id="link_UserInterface_AutomationController"><path codeLine="93" d="M953.4,348.6894 C929.73,399.2294 889.44,480.7494 847,546.6094 C828.21,575.7794 808.5793,601.6492 788.1993,626.7792" fill="none" id="UserInterface-to-AutomationController" style="stroke:#3949AB;stroke-width:1.3;"/><polygon fill="#3949AB" points="784.42,631.4394,793.1957,626.9687,787.5694,627.5559,786.9822,621.9296,784.42,631.4394" style="stroke:#3949AB;stroke-width:1.3;"/><text fill="#000000" font-family="sans-serif" font-size="13" lengthAdjust="spacing" textLength="119.7676" x="910" y="494.6763">user-issued Action</text></g><!--link ContextSensor to UserInterface--><g class="link" data-entity-1="ContextSensor" data-entity-2="UserInterface" data-source-line="94" data-uid="lnk19" id="link_ContextSensor_UserInterface"><path codeLine="94" d="M155.17,121.7794 C286.02,141.2794 565.95,186.0094 798,243.6094 C807.85,246.0494 812.169,247.1332 822.319,249.9532" fill="none" id="ContextSensor-to-UserInterface" style="stroke:#3949AB;stroke-width:1.3;stroke-dasharray:7.0,7.0;"/><polygon fill="#3949AB" points="828.1,251.5594,820.4992,245.2961,823.2825,250.2209,818.3577,253.0042,828.1,251.5594" style="stroke:#3949AB;stroke-width:1.3;"/><text fill="#000000" font-family="sans-serif" font-size="13" lengthAdjust="spacing" textLength="136.6968" x="663" y="209.6763">optional notifications</text></g><!--SRC=[VLRTRY8t5BxdAQn4wWvfe9iGyeEIbKXegrIRJHIolJVs6N0nzgpj8Q6hla8hzQ8tlQXMwaFqhTf7wF4FC0FivYBC79-VxtpdP_oA_FVNxx-I0LWnLkI8jCXG0ap9ZTQINCiIo5VaHw4bEF8qWHcGh7zBgEAaNpezeqveHMuajPOC11qREcisd70IqEtVVv1jtLPTcsH3PqhcIWCSuy1piz5uHQwkhiZtKe-e94Eta62zf66dGXNK6uqecuwDBXM_qL8RifztyxESLZJiX7BzBDIOe7ke70Ghfeq2GuwFAmTzO_HpSjUvEBcWeyt3fubWKmK8_gZTMSACsLnBpQO1gmzP1yk2niS68TTRiCEVFz66WqdIBZiTiTSe_KuhbsH7zBXp1aas53y3EJfPldc6o4XBZeB7w3scvtqCwqJyiiJz58gq6t4iuCSwWkFpJlUYKqM0z6qXMFdlZwmpb3do3RQIWSXJAYHTdaLg-hVVgh5GGFRX76X-6Y9_JGgZ6P9zWm7WnMNClVH8Ucdso5mBdjI02-RwpBTNXYVnAPoL1QSExZG7cU4JxP41_gzQmqiXgL03OC8cUsn8fCHd4k6zjs2kOKBdGflW2d5oE4iuMwIWpe5HjaVkQ14aQERUXz0yH8GdCOCGRWpkmK0E1XJcvgDLNYkGFuCMaGWgaNjl-SFm_jqQPM9c2ChwQa4dFyvvGcY3y9QlSlE-353ktIJ3wBySMMR423973M9jfgYAlnKvPi6cMNCTSZtLteVHKcBJxRCket2H8dyeeOGUUIkikunrUPDe1rPYcZJ8bZL3D8zWIvd0i0dmKcug7M9xpc3DQvKVHf57cGpM-IvLLiY72-jWTb-W9oGJGVCZTh82NMWfs09B4tw3Oyf_Agr3SBeqld1XJco06oGFuRqA1TaREkfA6rlAFwtZFnWnfsnnHnKT1yxEuPGjmpEja74tk0uDTUdRxz1NoGiZUqWCcoR9DeKZtDn0um1GfTN2vrXlAFyJpgKUzvcViWnT6SovNtA1UUA2v5kiUIIts2mcfmo7DUz0D- -cOLNQYNoHpUnua_G0mtgukJ2nNJ8SxLdXAffLpCYSZtG_1sC4Xyf8hv0CO2uOtA0JhH0uOdcTdx3EYi0at-XuMXHoCGJdK93P-8iAyM4RX2yQBAjNsPoF84CMTYAAkCzM2-oWrTgnBdfaJpyhYvim3hVTQzIdjTLwirw2gEq7RZNHUsltGM_NqA6DiBR4zHgPGfjTQjv-i_NHr02EgNKMLqBivjJkCwJGVi7LPXNGbQTO88n4wbvZezFRxNgcSTIGcTJq18ikSi5ep6ANzMVoJvv0vHepyD3t6lM6lMotQx5p0Eul4XWzV0LKhEgcsPT8Br6p5PZdA-RhfVMGw_vyDnHU5IytOMfIjXWuDTWxxTA74i-1636UEABp5NXiKBopVI871ql9mG4cpcY1kzFt5o6e8bJwhXmkFv5XUVhhc3-cd2AAEH1iUQFy7G1tWM3XBDEgnKDn2QR0f2vvQqGjy6QxWQtfOKCZWfEG1sprIWM4Vtxwzv_V46JzA42rUDsBA7VL_N2rjj9hm8jnBNuqy2f1_OxoS37ryHhH_m00]--></g></svg>