<svg xmlns="http://www.w3.org/2000/svg" xmlns:xlink="http://www.w3.org/1999/xlink" contentStyleType="text/css" data-diagram-type="DESCRIPTION" height="387px" preserveAspectRatio="none" style="width:913px;height:387px;background:#F7F9FB;" version="1.1" viewBox="0 0 913 387" width="913px" zoomAndPan="magnify"><defs><filter height="300%" id="fpyee8jffgo4s" width="300%" x="-1" y="-1"><feGaussianBlur result="blurOut" stdDeviation="2"/><feColorMatrix in="blurOut" result="blurOut2" type="matrix" values="0 0 0 0 0 0 0 0 0 0 0 0 0 0 0 0 0 0 .4 0"/><feOffset dx="4" dy="4" in="blurOut2" result="blurOut3"/><feBlend in="SourceGraphic" in2="blurOut3" mode="normal"/></filter></defs><g><rect fill="#F7F9FB" height="387" style="stroke:none;stroke-width:1;" width="913" x="0" y="0"/><!--cluster ATM--><g class="cluster" data-entity="ATM" data-source-line="46" data-uid="ent0004" id="cluster_ATM"><rect fill="#EDE7F6" filter="url(#fpyee8jffgo4s)" height="308" rx="12.5" ry="12.5" style="stroke:#4527A0;stroke-width:1;" width="552" x="131" y="7"/><text fill="#311B92" font-family="sans-serif" font-size="18" font-weight="bold" lengthAdjust="spacing" textLength="190.3359" x="311.832" y="25.708">&#127975; ATM Control Unit</text></g><!--entity UC1--><g class="entity" data-entity="UC1" data-source-line="47" data-uid="ent0005" id="entity_UC1"><ellipse cx="242.1045" cy="63.8209" fill="#E3F2FD" rx="77.1045" ry="17.8209" style="stroke:#90A4AE;stroke-width:1.3;"/><text fill="#263238" font-family="sans-serif" font-size="15" lengthAdjust="spacing" textLength="119.7656" x="182.2217" y="69.0514">&#128179; Card Insertion</text></g><!--entity UC2--><g class="entity" data-entity="UC2" data-source-line="48" data-uid="ent0006" id="entity_UC2"><ellipse cx="241.7804" cy="138.8561" fill="#D1C4E9" rx="94.7804" ry="21.3561" style="stroke:#90A4AE;stroke-width:1.3;"/><text fill="#263238" font-family="sans-serif" font-size="15" lengthAdjust="spacing" textLength="161.4697" x="161.0456" y="144.0866">&#128273; Identity Verification</text></g><!--entity UC3--><g class="entity" data-entity="UC3" data-source-line="49" data-uid="ent0007" id="entity_UC3"><ellipse cx="242.0433" cy="213.1087" fill="#C8E6C9" rx="76.0433" ry="17.6087" style="stroke:#90A4AE;stroke-width:1.3;"/><text fill="#263238" font-family="sans-serif" font-size="15" lengthAdjust="spacing" textLength="117.1289" x="183.4788" y="218.3391">&#128176; Cash Request</text></g><!--entity UC4--><g class="entity" data-entity="UC4" data-source-line="50" data-uid="ent0008" id="entity_UC4"><ellipse cx="564.3373" cy="197.1675" fill="#FFF9C4" rx="91.3373" ry="20.6675" style="stroke:#90A4AE;stroke-width:1.3;"/><text fill="#263238" font-family="sans-serif" font-size="15" lengthAdjust="spacing" textLength="153.5962" x="487.5392" y="202.3979">&#129518; Balance Validation</text></g><!--entity UC5--><g class="entity" data-entity="UC5" data-source-line="51" data-uid="ent0009" id="entity_UC5"><ellipse cx="564.7384" cy="123.1477" fill="#FFE0B2" rx="78.7384" ry="18.1477" style="stroke:#90A4AE;stroke-width:1.3;"/><text fill="#263238" font-family="sans-serif" font-size="15" lengthAdjust="spacing" textLength="123.7866" x="502.8451" y="128.3782">&#128181; Cash Delivery</text></g><!--entity UC6--><g class="entity" data-entity="UC6" data-source-line="52" data-uid="ent0010" id="entity_UC6"><ellipse cx="564.5962" cy="275.9192" fill="#F0F4C3" rx="102.5962" ry="22.9192" style="stroke:#90A4AE;stroke-width:1.3;"/><text fill="#263238" font-family="sans-serif" font-size="15" lengthAdjust="spacing" textLength="179.0405" x="475.0759" y="281.1497">&#129534; Transaction Summary</text></g><!--entity UC7--><g class="entity" data-entity="UC7" data-source-line="53" data-uid="ent0011" id="entity_UC7"><ellipse cx="242.1253" cy="282.1251" fill="#FFCCBC" rx="71.1253" ry="16.6251" style="stroke:#90A4AE;stroke-width:1.3;"/><text fill="#263238" font-family="sans-serif" font-size="15" lengthAdjust="spacing" textLength="104.6045" x="189.823" y="287.3555">&#128160; Card Return</text></g><!--entity C--><g class="entity" data-entity="C" data-source-line="43" data-uid="ent0002" id="entity_C"><ellipse cx="44.8594" cy="189.5" fill="#2E7D32" filter="url(#fpyee8jffgo4s)" rx="16" ry="16" style="stroke:#2E7D32;stroke-width:0.5;"/><path d="M44.8594,209.5 C48.8594,209.5 51.8594,209.5 55.8594,205.5 C63.8594,205.5 71.8594,213.5 71.8594,221.5 L71.8594,225.5 C71.8594,229.5 67.8594,233.5 63.8594,233.5 L25.8594,233.5 C21.8594,233.5 17.8594,229.5 17.8594,225.5 L17.8594,221.5 C17.8594,213.5 25.8594,205.5 33.8594,205.5 C37.8594,209.5 40.8594,209.5 44.8594,209.5" fill="#2E7D32" filter="url(#fpyee8jffgo4s)"/><text fill="#1B5E20" font-family="sans-serif" font-size="16" lengthAdjust="spacing" textLength="77.7188" x="6" y="248.8516">Customer</text></g><!--entity Bank--><g class="entity" data-entity="Bank" data-source-line="44" data-uid="ent0003" id="entity_Bank"><ellipse cx="850.0391" cy="92.5" fill="#1565C0" filter="url(#fpyee8jffgo4s)" rx="16" ry="16" style="stroke:#2E7D32;stroke-width:0.5;"/><path d="M850.0391,112.5 C854.0391,112.5 857.0391,112.5 861.0391,108.5 C869.0391,108.5 877.0391,116.5 877.0391,124.5 L877.0391,128.5 C877.0391,132.5 873.0391,136.5 869.0391,136.5 L831.0391,136.5 C827.0391,136.5 823.0391,132.5 823.0391,128.5 L823.0391,124.5 C823.0391,116.5 831.0391,108.5 839.0391,108.5 C843.0391,112.5 846.0391,112.5 850.0391,112.5" fill="#1565C0" filter="url(#fpyee8jffgo4s)" style="stroke:#2E7D32;stroke-width:0.5;"/><text fill="#1B5E20" font-family="sans-serif" font-size="16" lengthAdjust="spacing" textLength="112.0781" x="794" y="151.8516">Bank Network</text></g><!--link C to UC1--><g class="link" data-entity-1="C" data-entity-2="UC1" data-source-line="57" data-uid="lnk12" id="link_C_UC1"><path d="M64.63,172.77 C77.78,148.48 97.57,118.71 123,100 C139.39,87.94 154.0808,81.4827 173.3608,76.1027" fill="none" id="C-to-UC1" style="stroke:#455A64;stroke-width:1.4;"/><polygon fill="#455A64" points="179.14,74.49,169.3961,73.0562,174.324,75.8339,171.5463,80.7618,179.14,74.49" style="stroke:#455A64;stroke-width:1.4;"/></g><!--link C to UC2--><g class="link" data-entity-1="C" data-entity-2="UC2" data-source-line="58" data-uid="lnk13" id="link_C_UC2"><path d="M84.04,194.73 C96.35,189.08 110.15,183.03 123,178 C142.89,170.21 159.343,164.4721 179.033,158.0821" fill="none" id="C-to-UC2" style="stroke:#455A64;stroke-width:1.4;"/><polygon fill="#455A64" points="184.74,156.23,174.9448,155.2035,179.9842,157.7734,177.4142,162.8128,184.74,156.23" style="stroke:#455A64;stroke-width:1.4;"/></g><!--link C to UC3--><g class="link" data-entity-1="C" data-entity-2="UC3" data-source-line="59" data-uid="lnk14" id="link_C_UC3"><path d="M84.06,213 C107.34,213 131.92,213 159.9,213" fill="none" id="C-to-UC3" style="stroke:#455A64;stroke-width:1.4;"/><polygon fill="#455A64" points="165.9,213,156.9,209,160.9,213,156.9,217,165.9,213" style="stroke:#455A64;stroke-width:1.4;"/></g><!--link C to UC6--><g class="link" data-entity-1="C" data-entity-2="UC6" data-source-line="60" data-uid="lnk15" id="link_C_UC6"><path d="M64.3,253.05 C77.15,276.03 96.75,302.85 123,316 C252.59,380.92 424.9404,330.489 509.4904,298.399" fill="none" id="C-to-UC6" style="stroke:#455A64;stroke-width:1.4;"/><polygon fill="#455A64" points="515.1,296.27,505.2663,295.7239,510.4254,298.0442,508.105,303.2033,515.1,296.27" style="stroke:#455A64;stroke-width:1.4;"/></g><!--link C to UC7--><g class="link" data-entity-1="C" data-entity-2="UC7" data-source-line="61" data-uid="lnk16" id="link_C_UC7"><path d="M84.32,231.74 C96.52,237.36 110.19,243.27 123,248 C145.7,256.38 165.6811,262.4324 187.3311,268.3324" fill="none" id="C-to-UC7" style="stroke:#455A64;stroke-width:1.4;"/><polygon fill="#455A64" points="193.12,269.91,185.4884,263.6844,188.2959,268.5954,183.3849,271.4029,193.12,269.91" style="stroke:#455A64;stroke-width:1.4;"/></g><!--link UC3 to UC4--><g class="link" data-entity-1="UC3" data-entity-2="UC4" data-source-line="63" data-uid="lnk17" id="link_UC3_UC4"><path d="M316.53,209.33 C363.66,206.97 419.1075,204.2096 468.9175,201.7196" fill="none" id="UC3-to-UC4" style="stroke:#455A64;stroke-width:1.4;"/><polygon fill="#455A64" points="474.91,201.42,465.7215,197.8743,469.9162,201.6696,466.1209,205.8644,474.91,201.42" style="stroke:#455A64;stroke-width:1.4;"/><text fill="#000000" font-family="sans-serif" font-size="13" lengthAdjust="spacing" textLength="63.0068" x="368" y="200.0669">&#171;include&#187;</text></g><!--link UC3 to UC5--><g class="link" data-entity-1="UC3" data-entity-2="UC5" data-source-line="64" data-uid="lnk18" id="link_UC3_UC5"><path d="M290.98,199.52 C351.05,182.65 447.6434,155.532 508.3634,138.482" fill="none" id="UC3-to-UC5" style="stroke:#455A64;stroke-width:1.4;"/><polygon fill="#455A64" points="514.14,136.86,504.3938,135.442,509.3262,138.2117,506.5565,143.1441,514.14,136.86" style="stroke:#455A64;stroke-width:1.4;"/></g><!--link UC3 to UC6--><g class="link" data-entity-1="UC3" data-entity-2="UC6" data-source-line="65" data-uid="lnk19" id="link_UC3_UC6"><path d="M300.3,224.26 C352.33,234.49 423.5926,248.4929 480.9326,259.7629" fill="none" id="UC3-to-UC6" style="stroke:#455A64;stroke-width:1.4;"/><polygon fill="#455A64" points="486.82,260.92,478.7604,255.2594,481.9139,259.9557,477.2175,263.1092,486.82,260.92" style="stroke:#455A64;stroke-width:1.4;"/><text fill="#000000" font-family="sans-serif" font-size="13" lengthAdjust="spacing" textLength="61.1851" x="369" y="235.0669">&#171;extend&#187;</text></g><!--link UC2 to Bank--><g class="link" data-entity-1="UC2" data-entity-2="Bank" data-source-line="67" data-uid="lnk20" id="link_UC2_Bank"><path d="M299.53,121.73 C343.37,109.29 405.92,93.56 462,87 C563.09,75.16 589.64,77.77 691,87 C725.44,90.13 757.7162,95.8058 787.8962,102.0958" fill="none" id="UC2-to-Bank" style="stroke:#455A64;stroke-width:1.4;"/><polygon fill="#455A64" points="793.77,103.32,785.7754,97.5679,788.8752,102.2998,784.1432,105.3996,793.77,103.32" style="stroke:#455A64;stroke-width:1.4;"/><text fill="#000000" font-family="sans-serif" font-size="13" lengthAdjust="spacing" textLength="63.0068" x="533" y="76.0669">&#171;include&#187;</text></g><!--link UC4 to Bank--><g class="link" data-entity-1="UC4" data-entity-2="Bank" data-source-line="68" data-uid="lnk21" id="link_UC4_Bank"><path d="M621.85,180.9 C671.75,166.64 738.3808,147.598 787.9508,133.438" fill="none" id="UC4-to-Bank" style="stroke:#455A64;stroke-width:1.4;"/><polygon fill="#455A64" points="793.72,131.79,783.9675,130.4159,788.9123,133.1633,786.1648,138.1082,793.72,131.79" style="stroke:#455A64;stroke-width:1.4;"/><text fill="#000000" font-family="sans-serif" font-size="13" lengthAdjust="spacing" textLength="63.0068" x="700" y="139.0669">&#171;include&#187;</text></g><!--SRC=[VLJDRjD04BxxAKQDH4z1yMyIL5LgGq4zb4FIzhvUZvCbpcxPNHC2uXaG5VVsrXj2GbnvfZu2k-l4s2R51siztpSpt_oi3-7nxlOUffWpZXayWmkHeUHmSda1iutIk88-d1Ku9rp3sKgyPN2DKZ71FQ_0N8CM8DbyeI5Z4gbsm27q-truNOYK533JcmAjmLDBnc-892j82LtEfIXvDX65aD3BX_auJniCjI2PM3C-1orBR03EYmh9KK8GD80JASLw6owAOv94NV1omUYIerBWFuzsAgyKmeIObzLfyxMLbWgfHJzv0AV_g7QFHOGqNTjQnmCI4JJMLuBhhIr8mY0SRMqpzX71Zsk_fgxGM6VjsZ_lf9vGRMBjrqaSjbSbZl8OnrsL0GwpC6YhzDCOWq5BPMBrk0cIDIgnml_ecvhv4puldkgbhF7zEZCSvabNPnG7Gs8rJIjgDVYu9NBKBYFq_NIyAwqIdueYswkywjkaLDhK9e4ecDIzgR23KyANy0RrMiZbWMKuGy-FavWEFEzlLGUFTryUtCsPcCHI5735cNOkrcYBtgsJeTx-D7idCpZd2gMzDuvuDV5D9y8yoBCs_TjNEC-GQwOtzWQod57Iy0gWb_aqSdDk9lbXbtjXHlEkHAMtv11wT8G9xP0VlflI2i8fmZKfMDQC7xbj7zEe4_zN5Vyb5kmzoisM7Lis3jAWa-0tN4h25N7_2PYLgnMfVHBZCyWZ6dOot5Tjcg8kvKxDqCQdDANDvIkSNhLWDyejtiIyZsr3wrDGdyBwbDIdeUVPrbGV4Ro0eoF6QL5cU7pSGEB6EN4i_A2HPuRasJbOn6r8Dq3q1FG7]--></g></svg>