<svg xmlns="http://www.w3.org/2000/svg" xmlns:xlink="http://www.w3.org/1999/xlink" contentStyleType="text/css" data-diagram-type="DESCRIPTION" height="430.2083px" preserveAspectRatio="none" style="width:918px;height:430px;background:#F5F7FA;" version="1.1" viewBox="0 0 918 430" width="918.75px" zoomAndPan="magnify"><defs><filter height="300%" id="f1m5jzs8zav6us" width="300%" x="-1" y="-1"><feGaussianBlur result="blurOut" stdDeviation="2.0833"/><feColorMatrix in="blurOut" result="blurOut2" type="matrix" values="0 0 0 0 0 0 0 0 0 0 0 0 0 0 0 0 0 0 .4 0"/><feOffset dx="4.1667" dy="4.1667" in="blurOut2" result="blurOut3"/><feBlend in="SourceGraphic" in2="blurOut3" mode="normal"/></filter></defs><g><rect fill="#F5F7FA" height="430.2083" style="stroke:none;stroke-width:1.0417;" width="918.75" x="0" y="0"/><!--cluster ATM--><g class="cluster" data-entity="ATM" data-source-line="35" data-uid="ent0004" id="cluster_ATM"><rect fill="#E3F2FD" filter="url(#f1m5jzs8zav6us)" height="335.4167" rx="7.8125" ry="7.8125" style="stroke:#1565C0;stroke-width:2.0833;" width="519.7917" x="152.0833" y="17.7083"/><text fill="#0D47A1" font-family="Verdana" font-size="18.75" font-weight="bold" lengthAdjust="spacing" textLength="148.3704" x="337.794" y="42.4042">&#127975; ATM System</text></g><!--entity UC1--><g class="entity" data-entity="UC1" data-source-line="36" data-uid="ent0005" id="entity_UC1"><ellipse cx="262.1769" cy="87.7114" fill="#F8BBD0" rx="64.7811" ry="18.9614" style="stroke:#2C3E50;stroke-width:1.5625;"/><text fill="#2C3E50" font-family="Verdana" font-size="15.625" lengthAdjust="spacing" textLength="100.9521" x="211.7008" y="93.1598">&#128179; Insert Card</text></g><!--entity UC2--><g class="entity" data-entity="UC2" data-source-line="37" data-uid="ent0006" id="entity_UC2"><ellipse cx="261.9168" cy="164.3625" fill="#BBDEFB" rx="93.1668" ry="21.1334" style="stroke:#2C3E50;stroke-width:1.5625;"/><text fill="#2C3E50" font-family="Verdana" font-size="15.625" lengthAdjust="spacing" textLength="155.4337" x="184.2" y="169.8109">&#128272; Authenticate User</text></g><!--entity UC3--><g class="entity" data-entity="UC3" data-source-line="38" data-uid="ent0007" id="entity_UC3"><ellipse cx="262.0542" cy="242.6192" fill="#C8E6C9" rx="86.0125" ry="19.7025" style="stroke:#2C3E50;stroke-width:1.5625;"/><text fill="#2C3E50" font-family="Verdana" font-size="15.625" lengthAdjust="spacing" textLength="138.6032" x="192.7526" y="248.0676">&#128181; Withdraw Cash</text></g><!--entity UC4--><g class="entity" data-entity="UC4" data-source-line="39" data-uid="ent0008" id="entity_UC4"><ellipse cx="572.8052" cy="241.5867" fill="#FFF9C4" rx="82.1802" ry="19.1909" style="stroke:#2C3E50;stroke-width:1.5625;"/><text fill="#2C3E50" font-family="Verdana" font-size="15.625" lengthAdjust="spacing" textLength="130.3406" x="507.6349" y="247.0351">&#128176; Validate Funds</text></g><!--entity UC5--><g class="entity" data-entity="UC5" data-source-line="40" data-uid="ent0009" id="entity_UC5"><ellipse cx="572.8517" cy="166.5817" fill="#FFE0B2" rx="81.7059" ry="19.1859" style="stroke:#2C3E50;stroke-width:1.5625;"/><text fill="#2C3E50" font-family="Verdana" font-size="15.625" lengthAdjust="spacing" textLength="129.5395" x="508.082" y="172.0301">&#127975; Dispense Cash</text></g><!--entity UC6--><g class="entity" data-entity="UC6" data-source-line="41" data-uid="ent0010" id="entity_UC6"><ellipse cx="572.8519" cy="316.4769" fill="#D1C4E9" rx="72.8519" ry="19.0811" style="stroke:#2C3E50;stroke-width:1.5625;"/><text fill="#2C3E50" font-family="Verdana" font-size="15.625" lengthAdjust="spacing" textLength="114.5859" x="515.559" y="321.9253">&#129534; Print Receipt</text></g><!--entity UC7--><g class="entity" data-entity="UC7" data-source-line="42" data-uid="ent0011" id="entity_UC7"><ellipse cx="262.1109" cy="317.8544" fill="#FFCCBC" rx="61.0692" ry="18.8961" style="stroke:#2C3E50;stroke-width:1.5625;"/><text fill="#2C3E50" font-family="Verdana" font-size="15.625" lengthAdjust="spacing" textLength="94.6808" x="214.7705" y="323.3028">&#128179; Eject Card</text></g><!--entity C--><g class="entity" data-entity="C" data-source-line="32" data-uid="ent0002" id="entity_C"><ellipse cx="57.1452" cy="213.0208" fill="#1E88E5" filter="url(#f1m5jzs8zav6us)" rx="16.6667" ry="16.6667" style="stroke:#1E88E5;stroke-width:1.0417;"/><path d="M57.1452,233.8542 C61.3118,233.8542 64.4368,233.8542 68.6035,229.6875 C76.9368,229.6875 85.2702,238.0208 85.2702,246.3542 L85.2702,250.5208 C85.2702,254.6875 81.1035,258.8542 76.9368,258.8542 L37.3535,258.8542 C33.1868,258.8542 29.0202,254.6875 29.0202,250.5208 L29.0202,246.3542 C29.0202,238.0208 37.3535,229.6875 45.6868,229.6875 C49.8535,233.8542 52.9785,233.8542 57.1452,233.8542" fill="#1E88E5" filter="url(#f1m5jzs8zav6us)"/><text fill="#1E88E5" font-family="Verdana" font-size="16.6667" lengthAdjust="spacing" textLength="80.957" x="16.6667" y="280.5745">Customer</text></g><!--entity Bank--><g class="entity" data-entity="Bank" data-source-line="33" data-uid="ent0003" id="entity_Bank"><ellipse cx="852.5716" cy="127.6042" fill="#43A047" filter="url(#f1m5jzs8zav6us)" rx="16.6667" ry="16.6667" style="stroke:#1E88E5;stroke-width:1.0417;"/><path d="M852.5716,148.4375 C856.7383,148.4375 859.8633,148.4375 864.0299,144.2708 C872.3633,144.2708 880.6966,152.6042 880.6966,160.9375 L880.6966,165.1042 C880.6966,169.2708 876.5299,173.4375 872.3633,173.4375 L832.7799,173.4375 C828.6133,173.4375 824.4466,169.2708 824.4466,165.1042 L824.4466,160.9375 C824.4466,152.6042 832.7799,144.2708 841.1133,144.2708 C845.2799,148.4375 848.4049,148.4375 852.5716,148.4375" fill="#43A047" filter="url(#f1m5jzs8zav6us)" style="stroke:#1E88E5;stroke-width:1.0417;"/><text fill="#1E88E5" font-family="Verdana" font-size="16.6667" lengthAdjust="spacing" textLength="109.3099" x="797.9167" y="195.1579">Bank System</text></g><!--link C to UC1--><g class="link" data-entity-1="C" data-entity-2="UC1" data-source-line="46" data-uid="lnk12" id="link_C_UC1"><path d="M83.1667,195.1458 C97.8854,171.0833 118.5938,143.1979 143.75,125 C162.1771,111.6563 179.5266,104.549 200.537,98.9032" fill="none" id="C-to-UC1" style="stroke:#34495E;stroke-width:3.125;"/><polygon fill="#34495E" points="206.5729,97.2812,196.4378,95.6902,201.543,98.6329,198.6004,103.7381,206.5729,97.2812" style="stroke:#34495E;stroke-width:3.125;"/></g><!--link C to UC2--><g class="link" data-entity-1="C" data-entity-2="UC2" data-source-line="47" data-uid="lnk13" id="link_C_UC2"><path d="M103.1979,221.4688 C116.1667,215.5937 130.4271,209.4063 143.75,204.1667 C163.9375,196.2188 180.4938,190.3497 200.3479,183.7768" fill="none" id="C-to-UC2" style="stroke:#34495E;stroke-width:3.125;"/><polygon fill="#34495E" points="206.2813,181.8125,196.0718,180.8034,201.3368,183.4494,198.6908,188.7145,206.2813,181.8125" style="stroke:#34495E;stroke-width:3.125;"/></g><!--link C to UC3--><g class="link" data-entity-1="C" data-entity-2="UC3" data-source-line="48" data-uid="lnk14" id="link_C_UC3"><path d="M103.3021,242.7083 C124.6354,242.7083 144.6042,242.7083 169.4896,242.7083" fill="none" id="C-to-UC3" style="stroke:#34495E;stroke-width:3.125;"/><polygon fill="#34495E" points="175.7396,242.7083,166.3646,238.5417,170.5313,242.7083,166.3646,246.875,175.7396,242.7083" style="stroke:#34495E;stroke-width:3.125;"/></g><!--link C to UC6--><g class="link" data-entity-1="C" data-entity-2="UC6" data-source-line="49" data-uid="lnk15" id="link_C_UC6"><path d="M81.4167,290.375 C95.75,314.2188 116.6458,340.7813 143.75,354.1667 C274.3854,418.6354 448.9572,365.1888 527.228,335.1263" fill="none" id="C-to-UC6" style="stroke:#34495E;stroke-width:3.125;"/><polygon fill="#34495E" points="533.0625,332.8854,522.8169,332.3572,528.2005,334.7528,525.8048,340.1364,533.0625,332.8854" style="stroke:#34495E;stroke-width:3.125;"/></g><!--link C to UC7--><g class="link" data-entity-1="C" data-entity-2="UC7" data-source-line="50" data-uid="lnk16" id="link_C_UC7"><path d="M103.1875,263.4375 C116.1563,269.1563 130.4167,275.1563 143.75,280.2083 C167.7292,289.2708 188.9925,296.254 211.18,303.0456" fill="none" id="C-to-UC7" style="stroke:#34495E;stroke-width:3.125;"/><polygon fill="#34495E" points="217.1563,304.875,209.4114,298.1468,212.176,303.3505,206.9723,306.1151,217.1563,304.875" style="stroke:#34495E;stroke-width:3.125;"/></g><!--link UC3 to UC4--><g class="link" data-entity-1="UC3" data-entity-2="UC4" data-source-line="52" data-uid="lnk17" id="link_UC3_UC4"><path d="M348.2292,242.4167 C392.6042,242.2708 440.3334,242.1041 484.1459,241.9583" fill="none" id="UC3-to-UC4" style="stroke:#34495E;stroke-width:3.125;"/><polygon fill="#34495E" points="490.3958,241.9375,481.007,237.8021,485.1875,241.9548,481.0348,246.1353,490.3958,241.9375" style="stroke:#34495E;stroke-width:3.125;"/><text fill="#FFFFFF" font-family="Verdana" font-size="12.5" lengthAdjust="spacing" textLength="60.5835" x="392.7083" y="234.5194">&#171;include&#187;</text></g><!--link UC3 to UC5--><g class="link" data-entity-1="UC3" data-entity-2="UC5" data-source-line="53" data-uid="lnk18" id="link_UC3_UC5"><path d="M316.0313,227.3125 C337.7813,221.1563 363.2708,214.1563 386.4583,208.3333 C428.0521,197.875 469.1108,188.6165 505.4649,180.7311" fill="none" id="UC3-to-UC5" style="stroke:#34495E;stroke-width:3.125;"/><polygon fill="#34495E" points="511.5729,179.4063,501.5277,177.3215,506.4829,180.5103,503.2942,185.4655,511.5729,179.4063" style="stroke:#34495E;stroke-width:3.125;"/></g><!--link UC3 to UC6--><g class="link" data-entity-1="UC3" data-entity-2="UC6" data-source-line="54" data-uid="lnk19" id="link_UC3_UC6"><path d="M316,258.2292 C337.75,264.3958 363.2396,271.375 386.4583,277.0833 C428.9688,287.5313 471.2294,296.557 507.9169,304.0153" fill="none" id="UC3-to-UC6" style="stroke:#34495E;stroke-width:3.125;"/><polygon fill="#34495E" points="514.0417,305.2604,505.6847,299.3096,508.9377,304.2228,504.0245,307.4759,514.0417,305.2604" style="stroke:#34495E;stroke-width:3.125;"/><text fill="#FFFFFF" font-family="Verdana" font-size="12.5" lengthAdjust="spacing" textLength="58.8318" x="393.75" y="268.8944">&#171;extend&#187;</text></g><!--link UC2 to Bank--><g class="link" data-entity-1="UC2" data-entity-2="Bank" data-source-line="56" data-uid="lnk20" id="link_UC2_Bank"><path d="M333.4375,150.75 C378.2396,142.6667 437.5938,133.2604 490.625,129.1667 C574.6354,122.6667 596.2292,122.3125 680.2083,129.1667 C717.7708,132.2292 753.3561,137.8534 786.2311,143.9888" fill="none" id="UC2-to-Bank" style="stroke:#34495E;stroke-width:3.125;"/><polygon fill="#34495E" points="792.375,145.1354,783.9235,139.3195,787.2551,144.1799,782.3947,147.5114,792.375,145.1354" style="stroke:#34495E;stroke-width:3.125;"/><text fill="#FFFFFF" font-family="Verdana" font-size="12.5" lengthAdjust="spacing" textLength="60.5835" x="542.7083" y="116.8111">&#171;include&#187;</text></g><!--link UC4 to Bank--><g class="link" data-entity-1="UC4" data-entity-2="Bank" data-source-line="57" data-uid="lnk21" id="link_UC4_Bank"><path d="M623.9063,226.4792 C671.2083,212.1042 736.2699,192.3273 786.3949,177.0981" fill="none" id="UC4-to-Bank" style="stroke:#34495E;stroke-width:3.125;"/><polygon fill="#34495E" points="792.375,175.2813,782.1936,174.0199,787.3916,176.7953,784.6161,181.9933,792.375,175.2813" style="stroke:#34495E;stroke-width:3.125;"/><text fill="#FFFFFF" font-family="Verdana" font-size="12.5" lengthAdjust="spacing" textLength="60.5835" x="694.7917" y="179.3111">&#171;include&#187;</text></g><!--SRC=[VPFFZjCm4CRlUOgXFN0gQlElBLfLwWPMue24jhjmTkn9OvhQaUseB8Xd027k7FUAXBZoJ3m2TfBD9kqkFLJZcL- -VluoVM9ot2Feab0iIEfv1MO6Z0J5jxa1nXLImwNmz8wBaYYoXvJGtLR9Ih145bB1E8koUKPwHAMH4etmoGCuFw7hZvj8nL2rNPy664rjTwsKFBJD80oN4ThcXHJc67Iz3V-8C8iwiQkSqvr0hM7sp7KtEM7omCKMZAhG-zppIAYnSWywP3DSd3gqpGL6GpE3NcCcTZzhRWe4Sa0jz_X_6ovU8hR58s5XaFaPEx4InH5r6Lmsg1AecXZkVIo6JgSid9FP7L7xIsN17ZBdDT4abJRMlWAY8Ucksin6vqJiO7EZ3Uv73gZFup0Wqt3kUVUN6ltzyUKMrbUl-x0xkjlUhOc5lls2LqAZCf0GnMhgEfdPPLcaAPiEsUzVOLtPjHM6Ks8GhkrpxHC-Z2sFMNga_XlUSPCpHGvMN-Sj7S2OBZ2cooFw9xmb1MTE-yBcgriyh7TtISCXRk_tWkiIhVs-UEHedAR-aBxz0syK5mOkaI8lJKl7RkjeYCkJM5w-js7sKvaxOKfJwbxLKvXC9bQh8EvFgdDUQjVn4lkzSX5sbTzLGLV5NMLVcikZEOJm7CxEkA15nN2rwasYNXtN57umA9Y5F9U-czIhS2mGFZBw1m00]--></g></svg>