<svg xmlns="http://www.w3.org/2000/svg" xmlns:xlink="http://www.w3.org/1999/xlink" contentStyleType="text/css" data-diagram-type="DESCRIPTION" height="432px" preserveAspectRatio="none" style="width:1033px;height:432px;background:#F7F9FB;" version="1.1" viewBox="0 0 1033 432" width="1033px" zoomAndPan="magnify"><defs><filter height="300%" id="f1lqx1qhxto5zc" width="300%" x="-1" y="-1"><feGaussianBlur result="blurOut" stdDeviation="2"/><feColorMatrix in="blurOut" result="blurOut2" type="matrix" values="0 0 0 0 0 0 0 0 0 0 0 0 0 0 0 0 0 0 .4 0"/><feOffset dx="4" dy="4" in="blurOut2" result="blurOut3"/><feBlend in="SourceGraphic" in2="blurOut3" mode="normal"/></filter></defs><g><rect fill="#F7F9FB" height="432" style="stroke:none;stroke-width:1;" width="1033" x="0" y="0"/><!--cluster Sys--><g class="cluster" data-entity="Sys" data-source-line="48" data-uid="ent0005" id="cluster_Sys"><rect fill="#EDE7F6" filter="url(#f1lqx1qhxto5zc)" height="357" rx="12.5" ry="12.5" style="stroke:#4527A0;stroke-width:1;" width="672" x="131" y="21.94"/><text fill="#311B92" font-family="sans-serif" font-size="18" font-weight="bold" lengthAdjust="spacing" textLength="389.5928" x="272.2036" y="40.648">&#127869;&#65039; Elegant Restaurant Payment Module</text></g><!--entity UC1--><g class="entity" data-entity="UC1" data-source-line="49" data-uid="ent0006" id="entity_UC1"><ellipse cx="268.6268" cy="249.8654" fill="#D1C4E9" rx="110.1268" ry="24.4254" style="stroke:#90A4AE;stroke-width:1.3;"/><text fill="#263238" font-family="sans-serif" font-size="15" lengthAdjust="spacing" textLength="195.6592" x="170.7972" y="255.0958">&#129534; Present Bill to Customer</text></g><!--entity UC2--><g class="entity" data-entity="UC2" data-source-line="50" data-uid="ent0007" id="entity_UC2"><ellipse cx="268.5323" cy="84.8465" fill="#C8E6C9" rx="105.0323" ry="23.4065" style="stroke:#90A4AE;stroke-width:1.3;"/><text fill="#263238" font-family="sans-serif" font-size="15" lengthAdjust="spacing" textLength="184.4458" x="176.3094" y="90.0769">&#128179; Hand Over Credit Card</text></g><!--entity UC3--><g class="entity" data-entity="UC3" data-source-line="51" data-uid="ent0008" id="entity_UC3"><ellipse cx="268.3472" cy="336.1094" fill="#E3F2FD" rx="121.3472" ry="26.6694" style="stroke:#90A4AE;stroke-width:1.3;"/><text fill="#263238" font-family="sans-serif" font-size="15" lengthAdjust="spacing" textLength="220.0049" x="158.3448" y="341.3399">&#128176; Process Customer Payment</text></g><!--entity UC4--><g class="entity" data-entity="UC4" data-source-line="52" data-uid="ent0009" id="entity_UC4"><ellipse cx="651.218" cy="331.0836" fill="#F3E5F5" rx="136.218" ry="29.6436" style="stroke:#90A4AE;stroke-width:1.3;"/><text fill="#263238" font-family="sans-serif" font-size="15" lengthAdjust="spacing" textLength="251.7261" x="525.3549" y="336.3141">&#128272; Validate Payment Authorization</text></g><!--entity UC5--><g class="entity" data-entity="UC5" data-source-line="53" data-uid="ent0010" id="entity_UC5"><ellipse cx="651.0198" cy="242.144" fill="#F0F4C3" rx="111.5198" ry="24.704" style="stroke:#90A4AE;stroke-width:1.3;"/><text fill="#263238" font-family="sans-serif" font-size="15" lengthAdjust="spacing" textLength="198.7061" x="551.6668" y="247.3744">&#128424;&#65039; Generate Digital Receipt</text></g><!--entity UC6--><g class="entity" data-entity="UC6" data-source-line="54" data-uid="ent0011" id="entity_UC6"><ellipse cx="268.5338" cy="167.1468" fill="#C5CAE9" rx="104.0338" ry="23.2068" style="stroke:#90A4AE;stroke-width:1.3;"/><text fill="#263238" font-family="sans-serif" font-size="15" lengthAdjust="spacing" textLength="182.2339" x="177.4168" y="172.3772">&#128160; Return Customer Card</text></g><!--entity C--><g class="entity" data-entity="C" data-source-line="44" data-uid="ent0002" id="entity_C"><ellipse cx="44.8594" cy="61.44" fill="#2E7D32" filter="url(#f1lqx1qhxto5zc)" rx="16" ry="16" style="stroke:#2E7D32;stroke-width:0.5;"/><path d="M44.8594,81.44 C48.8594,81.44 51.8594,81.44 55.8594,77.44 C63.8594,77.44 71.8594,85.44 71.8594,93.44 L71.8594,97.44 C71.8594,101.44 67.8594,105.44 63.8594,105.44 L25.8594,105.44 C21.8594,105.44 17.8594,101.44 17.8594,97.44 L17.8594,93.44 C17.8594,85.44 25.8594,77.44 33.8594,77.44 C37.8594,81.44 40.8594,81.44 44.8594,81.44" fill="#2E7D32" filter="url(#f1lqx1qhxto5zc)"/><text fill="#1B5E20" font-family="sans-serif" font-size="16" lengthAdjust="spacing" textLength="77.7188" x="6" y="120.7916">Customer</text></g><!--entity W--><g class="entity" data-entity="W" data-source-line="45" data-uid="ent0003" id="entity_W"><ellipse cx="45" cy="280.44" fill="#1565C0" filter="url(#f1lqx1qhxto5zc)" rx="16" ry="16" style="stroke:#2E7D32;stroke-width:0.5;"/><path d="M45,300.44 C49,300.44 52,300.44 56,296.44 C64,296.44 72,304.44 72,312.44 L72,316.44 C72,320.44 68,324.44 64,324.44 L26,324.44 C22,324.44 18,320.44 18,316.44 L18,312.44 C18,304.44 26,296.44 34,296.44 C38,300.44 41,300.44 45,300.44" fill="#1565C0" filter="url(#f1lqx1qhxto5zc)" style="stroke:#2E7D32;stroke-width:0.5;"/><text fill="#1B5E20" font-family="sans-serif" font-size="16" lengthAdjust="spacing" textLength="52.7656" x="18.6172" y="339.7916">Waiter</text></g><!--entity Bank--><g class="entity" data-entity="Bank" data-source-line="46" data-uid="ent0004" id="entity_Bank"><ellipse cx="970.2148" cy="307.44" fill="#5E35B1" filter="url(#f1lqx1qhxto5zc)" rx="16" ry="16" style="stroke:#2E7D32;stroke-width:0.5;"/><path d="M970.2148,327.44 C974.2148,327.44 977.2148,327.44 981.2148,323.44 C989.2148,323.44 997.2148,331.44 997.2148,339.44 L997.2148,343.44 C997.2148,347.44 993.2148,351.44 989.2148,351.44 L951.2148,351.44 C947.2148,351.44 943.2148,347.44 943.2148,343.44 L943.2148,339.44 C943.2148,331.44 951.2148,323.44 959.2148,323.44 C963.2148,327.44 966.2148,327.44 970.2148,327.44" fill="#5E35B1" filter="url(#f1lqx1qhxto5zc)" style="stroke:#2E7D32;stroke-width:0.5;"/><text fill="#1B5E20" font-family="sans-serif" font-size="16" lengthAdjust="spacing" textLength="112.4297" x="914" y="366.7916">&#128179; Bank Server</text></g><!--link C to UC2--><g class="link" data-entity-1="C" data-entity-2="UC2" data-source-line="57" data-uid="lnk12" id="link_C_UC2"><path d="M84.08,84.94 C106.09,84.94 128.97,84.94 157.28,84.94" fill="none" id="C-to-UC2" style="stroke:#546E7A;stroke-width:1.4;"/><polygon fill="#546E7A" points="163.28,84.94,154.28,80.94,158.28,84.94,154.28,88.94,163.28,84.94" style="stroke:#546E7A;stroke-width:1.4;"/></g><!--link C to UC6--><g class="link" data-entity-1="C" data-entity-2="UC6" data-source-line="58" data-uid="lnk13" id="link_C_UC6"><path d="M84.01,107.24 C96.2,113.83 109.93,120.68 123,125.94 C146.58,135.44 167.3725,142.0674 191.2525,148.5974" fill="none" id="C-to-UC6" style="stroke:#546E7A;stroke-width:1.4;"/><polygon fill="#546E7A" points="197.04,150.18,189.4138,143.9478,192.2171,148.8612,187.3037,151.6644,197.04,150.18" style="stroke:#546E7A;stroke-width:1.4;"/></g><!--link C to UC5--><g class="link" data-entity-1="C" data-entity-2="UC5" data-source-line="59" data-uid="lnk14" id="link_C_UC5"><path d="M84.06,59.96 C96.03,53.43 109.63,47.28 123,43.94 C238.13,15.2 277.56,6 390,43.94 C493.49,78.86 584.309,168.7849 625.009,213.4549" fill="none" id="C-to-UC5" style="stroke:#546E7A;stroke-width:1.4;"/><polygon fill="#546E7A" points="629.05,217.89,625.9453,208.5433,625.6825,214.194,620.0318,213.9313,629.05,217.89" style="stroke:#546E7A;stroke-width:1.4;"/></g><!--link W to UC1--><g class="link" data-entity-1="W" data-entity-2="UC1" data-source-line="61" data-uid="lnk15" id="link_W_UC1"><path d="M72.72,297.43 C102.52,290.16 146.1807,279.5209 187.8207,269.3709" fill="none" id="W-to-UC1" style="stroke:#546E7A;stroke-width:1.4;"/><polygon fill="#546E7A" points="193.65,267.95,183.9587,266.1952,188.7922,269.1341,185.8533,273.9676,193.65,267.95" style="stroke:#546E7A;stroke-width:1.4;"/></g><!--link W to UC3--><g class="link" data-entity-1="W" data-entity-2="UC3" data-source-line="62" data-uid="lnk16" id="link_W_UC3"><path d="M72.72,307.8 C96.31,311.21 126.2917,315.5419 160.8917,320.5419" fill="none" id="W-to-UC3" style="stroke:#546E7A;stroke-width:1.4;"/><polygon fill="#546E7A" points="166.83,321.4,158.4946,316.1539,161.8814,320.6849,157.3504,324.0717,166.83,321.4" style="stroke:#546E7A;stroke-width:1.4;"/></g><!--link W to UC5--><g class="link" data-entity-1="W" data-entity-2="UC5" data-source-line="63" data-uid="lnk17" id="link_W_UC5"><path d="M72.51,340.65 C85.75,355.85 103.19,371.81 123,379.94 C232.78,425 273.47,402.38 390,379.94 C434.65,371.34 451.33,372.51 485,341.94 C506.49,322.44 492.76,302.59 515,283.94 C529.11,272.12 540.8722,265.5887 558.4622,259.4787" fill="none" id="W-to-UC5" style="stroke:#546E7A;stroke-width:1.4;"/><polygon fill="#546E7A" points="564.13,257.51,554.3158,256.6846,559.4068,259.1506,556.9408,264.2417,564.13,257.51" style="stroke:#546E7A;stroke-width:1.4;"/></g><!--link W to UC6--><g class="link" data-entity-1="W" data-entity-2="UC6" data-source-line="64" data-uid="lnk18" id="link_W_UC6"><path d="M69.68,263.93 C83.08,244.46 101.46,222.23 123,207.94 C141.58,195.62 158.0976,188.5969 179.5376,182.5169" fill="none" id="W-to-UC6" style="stroke:#546E7A;stroke-width:1.4;"/><polygon fill="#546E7A" points="185.31,180.88,175.5601,179.4872,180.4997,182.2441,177.7427,187.1837,185.31,180.88" style="stroke:#546E7A;stroke-width:1.4;"/></g><!--link UC3 to UC4--><g class="link" data-entity-1="UC3" data-entity-2="UC4" data-source-line="66" data-uid="lnk19" id="link_UC3_UC4"><path d="M389.89,334.36 C429.74,333.84 468.3305,333.3278 509.1805,332.7978" fill="none" id="UC3-to-UC4" style="stroke:#546E7A;stroke-width:1.4;"/><polygon fill="#546E7A" points="515.18,332.72,506.1289,328.8371,510.1804,332.7849,506.2327,336.8364,515.18,332.72" style="stroke:#546E7A;stroke-width:1.4;"/><text fill="#000000" font-family="sans-serif" font-size="13" lengthAdjust="spacing" textLength="63.0068" x="421" y="330.0069">&#171;include&#187;</text></g><!--link UC4 to Bank--><g class="link" data-entity-1="UC4" data-entity-2="Bank" data-source-line="67" data-uid="lnk20" id="link_UC4_Bank"><path d="M787.36,330.94 C831.78,330.94 872.69,330.94 907.7,330.94" fill="none" id="UC4-to-Bank" style="stroke:#546E7A;stroke-width:1.4;"/><polygon fill="#546E7A" points="913.7,330.94,904.7,326.94,908.7,330.94,904.7,334.94,913.7,330.94" style="stroke:#546E7A;stroke-width:1.4;"/><text fill="#000000" font-family="sans-serif" font-size="13" lengthAdjust="spacing" textLength="63.0068" x="820" y="327.0069">&#171;include&#187;</text></g><!--link UC3 to UC5--><g class="link" data-entity-1="UC3" data-entity-2="UC5" data-source-line="68" data-uid="lnk21" id="link_UC3_UC5"><path d="M349.73,316.12 C416.67,299.59 505.4652,277.6492 570.5052,261.5792" fill="none" id="UC3-to-UC5" style="stroke:#546E7A;stroke-width:1.4;"/><polygon fill="#546E7A" points="576.33,260.14,566.6333,258.4156,571.476,261.3393,568.5522,266.182,576.33,260.14" style="stroke:#546E7A;stroke-width:1.4;"/><text fill="#000000" font-family="sans-serif" font-size="13" lengthAdjust="spacing" textLength="61.1851" x="422" y="280.0069">&#171;extend&#187;</text></g><!--SRC=[VLJDRjD04BxxAKQDH44YABQpJeAgI6s0zW2YQlfptdZ7oQgRtMgzfgI8Dm214E9QRd14ui85U2Jw2CmwZfj40H_isVdcc_rcTjRRS7FzvZSSOIOr2XWOevh7HYCSp4PM2ZYUu1IXIG6vuuNbsi4XdqsHliDPxd0QRCDZXMC2xiDJEPuuk0DxN76TKhgxFX-SIgEGu3rL8A53apdOjuZwNX0ef8KpO4kga1PJ9uqEA6spsOHzPKPSmH2TatgSUr-GdqjzmIsVmeYdvsDh2Yq6HXaBZQoJzRBHKaG-uS9S4XMSBN09A5cfiHejHD4Ii6kjkQpIiNQ27RuE7azaUgunpo5yq5u8FSaH1fnUGpTJVhzLfKMEgKTV1K3TMLTTFXunLg2jlBqMRtCaxnEZNUMBaZYAkvLlAAyGGbRpbdN5v1skrlvw8NKtTPHhiqvUOXjLOZTZs5jN6M57nD6god34C6gjg4oy7jeHWLzYRgRu7tr7D09SZzM_UcbhVBDEWPqiMTVPPb67Uqr7yz3vmRCLaTtLCk8m7FKMfSt5ZumI6vNF-pOeSaUrMU0v3EhUpB4pBjqSEQCEiOIbhGhPkhd-y9tgqESqv_O5sYqVLQuR36Cs2eFWjcQAVllppuztYrktwMO-Cw9GMAQXIrgsQJ60HF_o2mujvZvmJohbRzz2U4av6OJG467QBazxYKWg3xWMy9mqmi2Ya8vctegA5K4ZxMAIhhE-qNOczNDPzwSIMX5ZEhGuYpAnIlpu7awvae8xh2lRBTp4M7d5_K-YehVf1iN8ChPA__JLTsaVwQ1zXaToB1tzIcYwK5uijcR4RMNjD5xJ_9dYN67rhUIbGXCgbAMSsaCdFw3fxFlgQokfBHO4PvKPrbPSMwosaY3mRPWlsl0GTdQaJbKXiDyFlCSZvKIiGmiIAn5ywL2BVlyl]--></g></svg>