<svg xmlns="http://www.w3.org/2000/svg" xmlns:xlink="http://www.w3.org/1999/xlink" contentStyleType="text/css" data-diagram-type="DESCRIPTION" height="363px" preserveAspectRatio="none" style="width:896px;height:363px;background:#F8FAFC;" version="1.1" viewBox="0 0 896 363" width="896px" zoomAndPan="magnify"><defs><filter height="300%" id="fs4r082pibs2l" width="300%" x="-1" y="-1"><feGaussianBlur result="blurOut" stdDeviation="2"/><feColorMatrix in="blurOut" result="blurOut2" type="matrix" values="0 0 0 0 0 0 0 0 0 0 0 0 0 0 0 0 0 0 .4 0"/><feOffset dx="4" dy="4" in="blurOut2" result="blurOut3"/><feBlend in="SourceGraphic" in2="blurOut3" mode="normal"/></filter></defs><g><rect fill="#F8FAFC" height="363" style="stroke:none;stroke-width:1;" width="896" x="0" y="0"/><!--cluster System--><g class="cluster" data-entity="System" data-source-line="45" data-uid="ent0005" id="cluster_System"><rect fill="#FFF3E0" filter="url(#fs4r082pibs2l)" height="310" rx="12.5" ry="12.5" style="stroke:#EF6C00;stroke-width:1;" width="543" x="131" y="13.33"/><text fill="#E65100" font-family="sans-serif" font-size="18" font-weight="bold" lengthAdjust="spacing" textLength="280.8457" x="262.0771" y="32.038">&#127860; Restaurant Billing Module</text></g><!--entity UC1--><g class="entity" data-entity="UC1" data-source-line="46" data-uid="ent0006" id="entity_UC1"><ellipse cx="237.611" cy="214.3522" fill="#FFE0B2" rx="68.111" ry="16.0222" style="stroke:#90A4AE;stroke-width:1.2;"/><text fill="#263238" font-family="sans-serif" font-size="15" lengthAdjust="spacing" textLength="96.6211" x="189.3004" y="219.5827">&#128220; Display Bill</text></g><!--entity UC2--><g class="entity" data-entity="UC2" data-source-line="47" data-uid="ent0007" id="entity_UC2"><ellipse cx="237.5656" cy="71.3431" fill="#C8E6C9" rx="83.0656" ry="19.0131" style="stroke:#90A4AE;stroke-width:1.2;"/><text fill="#263238" font-family="sans-serif" font-size="15" lengthAdjust="spacing" textLength="134.2383" x="170.4465" y="76.5736">&#128179; Hand Over Card</text></g><!--entity UC3--><g class="entity" data-entity="UC3" data-source-line="48" data-uid="ent0008" id="entity_UC3"><ellipse cx="237.3521" cy="286.3004" fill="#BBDEFB" rx="90.3521" ry="20.4704" style="stroke:#90A4AE;stroke-width:1.2;"/><text fill="#263238" font-family="sans-serif" font-size="15" lengthAdjust="spacing" textLength="151.3257" x="161.6893" y="291.5309">&#128181; Execute Payment</text></g><!--entity UC4--><g class="entity" data-entity="UC4" data-source-line="49" data-uid="ent0009" id="entity_UC4"><ellipse cx="555.3034" cy="278.1907" fill="#D1C4E9" rx="102.3034" ry="22.8607" style="stroke:#90A4AE;stroke-width:1.2;"/><text fill="#263238" font-family="sans-serif" font-size="15" lengthAdjust="spacing" textLength="178.3887" x="466.109" y="283.4211">&#128272; Confirm Authorization</text></g><!--entity UC5--><g class="entity" data-entity="UC5" data-source-line="50" data-uid="ent0010" id="entity_UC5"><ellipse cx="555.2518" cy="200.2804" fill="#F0F4C3" rx="87.7518" ry="19.9504" style="stroke:#90A4AE;stroke-width:1.2;"/><text fill="#263238" font-family="sans-serif" font-size="15" lengthAdjust="spacing" textLength="145.2905" x="482.6065" y="205.5108">&#129534; Generate Receipt</text></g><!--entity UC6--><g class="entity" data-entity="UC6" data-source-line="51" data-uid="ent0011" id="entity_UC6"><ellipse cx="237.3716" cy="144.4043" fill="#FFCCBC" rx="80.8716" ry="18.5743" style="stroke:#90A4AE;stroke-width:1.2;"/><text fill="#263238" font-family="sans-serif" font-size="15" lengthAdjust="spacing" textLength="128.9722" x="172.8855" y="149.6348">&#128160; Give Card Back</text></g><!--entity C--><g class="entity" data-entity="C" data-source-line="41" data-uid="ent0002" id="entity_C"><ellipse cx="44.8594" cy="47.83" fill="#00796B" filter="url(#fs4r082pibs2l)" rx="16" ry="16" style="stroke:#00695C;stroke-width:0.5;"/><path d="M44.8594,67.83 C48.8594,67.83 51.8594,67.83 55.8594,63.83 C63.8594,63.83 71.8594,71.83 71.8594,79.83 L71.8594,83.83 C71.8594,87.83 67.8594,91.83 63.8594,91.83 L25.8594,91.83 C21.8594,91.83 17.8594,87.83 17.8594,83.83 L17.8594,79.83 C17.8594,71.83 25.8594,63.83 33.8594,63.83 C37.8594,67.83 40.8594,67.83 44.8594,67.83" fill="#00796B" filter="url(#fs4r082pibs2l)" style="stroke:#00695C;stroke-width:0.5;"/><text fill="#004D40" font-family="sans-serif" font-size="16" lengthAdjust="spacing" textLength="77.7188" x="6" y="107.1816">Customer</text></g><!--entity W--><g class="entity" data-entity="W" data-source-line="42" data-uid="ent0003" id="entity_W"><ellipse cx="45" cy="233.83" fill="#6D4C41" filter="url(#fs4r082pibs2l)" rx="16" ry="16" style="stroke:#00695C;stroke-width:0.5;"/><path d="M45,253.83 C49,253.83 52,253.83 56,249.83 C64,249.83 72,257.83 72,265.83 L72,269.83 C72,273.83 68,277.83 64,277.83 L26,277.83 C22,277.83 18,273.83 18,269.83 L18,265.83 C18,257.83 26,249.83 34,249.83 C38,253.83 41,253.83 45,253.83" fill="#6D4C41" filter="url(#fs4r082pibs2l)" style="stroke:#00695C;stroke-width:0.5;"/><text fill="#004D40" font-family="sans-serif" font-size="16" lengthAdjust="spacing" textLength="52.7656" x="18.6172" y="293.1816">Waiter</text></g><!--entity Bank--><g class="entity" data-entity="Bank" data-source-line="43" data-uid="ent0004" id="entity_Bank"><ellipse cx="837.2031" cy="254.83" fill="#283593" filter="url(#fs4r082pibs2l)" rx="16" ry="16" style="stroke:#00695C;stroke-width:0.5;"/><path d="M837.2031,274.83 C841.2031,274.83 844.2031,274.83 848.2031,270.83 C856.2031,270.83 864.2031,278.83 864.2031,286.83 L864.2031,290.83 C864.2031,294.83 860.2031,298.83 856.2031,298.83 L818.2031,298.83 C814.2031,298.83 810.2031,294.83 810.2031,290.83 L810.2031,286.83 C810.2031,278.83 818.2031,270.83 826.2031,270.83 C830.2031,274.83 833.2031,274.83 837.2031,274.83" fill="#283593" filter="url(#fs4r082pibs2l)" style="stroke:#00695C;stroke-width:0.5;"/><text fill="#004D40" font-family="sans-serif" font-size="16" lengthAdjust="spacing" textLength="104.4063" x="785" y="314.1816">Bank Service</text></g><!--link C to UC2--><g class="link" data-entity-1="C" data-entity-2="UC2" data-source-line="55" data-uid="lnk12" id="link_C_UC2"><path d="M84.09,71.33 C104.29,71.33 123.92,71.33 148.38,71.33" fill="none" id="C-to-UC2" style="stroke:#455A64;stroke-width:1.4;"/><polygon fill="#455A64" points="154.38,71.33,145.38,67.33,149.38,71.33,145.38,75.33,154.38,71.33" style="stroke:#455A64;stroke-width:1.4;"/></g><!--link C to UC5--><g class="link" data-entity-1="C" data-entity-2="UC5" data-source-line="56" data-uid="lnk13" id="link_C_UC5"><path d="M84.33,48.77 C96.31,42.87 109.84,37.33 123,34.33 C211.84,14.1 241.41,6 328,34.33 C417.66,63.67 497.0431,139.1542 532.4831,176.3842" fill="none" id="C-to-UC5" style="stroke:#455A64;stroke-width:1.4;"/><polygon fill="#455A64" points="536.62,180.73,533.3119,171.4533,533.1726,177.1085,527.5175,176.9692,536.62,180.73" style="stroke:#455A64;stroke-width:1.4;"/></g><!--link C to UC6--><g class="link" data-entity-1="C" data-entity-2="UC6" data-source-line="57" data-uid="lnk14" id="link_C_UC6"><path d="M84.37,90.4 C96.58,96.16 110.24,102.29 123,107.33 C143.82,115.56 161.5472,121.6274 181.7072,127.9774" fill="none" id="C-to-UC6" style="stroke:#455A64;stroke-width:1.4;"/><polygon fill="#455A64" points="187.43,129.78,180.0475,123.2609,182.661,128.2779,177.644,130.8914,187.43,129.78" style="stroke:#455A64;stroke-width:1.4;"/></g><!--link W to UC1--><g class="link" data-entity-1="W" data-entity-2="UC1" data-source-line="59" data-uid="lnk15" id="link_W_UC1"><path d="M72.89,251.26 C102.63,244.55 145.3169,234.9097 181.8169,226.6797" fill="none" id="W-to-UC1" style="stroke:#455A64;stroke-width:1.4;"/><polygon fill="#455A64" points="187.67,225.36,178.0106,223.4376,182.7925,226.4598,179.7702,231.2417,187.67,225.36" style="stroke:#455A64;stroke-width:1.4;"/></g><!--link W to UC3--><g class="link" data-entity-1="W" data-entity-2="UC3" data-source-line="60" data-uid="lnk16" id="link_W_UC3"><path d="M72.89,261.43 C95.97,264.94 124.4282,269.2779 155.7282,274.0379" fill="none" id="W-to-UC3" style="stroke:#455A64;stroke-width:1.4;"/><polygon fill="#455A64" points="161.66,274.94,153.3637,269.6323,156.7168,274.1883,152.1609,277.5414,161.66,274.94" style="stroke:#455A64;stroke-width:1.4;"/></g><!--link W to UC5--><g class="link" data-entity-1="W" data-entity-2="UC5" data-source-line="61" data-uid="lnk17" id="link_W_UC5"><path d="M72.62,289.07 C86.13,302.7 103.75,317.13 123,324.33 C208.33,356.26 238.16,339.49 328,324.33 C372.07,316.9 388.79,320.09 423,291.33 C444.02,273.67 432.12,255.16 453,237.33 C464.63,227.41 473.5243,222.1627 487.9043,216.7527" fill="none" id="W-to-UC5" style="stroke:#455A64;stroke-width:1.4;"/><polygon fill="#455A64" points="493.52,214.64,483.6879,214.0653,488.8402,216.4006,486.5049,221.5529,493.52,214.64" style="stroke:#455A64;stroke-width:1.4;"/></g><!--link W to UC6--><g class="link" data-entity-1="W" data-entity-2="UC6" data-source-line="62" data-uid="lnk18" id="link_W_UC6"><path d="M72.73,224.05 C86.39,208.9 104.1,191.82 123,180.33 C139.78,170.13 153.9906,164.2561 172.4506,158.7461" fill="none" id="W-to-UC6" style="stroke:#455A64;stroke-width:1.4;"/><polygon fill="#455A64" points="178.2,157.03,168.4319,155.7712,173.4089,158.4601,170.72,163.437,178.2,157.03" style="stroke:#455A64;stroke-width:1.4;"/></g><!--link UC3 to UC4--><g class="link" data-entity-1="UC3" data-entity-2="UC4" data-source-line="64" data-uid="lnk19" id="link_UC3_UC4"><path d="M327.79,284.07 C366.93,283.08 407.0719,282.0614 447.4719,281.0414" fill="none" id="UC3-to-UC4" style="stroke:#455A64;stroke-width:1.4;"/><polygon fill="#455A64" points="453.47,280.89,444.3719,277.1184,448.4716,281.0162,444.5738,285.1159,453.47,280.89" style="stroke:#455A64;stroke-width:1.4;"/><text fill="#000000" font-family="sans-serif" font-size="13" lengthAdjust="spacing" textLength="63.0068" x="359" y="278.3969">&#171;include&#187;</text></g><!--link UC4 to Bank--><g class="link" data-entity-1="UC4" data-entity-2="Bank" data-source-line="65" data-uid="lnk20" id="link_UC4_Bank"><path d="M658.2,278.33 C701.28,278.33 743.58,278.33 778.95,278.33" fill="none" id="UC4-to-Bank" style="stroke:#455A64;stroke-width:1.4;"/><polygon fill="#455A64" points="784.95,278.33,775.95,274.33,779.95,278.33,775.95,282.33,784.95,278.33" style="stroke:#455A64;stroke-width:1.4;"/><text fill="#000000" font-family="sans-serif" font-size="13" lengthAdjust="spacing" textLength="63.0068" x="691" y="274.3969">&#171;include&#187;</text></g><!--link UC3 to UC5--><g class="link" data-entity-1="UC3" data-entity-2="UC5" data-source-line="66" data-uid="lnk21" id="link_UC3_UC5"><path d="M296.09,270.66 C353.59,255.01 435.6006,232.6959 492.5806,217.1859" fill="none" id="UC3-to-UC5" style="stroke:#455A64;stroke-width:1.4;"/><polygon fill="#455A64" points="498.37,215.61,488.6354,214.1142,493.5455,216.9232,490.7365,221.8334,498.37,215.61" style="stroke:#455A64;stroke-width:1.4;"/><text fill="#000000" font-family="sans-serif" font-size="13" lengthAdjust="spacing" textLength="61.1851" x="360" y="234.3969">&#171;extend&#187;</text></g><!--SRC=[VLFDRjD04BxxAKRDeN0eyZy9gYArRYaN16geUbwlnyagpcwqkswR8ju090GSaSgD1m2ky4fz17OtZd5C80TdFDyttk-RdTc7-xktl-2qmYdX6ivHQL9B6xuagmMQ_ybAQLp0WnDKRCeXUEXLM6hG0YIRpZGKJ2BLJ73FKtF6bqII1UI4pgTIrBp8H2Ka3CfXIKhQOQWPASGrurFGiiOEuAgea1mbX647E99IN3UVYvE4f74VV3LZTCvHAGWUnPwt3mS71t2X439Y7XEzgj2cEcMrGcgnrnx0yL-QtSyYGXOec-p89p51atqgk6voOHg5qR39JTWjGf2qTLrLeSbEjfs_sGWzejfyQvTAuf2T6j4lmpBeQ_JzT9JGROs-7nUnlwKnjMhSUUGQbLZWVzITcqicV5hjxgDiqNzrCaA_hnBBbFesUxwchgyysP8ut3Q1QHBuhGad91TLiLFtkcjPhRHn9e4eo6mN7e_IlC4k2TDhv186QH7JE6YGlMF2vp11USKexbc6Imp2OPIC8i_xutVl_kxTz-xU7BEgiZAUYwAkrhND2jdMR0REb7ty32TCBIkoSZMEUP45jblev-4s-SCtU4Pu0I-kZE2CoAAXXp2WGqpfg4V_0QStI6kDcprk-14Cyhp0Cj_cVteFcU0basQJQZqJajqIkzDDLGo38g0nzaxv-XFEq5mQCSUO-K2st1oJ61T-6TEe9-iBdB4hT0RSb3Jqr9gcDAVTUQkS0ZLZI-McBJFFiRNSHaaRfPvtsOH16qLjbBIH8Tech5zYU0A7XupJgYvmFFPinYBkhllGfYXn2DvevCLu_1i0]--></g></svg>