<svg xmlns="http://www.w3.org/2000/svg" xmlns:xlink="http://www.w3.org/1999/xlink" contentStyleType="text/css" data-diagram-type="DESCRIPTION" height="386px" preserveAspectRatio="none" style="width:924px;height:386px;background:#F5F7FA;" version="1.1" viewBox="0 0 924 386" width="924px" zoomAndPan="magnify"><defs><filter height="300%" id="f1rys585gh3vnh" width="300%" x="-1" y="-1"><feGaussianBlur result="blurOut" stdDeviation="2"/><feColorMatrix in="blurOut" result="blurOut2" type="matrix" values="0 0 0 0 0 0 0 0 0 0 0 0 0 0 0 0 0 0 .4 0"/><feOffset dx="4" dy="4" in="blurOut2" result="blurOut3"/><feBlend in="SourceGraphic" in2="blurOut3" mode="normal"/></filter></defs><g><rect fill="#F5F7FA" height="386" style="stroke:none;stroke-width:1;" width="924" x="0" y="0"/><!--cluster System--><g class="cluster" data-entity="System" data-source-line="45" data-uid="ent0005" id="cluster_System"><rect fill="#E3F2FD" filter="url(#f1rys585gh3vnh)" height="327" rx="12.5" ry="12.5" style="stroke:#1E88E5;stroke-width:1;" width="560" x="131" y="18.9"/><text fill="#0D47A1" font-family="sans-serif" font-size="18" font-weight="bold" lengthAdjust="spacing" textLength="306.8262" x="257.5869" y="37.608">&#127975; Restaurant Payment System</text></g><!--entity UC1--><g class="entity" data-entity="UC1" data-source-line="46" data-uid="ent0006" id="entity_UC1"><ellipse cx="250.8989" cy="236.9798" fill="#BBDEFB" rx="80.8989" ry="18.5798" style="stroke:#9FA8DA;stroke-width:1.3;"/><text fill="#1A237E" font-family="sans-serif" font-size="15" lengthAdjust="spacing" textLength="129.0381" x="186.3798" y="242.2102">&#129534; Present Invoice</text></g><!--entity UC2--><g class="entity" data-entity="UC2" data-source-line="47" data-uid="ent0007" id="entity_UC2"><ellipse cx="250.759" cy="79.6518" fill="#EDE7F6" rx="94.259" ry="21.2518" style="stroke:#9FA8DA;stroke-width:1.3;"/><text fill="#1A237E" font-family="sans-serif" font-size="15" lengthAdjust="spacing" textLength="160.2832" x="170.6174" y="84.8823">&#128179; Provide Credit Card</text></g><!--entity UC3--><g class="entity" data-entity="UC3" data-source-line="48" data-uid="ent0008" id="entity_UC3"><ellipse cx="250.8655" cy="309.6731" fill="#C8E6C9" rx="84.3655" ry="19.2731" style="stroke:#9FA8DA;stroke-width:1.3;"/><text fill="#1A237E" font-family="sans-serif" font-size="15" lengthAdjust="spacing" textLength="137.3291" x="182.201" y="314.9036">&#128176; Initiate Payment</text></g><!--entity UC4--><g class="entity" data-entity="UC4" data-source-line="49" data-uid="ent0009" id="entity_UC4"><ellipse cx="577.7381" cy="301.8476" fill="#FFF59D" rx="97.7381" ry="21.9476" style="stroke:#9FA8DA;stroke-width:1.3;"/><text fill="#1A237E" font-family="sans-serif" font-size="15" lengthAdjust="spacing" textLength="168.1641" x="493.6561" y="307.0781">&#128274; Validate Transaction</text></g><!--entity UC5--><g class="entity" data-entity="UC5" data-source-line="50" data-uid="ent0010" id="entity_UC5"><ellipse cx="577.5446" cy="223.8089" fill="#F3E5F5" rx="90.0446" ry="20.4089" style="stroke:#9FA8DA;stroke-width:1.3;"/><text fill="#1A237E" font-family="sans-serif" font-size="15" lengthAdjust="spacing" textLength="150.6152" x="502.237" y="229.0394">&#128196; Print Confirmation</text></g><!--entity UC6--><g class="entity" data-entity="UC6" data-source-line="51" data-uid="ent0011" id="entity_UC6"><ellipse cx="251.0338" cy="160.1068" fill="#FFCCBC" rx="104.0338" ry="23.2068" style="stroke:#9FA8DA;stroke-width:1.3;"/><text fill="#1A237E" font-family="sans-serif" font-size="15" lengthAdjust="spacing" textLength="182.2339" x="159.9168" y="165.3372">&#128160; Return Customer Card</text></g><!--entity C--><g class="entity" data-entity="C" data-source-line="41" data-uid="ent0002" id="entity_C"><ellipse cx="44.8594" cy="56.4" fill="#283593" filter="url(#f1rys585gh3vnh)" rx="16" ry="16" style="stroke:#3F51B5;stroke-width:0.5;"/><path d="M44.8594,76.4 C48.8594,76.4 51.8594,76.4 55.8594,72.4 C63.8594,72.4 71.8594,80.4 71.8594,88.4 L71.8594,92.4 C71.8594,96.4 67.8594,100.4 63.8594,100.4 L25.8594,100.4 C21.8594,100.4 17.8594,96.4 17.8594,92.4 L17.8594,88.4 C17.8594,80.4 25.8594,72.4 33.8594,72.4 C37.8594,76.4 40.8594,76.4 44.8594,76.4" fill="#283593" filter="url(#f1rys585gh3vnh)" style="stroke:#3F51B5;stroke-width:0.5;"/><text fill="#1A237E" font-family="sans-serif" font-size="16" lengthAdjust="spacing" textLength="77.7188" x="6" y="115.7516">Customer</text></g><!--entity W--><g class="entity" data-entity="W" data-source-line="42" data-uid="ent0003" id="entity_W"><ellipse cx="45" cy="265.4" fill="#1565C0" filter="url(#f1rys585gh3vnh)" rx="16" ry="16" style="stroke:#3F51B5;stroke-width:0.5;"/><path d="M45,285.4 C49,285.4 52,285.4 56,281.4 C64,281.4 72,289.4 72,297.4 L72,301.4 C72,305.4 68,309.4 64,309.4 L26,309.4 C22,309.4 18,305.4 18,301.4 L18,297.4 C18,289.4 26,281.4 34,281.4 C38,285.4 41,285.4 45,285.4" fill="#1565C0" filter="url(#f1rys585gh3vnh)" style="stroke:#3F51B5;stroke-width:0.5;"/><text fill="#1A237E" font-family="sans-serif" font-size="16" lengthAdjust="spacing" textLength="52.7656" x="18.6172" y="324.7516">Waiter</text></g><!--entity Bank--><g class="entity" data-entity="Bank" data-source-line="43" data-uid="ent0004" id="entity_Bank"><ellipse cx="859.9766" cy="278.4" fill="#2E7D32" filter="url(#f1rys585gh3vnh)" rx="16" ry="16" style="stroke:#3F51B5;stroke-width:0.5;"/><path d="M859.9766,298.4 C863.9766,298.4 866.9766,298.4 870.9766,294.4 C878.9766,294.4 886.9766,302.4 886.9766,310.4 L886.9766,314.4 C886.9766,318.4 882.9766,322.4 878.9766,322.4 L840.9766,322.4 C836.9766,322.4 832.9766,318.4 832.9766,314.4 L832.9766,310.4 C832.9766,302.4 840.9766,294.4 848.9766,294.4 C852.9766,298.4 855.9766,298.4 859.9766,298.4" fill="#2E7D32" filter="url(#f1rys585gh3vnh)" style="stroke:#3F51B5;stroke-width:0.5;"/><text fill="#1A237E" font-family="sans-serif" font-size="16" lengthAdjust="spacing" textLength="115.9531" x="802" y="337.7516">Bank Gateway</text></g><!--link C to UC2--><g class="link" data-entity-1="C" data-entity-2="UC2" data-source-line="55" data-uid="lnk12" id="link_C_UC2"><path d="M84.37,79.9 C104.8,79.9 124.9,79.9 150.31,79.9" fill="none" id="C-to-UC2" style="stroke:#37474F;stroke-width:1.5;"/><polygon fill="#37474F" points="156.31,79.9,147.31,75.9,151.31,79.9,147.31,83.9,156.31,79.9" style="stroke:#37474F;stroke-width:1.5;"/></g><!--link C to UC5--><g class="link" data-entity-1="C" data-entity-2="UC5" data-source-line="56" data-uid="lnk13" id="link_C_UC5"><path d="M84.2,56.13 C96.17,49.91 109.74,44.07 123,40.9 C223.29,16.95 257.97,6 355,40.9 C446.76,73.9 523.7491,158.5775 556.8091,198.9575" fill="none" id="C-to-UC5" style="stroke:#37474F;stroke-width:1.5;"/><polygon fill="#37474F" points="560.61,203.6,558.0036,194.1023,557.4426,199.7312,551.8136,199.1702,560.61,203.6" style="stroke:#37474F;stroke-width:1.5;"/></g><!--link C to UC6--><g class="link" data-entity-1="C" data-entity-2="UC6" data-source-line="57" data-uid="lnk14" id="link_C_UC6"><path d="M84.22,100.74 C96.43,107 110.11,113.59 123,118.9 C143.46,127.32 160.6089,133.3619 181.2389,139.8819" fill="none" id="C-to-UC6" style="stroke:#37474F;stroke-width:1.5;"/><polygon fill="#37474F" points="186.96,141.69,179.5838,135.1638,182.1924,140.1832,177.173,142.7919,186.96,141.69" style="stroke:#37474F;stroke-width:1.5;"/></g><!--link W to UC1--><g class="link" data-entity-1="W" data-entity-2="UC1" data-source-line="59" data-uid="lnk15" id="link_W_UC1"><path d="M72.67,282.1 C103.88,274.14 150.5458,262.2517 190.3358,252.1117" fill="none" id="W-to-UC1" style="stroke:#37474F;stroke-width:1.5;"/><polygon fill="#37474F" points="196.15,250.63,186.441,248.9764,191.3049,251.8647,188.4165,256.7286,196.15,250.63" style="stroke:#37474F;stroke-width:1.5;"/></g><!--link W to UC3--><g class="link" data-entity-1="W" data-entity-2="UC3" data-source-line="60" data-uid="lnk16" id="link_W_UC3"><path d="M72.67,291.64 C98.27,294.28 132.1915,297.7758 167.6615,301.4258" fill="none" id="W-to-UC3" style="stroke:#37474F;stroke-width:1.5;"/><polygon fill="#37474F" points="173.63,302.04,165.0867,297.1397,168.6563,301.5282,164.2678,305.0977,173.63,302.04" style="stroke:#37474F;stroke-width:1.5;"/></g><!--link W to UC5--><g class="link" data-entity-1="W" data-entity-2="UC5" data-source-line="61" data-uid="lnk17" id="link_W_UC5"><path d="M72.68,315.83 C86.45,327.82 104.27,340.63 123,346.9 C220.79,379.61 253.25,363.58 355,346.9 C398.97,339.69 415.65,343.27 450,314.9 C470.87,297.66 459.57,279.65 480,261.9 C491.01,252.33 499.1525,247.2714 512.7425,241.7414" fill="none" id="W-to-UC5" style="stroke:#37474F;stroke-width:1.5;"/><polygon fill="#37474F" points="518.3,239.48,508.4561,239.1672,513.6687,241.3645,511.4714,246.5772,518.3,239.48" style="stroke:#37474F;stroke-width:1.5;"/></g><!--link W to UC6--><g class="link" data-entity-1="W" data-entity-2="UC6" data-source-line="62" data-uid="lnk18" id="link_W_UC6"><path d="M72.6,249.9 C85.98,232.8 103.5,213.73 123,200.9 C139.16,190.26 152.5872,184.0649 171.0272,178.0349" fill="none" id="W-to-UC6" style="stroke:#37474F;stroke-width:1.5;"/><polygon fill="#37474F" points="176.73,176.17,166.9325,175.1654,171.9776,177.7241,169.419,182.7692,176.73,176.17" style="stroke:#37474F;stroke-width:1.5;"/></g><!--link UC3 to UC4--><g class="link" data-entity-1="UC3" data-entity-2="UC4" data-source-line="64" data-uid="lnk19" id="link_UC3_UC4"><path d="M335.15,307.85 C379.46,306.76 428.2018,305.5582 474.3418,304.4182" fill="none" id="UC3-to-UC4" style="stroke:#37474F;stroke-width:1.5;"/><polygon fill="#37474F" points="480.34,304.27,471.2439,300.4935,475.3415,304.3935,471.4415,308.4911,480.34,304.27" style="stroke:#37474F;stroke-width:1.5;"/><text fill="#000000" font-family="sans-serif" font-size="13" lengthAdjust="spacing" textLength="63.0068" x="386" y="301.9669">&#171;include&#187;</text></g><!--link UC4 to Bank--><g class="link" data-entity-1="UC4" data-entity-2="Bank" data-source-line="65" data-uid="lnk20" id="link_UC4_Bank"><path d="M675.03,301.9 C717.19,301.9 759.19,301.9 795.6,301.9" fill="none" id="UC4-to-Bank" style="stroke:#37474F;stroke-width:1.5;"/><polygon fill="#37474F" points="801.6,301.9,792.6,297.9,796.6,301.9,792.6,305.9,801.6,301.9" style="stroke:#37474F;stroke-width:1.5;"/><text fill="#000000" font-family="sans-serif" font-size="13" lengthAdjust="spacing" textLength="63.0068" x="708" y="297.9669">&#171;include&#187;</text></g><!--link UC3 to UC5--><g class="link" data-entity-1="UC3" data-entity-2="UC5" data-source-line="66" data-uid="lnk21" id="link_UC3_UC5"><path d="M307.41,295.21 C366.06,279.67 452.4401,256.7766 512.2301,240.9366" fill="none" id="UC3-to-UC5" style="stroke:#37474F;stroke-width:1.5;"/><polygon fill="#37474F" points="518.03,239.4,508.3058,237.8382,513.1967,240.6805,510.3545,245.5714,518.03,239.4" style="stroke:#37474F;stroke-width:1.5;"/><text fill="#000000" font-family="sans-serif" font-size="13" lengthAdjust="spacing" textLength="61.1851" x="387" y="255.9669">&#171;extend&#187;</text></g><!--SRC=[XLH1RzCm5BxdLpojXy5XQ4dg9aLJfIq8n049hHixE_PBQpMr9zjTAOWRPv06zt7R5Oaxlsa_0TjDGreAv92ylEzzplSzF-SG7kvkFy6uHfp1AyLHIpX7O-b2KsdXDLtDqJt7AsDn3e-UeH4J2SdZgCRAWbMWnMHgWGkDp0ebeyZCXBocciwXf6msqMeXUQ5gfQ5NaIghQAV2J2bNIo4dOFK2Eq1WCQKbQaYI3d2gjLesowLPF-jNk-35LB2PH6CWVaAYw12EZexWqY0KrDt6TbMZJtLe2uFCO-yZWBC_D8VB8qgxxZJPOKLpJbtskPAsoSKqIJDiScFn3Y4cBQ-hAdNPyRRp3nkXfyowjVQff07Pgn5pfDLWLsDQaRWa_zNeUUllqIKQDST_g3jtcqpbfDxVHzsY-rMcLLBnNPKnvZbwbUVhqlMMaos9-RQ9OzxFQBof249ALVEzkjTTAnR6EcSQg842UacUac7QO5TKs3LovTIG0M773N9mHkKCNb2BIxewy1KXqKimusaIHR_z7ZpSVRx_-xa9tEO8-TPi1ixHxd_2Qut6rxwKDqem3CMNHGozikHObTlrjpzSlReHtCspHYwi6slD6qxYcimn2wFGvNntQmihd96Di8QGGe_bE633RSBNMtX3Qy4zuSBvCJISxORK3uU23FaswSj7fqmu7uMIbT1psg4GHqcHL6H7s3VNCxjmlvnsWpfk1luxZ9MiEtzrMDPCnRK9qrUu-yXRRoFIHeCekch2k8tIDY9jv0fzBzOlVNWA9oT2idh1SJIAVCOZOUzteGs910JVMfHyDFe5]--></g></svg>