<svg xmlns="http://www.w3.org/2000/svg" xmlns:xlink="http://www.w3.org/1999/xlink" contentStyleType="text/css" data-diagram-type="DESCRIPTION" height="782px" preserveAspectRatio="none" style="width:1057px;height:782px;background:#F8FAFC;" version="1.1" viewBox="0 0 1057 782" width="1057px" zoomAndPan="magnify"><defs><filter height="300%" id="f147me6ab5748i" width="300%" x="-1" y="-1"><feGaussianBlur result="blurOut" stdDeviation="2"/><feColorMatrix in="blurOut" result="blurOut2" type="matrix" values="0 0 0 0 0 0 0 0 0 0 0 0 0 0 0 0 0 0 .4 0"/><feOffset dx="4" dy="4" in="blurOut2" result="blurOut3"/><feBlend in="SourceGraphic" in2="blurOut3" mode="normal"/></filter></defs><g><rect fill="#F8FAFC" height="782" style="stroke:none;stroke-width:1;" width="1057" x="0" y="0"/><!--cluster System--><g class="cluster" data-entity="System" data-source-line="45" data-uid="ent0005" id="cluster_System"><rect fill="#FFF3E0" filter="url(#f147me6ab5748i)" height="331" rx="12.5" ry="12.5" style="stroke:#EF6C00;stroke-width:1;" width="927" x="118" y="216.5"/><text fill="#E65100" font-family="sans-serif" font-size="18" font-weight="bold" lengthAdjust="spacing" textLength="262.6875" x="450.1563" y="235.208">&#128200; Digital Trading Platform</text></g><!--entity UC1--><g class="entity" data-entity="UC1" data-source-line="46" data-uid="ent0006" id="entity_UC1"><ellipse cx="244.2045" cy="274.7409" fill="#C8E6C9" rx="81.7045" ry="18.7409" style="stroke:#90A4AE;stroke-width:1.2;"/><text fill="#263238" font-family="sans-serif" font-size="15" lengthAdjust="spacing" textLength="130.979" x="178.715" y="279.9714">&#128273; Access Account</text></g><!--entity UC2--><g class="entity" data-entity="UC2" data-source-line="47" data-uid="ent0007" id="entity_UC2"><ellipse cx="244.0224" cy="348.4045" fill="#E1F5FE" rx="90.0224" ry="20.4045" style="stroke:#90A4AE;stroke-width:1.2;"/><text fill="#263238" font-family="sans-serif" font-size="15" lengthAdjust="spacing" textLength="150.564" x="168.7405" y="353.635">&#128269; Look Up Company</text></g><!--entity UC3--><g class="entity" data-entity="UC3" data-source-line="48" data-uid="ent0008" id="entity_UC3"><ellipse cx="244.1421" cy="425.6284" fill="#FFE0B2" rx="93.6421" ry="21.1284" style="stroke:#90A4AE;stroke-width:1.2;"/><text fill="#263238" font-family="sans-serif" font-size="15" lengthAdjust="spacing" textLength="158.877" x="164.7037" y="430.8589">&#128202; Choose Investment</text></g><!--entity UC4--><g class="entity" data-entity="UC4" data-source-line="49" data-uid="ent0009" id="entity_UC4"><ellipse cx="243.9864" cy="506.3973" fill="#F0F4C3" rx="109.9864" ry="24.3973" style="stroke:#90A4AE;stroke-width:1.2;"/><text fill="#263238" font-family="sans-serif" font-size="15" lengthAdjust="spacing" textLength="195.3516" x="146.3106" y="511.6277">&#128184; Execute Purchase Order</text></g><!--entity UC5--><g class="entity" data-entity="UC5" data-source-line="50" data-uid="ent0010" id="entity_UC5"><ellipse cx="585.6139" cy="341.7228" fill="#EDE7F6" rx="106.6139" ry="23.7228" style="stroke:#90A4AE;stroke-width:1.2;"/><text fill="#263238" font-family="sans-serif" font-size="15" lengthAdjust="spacing" textLength="187.9395" x="491.6442" y="346.9532">&#127974; Verify Account Balance</text></g><!--entity UC6--><g class="entity" data-entity="UC6" data-source-line="51" data-uid="ent0011" id="entity_UC6"><ellipse cx="585.6828" cy="454.4366" fill="#FFF9C4" rx="77.6828" ry="17.9366" style="stroke:#90A4AE;stroke-width:1.2;"/><text fill="#263238" font-family="sans-serif" font-size="15" lengthAdjust="spacing" textLength="121.1938" x="525.0858" y="459.667">&#9989; Confirm Trade</text></g><!--entity UC7--><g class="entity" data-entity="UC7" data-source-line="52" data-uid="ent0012" id="entity_UC7"><ellipse cx="923.0661" cy="429.6132" fill="#F3E5F5" rx="86.0661" ry="19.6132" style="stroke:#90A4AE;stroke-width:1.2;"/><text fill="#263238" font-family="sans-serif" font-size="15" lengthAdjust="spacing" textLength="141.3428" x="852.3947" y="434.8437">&#128193; Refresh Holdings</text></g><!--entity UC8--><g class="entity" data-entity="UC8" data-source-line="53" data-uid="ent0013" id="entity_UC8"><ellipse cx="923.0894" cy="507.6179" fill="#FFCCBC" rx="106.0894" ry="23.6179" style="stroke:#90A4AE;stroke-width:1.2;"/><text fill="#263238" font-family="sans-serif" font-size="15" lengthAdjust="spacing" textLength="186.7822" x="829.6983" y="512.8484">&#129534; Issue Confirmation Slip</text></g><!--entity I--><g class="entity" data-entity="I" data-source-line="41" data-uid="ent0002" id="entity_I"><ellipse cx="38.5742" cy="453" fill="#00796B" filter="url(#f147me6ab5748i)" rx="16" ry="16" style="stroke:#00695C;stroke-width:0.5;"/><path d="M38.5742,473 C42.5742,473 45.5742,473 49.5742,469 C57.5742,469 65.5742,477 65.5742,485 L65.5742,489 C65.5742,493 61.5742,497 57.5742,497 L19.5742,497 C15.5742,497 11.5742,493 11.5742,489 L11.5742,485 C11.5742,477 19.5742,469 27.5742,469 C31.5742,473 34.5742,473 38.5742,473" fill="#00796B" filter="url(#f147me6ab5748i)" style="stroke:#00695C;stroke-width:0.5;"/><text fill="#004D40" font-family="sans-serif" font-size="16" lengthAdjust="spacing" textLength="65.1484" x="6" y="512.3516">Investor</text></g><!--entity Exchange--><g class="entity" data-entity="Exchange" data-source-line="42" data-uid="ent0003" id="entity_Exchange"><ellipse cx="923.1914" cy="137" fill="#283593" filter="url(#f147me6ab5748i)" rx="16" ry="16" style="stroke:#00695C;stroke-width:0.5;"/><path d="M923.1914,157 C927.1914,157 930.1914,157 934.1914,153 C942.1914,153 950.1914,161 950.1914,169 L950.1914,173 C950.1914,177 946.1914,181 942.1914,181 L904.1914,181 C900.1914,181 896.1914,177 896.1914,173 L896.1914,169 C896.1914,161 904.1914,153 912.1914,153 C916.1914,157 919.1914,157 923.1914,157" fill="#283593" filter="url(#f147me6ab5748i)" style="stroke:#00695C;stroke-width:0.5;"/><text fill="#004D40" font-family="sans-serif" font-size="16" lengthAdjust="spacing" textLength="185.3828" x="830.5" y="196.3516">Stock Exchange Server</text></g><!--entity Bank--><g class="entity" data-entity="Bank" data-source-line="43" data-uid="ent0004" id="entity_Bank"><ellipse cx="922.9102" cy="22" fill="#2E7D32" filter="url(#f147me6ab5748i)" rx="16" ry="16" style="stroke:#00695C;stroke-width:0.5;"/><path d="M922.9102,42 C926.9102,42 929.9102,42 933.9102,38 C941.9102,38 949.9102,46 949.9102,54 L949.9102,58 C949.9102,62 945.9102,66 941.9102,66 L903.9102,66 C899.9102,66 895.9102,62 895.9102,58 L895.9102,54 C895.9102,46 903.9102,38 911.9102,38 C915.9102,42 918.9102,42 922.9102,42" fill="#2E7D32" filter="url(#f147me6ab5748i)" style="stroke:#00695C;stroke-width:0.5;"/><text fill="#004D40" font-family="sans-serif" font-size="16" lengthAdjust="spacing" textLength="136.8203" x="854.5" y="81.3516">Banking Network</text></g><!--link I to UC1--><g class="link" data-entity-1="I" data-entity-2="UC1" data-source-line="56" data-uid="lnk14" id="link_I_UC1"><path d="M46.19,436.44 C54.59,398.62 72.7,343 110,310.5 C126.59,296.05 142.6151,288.769 163.7851,283.539" fill="none" id="I-to-UC1" style="stroke:#455A64;stroke-width:1.4;"/><polygon fill="#455A64" points="169.61,282.1,159.9133,280.3753,164.7559,283.2992,161.832,288.1418,169.61,282.1" style="stroke:#455A64;stroke-width:1.4;"/></g><!--link I to UC2--><g class="link" data-entity-1="I" data-entity-2="UC2" data-source-line="57" data-uid="lnk15" id="link_I_UC2"><path d="M62.87,436.27 C74.91,418.7 91.06,399.25 110,386.5 C127.93,374.44 143.9026,367.7432 164.5926,362.0832" fill="none" id="I-to-UC2" style="stroke:#455A64;stroke-width:1.4;"/><polygon fill="#455A64" points="170.38,360.5,160.6435,359.0166,165.5572,361.8193,162.7544,366.733,170.38,360.5" style="stroke:#455A64;stroke-width:1.4;"/></g><!--link I to UC3--><g class="link" data-entity-1="I" data-entity-2="UC3" data-source-line="58" data-uid="lnk16" id="link_I_UC3"><path d="M71.08,468.2 C80.68,465.7 91.27,462.97 101,460.5 C126.84,453.96 149.5528,448.3196 174.2128,442.2696" fill="none" id="I-to-UC3" style="stroke:#455A64;stroke-width:1.4;"/><polygon fill="#455A64" points="180.04,440.84,170.3461,439.0996,175.184,442.0314,172.2523,446.8692,180.04,440.84" style="stroke:#455A64;stroke-width:1.4;"/></g><!--link I to UC4--><g class="link" data-entity-1="I" data-entity-2="UC4" data-source-line="59" data-uid="lnk17" id="link_I_UC4"><path d="M71.3,481.19 C92.98,484.39 116.9541,487.9255 145.7341,492.1655" fill="none" id="I-to-UC4" style="stroke:#455A64;stroke-width:1.4;"/><polygon fill="#455A64" points="151.67,493.04,143.3491,487.771,146.7234,492.3112,142.1831,495.6855,151.67,493.04" style="stroke:#455A64;stroke-width:1.4;"/></g><!--link I to UC7--><g class="link" data-entity-1="I" data-entity-2="UC7" data-source-line="60" data-uid="lnk18" id="link_I_UC7"><path d="M68.17,516.57 C79.59,529.25 93.87,541.72 110,548.5 C209.97,590.53 245.76,555.23 354,548.5 C547.56,536.48 611.33,576.67 787,494.5 C803.52,486.78 801.4,475.96 817,466.5 C832.21,457.29 844.3603,451.8542 860.9803,446.1942" fill="none" id="I-to-UC7" style="stroke:#455A64;stroke-width:1.4;"/><polygon fill="#455A64" points="866.66,444.26,856.851,443.3749,861.9269,445.8719,859.43,450.9478,866.66,444.26" style="stroke:#455A64;stroke-width:1.4;"/></g><!--link I to UC8--><g class="link" data-entity-1="I" data-entity-2="UC8" data-source-line="61" data-uid="lnk19" id="link_I_UC8"><path d="M46,516.69 C53.43,548.18 69,589.98 101,610.5 C357.64,775.1 498.16,708.11 787,610.5 C833.36,594.84 872.1809,560.4853 896.6909,535.2353" fill="none" id="I-to-UC8" style="stroke:#455A64;stroke-width:1.4;"/><polygon fill="#455A64" points="900.87,530.93,891.7312,534.6018,897.3874,534.5177,897.4715,540.1739,900.87,530.93" style="stroke:#455A64;stroke-width:1.4;"/></g><!--link UC4 to UC5--><g class="link" data-entity-1="UC4" data-entity-2="UC5" data-source-line="63" data-uid="lnk20" id="link_UC4_UC5"><path d="M301.51,485.59 C318.55,478.91 337.18,471.24 354,463.5 C423.1,431.71 495.5446,392.0488 540.7846,366.5188" fill="none" id="UC4-to-UC5" style="stroke:#455A64;stroke-width:1.4;"/><polygon fill="#455A64" points="546.01,363.57,536.2061,364.5096,541.6555,366.0273,540.1378,371.4768,546.01,363.57" style="stroke:#455A64;stroke-width:1.4;"/><text fill="#000000" font-family="sans-serif" font-size="13" lengthAdjust="spacing" textLength="63.0068" x="385" y="415.5669">&#171;include&#187;</text></g><!--link UC4 to UC6--><g class="link" data-entity-1="UC4" data-entity-2="UC6" data-source-line="64" data-uid="lnk21" id="link_UC4_UC6"><path d="M335.09,492.71 C393.43,483.77 462.0792,473.2586 514.4292,465.2386" fill="none" id="UC4-to-UC6" style="stroke:#455A64;stroke-width:1.4;"/><polygon fill="#455A64" points="520.36,464.33,510.8581,461.739,515.4177,465.0872,512.0695,469.6468,520.36,464.33" style="stroke:#455A64;stroke-width:1.4;"/><text fill="#000000" font-family="sans-serif" font-size="13" lengthAdjust="spacing" textLength="63.0068" x="385" y="472.5669">&#171;include&#187;</text></g><!--link UC5 to Bank--><g class="link" data-entity-1="UC5" data-entity-2="Bank" data-source-line="65" data-uid="lnk22" id="link_UC5_Bank"><path d="M604.85,318.15 C641.52,272.56 728,170.22 817,102.5 C828.47,93.77 836.235,88.5472 849.065,81.2472" fill="none" id="UC5-to-Bank" style="stroke:#455A64;stroke-width:1.4;"/><polygon fill="#455A64" points="854.28,78.28,844.4794,79.2542,849.9342,80.7527,848.4357,86.2074,854.28,78.28" style="stroke:#455A64;stroke-width:1.4;"/><text fill="#000000" font-family="sans-serif" font-size="13" lengthAdjust="spacing" textLength="63.0068" x="723" y="127.5669">&#171;include&#187;</text></g><!--link UC6 to Exchange--><g class="link" data-entity-1="UC6" data-entity-2="Exchange" data-source-line="66" data-uid="lnk23" id="link_UC6_Exchange"><path d="M615.24,437.67 C637.3,424.11 667.95,403.84 692,382.5 C755.15,326.48 755.16,296.97 817,239.5 C831.54,225.99 843.5196,216.1395 859.3496,204.2695" fill="none" id="UC6-to-Exchange" style="stroke:#455A64;stroke-width:1.4;"/><polygon fill="#455A64" points="864.15,200.67,854.5498,202.869,860.1497,203.6696,859.3491,209.2695,864.15,200.67" style="stroke:#455A64;stroke-width:1.4;"/><text fill="#000000" font-family="sans-serif" font-size="13" lengthAdjust="spacing" textLength="63.0068" x="723" y="267.5669">&#171;include&#187;</text></g><!--link UC6 to UC7--><g class="link" data-entity-1="UC6" data-entity-2="UC7" data-source-line="67" data-uid="lnk24" id="link_UC6_UC7"><path d="M659.71,449.05 C713.22,445.06 779.7865,440.0952 835.0265,435.9852" fill="none" id="UC6-to-UC7" style="stroke:#455A64;stroke-width:1.4;"/><polygon fill="#455A64" points="841.01,435.54,831.738,432.2188,836.0238,435.911,832.3316,440.1968,841.01,435.54" style="stroke:#455A64;stroke-width:1.4;"/></g><!--link UC6 to UC8--><g class="link" data-entity-1="UC6" data-entity-2="UC8" data-source-line="68" data-uid="lnk25" id="link_UC6_UC8"><path d="M650,464.53 C702.72,472.86 772.2634,483.8543 830.3434,493.0243" fill="none" id="UC6-to-UC8" style="stroke:#455A64;stroke-width:1.4;"/><polygon fill="#455A64" points="836.27,493.96,828.0039,488.6054,831.3312,493.1802,826.7563,496.5075,836.27,493.96" style="stroke:#455A64;stroke-width:1.4;"/><text fill="#000000" font-family="sans-serif" font-size="13" lengthAdjust="spacing" textLength="61.1851" x="724" y="472.5669">&#171;extend&#187;</text></g><!--SRC=[VLJDRjD04BxxAKQjH4z1Zl_Ye2fIcnOH2K7Lf73Uh6Tjo_PkjDuq1CI10n9280JbYDGRl08dU1UUe8_0hkEuSHh8mHdFDz_kDz_E-W1khZ_yXXCiqvX35pfmccDCk889aXpkmNCY2vWaM20m8U5OYWmbYH76or9XOUN852W1CeqJ1L4gaQfKSCigivJFY2G5J0dDOYdcF1gANA-npq966DseA1CIYKNAOr1oZXj0nQ92SfJWE1l0aPHYKI_d-Ju9l6rmagGqurYMqBtlMTO1T3eTk2WHXaG_ncgPeqbjqEObKeEziW2ExsYkVWOHCa9PP_isyGZgx4F1LPrp0jTnmpetJbyYTFs6jwdAqTbnk_FNQw57LEcrTgaa5R9J8zhCOTrjZROTz7tQrcZRNkJPBOs1KLFjHnPOYWB_e-vS7pBXSRxRHzcW_tBIHNjR9RA0sYPxlYfT7RdVaXYscy30xzfD4vMGgSYZdRfNhetu9POc82MCZ0kzVZ2jiRsn4ZI3qnSqqU9rPoWlKUwPqYQtxuIkttVNZ6F2CxF94rGB8REgrkHq7VOYrx6iMolsRgwlti596gTAtwk9995XdkL4wMjLLDJLZQfCMu-YPdtzh8U1cedHVzeRLTLU3BkmJqCCQ7-h_2Cy5YA3YnaCHJ4ZV5dNEzgmBlCPjkkltiCm4KA_hCmfiDd1DMU5zjHfCxxyr8OWdIk4ixdKpkZqKtEIDStJD9jvr6tJFds7PoXJjbpteQtA2QTOqtojBy8U2pPfVxwzrMrmbfgFaFPiNHnKOzIdtbOpR_HeCebb0e_q96Y7ovhGqmGNVUQt2Jz-mQWivxZUX9Xl5uppT5RpGhCHfLDgXcYa1trWh6yYfudS9lAQgDT4eMKPOrOlFZo0myEKqtmUuM2mWGHt4Bz2gg7QXe8AQcPpDsn4tCPXLOKl5F9eCFWB]--></g></svg>