<svg xmlns="http://www.w3.org/2000/svg" xmlns:xlink="http://www.w3.org/1999/xlink" contentStyleType="text/css" data-diagram-type="DESCRIPTION" height="799px" preserveAspectRatio="none" style="width:1123px;height:799px;background:#F5F7FA;" version="1.1" viewBox="0 0 1123 799" width="1123px" zoomAndPan="magnify"><defs><filter height="300%" id="fhg2t7z3cvuda" width="300%" x="-1" y="-1"><feGaussianBlur result="blurOut" stdDeviation="2"/><feColorMatrix in="blurOut" result="blurOut2" type="matrix" values="0 0 0 0 0 0 0 0 0 0 0 0 0 0 0 0 0 0 .4 0"/><feOffset dx="4" dy="4" in="blurOut2" result="blurOut3"/><feBlend in="SourceGraphic" in2="blurOut3" mode="normal"/></filter></defs><g><rect fill="#F5F7FA" height="799" style="stroke:none;stroke-width:1;" width="1123" x="0" y="0"/><!--cluster System--><g class="cluster" data-entity="System" data-source-line="45" data-uid="ent0005" id="cluster_System"><rect fill="#E3F2FD" filter="url(#fhg2t7z3cvuda)" height="340" rx="12.5" ry="12.5" style="stroke:#1E88E5;stroke-width:1;" width="993" x="118" y="216.5"/><text fill="#0D47A1" font-family="sans-serif" font-size="18" font-weight="bold" lengthAdjust="spacing" textLength="292.0781" x="468.4609" y="235.208">&#127974; Online Equity Management</text></g><!--entity UC1--><g class="entity" data-entity="UC1" data-source-line="46" data-uid="ent0006" id="entity_UC1"><ellipse cx="252.2327" cy="274.7465" fill="#BBDEFB" rx="84.2327" ry="19.2465" style="stroke:#9FA8DA;stroke-width:1.3;"/><text fill="#1A237E" font-family="sans-serif" font-size="15" lengthAdjust="spacing" textLength="137.0142" x="183.7256" y="279.977">&#128100; Sign In to Profile</text></g><!--entity UC2--><g class="entity" data-entity="UC2" data-source-line="47" data-uid="ent0007" id="entity_UC2"><ellipse cx="252.2088" cy="352.3418" fill="#EDE7F6" rx="107.2088" ry="23.8418" style="stroke:#9FA8DA;stroke-width:1.3;"/><text fill="#1A237E" font-family="sans-serif" font-size="15" lengthAdjust="spacing" textLength="189.2505" x="157.5835" y="357.5722">&#128270; Explore Market Listings</text></g><!--entity UC3--><g class="entity" data-entity="UC3" data-source-line="48" data-uid="ent0008" id="entity_UC3"><ellipse cx="252.1903" cy="432.6381" fill="#C8E6C9" rx="93.6903" ry="21.1381" style="stroke:#9FA8DA;stroke-width:1.3;"/><text fill="#1A237E" font-family="sans-serif" font-size="15" lengthAdjust="spacing" textLength="158.9868" x="172.6969" y="437.8685">&#128200; Pick a Stock Option</text></g><!--entity UC4--><g class="entity" data-entity="UC4" data-source-line="49" data-uid="ent0009" id="entity_UC4"><ellipse cx="252.019" cy="514.5038" fill="#FFF59D" rx="118.019" ry="26.0038" style="stroke:#9FA8DA;stroke-width:1.3;"/><text fill="#1A237E" font-family="sans-serif" font-size="15" lengthAdjust="spacing" textLength="212.8271" x="145.6054" y="519.7343">&#128181; Submit Purchase Request</text></g><!--entity UC5--><g class="entity" data-entity="UC5" data-source-line="50" data-uid="ent0010" id="entity_UC5"><ellipse cx="609.279" cy="314.2558" fill="#F3E5F5" rx="114.279" ry="25.2558" style="stroke:#9FA8DA;stroke-width:1.3;"/><text fill="#1A237E" font-family="sans-serif" font-size="15" lengthAdjust="spacing" textLength="204.7192" x="506.9194" y="319.4863">&#128176; Validate Fund Availability</text></g><!--entity UC6--><g class="entity" data-entity="UC6" data-source-line="51" data-uid="ent0011" id="entity_UC6"><ellipse cx="609.7455" cy="458.5491" fill="#DCEDC8" rx="98.2455" ry="22.0491" style="stroke:#9FA8DA;stroke-width:1.3;"/><text fill="#1A237E" font-family="sans-serif" font-size="15" lengthAdjust="spacing" textLength="169.3066" x="525.0922" y="463.7796">&#128272; Approve Transaction</text></g><!--entity UC7--><g class="entity" data-entity="UC7" data-source-line="52" data-uid="ent0012" id="entity_UC7"><ellipse cx="971.8191" cy="430.4638" fill="#F0F4C3" rx="122.8191" ry="26.9638" style="stroke:#9FA8DA;stroke-width:1.3;"/><text fill="#1A237E" font-family="sans-serif" font-size="15" lengthAdjust="spacing" textLength="223.1689" x="860.2346" y="435.6943">&#128202; Update Investment Records</text></g><!--entity UC8--><g class="entity" data-entity="UC8" data-source-line="53" data-uid="ent0013" id="entity_UC8"><ellipse cx="972.0644" cy="516.7129" fill="#FFCCBC" rx="109.0644" ry="24.2129" style="stroke:#9FA8DA;stroke-width:1.3;"/><text fill="#1A237E" font-family="sans-serif" font-size="15" lengthAdjust="spacing" textLength="193.3301" x="875.3994" y="521.9433">&#129534; Generate Trade Receipt</text></g><!--entity I--><g class="entity" data-entity="I" data-source-line="41" data-uid="ent0002" id="entity_I"><ellipse cx="38.5742" cy="461" fill="#283593" filter="url(#fhg2t7z3cvuda)" rx="16" ry="16" style="stroke:#3F51B5;stroke-width:0.5;"/><path d="M38.5742,481 C42.5742,481 45.5742,481 49.5742,477 C57.5742,477 65.5742,485 65.5742,493 L65.5742,497 C65.5742,501 61.5742,505 57.5742,505 L19.5742,505 C15.5742,505 11.5742,501 11.5742,497 L11.5742,493 C11.5742,485 19.5742,477 27.5742,477 C31.5742,481 34.5742,481 38.5742,481" fill="#283593" filter="url(#fhg2t7z3cvuda)" style="stroke:#3F51B5;stroke-width:0.5;"/><text fill="#1A237E" font-family="sans-serif" font-size="16" lengthAdjust="spacing" textLength="65.1484" x="6" y="520.3516">Investor</text></g><!--entity Exchange--><g class="entity" data-entity="Exchange" data-source-line="42" data-uid="ent0003" id="entity_Exchange"><ellipse cx="972.168" cy="137" fill="#2E7D32" filter="url(#fhg2t7z3cvuda)" rx="16" ry="16" style="stroke:#3F51B5;stroke-width:0.5;"/><path d="M972.168,157 C976.168,157 979.168,157 983.168,153 C991.168,153 999.168,161 999.168,169 L999.168,173 C999.168,177 995.168,181 991.168,181 L953.168,181 C949.168,181 945.168,177 945.168,173 L945.168,169 C945.168,161 953.168,153 961.168,153 C965.168,157 968.168,157 972.168,157" fill="#2E7D32" filter="url(#fhg2t7z3cvuda)" style="stroke:#3F51B5;stroke-width:0.5;"/><text fill="#1A237E" font-family="sans-serif" font-size="16" lengthAdjust="spacing" textLength="135.3359" x="904.5" y="196.3516">Stock Market API</text></g><!--entity Bank--><g class="entity" data-entity="Bank" data-source-line="43" data-uid="ent0004" id="entity_Bank"><ellipse cx="971.8945" cy="22" fill="#1565C0" filter="url(#fhg2t7z3cvuda)" rx="16" ry="16" style="stroke:#3F51B5;stroke-width:0.5;"/><path d="M971.8945,42 C975.8945,42 978.8945,42 982.8945,38 C990.8945,38 998.8945,46 998.8945,54 L998.8945,58 C998.8945,62 994.8945,66 990.8945,66 L952.8945,66 C948.8945,66 944.8945,62 944.8945,58 L944.8945,54 C944.8945,46 952.8945,38 960.8945,38 C964.8945,42 967.8945,42 971.8945,42" fill="#1565C0" filter="url(#fhg2t7z3cvuda)" style="stroke:#3F51B5;stroke-width:0.5;"/><text fill="#1A237E" font-family="sans-serif" font-size="16" lengthAdjust="spacing" textLength="162.7891" x="890.5" y="81.3516">Linked Bank System</text></g><!--link I to UC1--><g class="link" data-entity-1="I" data-entity-2="UC1" data-source-line="56" data-uid="lnk14" id="link_I_UC1"><path d="M45.16,444.29 C52.89,404.57 70.6,344.92 110,310.5 C127.51,295.21 144.794,287.6109 167.254,282.4209" fill="none" id="I-to-UC1" style="stroke:#37474F;stroke-width:1.5;"/><polygon fill="#37474F" points="173.1,281.07,163.4305,279.199,168.2284,282.1957,165.2317,286.9936,173.1,281.07" style="stroke:#37474F;stroke-width:1.5;"/></g><!--link I to UC2--><g class="link" data-entity-1="I" data-entity-2="UC2" data-source-line="57" data-uid="lnk15" id="link_I_UC2"><path d="M62.49,444.32 C74.56,426.45 90.83,406.54 110,393.5 C127.18,381.82 141.9652,375.1512 161.9752,369.1212" fill="none" id="I-to-UC2" style="stroke:#37474F;stroke-width:1.5;"/><polygon fill="#37474F" points="167.72,367.39,157.9486,366.1569,162.9327,368.8327,160.2569,373.8167,167.72,367.39" style="stroke:#37474F;stroke-width:1.5;"/></g><!--link I to UC3--><g class="link" data-entity-1="I" data-entity-2="UC3" data-source-line="58" data-uid="lnk16" id="link_I_UC3"><path d="M71.04,475.52 C80.64,472.86 91.23,469.99 101,467.5 C128.47,460.51 153.0629,454.6459 179.3029,448.6059" fill="none" id="I-to-UC3" style="stroke:#37474F;stroke-width:1.5;"/><polygon fill="#37474F" points="185.15,447.26,175.4821,445.3808,180.2774,448.3816,177.2766,453.1769,185.15,447.26" style="stroke:#37474F;stroke-width:1.5;"/></g><!--link I to UC4--><g class="link" data-entity-1="I" data-entity-2="UC4" data-source-line="59" data-uid="lnk17" id="link_I_UC4"><path d="M71.16,488.99 C92.83,492.07 116.8896,495.4763 146.1796,499.6363" fill="none" id="I-to-UC4" style="stroke:#37474F;stroke-width:1.5;"/><polygon fill="#37474F" points="152.12,500.48,143.7719,495.2542,147.1697,499.7769,142.647,503.1747,152.12,500.48" style="stroke:#37474F;stroke-width:1.5;"/></g><!--link I to UC7--><g class="link" data-entity-1="I" data-entity-2="UC7" data-source-line="60" data-uid="lnk18" id="link_I_UC7"><path d="M67.72,524.73 C79.19,537.72 93.62,550.55 110,557.5 C241.55,613.34 807.33,504.6 819,499.5 C834.91,492.56 833.94,483.13 849,474.5 C864.14,465.83 875.6683,460.4667 892.2383,454.2867" fill="none" id="I-to-UC7" style="stroke:#37474F;stroke-width:1.5;"/><polygon fill="#37474F" points="897.86,452.19,888.0296,451.5872,893.1752,453.9372,890.8252,459.0829,897.86,452.19" style="stroke:#37474F;stroke-width:1.5;"/></g><!--link I to UC8--><g class="link" data-entity-1="I" data-entity-2="UC8" data-source-line="61" data-uid="lnk19" id="link_I_UC8"><path d="M45.84,524.66 C53.19,556.42 68.73,598.74 101,619.5 C369.37,792.15 513.93,713.13 819,619.5 C869.59,603.98 914.0181,569.2914 942.1481,544.0014" fill="none" id="I-to-UC8" style="stroke:#37474F;stroke-width:1.5;"/><polygon fill="#37474F" points="946.61,539.99,937.2429,543.0325,942.8918,543.3329,942.5914,548.9817,946.61,539.99" style="stroke:#37474F;stroke-width:1.5;"/></g><!--link UC4 to UC5--><g class="link" data-entity-1="UC4" data-entity-2="UC5" data-source-line="63" data-uid="lnk20" id="link_UC4_UC5"><path d="M318.15,492.89 C335.34,486.41 353.65,478.8 370,470.5 C447.66,431.11 526.4342,375.7153 571.1142,342.7053" fill="none" id="UC4-to-UC5" style="stroke:#37474F;stroke-width:1.5;"/><polygon fill="#37474F" points="575.94,339.14,566.3244,341.2708,571.9185,342.1111,571.0782,347.7052,575.94,339.14" style="stroke:#37474F;stroke-width:1.5;"/><text fill="#000000" font-family="sans-serif" font-size="13" lengthAdjust="spacing" textLength="63.0068" x="401" y="412.5669">&#171;include&#187;</text></g><!--link UC4 to UC6--><g class="link" data-entity-1="UC4" data-entity-2="UC6" data-source-line="64" data-uid="lnk21" id="link_UC4_UC6"><path d="M348.74,499.42 C405.08,490.55 469.593,480.383 522.893,471.993" fill="none" id="UC4-to-UC6" style="stroke:#37474F;stroke-width:1.5;"/><polygon fill="#37474F" points="528.82,471.06,519.3075,468.5081,523.8808,471.8375,520.5515,476.4108,528.82,471.06" style="stroke:#37474F;stroke-width:1.5;"/><text fill="#000000" font-family="sans-serif" font-size="13" lengthAdjust="spacing" textLength="63.0068" x="401" y="477.5669">&#171;include&#187;</text></g><!--link UC5 to Bank--><g class="link" data-entity-1="UC5" data-entity-2="Bank" data-source-line="65" data-uid="lnk22" id="link_UC5_Bank"><path d="M625.01,289.19 C647.96,251.14 696.03,179.03 754,135.5 C794.69,104.95 841.569,84.7305 884.769,70.0505" fill="none" id="UC5-to-Bank" style="stroke:#37474F;stroke-width:1.5;"/><polygon fill="#37474F" points="890.45,68.12,880.6416,67.2284,885.7159,69.7287,883.2155,74.803,890.45,68.12" style="stroke:#37474F;stroke-width:1.5;"/><text fill="#000000" font-family="sans-serif" font-size="13" lengthAdjust="spacing" textLength="63.0068" x="755" y="95.5669">&#171;include&#187;</text></g><!--link UC6 to Exchange--><g class="link" data-entity-1="UC6" data-entity-2="Exchange" data-source-line="66" data-uid="lnk23" id="link_UC6_Exchange"><path d="M635.04,437.04 C658.15,416.73 693.67,385.31 724,357.5 C780.32,305.88 788.91,286.68 849,239.5 C866.27,225.95 880.8497,215.7351 899.2297,203.8651" fill="none" id="UC6-to-Exchange" style="stroke:#37474F;stroke-width:1.5;"/><polygon fill="#37474F" points="904.27,200.61,894.5395,202.1324,900.0698,203.3226,898.8796,208.8528,904.27,200.61" style="stroke:#37474F;stroke-width:1.5;"/><text fill="#000000" font-family="sans-serif" font-size="13" lengthAdjust="spacing" textLength="63.0068" x="755" y="261.5669">&#171;include&#187;</text></g><!--link UC6 to UC7--><g class="link" data-entity-1="UC6" data-entity-2="UC7" data-source-line="67" data-uid="lnk24" id="link_UC6_UC7"><path d="M702.4,451.37 C749.03,447.74 800.148,443.7749 849.688,439.9249" fill="none" id="UC6-to-UC7" style="stroke:#37474F;stroke-width:1.5;"/><polygon fill="#37474F" points="855.67,439.46,846.3871,436.1694,850.685,439.8474,847.007,444.1453,855.67,439.46" style="stroke:#37474F;stroke-width:1.5;"/></g><!--link UC6 to UC8--><g class="link" data-entity-1="UC6" data-entity-2="UC8" data-source-line="68" data-uid="lnk25" id="link_UC6_UC8"><path d="M689.61,471.23 C746.92,480.45 818.4761,491.9674 877.6161,501.4774" fill="none" id="UC6-to-UC8" style="stroke:#37474F;stroke-width:1.5;"/><polygon fill="#37474F" points="883.54,502.43,875.2892,497.0518,878.6034,501.6362,874.0191,504.9504,883.54,502.43" style="stroke:#37474F;stroke-width:1.5;"/><text fill="#000000" font-family="sans-serif" font-size="13" lengthAdjust="spacing" textLength="61.1851" x="756" y="478.5669">&#171;extend&#187;</text></g><!--SRC=[XLDDRzD04BtxLumQYPw2QZkE7LH5IaEB8e4QDMtlwzrnihApcwxN_G1nHnmA5Ewz8BXouSflwazWrt5S9uqWXsWyRzxkcxSpk_1mVtSBBp7dKm4Uj66I8QOmb3A3Wwn0U0RdN6QeuNI6SuH4AZXGCaL5fWYJcrpZtCamqQ0bA3wTQM1S8TLS2iV9KouMH94vn8IcKoKBmOOoCsUqaY094zAeo6U4oIikfg1LWGsWP56f12hml0OmK4fULSVvOIVi99lWwOpJL62UW_iyS9nTQBVRS9OZ38dvc-YR36sgGIjof1Pxvm0SFD5S_YmY5KDLPNi9YHWnsICfT9LpYUU7MEKc_2s26zIyfYhVP2VhdRzV2HrGRSxQffAKo5QD6259kfiQ_IHmu-2_6YrlUH-vmbpEyH_gJimZ4p7DjlkeQdIxIZ_n4hQfqiKeGgloP5cwVF9WJMAqtiGUwuJ4NLMKGcAPiQswbwwDn2NcDY0vZA3bHNxGyojiPw8bJU4DKQcP-C5uj6Eh3g_fpFI2fXX3vdkhujTSfCXCSoAjDg4iBxzRRj0Dw9xZF1gnyt3_wGSSYumBXCEBWkiRSvCmUpH7eKlgyfJIijKW6jQNxp2nwpaITid6IYOymxB-REX2AuuP9l4wvTkjKRqm3k6gcTSyryQClE9vvWqOXkMaD7XVFy3O32SGM3fnlB2BN75yQD48kxItphdx3PCYddCDuq8Pfqps12yAOtB5wvIR4_JO1kyNd9ECCw8HZinxm-2Iy8p4F3FELDJ0K7qCac2ZlSymM2oKl4GuLKJaX3PaTg75A38QRRJs4SuMvMNB2R2cso4s0xWo9JItxIKTwgypV_w1LsX6qNBDTSpsHv4lLlr5jZzAOsg7R6GMeMyVfewyElBhg5D7OHr5ZcEzMdu4y0BszxcWMS6mtsyWtIT8K2Bbs6r2tHAg1tWxR4Kynb5PXTSQ1Ult_m80]--></g></svg>