<svg xmlns="http://www.w3.org/2000/svg" xmlns:xlink="http://www.w3.org/1999/xlink" contentStyleType="text/css" data-diagram-type="DESCRIPTION" height="809px" preserveAspectRatio="none" style="width:1119px;height:809px;background:#F7F9FB;" version="1.1" viewBox="0 0 1119 809" width="1119px" zoomAndPan="magnify"><defs><filter height="300%" id="fk2thhuxi8x5r" width="300%" x="-1" y="-1"><feGaussianBlur result="blurOut" stdDeviation="2"/><feColorMatrix in="blurOut" result="blurOut2" type="matrix" values="0 0 0 0 0 0 0 0 0 0 0 0 0 0 0 0 0 0 .4 0"/><feOffset dx="4" dy="4" in="blurOut2" result="blurOut3"/><feBlend in="SourceGraphic" in2="blurOut3" mode="normal"/></filter></defs><g><rect fill="#F7F9FB" height="809" style="stroke:none;stroke-width:1;" width="1119" x="0" y="0"/><!--cluster System--><g class="cluster" data-entity="System" data-source-line="48" data-uid="ent0005" id="cluster_System"><rect fill="#EDE7F6" filter="url(#fk2thhuxi8x5r)" height="350" rx="12.5" ry="12.5" style="stroke:#4527A0;stroke-width:1;" width="989" x="118" y="216.5"/><text fill="#311B92" font-family="sans-serif" font-size="18" font-weight="bold" lengthAdjust="spacing" textLength="280.9688" x="472.0156" y="235.208">&#128185; Intelligent Brokerage Hub</text></g><!--entity UC1--><g class="entity" data-entity="UC1" data-source-line="49" data-uid="ent0006" id="entity_UC1"><ellipse cx="252.4652" cy="277.393" fill="#D1C4E9" rx="97.4652" ry="21.893" style="stroke:#90A4AE;stroke-width:1.3;"/><text fill="#263238" font-family="sans-serif" font-size="15" lengthAdjust="spacing" textLength="167.5488" x="168.6908" y="282.6235">&#128272; Secure Login Access</text></g><!--entity UC2--><g class="entity" data-entity="UC2" data-source-line="50" data-uid="ent0007" id="entity_UC2"><ellipse cx="252.4284" cy="357.3857" fill="#E3F2FD" rx="102.4284" ry="22.8857" style="stroke:#90A4AE;stroke-width:1.3;"/><text fill="#263238" font-family="sans-serif" font-size="15" lengthAdjust="spacing" textLength="178.667" x="163.0949" y="362.6161">&#128270; Explore Stock Listings</text></g><!--entity UC3--><g class="entity" data-entity="UC3" data-source-line="51" data-uid="ent0008" id="entity_UC3"><ellipse cx="252.4257" cy="441.5851" fill="#C8E6C9" rx="118.4257" ry="26.0851" style="stroke:#90A4AE;stroke-width:1.3;"/><text fill="#263238" font-family="sans-serif" font-size="15" lengthAdjust="spacing" textLength="213.7061" x="145.5727" y="446.8156">&#128200; Choose Investment Option</text></g><!--entity UC4--><g class="entity" data-entity="UC4" data-source-line="52" data-uid="ent0009" id="entity_UC4"><ellipse cx="252.6412" cy="526.7282" fill="#F3E5F5" rx="109.1412" ry="24.2282" style="stroke:#90A4AE;stroke-width:1.3;"/><text fill="#263238" font-family="sans-serif" font-size="15" lengthAdjust="spacing" textLength="193.4985" x="155.8919" y="531.9587">&#128184; Place Purchase Request</text></g><!--entity UC5--><g class="entity" data-entity="UC5" data-source-line="53" data-uid="ent0010" id="entity_UC5"><ellipse cx="610.6699" cy="318.334" fill="#F0F4C3" rx="114.6699" ry="25.334" style="stroke:#90A4AE;stroke-width:1.3;"/><text fill="#263238" font-family="sans-serif" font-size="15" lengthAdjust="spacing" textLength="205.5688" x="507.8855" y="323.5644">&#128176; Validate Account Balance</text></g><!--entity UC6--><g class="entity" data-entity="UC6" data-source-line="54" data-uid="ent0011" id="entity_UC6"><ellipse cx="610.2515" cy="467.2503" fill="#EDE7F6" rx="96.7515" ry="21.7503" style="stroke:#90A4AE;stroke-width:1.3;"/><text fill="#263238" font-family="sans-serif" font-size="15" lengthAdjust="spacing" textLength="165.9375" x="527.2827" y="472.4808">&#9989; Confirm Transaction</text></g><!--entity UC7--><g class="entity" data-entity="UC7" data-source-line="55" data-uid="ent0012" id="entity_UC7"><ellipse cx="970.5914" cy="439.6183" fill="#DCEDC8" rx="101.0914" ry="22.6183" style="stroke:#90A4AE;stroke-width:1.3;"/><text fill="#263238" font-family="sans-serif" font-size="15" lengthAdjust="spacing" textLength="175.686" x="882.7484" y="444.8487">&#128202; Update Portfolio Data</text></g><!--entity UC8--><g class="entity" data-entity="UC8" data-source-line="56" data-uid="ent0013" id="entity_UC8"><ellipse cx="970.4389" cy="523.4878" fill="#C5CAE9" rx="120.4389" ry="26.4878" style="stroke:#90A4AE;stroke-width:1.3;"/><text fill="#263238" font-family="sans-serif" font-size="15" lengthAdjust="spacing" textLength="218.0493" x="861.4143" y="528.7183">&#129534; Generate Confirmation Slip</text></g><!--entity I--><g class="entity" data-entity="I" data-source-line="44" data-uid="ent0002" id="entity_I"><ellipse cx="38.5742" cy="472" fill="#2E7D32" filter="url(#fk2thhuxi8x5r)" rx="16" ry="16" style="stroke:#2E7D32;stroke-width:0.5;"/><path d="M38.5742,492 C42.5742,492 45.5742,492 49.5742,488 C57.5742,488 65.5742,496 65.5742,504 L65.5742,508 C65.5742,512 61.5742,516 57.5742,516 L19.5742,516 C15.5742,516 11.5742,512 11.5742,508 L11.5742,504 C11.5742,496 19.5742,488 27.5742,488 C31.5742,492 34.5742,492 38.5742,492" fill="#2E7D32" filter="url(#fk2thhuxi8x5r)"/><text fill="#1B5E20" font-family="sans-serif" font-size="16" lengthAdjust="spacing" textLength="65.1484" x="6" y="531.3516">Investor</text></g><!--entity Exchange--><g class="entity" data-entity="Exchange" data-source-line="45" data-uid="ent0003" id="entity_Exchange"><ellipse cx="970.5352" cy="137" fill="#1565C0" filter="url(#fk2thhuxi8x5r)" rx="16" ry="16" style="stroke:#2E7D32;stroke-width:0.5;"/><path d="M970.5352,157 C974.5352,157 977.5352,157 981.5352,153 C989.5352,153 997.5352,161 997.5352,169 L997.5352,173 C997.5352,177 993.5352,181 989.5352,181 L951.5352,181 C947.5352,181 943.5352,177 943.5352,173 L943.5352,169 C943.5352,161 951.5352,153 959.5352,153 C963.5352,157 966.5352,157 970.5352,157" fill="#1565C0" filter="url(#fk2thhuxi8x5r)" style="stroke:#2E7D32;stroke-width:0.5;"/><text fill="#1B5E20" font-family="sans-serif" font-size="16" lengthAdjust="spacing" textLength="200.0703" x="870.5" y="196.3516">&#128202; Stock Exchange Server</text></g><!--entity Bank--><g class="entity" data-entity="Bank" data-source-line="46" data-uid="ent0004" id="entity_Bank"><ellipse cx="970.2539" cy="22" fill="#5E35B1" filter="url(#fk2thhuxi8x5r)" rx="16" ry="16" style="stroke:#2E7D32;stroke-width:0.5;"/><path d="M970.2539,42 C974.2539,42 977.2539,42 981.2539,38 C989.2539,38 997.2539,46 997.2539,54 L997.2539,58 C997.2539,62 993.2539,66 989.2539,66 L951.2539,66 C947.2539,66 943.2539,62 943.2539,58 L943.2539,54 C943.2539,46 951.2539,38 959.2539,38 C963.2539,42 966.2539,42 970.2539,42" fill="#5E35B1" filter="url(#fk2thhuxi8x5r)" style="stroke:#2E7D32;stroke-width:0.5;"/><text fill="#1B5E20" font-family="sans-serif" font-size="16" lengthAdjust="spacing" textLength="151.5078" x="894.5" y="81.3516">&#127974; Banking Network</text></g><!--link I to UC1--><g class="link" data-entity-1="I" data-entity-2="UC1" data-source-line="59" data-uid="lnk14" id="link_I_UC1"><path d="M44.76,455.45 C52.22,414.75 69.76,352.67 110,316.5 C125.54,302.53 139.8749,295.1723 160.0249,289.3623" fill="none" id="I-to-UC1" style="stroke:#546E7A;stroke-width:1.4;"/><polygon fill="#546E7A" points="165.79,287.7,156.0341,286.35,160.9857,289.0853,158.2505,294.0369,165.79,287.7" style="stroke:#546E7A;stroke-width:1.4;"/></g><!--link I to UC2--><g class="link" data-entity-1="I" data-entity-2="UC2" data-source-line="60" data-uid="lnk15" id="link_I_UC2"><path d="M60.02,455.12 C72.07,435.12 89.06,412.18 110,397.5 C127.35,385.34 142.5665,378.5281 162.9865,372.6181" fill="none" id="I-to-UC2" style="stroke:#546E7A;stroke-width:1.4;"/><polygon fill="#546E7A" points="168.75,370.95,158.9928,369.6098,163.9471,372.3401,161.2169,377.2944,168.75,370.95" style="stroke:#546E7A;stroke-width:1.4;"/></g><!--link I to UC3--><g class="link" data-entity-1="I" data-entity-2="UC3" data-source-line="61" data-uid="lnk16" id="link_I_UC3"><path d="M71.09,487.23 C80.69,484.73 91.27,481.99 101,479.5 C124.62,473.44 144.5321,468.3869 167.9321,462.4869" fill="none" id="I-to-UC3" style="stroke:#546E7A;stroke-width:1.4;"/><polygon fill="#546E7A" points="173.75,461.02,164.0452,459.3418,168.9017,462.2424,166.0011,467.099,173.75,461.02" style="stroke:#546E7A;stroke-width:1.4;"/></g><!--link I to UC4--><g class="link" data-entity-1="I" data-entity-2="UC4" data-source-line="62" data-uid="lnk17" id="link_I_UC4"><path d="M71.24,500.14 C95.15,503.64 123.2531,507.7418 155.3231,512.4318" fill="none" id="I-to-UC4" style="stroke:#546E7A;stroke-width:1.4;"/><polygon fill="#546E7A" points="161.26,513.3,152.9335,508.0398,156.3126,512.5765,151.7759,515.9556,161.26,513.3" style="stroke:#546E7A;stroke-width:1.4;"/></g><!--link I to UC7--><g class="link" data-entity-1="I" data-entity-2="UC7" data-source-line="63" data-uid="lnk18" id="link_I_UC7"><path d="M68.17,535.57 C79.59,548.25 93.87,560.72 110,567.5 C244.64,624.1 813.92,510.38 820,507.5 C836.49,499.7 834.33,488.83 850,479.5 C866.17,469.87 879.2676,464.0964 897.0976,458.1564" fill="none" id="I-to-UC7" style="stroke:#546E7A;stroke-width:1.4;"/><polygon fill="#546E7A" points="902.79,456.26,892.9871,455.3097,898.0463,457.8403,895.5156,462.8996,902.79,456.26" style="stroke:#546E7A;stroke-width:1.4;"/></g><!--link I to UC8--><g class="link" data-entity-1="I" data-entity-2="UC8" data-source-line="64" data-uid="lnk19" id="link_I_UC8"><path d="M46,535.69 C53.43,567.18 69,608.98 101,629.5 C369.99,802.01 515.52,726.49 820,629.5 C869.11,613.85 911.5509,579.6616 939.3209,553.6516" fill="none" id="I-to-UC8" style="stroke:#546E7A;stroke-width:1.4;"/><polygon fill="#546E7A" points="943.7,549.55,934.3969,552.783,940.0507,552.968,939.8657,558.6218,943.7,549.55" style="stroke:#546E7A;stroke-width:1.4;"/></g><!--link UC4 to UC5--><g class="link" data-entity-1="UC4" data-entity-2="UC5" data-source-line="66" data-uid="lnk20" id="link_UC4_UC5"><path d="M317.3,507.15 C335.09,500.83 354.15,493.18 371,484.5 C413.04,462.84 516.6178,387.4302 571.6178,346.7102" fill="none" id="UC4-to-UC5" style="stroke:#546E7A;stroke-width:1.4;"/><polygon fill="#546E7A" points="576.44,343.14,566.8266,345.2805,572.4215,346.1152,571.5868,351.7101,576.44,343.14" style="stroke:#546E7A;stroke-width:1.4;"/><text fill="#000000" font-family="sans-serif" font-size="13" lengthAdjust="spacing" textLength="63.0068" x="402" y="423.5669">&#171;include&#187;</text></g><!--link UC4 to UC6--><g class="link" data-entity-1="UC4" data-entity-2="UC6" data-source-line="67" data-uid="lnk21" id="link_UC4_UC6"><path d="M340.13,512.14 C398.58,502.45 469.1508,490.7611 525.6808,481.3911" fill="none" id="UC4-to-UC6" style="stroke:#546E7A;stroke-width:1.4;"/><polygon fill="#546E7A" points="531.6,480.41,522.0671,477.9355,526.6673,481.2276,523.3752,485.8279,531.6,480.41" style="stroke:#546E7A;stroke-width:1.4;"/><text fill="#000000" font-family="sans-serif" font-size="13" lengthAdjust="spacing" textLength="63.0068" x="402" y="488.5669">&#171;include&#187;</text></g><!--link UC5 to Bank--><g class="link" data-entity-1="UC5" data-entity-2="Bank" data-source-line="68" data-uid="lnk22" id="link_UC5_Bank"><path d="M625.71,292.96 C648.43,254.16 696.41,180.18 755,135.5 C796.5,103.85 845.093,83.1226 888.653,68.4726" fill="none" id="UC5-to-Bank" style="stroke:#546E7A;stroke-width:1.4;"/><polygon fill="#546E7A" points="894.34,66.56,884.5344,65.6376,889.6008,68.1539,887.0846,73.2203,894.34,66.56" style="stroke:#546E7A;stroke-width:1.4;"/><text fill="#000000" font-family="sans-serif" font-size="13" lengthAdjust="spacing" textLength="63.0068" x="756" y="95.5669">&#171;include&#187;</text></g><!--link UC6 to Exchange--><g class="link" data-entity-1="UC6" data-entity-2="Exchange" data-source-line="69" data-uid="lnk23" id="link_UC6_Exchange"><path d="M634.68,446.13 C657.72,424.82 693.99,391.1 725,361.5 C781.15,307.89 789.57,288.23 850,239.5 C866.84,225.92 881.0311,215.7431 899.0311,203.8731" fill="none" id="UC6-to-Exchange" style="stroke:#546E7A;stroke-width:1.4;"/><polygon fill="#546E7A" points="904.04,200.57,894.3245,202.1854,899.8659,203.3226,898.7287,208.864,904.04,200.57" style="stroke:#546E7A;stroke-width:1.4;"/><text fill="#000000" font-family="sans-serif" font-size="13" lengthAdjust="spacing" textLength="63.0068" x="756" y="262.5669">&#171;include&#187;</text></g><!--link UC6 to UC7--><g class="link" data-entity-1="UC6" data-entity-2="UC7" data-source-line="70" data-uid="lnk24" id="link_UC6_UC7"><path d="M702.76,460.36 C755.49,456.24 815.7183,451.5283 868.9883,447.3583" fill="none" id="UC6-to-UC7" style="stroke:#546E7A;stroke-width:1.4;"/><polygon fill="#546E7A" points="874.97,446.89,865.6853,443.6046,869.9852,447.2802,866.3096,451.5802,874.97,446.89" style="stroke:#546E7A;stroke-width:1.4;"/></g><!--link UC6 to UC8--><g class="link" data-entity-1="UC6" data-entity-2="UC8" data-source-line="71" data-uid="lnk25" id="link_UC6_UC8"><path d="M690.95,479.93 C744.3,488.27 809.0322,498.3922 865.8322,507.2822" fill="none" id="UC6-to-UC8" style="stroke:#546E7A;stroke-width:1.4;"/><polygon fill="#546E7A" points="871.76,508.21,863.4868,502.8664,866.8201,507.4368,862.2497,510.7702,871.76,508.21" style="stroke:#546E7A;stroke-width:1.4;"/><text fill="#000000" font-family="sans-serif" font-size="13" lengthAdjust="spacing" textLength="61.1851" x="757" y="486.5669">&#171;extend&#187;</text></g><!--SRC=[VLJ1RjD04BtxAqPKWWC4rNRifAYAr0OebIgechRtzNgShBBP3UirQK4SaL250057fDxWoX4ky2zyGJ-1MSTndH3mmHxFspVpPdPsRy7LvPjVS8IPK9X2NslPEjOAuT5vOaGAnoES8BJWlXWAooGS6vOADOH3oMocpSIx1GTYEB9tu8748LCMRiAXqHdckT2A23DXHsLOE1LQeeNRi2iBfC-UGLImmpagctkUnCo2rM1SE4Y5GMufX4SPMgqMx4cTKBY1FPSkFxcyV2pKb1asWOJnyT3eGgLzBRM1ZQoJRML9OqK-OgcUEQOr1JQ0aiMrKMWW21h0ZZ5wLeMBsZ5ss2fuF19yhAXIyE-s5pfFSeG-ezTwfKMEtA4lF83TlrINZqEqIT5KtgrDrcP8teTQsSeNn64GTYlVG3n7yAEQrzGLadUmNFlBXTGTRYdMUfsinDQgn6uMuTQgoW0xQHWig_IJ28FD9PMnqqCP4TWCSpt1_-WxeWbWQYZ_rKjJu-jrfjZ9ubMTxIZeCAVfQBvqll7HaiZkSXcXxoTRYzBcuXCjqxNAvttRLyymTmRBOR_kpHoxSNNvyO8gqdmC3yxuY2gW0j4yGtF3hQzz6tuKHtppclRk2nMfnYxTOxGpRSObmVbeH36C4j_phfj2Z0y_I8f5ASMG3Xdi6Zr6moZseo8fkOFptEAaxDzYCedswJq9ueL1ED13CJ-ZULuIJle-RAG-RvSJqEIy9ULJwXTMjHs8t9BK1IsW3Gcp84kNQHzVGt-aDVtCUpPnEfzCtSclY25iy2x6V2NVX-_k3k88XuMXXf7p29yM5A6YjUauXHXbqGhj6vmoAL9cqPL5Cq1jOP8fZXKn8k9crkPXa_Zxyokwn5GcpCHTWIfdl24nRWnRixOBE9cMcGwreTjI2WttcMKLgqEDv9ZoxZBhwq_OGnfAnwjICfSB1b9CAsgNUX9nHdj08xTFnwBdDgQsWjeAQwjTMvtQwdgUQzJy9u9xiBqj59T5YhrU0ud_Gg8IAGTl5OfBg1xYzR0JSMrtorLuPb6blTuV]--></g></svg>