<svg xmlns="http://www.w3.org/2000/svg" xmlns:xlink="http://www.w3.org/1999/xlink" contentStyleType="text/css" data-diagram-type="DESCRIPTION" height="579px" preserveAspectRatio="none" style="width:1280px;height:579px;background:#F8FAFC;" version="1.1" viewBox="0 0 1280 579" width="1280px" zoomAndPan="magnify"><defs><filter height="300%" id="f166ieexwugw2b" width="300%" x="-1" y="-1"><feGaussianBlur result="blurOut" stdDeviation="2"/><feColorMatrix in="blurOut" result="blurOut2" type="matrix" values="0 0 0 0 0 0 0 0 0 0 0 0 0 0 0 0 0 0 .4 0"/><feOffset dx="4" dy="4" in="blurOut2" result="blurOut3"/><feBlend in="SourceGraphic" in2="blurOut3" mode="normal"/></filter></defs><g><rect fill="#F8FAFC" height="579" style="stroke:none;stroke-width:1;" width="1280" x="0" y="0"/><!--cluster ? Harmony BookStore--><g class="cluster" data-entity="&#128215; Harmony BookStore" data-source-line="45" data-uid="ent0005" id="cluster_&#128215; Harmony BookStore"><rect fill="#FFF3E0" filter="url(#f166ieexwugw2b)" height="416" rx="12.5" ry="12.5" style="stroke:#EF6C00;stroke-width:1;" width="1137" x="131" y="7"/><text fill="#E65100" font-family="sans-serif" font-size="18" font-weight="bold" lengthAdjust="spacing" textLength="220.5352" x="589.2324" y="25.708">&#128215; Harmony BookStore</text></g><!--entity UC1--><g class="entity" data-entity="UC1" data-source-line="46" data-uid="ent0006" id="entity_UC1"><ellipse cx="262.79" cy="72.058" fill="#C8E6C9" rx="115.79" ry="25.558" style="stroke:#90A4AE;stroke-width:1.2;"/><text fill="#263238" font-family="sans-serif" font-size="15" lengthAdjust="spacing" textLength="208.0005" x="158.7897" y="77.2885">&#128273; Access / Register Account</text></g><!--entity UC2--><g class="entity" data-entity="UC2" data-source-line="47" data-uid="ent0007" id="entity_UC2"><ellipse cx="263.0496" cy="156.1099" fill="#E1F5FE" rx="106.0496" ry="23.6099" style="stroke:#90A4AE;stroke-width:1.2;"/><text fill="#263238" font-family="sans-serif" font-size="15" lengthAdjust="spacing" textLength="186.6943" x="169.7024" y="161.3404">&#128270; Search Book Collection</text></g><!--entity UC3--><g class="entity" data-entity="UC3" data-source-line="48" data-uid="ent0008" id="entity_UC3"><ellipse cx="263.1004" cy="236.1201" fill="#FFE0B2" rx="93.6004" ry="21.1201" style="stroke:#90A4AE;stroke-width:1.2;"/><text fill="#263238" font-family="sans-serif" font-size="15" lengthAdjust="spacing" textLength="158.7817" x="183.7096" y="241.3506">&#128216; Check Book Details</text></g><!--entity UC4--><g class="entity" data-entity="UC4" data-source-line="49" data-uid="ent0009" id="entity_UC4"><ellipse cx="263.1997" cy="310.2399" fill="#F0F4C3" rx="76.6997" ry="17.7399" style="stroke:#90A4AE;stroke-width:1.2;"/><text fill="#263238" font-family="sans-serif" font-size="15" lengthAdjust="spacing" textLength="118.7622" x="203.8186" y="315.4704">&#128717;&#65039; Add to Basket</text></g><!--entity UC5--><g class="entity" data-entity="UC5" data-source-line="50" data-uid="ent0010" id="entity_UC5"><ellipse cx="262.9148" cy="385.083" fill="#FFF9C4" rx="98.4148" ry="22.083" style="stroke:#90A4AE;stroke-width:1.2;"/><text fill="#263238" font-family="sans-serif" font-size="15" lengthAdjust="spacing" textLength="169.6875" x="178.0711" y="390.3134">&#129534; Proceed to Checkout</text></g><!--entity UC6--><g class="entity" data-entity="UC6" data-source-line="51" data-uid="ent0011" id="entity_UC6"><ellipse cx="596.8953" cy="371.9791" fill="#F8BBD0" rx="92.8953" ry="20.9791" style="stroke:#90A4AE;stroke-width:1.2;"/><text fill="#263238" font-family="sans-serif" font-size="15" lengthAdjust="spacing" textLength="157.1704" x="518.3101" y="377.2095">&#128179; Complete Payment</text></g><!--entity UC7--><g class="entity" data-entity="UC7" data-source-line="52" data-uid="ent0012" id="entity_UC7"><ellipse cx="899.0283" cy="371.9057" fill="#D7CCC8" rx="77.5283" ry="17.9057" style="stroke:#90A4AE;stroke-width:1.2;"/><text fill="#263238" font-family="sans-serif" font-size="15" lengthAdjust="spacing" textLength="120.813" x="838.6218" y="377.1361">&#128230; Confirm Order</text></g><!--entity UC8--><g class="entity" data-entity="UC8" data-source-line="53" data-uid="ent0013" id="entity_UC8"><ellipse cx="1179.2187" cy="381.0437" fill="#E6EE9C" rx="73.2187" ry="17.0437" style="stroke:#90A4AE;stroke-width:1.2;"/><text fill="#263238" font-family="sans-serif" font-size="15" lengthAdjust="spacing" textLength="110.0024" x="1124.2174" y="386.2742">&#128424;&#65039; Print Receipt</text></g><!--entity C--><g class="entity" data-entity="C" data-source-line="41" data-uid="ent0002" id="entity_C"><ellipse cx="44.8594" cy="258.5" fill="#00796B" filter="url(#f166ieexwugw2b)" rx="16" ry="16" style="stroke:#00695C;stroke-width:0.5;"/><path d="M44.8594,278.5 C48.8594,278.5 51.8594,278.5 55.8594,274.5 C63.8594,274.5 71.8594,282.5 71.8594,290.5 L71.8594,294.5 C71.8594,298.5 67.8594,302.5 63.8594,302.5 L25.8594,302.5 C21.8594,302.5 17.8594,298.5 17.8594,294.5 L17.8594,290.5 C17.8594,282.5 25.8594,274.5 33.8594,274.5 C37.8594,278.5 40.8594,278.5 44.8594,278.5" fill="#00796B" filter="url(#f166ieexwugw2b)" style="stroke:#00695C;stroke-width:0.5;"/><text fill="#004D40" font-family="sans-serif" font-size="16" lengthAdjust="spacing" textLength="77.7188" x="6" y="317.8516">Customer</text></g><!--entity DB--><g class="entity" data-entity="DB" data-source-line="42" data-uid="ent0003" id="entity_DB"><ellipse cx="597.1953" cy="455.5" fill="#00796B" filter="url(#f166ieexwugw2b)" rx="16" ry="16" style="stroke:#00695C;stroke-width:0.5;"/><path d="M597.1953,475.5 C601.1953,475.5 604.1953,475.5 608.1953,471.5 C616.1953,471.5 624.1953,479.5 624.1953,487.5 L624.1953,491.5 C624.1953,495.5 620.1953,499.5 616.1953,499.5 L578.1953,499.5 C574.1953,499.5 570.1953,495.5 570.1953,491.5 L570.1953,487.5 C570.1953,479.5 578.1953,471.5 586.1953,471.5 C590.1953,475.5 593.1953,475.5 597.1953,475.5" fill="#00796B" filter="url(#f166ieexwugw2b)" style="stroke:#00695C;stroke-width:0.5;"/><text fill="#004D40" font-family="sans-serif" font-size="16" lengthAdjust="spacing" textLength="145.3906" x="524.5" y="514.8516">&#128214; Book Repository</text></g><!--entity Pay--><g class="entity" data-entity="Pay" data-source-line="43" data-uid="ent0004" id="entity_Pay"><ellipse cx="898.8086" cy="455.5" fill="#FF8F00" filter="url(#f166ieexwugw2b)" rx="16" ry="16" style="stroke:#00695C;stroke-width:0.5;"/><path d="M898.8086,475.5 C902.8086,475.5 905.8086,475.5 909.8086,471.5 C917.8086,471.5 925.8086,479.5 925.8086,487.5 L925.8086,491.5 C925.8086,495.5 921.8086,499.5 917.8086,499.5 L879.8086,499.5 C875.8086,499.5 871.8086,495.5 871.8086,491.5 L871.8086,487.5 C871.8086,479.5 879.8086,471.5 887.8086,471.5 C891.8086,475.5 894.8086,475.5 898.8086,475.5" fill="#FF8F00" filter="url(#f166ieexwugw2b)" style="stroke:#00695C;stroke-width:0.5;"/><text fill="#004D40" font-family="sans-serif" font-size="16" lengthAdjust="spacing" textLength="167.6172" x="815" y="514.8516">&#128181; Payment Gateway</text></g><!--link C to UC1--><g class="link" data-entity-1="C" data-entity-2="UC1" data-source-line="56" data-uid="lnk14" id="link_C_UC1"><path d="M54.53,241.93 C64.62,204.06 85.06,148.24 123,115 C136.87,102.85 148.4759,96.1378 166.0759,89.8878" fill="none" id="C-to-UC1" style="stroke:#455A64;stroke-width:1.4;"/><polygon fill="#455A64" points="171.73,87.88,161.9103,87.1224,167.0183,89.5532,164.5874,94.6611,171.73,87.88" style="stroke:#455A64;stroke-width:1.4;"/></g><!--link C to UC2--><g class="link" data-entity-1="C" data-entity-2="UC2" data-source-line="57" data-uid="lnk15" id="link_C_UC2"><path d="M74.47,241.96 C87.63,225.98 104.45,208.65 123,197 C140.9,185.76 156.2702,179.1945 176.5602,173.1445" fill="none" id="C-to-UC2" style="stroke:#455A64;stroke-width:1.4;"/><polygon fill="#455A64" points="182.31,171.43,172.5423,170.1685,177.5185,172.8587,174.8282,177.8349,182.31,171.43" style="stroke:#455A64;stroke-width:1.4;"/></g><!--link C to UC3--><g class="link" data-entity-1="C" data-entity-2="UC3" data-source-line="58" data-uid="lnk16" id="link_C_UC3"><path d="M84.11,273.52 C93.85,271.37 104.31,269.08 114,267 C139.92,261.43 162.557,256.6581 187.567,251.4281" fill="none" id="C-to-UC3" style="stroke:#455A64;stroke-width:1.4;"/><polygon fill="#455A64" points="193.44,250.2,183.8118,248.1269,188.5459,251.2234,185.4493,255.9575,193.44,250.2" style="stroke:#455A64;stroke-width:1.4;"/></g><!--link C to UC4--><g class="link" data-entity-1="C" data-entity-2="UC4" data-source-line="59" data-uid="lnk17" id="link_C_UC4"><path d="M84.12,286.94 C115,290.94 153.2998,295.9084 189.9298,300.6584" fill="none" id="C-to-UC4" style="stroke:#455A64;stroke-width:1.4;"/><polygon fill="#455A64" points="195.88,301.43,187.4691,296.3058,190.9215,300.787,186.4403,304.2394,195.88,301.43" style="stroke:#455A64;stroke-width:1.4;"/></g><!--link C to UC5--><g class="link" data-entity-1="C" data-entity-2="UC5" data-source-line="60" data-uid="lnk18" id="link_C_UC5"><path d="M84.17,318.34 C95.93,328.07 109.39,337.86 123,345 C143.68,355.85 161.8948,362.4989 184.0748,368.5989" fill="none" id="C-to-UC5" style="stroke:#455A64;stroke-width:1.4;"/><polygon fill="#455A64" points="189.86,370.19,182.2429,363.9466,185.039,368.8641,180.1215,371.6602,189.86,370.19" style="stroke:#455A64;stroke-width:1.4;"/></g><!--link C to UC8--><g class="link" data-entity-1="C" data-entity-2="UC8" data-source-line="61" data-uid="lnk19" id="link_C_UC8"><path d="M55.67,322.02 C77.55,401.57 138.8,572 262,572 C262,572 262,572 900,572 C1022.38,572 1126.6029,449.4696 1162.0729,402.7296" fill="none" id="C-to-UC8" style="stroke:#455A64;stroke-width:1.4;"/><polygon fill="#455A64" points="1165.7,397.95,1157.073,402.7013,1162.6774,401.933,1163.4457,407.5374,1165.7,397.95" style="stroke:#455A64;stroke-width:1.4;"/></g><!--link UC2 to DB--><g class="link" data-entity-1="UC2" data-entity-2="DB" data-source-line="63" data-uid="lnk20" id="link_UC2_DB"><path d="M343.32,171.42 C356.93,177.37 369.67,185.6 379,197 C438.15,269.29 351.1,331.71 409,405 C436.92,440.34 478.3578,457.4508 518.3778,467.1208" fill="none" id="UC2-to-DB" style="stroke:#455A64;stroke-width:1.4;"/><polygon fill="#455A64" points="524.21,468.53,516.4012,462.5281,519.3499,467.3556,514.5223,470.3043,524.21,468.53" style="stroke:#455A64;stroke-width:1.4;"/><text fill="#000000" font-family="sans-serif" font-size="13" lengthAdjust="spacing" textLength="63.0068" x="410" y="401.0669">&#171;include&#187;</text></g><!--link UC3 to DB--><g class="link" data-entity-1="UC3" data-entity-2="DB" data-source-line="64" data-uid="lnk21" id="link_UC3_DB"><path d="M339.14,248.33 C354.29,254.11 368.7,262.59 379,275 C439.48,347.9 337.46,423.91 409,486 C439.92,512.83 479.8317,512.8004 518.3617,504.5904" fill="none" id="UC3-to-DB" style="stroke:#455A64;stroke-width:1.4;"/><polygon fill="#455A64" points="524.23,503.34,514.594,501.3034,519.3398,504.382,516.2612,509.1278,524.23,503.34" style="stroke:#455A64;stroke-width:1.4;"/><text fill="#000000" font-family="sans-serif" font-size="13" lengthAdjust="spacing" textLength="63.0068" x="410" y="482.0669">&#171;include&#187;</text></g><!--link UC5 to UC6--><g class="link" data-entity-1="UC5" data-entity-2="UC6" data-source-line="65" data-uid="lnk22" id="link_UC5_UC6"><path d="M360.47,381.22 C406.14,379.43 454.3646,377.545 499.2746,375.785" fill="none" id="UC5-to-UC6" style="stroke:#455A64;stroke-width:1.4;"/><polygon fill="#455A64" points="505.27,375.55,496.1203,371.9055,500.2738,375.7458,496.4335,379.8994,505.27,375.55" style="stroke:#455A64;stroke-width:1.4;"/><text fill="#000000" font-family="sans-serif" font-size="13" lengthAdjust="spacing" textLength="63.0068" x="410" y="373.0669">&#171;include&#187;</text></g><!--link UC6 to Pay--><g class="link" data-entity-1="UC6" data-entity-2="Pay" data-source-line="66" data-uid="lnk23" id="link_UC6_Pay"><path d="M647.54,389.67 C692.97,405.87 755.5089,428.1738 809.2689,447.3538" fill="none" id="UC6-to-Pay" style="stroke:#455A64;stroke-width:1.4;"/><polygon fill="#455A64" points="814.92,449.37,807.7874,442.5784,810.2107,447.6899,805.0992,450.1132,814.92,449.37" style="stroke:#455A64;stroke-width:1.4;"/><text fill="#000000" font-family="sans-serif" font-size="13" lengthAdjust="spacing" textLength="63.0068" x="721" y="412.0669">&#171;include&#187;</text></g><!--link UC6 to UC7--><g class="link" data-entity-1="UC6" data-entity-2="UC7" data-source-line="67" data-uid="lnk24" id="link_UC6_UC7"><path d="M690.05,372 C732.07,372 775.27,372 815.26,372" fill="none" id="UC6-to-UC7" style="stroke:#455A64;stroke-width:1.4;"/><polygon fill="#455A64" points="821.26,372,812.26,368,816.26,372,812.26,376,821.26,372" style="stroke:#455A64;stroke-width:1.4;"/><text fill="#000000" font-family="sans-serif" font-size="13" lengthAdjust="spacing" textLength="63.0068" x="721" y="368.0669">&#171;include&#187;</text></g><!--link UC7 to UC8--><g class="link" data-entity-1="UC7" data-entity-2="UC8" data-source-line="68" data-uid="lnk25" id="link_UC7_UC8"><path d="M975.96,374.46 C1016.64,375.78 1060.4531,377.1965 1100.4331,378.4865" fill="none" id="UC7-to-UC8" style="stroke:#455A64;stroke-width:1.4;"/><polygon fill="#455A64" points="1106.43,378.68,1097.5637,374.3918,1101.4326,378.5188,1097.3057,382.3877,1106.43,378.68" style="stroke:#455A64;stroke-width:1.4;"/><text fill="#000000" font-family="sans-serif" font-size="13" lengthAdjust="spacing" textLength="61.1851" x="1014" y="372.0669">&#171;extend&#187;</text></g><!--SRC=[VLJBRjD05DtxAwvQ2LO1nx4T1rMH6fV7ZgffnNeolav6iJtHUA8G47_0GxIe8B7e3jWZ95RmIVGJkECNSPgIHJI-vvxnkMVE-2vSNxt-3GyJdB9Cmoco1Ex0CwPIE9rXYj21aPJpN4k5C5xd6bChmLY3bg34TAOX4Wgv5ZAph7mkiWLJB8K9u_Efaiii2cKY5Up7GSnYlj6HprWaLoARWbPBt00A5fSgGmMEim4SAYLNrNQkvp7VtGPFPuBFCynpwDvpBUikT3eTECiHGaP_OxrEq9GsQCiSkS5UMW2Z6vgBdq6aYb1LrO7DN8PKVIGpNTKSl-VqWges5YyGkbx3srJbK7NSdlnLBVIGayaxLR82sQaHxTY9kziQRTiVUBojqRRToBLR6dsZfdWVMs4kK_oFkXCwP9PDazq-gWQzpSaUsjigCVQvRQedPMjvv5vBOj0U0dslQpT3548cCebswYvT2vUKtPGsPZc4neN-m9zKsDxrrSLbaMyQRo5pGSNrdkay6jriFVy1nsoT8bsJnqpZYfMjL3C31Z7filxvOFR-24_e8ibiNRnZRExGNc5G7Jjg-l2U3fwRTDmd4LD1DqoP2bcYY_tFmYxiym1zFjXYleKnCiLdvGJaK59Un8hca5tTs8knJRlu1E4C-Rna7Q5c8iahIizCWlR4QLC-l_dpynqSHf6vzIEMpx6MvXB1ZbtUQnE-_e9Z9JbYmIXU9vSrnoloCE1kctF-dKP85mbgh7sk2BxvV4mcaRqro1SYPB6WJzLJawggkm_xKPzp7hIxBx-P6OwLeEEZBADOrDi79bQ80sv24rAmXyRpPkKqgrwpSfkLrwm2opAUcmTApmCuE10PJvOH3eUMSVOMmAle_Wt4Bn0Jhzs86NKRwTTY2WIVQyoYuV0l]--></g></svg>