<svg xmlns="http://www.w3.org/2000/svg" xmlns:xlink="http://www.w3.org/1999/xlink" contentStyleType="text/css" data-diagram-type="DESCRIPTION" height="574px" preserveAspectRatio="none" style="width:1305px;height:574px;background:#F5F7FA;" version="1.1" viewBox="0 0 1305 574" width="1305px" zoomAndPan="magnify"><defs><filter height="300%" id="fcugrddekdp66" width="300%" x="-1" y="-1"><feGaussianBlur result="blurOut" stdDeviation="2"/><feColorMatrix in="blurOut" result="blurOut2" type="matrix" values="0 0 0 0 0 0 0 0 0 0 0 0 0 0 0 0 0 0 .4 0"/><feOffset dx="4" dy="4" in="blurOut2" result="blurOut3"/><feBlend in="SourceGraphic" in2="blurOut3" mode="normal"/></filter></defs><g><rect fill="#F5F7FA" height="574" style="stroke:none;stroke-width:1;" width="1305" x="0" y="0"/><!--cluster ? BookVerse Platform--><g class="cluster" data-entity="&#128216; BookVerse Platform" data-source-line="45" data-uid="ent0005" id="cluster_&#128216; BookVerse Platform"><rect fill="#E3F2FD" filter="url(#fcugrddekdp66)" height="411" rx="12.5" ry="12.5" style="stroke:#1E88E5;stroke-width:1;" width="1162" x="131" y="7"/><text fill="#0D47A1" font-family="sans-serif" font-size="18" font-weight="bold" lengthAdjust="spacing" textLength="219.6387" x="602.1807" y="25.708">&#128216; BookVerse Platform</text></g><!--entity UC1--><g class="entity" data-entity="UC1" data-source-line="46" data-uid="ent0006" id="entity_UC1"><ellipse cx="246.7936" cy="67.7587" fill="#BBDEFB" rx="96.7936" ry="21.7587" style="stroke:#9FA8DA;stroke-width:1.3;"/><text fill="#1A237E" font-family="sans-serif" font-size="15" lengthAdjust="spacing" textLength="166.0327" x="163.7773" y="72.9892">&#128100; User Login / Sign Up</text></g><!--entity UC2--><g class="entity" data-entity="UC2" data-source-line="47" data-uid="ent0007" id="entity_UC2"><ellipse cx="246.9747" cy="147.8949" fill="#EDE7F6" rx="99.9747" ry="22.3949" style="stroke:#9FA8DA;stroke-width:1.3;"/><text fill="#1A237E" font-family="sans-serif" font-size="15" lengthAdjust="spacing" textLength="173.1885" x="160.3804" y="153.1254">&#128269; Browse Book Catalog</text></g><!--entity UC3--><g class="entity" data-entity="UC3" data-source-line="48" data-uid="ent0008" id="entity_UC3"><ellipse cx="246.9954" cy="227.1991" fill="#C5CAE9" rx="93.9954" ry="21.1991" style="stroke:#9FA8DA;stroke-width:1.3;"/><text fill="#1A237E" font-family="sans-serif" font-size="15" lengthAdjust="spacing" textLength="159.6826" x="167.1541" y="232.4295">&#128214; Open Book Preview</text></g><!--entity UC4--><g class="entity" data-entity="UC4" data-source-line="49" data-uid="ent0009" id="entity_UC4"><ellipse cx="247.1253" cy="303.1251" fill="#B3E5FC" rx="86.1253" ry="19.6251" style="stroke:#9FA8DA;stroke-width:1.3;"/><text fill="#1A237E" font-family="sans-serif" font-size="15" lengthAdjust="spacing" textLength="141.4819" x="176.3843" y="308.3555">&#128722; Add Book to Cart</text></g><!--entity UC5--><g class="entity" data-entity="UC5" data-source-line="50" data-uid="ent0010" id="entity_UC5"><ellipse cx="246.9148" cy="380.083" fill="#C8E6C9" rx="98.4148" ry="22.083" style="stroke:#9FA8DA;stroke-width:1.3;"/><text fill="#1A237E" font-family="sans-serif" font-size="15" lengthAdjust="spacing" textLength="169.6875" x="162.0711" y="385.3134">&#128188; Proceed to Checkout</text></g><!--entity UC6--><g class="entity" data-entity="UC6" data-source-line="51" data-uid="ent0011" id="entity_UC6"><ellipse cx="575.7465" cy="367.1493" fill="#F3E5F5" rx="103.7465" ry="23.1493" style="stroke:#9FA8DA;stroke-width:1.3;"/><text fill="#1A237E" font-family="sans-serif" font-size="15" lengthAdjust="spacing" textLength="181.5967" x="484.9482" y="372.3798">&#128176; Make Secure Payment</text></g><!--entity UC7--><g class="entity" data-entity="UC7" data-source-line="52" data-uid="ent0012" id="entity_UC7"><ellipse cx="892.3269" cy="367.0654" fill="#DCEDC8" rx="88.3269" ry="20.0654" style="stroke:#9FA8DA;stroke-width:1.3;"/><text fill="#1A237E" font-family="sans-serif" font-size="15" lengthAdjust="spacing" textLength="146.6309" x="819.0115" y="372.2958">&#9989; Confirm Purchase</text></g><!--entity UC8--><g class="entity" data-entity="UC8" data-source-line="53" data-uid="ent0013" id="entity_UC8"><ellipse cx="1190.4403" cy="375.1881" fill="#FFCCBC" rx="86.4403" ry="19.6881" style="stroke:#9FA8DA;stroke-width:1.3;"/><text fill="#1A237E" font-family="sans-serif" font-size="15" lengthAdjust="spacing" textLength="142.2217" x="1119.3294" y="380.4185">&#129534; Generate Invoice</text></g><!--entity C--><g class="entity" data-entity="C" data-source-line="41" data-uid="ent0002" id="entity_C"><ellipse cx="44.8594" cy="250.5" fill="#283593" filter="url(#fcugrddekdp66)" rx="16" ry="16" style="stroke:#3F51B5;stroke-width:0.5;"/><path d="M44.8594,270.5 C48.8594,270.5 51.8594,270.5 55.8594,266.5 C63.8594,266.5 71.8594,274.5 71.8594,282.5 L71.8594,286.5 C71.8594,290.5 67.8594,294.5 63.8594,294.5 L25.8594,294.5 C21.8594,294.5 17.8594,290.5 17.8594,286.5 L17.8594,282.5 C17.8594,274.5 25.8594,266.5 33.8594,266.5 C37.8594,270.5 40.8594,270.5 44.8594,270.5" fill="#283593" filter="url(#fcugrddekdp66)" style="stroke:#3F51B5;stroke-width:0.5;"/><text fill="#1A237E" font-family="sans-serif" font-size="16" lengthAdjust="spacing" textLength="77.7188" x="6" y="309.8516">Customer</text></g><!--entity DB--><g class="entity" data-entity="DB" data-source-line="42" data-uid="ent0003" id="entity_DB"><ellipse cx="575.5039" cy="450.5" fill="#512DA8" filter="url(#fcugrddekdp66)" rx="16" ry="16" style="stroke:#3F51B5;stroke-width:0.5;"/><path d="M575.5039,470.5 C579.5039,470.5 582.5039,470.5 586.5039,466.5 C594.5039,466.5 602.5039,474.5 602.5039,482.5 L602.5039,486.5 C602.5039,490.5 598.5039,494.5 594.5039,494.5 L556.5039,494.5 C552.5039,494.5 548.5039,490.5 548.5039,486.5 L548.5039,482.5 C548.5039,474.5 556.5039,466.5 564.5039,466.5 C568.5039,470.5 571.5039,470.5 575.5039,470.5" fill="#512DA8" filter="url(#fcugrddekdp66)" style="stroke:#3F51B5;stroke-width:0.5;"/><text fill="#1A237E" font-family="sans-serif" font-size="16" lengthAdjust="spacing" textLength="158.0078" x="496.5" y="509.8516">&#128218; Digital Library API</text></g><!--entity Pay--><g class="entity" data-entity="Pay" data-source-line="43" data-uid="ent0004" id="entity_Pay"><ellipse cx="892.6172" cy="450.5" fill="#1565C0" filter="url(#fcugrddekdp66)" rx="16" ry="16" style="stroke:#3F51B5;stroke-width:0.5;"/><path d="M892.6172,470.5 C896.6172,470.5 899.6172,470.5 903.6172,466.5 C911.6172,466.5 919.6172,474.5 919.6172,482.5 L919.6172,486.5 C919.6172,490.5 915.6172,494.5 911.6172,494.5 L873.6172,494.5 C869.6172,494.5 865.6172,490.5 865.6172,486.5 L865.6172,482.5 C865.6172,474.5 873.6172,466.5 881.6172,466.5 C885.6172,470.5 888.6172,470.5 892.6172,470.5" fill="#1565C0" filter="url(#fcugrddekdp66)" style="stroke:#3F51B5;stroke-width:0.5;"/><text fill="#1A237E" font-family="sans-serif" font-size="16" lengthAdjust="spacing" textLength="168.2344" x="808.5" y="509.8516">&#128179; Payment Processor</text></g><!--link C to UC1--><g class="link" data-entity-1="C" data-entity-2="UC1" data-source-line="56" data-uid="lnk14" id="link_C_UC1"><path d="M54.8,233.93 C65.05,196.38 85.56,141.2 123,108 C136.52,96.01 148.0336,89.5438 165.2336,83.6538" fill="none" id="C-to-UC1" style="stroke:#37474F;stroke-width:1.5;"/><polygon fill="#37474F" points="170.91,81.71,161.0995,80.8415,166.1797,83.3299,163.6913,88.41,170.91,81.71" style="stroke:#37474F;stroke-width:1.5;"/></g><!--link C to UC2--><g class="link" data-entity-1="C" data-entity-2="UC2" data-source-line="57" data-uid="lnk15" id="link_C_UC2"><path d="M74.55,233.73 C87.72,217.61 104.53,200.03 123,188 C138.9,177.64 151.9966,171.6232 170.0566,165.7232" fill="none" id="C-to-UC2" style="stroke:#37474F;stroke-width:1.5;"/><polygon fill="#37474F" points="175.76,163.86,165.9628,162.8526,171.0072,165.4127,168.4471,170.4571,175.76,163.86" style="stroke:#37474F;stroke-width:1.5;"/></g><!--link C to UC3--><g class="link" data-entity-1="C" data-entity-2="UC3" data-source-line="58" data-uid="lnk16" id="link_C_UC3"><path d="M84.12,265.03 C93.86,262.74 104.32,260.28 114,258 C136,252.83 154.2191,248.5526 175.7091,243.5026" fill="none" id="C-to-UC3" style="stroke:#37474F;stroke-width:1.5;"/><polygon fill="#37474F" points="181.55,242.13,171.8736,240.2949,176.6826,243.2738,173.7037,248.0828,181.55,242.13" style="stroke:#37474F;stroke-width:1.5;"/></g><!--link C to UC4--><g class="link" data-entity-1="C" data-entity-2="UC4" data-source-line="59" data-uid="lnk17" id="link_C_UC4"><path d="M84.09,279.52 C109.48,283.2 137.7022,287.2986 168.1022,291.7086" fill="none" id="C-to-UC4" style="stroke:#37474F;stroke-width:1.5;"/><polygon fill="#37474F" points="174.04,292.57,165.7075,287.3194,169.0918,291.8522,164.559,295.2365,174.04,292.57" style="stroke:#37474F;stroke-width:1.5;"/></g><!--link C to UC5--><g class="link" data-entity-1="C" data-entity-2="UC5" data-source-line="60" data-uid="lnk18" id="link_C_UC5"><path d="M84.11,311.82 C95.87,322.02 109.34,332.33 123,340 C140.62,349.89 155.3412,355.9546 174.4312,362.0146" fill="none" id="C-to-UC5" style="stroke:#37474F;stroke-width:1.5;"/><polygon fill="#37474F" points="180.15,363.83,172.7821,357.2944,175.3844,362.3172,170.3616,364.9194,180.15,363.83" style="stroke:#37474F;stroke-width:1.5;"/></g><!--link C to UC8--><g class="link" data-entity-1="C" data-entity-2="UC8" data-source-line="61" data-uid="lnk19" id="link_C_UC8"><path d="M53.78,314.13 C71.91,394.37 124.98,567 246,567 C246,567 246,567 893.5,567 C1019.37,567 1130.081,447.9077 1170.361,399.0977" fill="none" id="C-to-UC8" style="stroke:#37474F;stroke-width:1.5;"/><polygon fill="#37474F" points="1174.18,394.47,1165.3664,398.8656,1170.9975,398.3264,1171.5367,403.9575,1174.18,394.47" style="stroke:#37474F;stroke-width:1.5;"/></g><!--link UC2 to DB--><g class="link" data-entity-1="UC2" data-entity-2="DB" data-source-line="63" data-uid="lnk20" id="link_UC2_DB"><path d="M315.93,164.35 C327.82,170.05 338.95,177.71 347,188 C405.62,262.96 317.43,325.79 377,400 C406,436.12 448.7089,453.2815 490.4189,462.7515" fill="none" id="UC2-to-DB" style="stroke:#37474F;stroke-width:1.5;"/><polygon fill="#37474F" points="496.27,464.08,488.379,458.1866,491.3941,462.973,486.6077,465.988,496.27,464.08" style="stroke:#37474F;stroke-width:1.5;"/><text fill="#000000" font-family="sans-serif" font-size="13" lengthAdjust="spacing" textLength="63.0068" x="378" y="396.0669">&#171;include&#187;</text></g><!--link UC3 to DB--><g class="link" data-entity-1="UC3" data-entity-2="DB" data-source-line="64" data-uid="lnk21" id="link_UC3_DB"><path d="M314.14,241.82 C326.7,247.47 338.54,255.26 347,266 C406.69,341.8 304.22,417.67 377,481 C408.97,508.81 450.1689,509.3485 490.3489,501.2285" fill="none" id="UC3-to-DB" style="stroke:#37474F;stroke-width:1.5;"/><polygon fill="#37474F" points="496.23,500.04,486.616,497.902,491.3291,501.0304,488.2007,505.7435,496.23,500.04" style="stroke:#37474F;stroke-width:1.5;"/><text fill="#000000" font-family="sans-serif" font-size="13" lengthAdjust="spacing" textLength="63.0068" x="378" y="477.0669">&#171;include&#187;</text></g><!--link UC5 to UC6--><g class="link" data-entity-1="UC5" data-entity-2="UC6" data-source-line="65" data-uid="lnk22" id="link_UC5_UC6"><path d="M344.19,376.17 C384.83,374.55 426.1648,372.9089 467.3248,371.2689" fill="none" id="UC5-to-UC6" style="stroke:#37474F;stroke-width:1.5;"/><polygon fill="#37474F" points="473.32,371.03,464.1679,367.3915,468.324,371.2291,464.4864,375.3851,473.32,371.03" style="stroke:#37474F;stroke-width:1.5;"/><text fill="#000000" font-family="sans-serif" font-size="13" lengthAdjust="spacing" textLength="63.0068" x="378" y="369.0669">&#171;include&#187;</text></g><!--link UC6 to Pay--><g class="link" data-entity-1="UC6" data-entity-2="Pay" data-source-line="66" data-uid="lnk23" id="link_UC6_Pay"><path d="M633.18,386.25 C681.98,402.83 747.3689,425.04 802.6189,443.81" fill="none" id="UC6-to-Pay" style="stroke:#37474F;stroke-width:1.5;"/><polygon fill="#37474F" points="808.3,445.74,801.065,439.0575,803.5657,444.1316,798.4917,446.6324,808.3,445.74" style="stroke:#37474F;stroke-width:1.5;"/><text fill="#000000" font-family="sans-serif" font-size="13" lengthAdjust="spacing" textLength="63.0068" x="710" y="411.0669">&#171;include&#187;</text></g><!--link UC6 to UC7--><g class="link" data-entity-1="UC6" data-entity-2="UC7" data-source-line="67" data-uid="lnk24" id="link_UC6_UC7"><path d="M679.21,367 C719.51,367 759.29,367 797.99,367" fill="none" id="UC6-to-UC7" style="stroke:#37474F;stroke-width:1.5;"/><polygon fill="#37474F" points="803.99,367,794.99,363,798.99,367,794.99,371,803.99,367" style="stroke:#37474F;stroke-width:1.5;"/><text fill="#000000" font-family="sans-serif" font-size="13" lengthAdjust="spacing" textLength="63.0068" x="710" y="363.0669">&#171;include&#187;</text></g><!--link UC7 to UC8--><g class="link" data-entity-1="UC7" data-entity-2="UC8" data-source-line="68" data-uid="lnk25" id="link_UC7_UC8"><path d="M980.71,369.36 C1019.76,370.41 1059.6522,371.4876 1098.4422,372.5376" fill="none" id="UC7-to-UC8" style="stroke:#37474F;stroke-width:1.5;"/><polygon fill="#37474F" points="1104.44,372.7,1095.5515,368.4579,1099.4418,372.5647,1095.3351,376.455,1104.44,372.7" style="stroke:#37474F;stroke-width:1.5;"/><text fill="#000000" font-family="sans-serif" font-size="13" lengthAdjust="spacing" textLength="61.1851" x="1012" y="367.0669">&#171;extend&#187;</text></g><!--SRC=[XLJ1RXCn4BtlLumQYPuAtTqusQ8gKh8LK0dKg6bxzzgp6oiRk_9w6mhYo14aKeGG8FM2n1M9A-9Z-89-0lPcaoPfW1mYPzuypvlncsp3pVNqBGnon174IkNGoqk4Ut0cL8u6JeOuHjY18vaBYT1JQWHFoiJBCJLW56YH3GrmeP4PeQJd5ICXpwccOqWe6sLQbPB7AbSQ6Yb9sobToYY6bAk9a1aONU8IKB6OqX8r1C4IqDLQJUhhmdQptKpNmPEXO2E9HG7-VU9vsx2pimEd1K9CxTV0NEReGakqia3ci9SUGE-EvkhZ4AKvwZgwbzA8KnjzfAIfOpuDmZRMiO5uWU2J1MzPLMYZWzNENys5TfcnTsrIIIjaeqQCaAQjTOrXIlo4_5UZuytgqGaMQep_K7Ti7vdABDyyHxr0DwiCqo3bwofzZ29qAezdgRCd9oiIezKcTdcpJVrvHYKaKJdVg7isjRWiZErC0oqWXaOGXMGlhB6jc-khJt0WCc5e3az5egc-X6x_SCjb7_IWGVo0q-WsVVe3-lHoZD90Nojc7rNfAjb6RKEaHTYkvzrEmrNuM6tE6MhhitvEJQhqUAkQqznzDklTLsTK3KzL9YGyW87899oULtUVnZuqaeHZcgoIth-1dhLzKUzcJ6qRAgivWHqxntPbZYNErGSuEaSvO_GrNWYSr8mG6emmYdkhZCzJw78-8zYjZwasDQ5fPOL8KhPAcFwS3GTvbJz4DbBbd4DiaGXRRAt8z3iyeoDhBcIbnlcGQqxBxgAhGvOvlx-yjdzQCXLw3FrIiw6DrlbjQ726d4MhDRxzWiTeFKODmg6yK8BD2P5RTiOIvdmJMszttD0Nfs1n2XUdvk945gV8yzpStGzhdeUmloyaoqkEdOxdnliNWDJqrXsaLI7EMviHr-ewqfwBgH1yRb3oJkSF]--></g></svg>