<svg xmlns="http://www.w3.org/2000/svg" xmlns:xlink="http://www.w3.org/1999/xlink" contentStyleType="text/css" data-diagram-type="DESCRIPTION" height="589px" preserveAspectRatio="none" style="width:1438px;height:589px;background:#F7F9FB;" version="1.1" viewBox="0 0 1438 589" width="1438px" zoomAndPan="magnify"><defs><filter height="300%" id="f64ddkn15n7xt" width="300%" x="-1" y="-1"><feGaussianBlur result="blurOut" stdDeviation="2"/><feColorMatrix in="blurOut" result="blurOut2" type="matrix" values="0 0 0 0 0 0 0 0 0 0 0 0 0 0 0 0 0 0 .4 0"/><feOffset dx="4" dy="4" in="blurOut2" result="blurOut3"/><feBlend in="SourceGraphic" in2="blurOut3" mode="normal"/></filter></defs><g><rect fill="#F7F9FB" height="589" style="stroke:none;stroke-width:1;" width="1438" x="0" y="0"/><!--cluster ? Online Book Store--><g class="cluster" data-entity="&#128216; Online Book Store" data-source-line="48" data-uid="ent0005" id="cluster_&#128216; Online Book Store"><rect fill="#EDE7F6" filter="url(#f64ddkn15n7xt)" height="426" rx="12.5" ry="12.5" style="stroke:#4527A0;stroke-width:1;" width="1295" x="131" y="7"/><text fill="#311B92" font-family="sans-serif" font-size="18" font-weight="bold" lengthAdjust="spacing" textLength="200.5225" x="678.2388" y="25.708">&#128216; Online Book Store</text></g><!--entity UC1--><g class="entity" data-entity="UC1" data-source-line="49" data-uid="ent0006" id="entity_UC1"><ellipse cx="262.6988" cy="72.0398" fill="#D1C4E9" rx="115.6988" ry="25.5398" style="stroke:#9FA8DA;stroke-width:1.3;"/><text fill="#263238" font-family="sans-serif" font-size="15" lengthAdjust="spacing" textLength="207.8027" x="158.7974" y="77.2702">&#128100; Sign In / Register Account</text></g><!--entity UC2--><g class="entity" data-entity="UC2" data-source-line="50" data-uid="ent0007" id="entity_UC2"><ellipse cx="262.3079" cy="154.8616" fill="#E3F2FD" rx="99.8079" ry="22.3616" style="stroke:#9FA8DA;stroke-width:1.3;"/><text fill="#263238" font-family="sans-serif" font-size="15" lengthAdjust="spacing" textLength="172.8149" x="175.9005" y="160.0921">&#128270; Browse Book Listings</text></g><!--entity UC3--><g class="entity" data-entity="UC3" data-source-line="51" data-uid="ent0008" id="entity_UC3"><ellipse cx="262.6043" cy="238.0209" fill="#C8E6C9" rx="115.6043" ry="25.5209" style="stroke:#9FA8DA;stroke-width:1.3;"/><text fill="#263238" font-family="sans-serif" font-size="15" lengthAdjust="spacing" textLength="207.5977" x="158.8055" y="243.2513">&#128214; View Detailed Description</text></g><!--entity UC4--><g class="entity" data-entity="UC4" data-source-line="52" data-uid="ent0009" id="entity_UC4"><ellipse cx="262.6253" cy="318.1251" fill="#DCEDC8" rx="86.1253" ry="19.6251" style="stroke:#9FA8DA;stroke-width:1.3;"/><text fill="#263238" font-family="sans-serif" font-size="15" lengthAdjust="spacing" textLength="141.4819" x="191.8843" y="323.3555">&#128722; Add Book to Cart</text></g><!--entity UC5--><g class="entity" data-entity="UC5" data-source-line="53" data-uid="ent0010" id="entity_UC5"><ellipse cx="262.4148" cy="395.083" fill="#F3E5F5" rx="98.4148" ry="22.083" style="stroke:#9FA8DA;stroke-width:1.3;"/><text fill="#263238" font-family="sans-serif" font-size="15" lengthAdjust="spacing" textLength="169.6875" x="177.5711" y="400.3134">&#129534; Proceed to Checkout</text></g><!--entity UC6--><g class="entity" data-entity="UC6" data-source-line="54" data-uid="ent0011" id="entity_UC6"><ellipse cx="606.7465" cy="382.1493" fill="#F0F4C3" rx="103.7465" ry="23.1493" style="stroke:#9FA8DA;stroke-width:1.3;"/><text fill="#263238" font-family="sans-serif" font-size="15" lengthAdjust="spacing" textLength="181.5967" x="515.9482" y="387.3798">&#128176; Make Secure Payment</text></g><!--entity UC7--><g class="entity" data-entity="UC7" data-source-line="55" data-uid="ent0012" id="entity_UC7"><ellipse cx="949.2655" cy="381.7531" fill="#C5CAE9" rx="114.2655" ry="25.2531" style="stroke:#9FA8DA;stroke-width:1.3;"/><text fill="#263238" font-family="sans-serif" font-size="15" lengthAdjust="spacing" textLength="204.6899" x="846.9206" y="386.9836">&#128230; Confirm Order Placement</text></g><!--entity UC8--><g class="entity" data-entity="UC8" data-source-line="56" data-uid="ent0013" id="entity_UC8"><ellipse cx="1298.5198" cy="387.204" fill="#EDE7F6" rx="111.5198" ry="24.704" style="stroke:#9FA8DA;stroke-width:1.3;"/><text fill="#263238" font-family="sans-serif" font-size="15" lengthAdjust="spacing" textLength="198.7061" x="1199.1668" y="392.4344">&#129534; Generate Digital Receipt</text></g><!--entity C--><g class="entity" data-entity="C" data-source-line="44" data-uid="ent0002" id="entity_C"><ellipse cx="44.8594" cy="264.5" fill="#2E7D32" filter="url(#f64ddkn15n7xt)" rx="16" ry="16" style="stroke:#2E7D32;stroke-width:0.5;"/><path d="M44.8594,284.5 C48.8594,284.5 51.8594,284.5 55.8594,280.5 C63.8594,280.5 71.8594,288.5 71.8594,296.5 L71.8594,300.5 C71.8594,304.5 67.8594,308.5 63.8594,308.5 L25.8594,308.5 C21.8594,308.5 17.8594,304.5 17.8594,300.5 L17.8594,296.5 C17.8594,288.5 25.8594,280.5 33.8594,280.5 C37.8594,284.5 40.8594,284.5 44.8594,284.5" fill="#2E7D32" filter="url(#f64ddkn15n7xt)"/><text fill="#1B5E20" font-family="sans-serif" font-size="16" lengthAdjust="spacing" textLength="77.7188" x="6" y="323.8516">Customer</text></g><!--entity DB--><g class="entity" data-entity="DB" data-source-line="45" data-uid="ent0003" id="entity_DB"><ellipse cx="606.4063" cy="465.5" fill="#1565C0" filter="url(#f64ddkn15n7xt)" rx="16" ry="16" style="stroke:#2E7D32;stroke-width:0.5;"/><path d="M606.4063,485.5 C610.4063,485.5 613.4063,485.5 617.4063,481.5 C625.4063,481.5 633.4063,489.5 633.4063,497.5 L633.4063,501.5 C633.4063,505.5 629.4063,509.5 625.4063,509.5 L587.4063,509.5 C583.4063,509.5 579.4063,505.5 579.4063,501.5 L579.4063,497.5 C579.4063,489.5 587.4063,481.5 595.4063,481.5 C599.4063,485.5 602.4063,485.5 606.4063,485.5" fill="#1565C0" filter="url(#f64ddkn15n7xt)" style="stroke:#2E7D32;stroke-width:0.5;"/><text fill="#1B5E20" font-family="sans-serif" font-size="16" lengthAdjust="spacing" textLength="119.8125" x="546.5" y="524.8516">&#128218; Book Archive</text></g><!--entity Pay--><g class="entity" data-entity="Pay" data-source-line="46" data-uid="ent0004" id="entity_Pay"><ellipse cx="949.332" cy="465.5" fill="#5E35B1" filter="url(#f64ddkn15n7xt)" rx="16" ry="16" style="stroke:#2E7D32;stroke-width:0.5;"/><path d="M949.332,485.5 C953.332,485.5 956.332,485.5 960.332,481.5 C968.332,481.5 976.332,489.5 976.332,497.5 L976.332,501.5 C976.332,505.5 972.332,509.5 968.332,509.5 L930.332,509.5 C926.332,509.5 922.332,505.5 922.332,501.5 L922.332,497.5 C922.332,489.5 930.332,481.5 938.332,481.5 C942.332,485.5 945.332,485.5 949.332,485.5" fill="#5E35B1" filter="url(#f64ddkn15n7xt)" style="stroke:#2E7D32;stroke-width:0.5;"/><text fill="#1B5E20" font-family="sans-serif" font-size="16" lengthAdjust="spacing" textLength="221.6641" x="838.5" y="524.8516">&#128179; Secure Payment Gateway</text></g><!--link C to UC1--><g class="link" data-entity-1="C" data-entity-2="UC1" data-source-line="59" data-uid="lnk14" id="link_C_UC1"><path d="M53.87,247.63 C63.56,208.42 83.8,149.83 123,115 C136.74,102.79 148.2498,96.0688 165.7698,89.8088" fill="none" id="C-to-UC1" style="stroke:#546E7A;stroke-width:1.4;"/><polygon fill="#546E7A" points="171.42,87.79,161.5989,87.0515,166.7115,89.4724,164.2907,94.585,171.42,87.79" style="stroke:#546E7A;stroke-width:1.4;"/></g><!--link C to UC2--><g class="link" data-entity-1="C" data-entity-2="UC2" data-source-line="60" data-uid="lnk15" id="link_C_UC2"><path d="M70.97,247.88 C84.34,229.38 102.31,208.56 123,195 C141,183.2 156.7729,176.4653 177.4329,170.5353" fill="none" id="C-to-UC2" style="stroke:#546E7A;stroke-width:1.4;"/><polygon fill="#546E7A" points="183.2,168.88,173.4457,167.5182,178.3941,170.2594,175.6528,175.2078,183.2,168.88" style="stroke:#546E7A;stroke-width:1.4;"/></g><!--link C to UC3--><g class="link" data-entity-1="C" data-entity-2="UC3" data-source-line="61" data-uid="lnk16" id="link_C_UC3"><path d="M84.12,279 C93.86,276.71 104.31,274.26 114,272 C136.01,266.87 154.0328,262.6955 176.0228,257.6355" fill="none" id="C-to-UC3" style="stroke:#546E7A;stroke-width:1.4;"/><polygon fill="#546E7A" points="181.87,256.29,172.2022,254.4101,176.9973,257.4112,173.9962,262.2063,181.87,256.29" style="stroke:#546E7A;stroke-width:1.4;"/></g><!--link C to UC4--><g class="link" data-entity-1="C" data-entity-2="UC4" data-source-line="62" data-uid="lnk17" id="link_C_UC4"><path d="M84.03,293.29 C112.91,297.31 147.5575,302.1314 182.6275,307.0214" fill="none" id="C-to-UC4" style="stroke:#546E7A;stroke-width:1.4;"/><polygon fill="#546E7A" points="188.57,307.85,180.2086,302.6454,183.6179,307.1595,179.1038,310.5688,188.57,307.85" style="stroke:#546E7A;stroke-width:1.4;"/></g><!--link C to UC5--><g class="link" data-entity-1="C" data-entity-2="UC5" data-source-line="63" data-uid="lnk18" id="link_C_UC5"><path d="M84.27,327.06 C95.93,337.3 109.3,347.54 123,355 C143.22,366.01 161.018,372.6674 182.918,378.7374" fill="none" id="C-to-UC5" style="stroke:#546E7A;stroke-width:1.4;"/><polygon fill="#546E7A" points="188.7,380.34,181.0954,374.0814,183.8817,379.0045,178.9586,381.7908,188.7,380.34" style="stroke:#546E7A;stroke-width:1.4;"/></g><!--link C to UC8--><g class="link" data-entity-1="C" data-entity-2="UC8" data-source-line="64" data-uid="lnk19" id="link_C_UC8"><path d="M55.36,328.26 C76.73,408.78 137.14,582 261.5,582 C261.5,582 261.5,582 950.5,582 C1088.36,582 1217.8461,467.8214 1270.1561,415.5414" fill="none" id="C-to-UC8" style="stroke:#546E7A;stroke-width:1.4;"/><polygon fill="#546E7A" points="1274.4,411.3,1265.2066,414.8329,1270.8635,414.8345,1270.8618,420.4914,1274.4,411.3" style="stroke:#546E7A;stroke-width:1.4;"/></g><!--link UC2 to DB--><g class="link" data-entity-1="UC2" data-entity-2="DB" data-source-line="66" data-uid="lnk20" id="link_UC2_DB"><path d="M341.06,169.09 C355.15,174.96 368.41,183.26 378,195 C440.44,271.41 346.42,337.89 408,415 C441.48,456.92 495.4097,474.0564 540.4697,481.9364" fill="none" id="UC2-to-DB" style="stroke:#546E7A;stroke-width:1.4;"/><polygon fill="#546E7A" points="546.38,482.97,538.2036,477.4794,541.4547,482.1087,536.8255,485.3598,546.38,482.97" style="stroke:#546E7A;stroke-width:1.4;"/><text fill="#000000" font-family="sans-serif" font-size="13" lengthAdjust="spacing" textLength="63.0068" x="409" y="411.0669">&#171;include&#187;</text></g><!--link UC3 to DB--><g class="link" data-entity-1="UC3" data-entity-2="DB" data-source-line="67" data-uid="lnk21" id="link_UC3_DB"><path d="M344.91,255.96 C357.57,262.03 369.31,270.14 378,281 C438.3,356.32 335.22,432.67 408,496 C445.14,528.32 496.904,523.7611 540.324,512.1411" fill="none" id="UC3-to-DB" style="stroke:#546E7A;stroke-width:1.4;"/><polygon fill="#546E7A" points="546.12,510.59,536.3919,509.0527,541.29,511.8826,538.46,516.7807,546.12,510.59" style="stroke:#546E7A;stroke-width:1.4;"/><text fill="#000000" font-family="sans-serif" font-size="13" lengthAdjust="spacing" textLength="63.0068" x="409" y="492.0669">&#171;include&#187;</text></g><!--link UC5 to UC6--><g class="link" data-entity-1="UC5" data-entity-2="UC6" data-source-line="68" data-uid="lnk22" id="link_UC5_UC6"><path d="M359.68,391.34 C404.82,389.63 452.6343,387.808 498.3843,386.068" fill="none" id="UC5-to-UC6" style="stroke:#546E7A;stroke-width:1.4;"/><polygon fill="#546E7A" points="504.38,385.84,495.2345,382.1849,499.3836,386.03,495.5385,390.1792,504.38,385.84" style="stroke:#546E7A;stroke-width:1.4;"/><text fill="#000000" font-family="sans-serif" font-size="13" lengthAdjust="spacing" textLength="63.0068" x="409" y="384.0669">&#171;include&#187;</text></g><!--link UC6 to Pay--><g class="link" data-entity-1="UC6" data-entity-2="Pay" data-source-line="69" data-uid="lnk23" id="link_UC6_Pay"><path d="M667.29,400.76 C714.47,415.56 775.8451,434.8239 832.6751,452.6539" fill="none" id="UC6-to-Pay" style="stroke:#546E7A;stroke-width:1.4;"/><polygon fill="#546E7A" points="838.4,454.45,831.0101,447.9392,833.6293,452.9532,828.6153,455.5724,838.4,454.45" style="stroke:#546E7A;stroke-width:1.4;"/><text fill="#000000" font-family="sans-serif" font-size="13" lengthAdjust="spacing" textLength="63.0068" x="741" y="422.0669">&#171;include&#187;</text></g><!--link UC6 to UC7--><g class="link" data-entity-1="UC6" data-entity-2="UC7" data-source-line="70" data-uid="lnk24" id="link_UC6_UC7"><path d="M710.27,382 C749.59,382 788.65,382 828.92,382" fill="none" id="UC6-to-UC7" style="stroke:#546E7A;stroke-width:1.4;"/><polygon fill="#546E7A" points="834.92,382,825.92,378,829.92,382,825.92,386,834.92,382" style="stroke:#546E7A;stroke-width:1.4;"/><text fill="#000000" font-family="sans-serif" font-size="13" lengthAdjust="spacing" textLength="63.0068" x="741" y="378.0669">&#171;include&#187;</text></g><!--link UC7 to UC8--><g class="link" data-entity-1="UC7" data-entity-2="UC8" data-source-line="71" data-uid="lnk25" id="link_UC7_UC8"><path d="M1064.12,383.64 C1103.65,384.21 1141.9106,384.7529 1181.1706,385.3229" fill="none" id="UC7-to-UC8" style="stroke:#546E7A;stroke-width:1.4;"/><polygon fill="#546E7A" points="1187.17,385.41,1178.229,381.2798,1182.1705,385.3374,1178.1129,389.2789,1187.17,385.41" style="stroke:#546E7A;stroke-width:1.4;"/><text fill="#000000" font-family="sans-serif" font-size="13" lengthAdjust="spacing" textLength="61.1851" x="1095" y="381.0669">&#171;extend&#187;</text></g><!--SRC=[VLJ1RjD04BtxAqQjH2y44Zjs4bH5IXnHa5grQbhkwzrniegpMzOE8I3-027H8eJWq0k2An9t-AL-0hEEuyPfIWxHUjwysRTlPtOFRgxV_uLJZAL20Q7MIUrCAuHdYyX80MTZd2BKu5Wbb01zhITffWt2S95cE7Nsu52Enjb3ED82ZO8742OiJHSmbzauBmSlf4wGCdelPupmeOupE3282ZBQA7MS12cIQJ2s4WXfa6TIAuUArserE4Xqn18OPWkICB8X9vr8TS4CcqB4-6Haz4o9K2VQm6xSYZjnj9QHZfdGSylCp0pNW9p5jL5emFNNW9unUbwKyvi1jjWcU3QMV4BQKsWyQgvqdgS88QE_xKfdANABldK0-dTKvp-BQ4C-5j5EpDg2KVIfLbaHSmFFzTf5R2ZV83JyahUkowFei7hsTokfFKvtU8zEbcDRLM8xzh6pgTB5bl3Sgif6vADRhwWCh1xQ4O7DCTLJ_8- -K-e0faR9VLwQ4j-kKs0h3ZPrDdstnUfLdLwZ4NLMsfVg8fs8Yd1hzkco-gfNjYbV-XREQ3ocbCLI24jlbjZEpVNLrto4g8luMBx27Pisw9DVVk3p-ctUvMyO8f_Hd9smnHGLJGpBSCuMEODYr9de-L73SMwziFM_h4ygkKUZkfERj6e_Ilhu7OPofE2vWiTazKZI91lg2Kw7pF8DpiC6x8e6R-QtlKRzz07wrFzfKV-GgEH1Mf1SijwBtLXKILUVwGt0EGmmOpAXLsQ0AJVomWvvmVHWbxSnu1lRVRk4dX3BlUY129bPwMkIFew2jwk4dt_Wn6YEj8dD7oEVwDcAuzESUUZ7VfLp-GkEs0Gt32yu0N7gSPDx6qVwGM-RYgMPmh5jCJX96CSrNeiEv7EswH_fEq1g8hfC6CYHpEXXesP7CgCWjilsfPuAgU-xzZRAbLkkl7BLB5T-kMexZhqF-q7zzGJszwNYoKnWj-jOk-y1_88Ut4627B6TjnsnHzv4MYinEOAlCrIYs_q7]--></g></svg>