<svg xmlns="http://www.w3.org/2000/svg" xmlns:xlink="http://www.w3.org/1999/xlink" contentStyleType="text/css" data-diagram-type="CLASS" height="425px" preserveAspectRatio="none" style="width:735px;height:425px;background:#F7F9FB;" version="1.1" viewBox="0 0 735 425" width="735px" zoomAndPan="magnify"><title>&lt;b&gt;&lt;color:#4527a0&gt;&#127968; SecurityControl - Smart Security System (Class Diagram)&lt;/color&gt;&lt;/b&gt;</title><defs><filter height="300%" id="fr06y09kqf2t5" width="300%" x="-1" y="-1"><feGaussianBlur result="blurOut" stdDeviation="2"/><feColorMatrix in="blurOut" result="blurOut2" type="matrix" values="0 0 0 0 0 0 0 0 0 0 0 0 0 0 0 0 0 0 .4 0"/><feOffset dx="4" dy="4" in="blurOut2" result="blurOut3"/><feBlend in="SourceGraphic" in2="blurOut3" mode="normal"/></filter></defs><g><rect fill="#F7F9FB" height="425" style="stroke:none;stroke-width:1;" width="735" x="0" y="0"/><g class="title" data-source-line="35"><text fill="#4527A0" font-family="sans-serif" font-size="14" font-weight="bold" lengthAdjust="spacing" textLength="469.376" x="124.1392" y="22.9951">&#127968; SecurityControl - Smart Security System (Class Diagram)</text></g><!--class SecurityControl--><g class="entity" data-entity="SecurityControl" data-source-line="38" data-uid="ent0002" id="entity_SecurityControl"><rect fill="#D1C4E9" filter="url(#fr06y09kqf2t5)" height="194.6719" rx="11" ry="11" style="stroke:#4527A0;stroke-width:0.5;" width="274.9102" x="166" y="44.2969"/><ellipse cx="237.5859" cy="60.2969" fill="#ADD1B2" rx="11" ry="11" style="stroke:#181818;stroke-width:1;"/><path d="M240.5547,65.9375 Q239.9766,66.2344 239.3359,66.375 Q238.6953,66.5313 237.9922,66.5313 Q235.4922,66.5313 234.1641,64.8906 Q232.8516,63.2344 232.8516,60.1094 Q232.8516,56.9844 234.1641,55.3281 Q235.4922,53.6719 237.9922,53.6719 Q238.6953,53.6719 239.3359,53.8281 Q239.9922,53.9844 240.5547,54.2813 L240.5547,57 Q239.9297,56.4219 239.3359,56.1563 Q238.7422,55.875 238.1172,55.875 Q236.7734,55.875 236.0859,56.9531 Q235.3984,58.0156 235.3984,60.1094 Q235.3984,62.2031 236.0859,63.2813 Q236.7734,64.3438 238.1172,64.3438 Q238.7422,64.3438 239.3359,64.0781 Q239.9297,63.7969 240.5547,63.2188 L240.5547,65.9375 Z " fill="#000000"/><text fill="#311B92" font-family="sans-serif" font-size="14" font-weight="bold" lengthAdjust="spacing" textLength="123.2383" x="258.0859" y="65.1436">SecurityControl</text><line style="stroke:#4527A0;stroke-width:0.5;" x1="167" x2="439.9102" y1="76.2969" y2="76.2969"/><rect fill="none" height="6" style="stroke:#C82930;stroke-width:1;" width="6" x="174" y="86.9453"/><text fill="#000000" font-family="sans-serif" font-size="14" lengthAdjust="spacing" textLength="146.1729" x="186" y="93.292">systemStatus: String</text><rect fill="none" height="6" style="stroke:#C82930;stroke-width:1;" width="6" x="174" y="103.2422"/><text fill="#000000" font-family="sans-serif" font-size="14" lengthAdjust="spacing" textLength="175.957" x="186" y="109.5889">sensorList: List&lt;Sensor&gt;</text><rect fill="none" height="6" style="stroke:#C82930;stroke-width:1;" width="6" x="174" y="119.5391"/><text fill="#000000" font-family="sans-serif" font-size="14" lengthAdjust="spacing" textLength="143.2539" x="186" y="125.8857">alarm: AlarmSystem</text><rect fill="none" height="6" style="stroke:#C82930;stroke-width:1;" width="6" x="174" y="135.8359"/><text fill="#000000" font-family="sans-serif" font-size="14" lengthAdjust="spacing" textLength="104.5283" x="186" y="142.1826">userPIN: String</text><line style="stroke:#4527A0;stroke-width:0.5;" x1="167" x2="439.9102" y1="149.4844" y2="149.4844"/><ellipse cx="177" cy="163.1328" fill="#84BE84" rx="3" ry="3" style="stroke:#038048;stroke-width:1;"/><text fill="#000000" font-family="sans-serif" font-size="14" lengthAdjust="spacing" textLength="228.8398" x="186" y="166.4795">armSystem(pin: String): boolean</text><ellipse cx="177" cy="179.4297" fill="#84BE84" rx="3" ry="3" style="stroke:#038048;stroke-width:1;"/><text fill="#000000" font-family="sans-serif" font-size="14" lengthAdjust="spacing" textLength="248.9102" x="186" y="182.7764">disarmSystem(pin: String): boolean</text><ellipse cx="177" cy="195.7266" fill="#84BE84" rx="3" ry="3" style="stroke:#038048;stroke-width:1;"/><text fill="#000000" font-family="sans-serif" font-size="14" lengthAdjust="spacing" textLength="145.9883" x="186" y="199.0732">checkSensors(): void</text><ellipse cx="177" cy="212.0234" fill="#84BE84" rx="3" ry="3" style="stroke:#038048;stroke-width:1;"/><text fill="#000000" font-family="sans-serif" font-size="14" lengthAdjust="spacing" textLength="138.4346" x="186" y="215.3701">triggerAlarm(): void</text><ellipse cx="177" cy="228.3203" fill="#84BE84" rx="3" ry="3" style="stroke:#038048;stroke-width:1;"/><text fill="#000000" font-family="sans-serif" font-size="14" lengthAdjust="spacing" textLength="121.6592" x="186" y="231.667">notifyUser(): void</text></g><!--class Sensor--><g class="entity" data-entity="Sensor" data-source-line="51" data-uid="ent0003" id="entity_Sensor"><rect fill="#EDE7F6" filter="url(#fr06y09kqf2t5)" height="96.8906" rx="11" ry="11" style="stroke:#4527A0;stroke-width:0.5;" width="181.0869" x="7" y="316.2969"/><ellipse cx="66.0933" cy="332.2969" fill="#B4A7E5" rx="11" ry="11" style="stroke:#181818;stroke-width:1;"/><path d="M62.0151,328.0625 L62.0151,325.9063 L69.4058,325.9063 L69.4058,328.0625 L66.937,328.0625 L66.937,336.1406 L69.4058,336.1406 L69.4058,338.2969 L62.0151,338.2969 L62.0151,336.1406 L64.4839,336.1406 L64.4839,328.0625 L62.0151,328.0625 Z " fill="#000000"/><text fill="#311B92" font-family="sans-serif" font-size="14" font-style="italic" font-weight="bold" lengthAdjust="spacing" textLength="54.4004" x="86.5933" y="337.1436">Sensor</text><line style="stroke:#4527A0;stroke-width:0.5;" x1="8" x2="187.0869" y1="348.2969" y2="348.2969"/><line style="stroke:#4527A0;stroke-width:0.5;" x1="8" x2="187.0869" y1="356.2969" y2="356.2969"/><ellipse cx="18" cy="369.9453" fill="#84BE84" rx="3" ry="3" style="stroke:#038048;stroke-width:1;"/><text fill="#000000" font-family="sans-serif" font-size="14" lengthAdjust="spacing" textLength="106.3398" x="27" y="373.292">activate(): void</text><ellipse cx="18" cy="386.2422" fill="#84BE84" rx="3" ry="3" style="stroke:#038048;stroke-width:1;"/><text fill="#000000" font-family="sans-serif" font-size="14" lengthAdjust="spacing" textLength="123.8398" x="27" y="389.5889">deactivate(): void</text><ellipse cx="18" cy="402.5391" fill="#84BE84" rx="3" ry="3" style="stroke:#038048;stroke-width:1;"/><text fill="#000000" font-family="sans-serif" font-size="14" lengthAdjust="spacing" textLength="155.0869" x="27" y="405.8857">isTriggered(): boolean</text></g><!--class AlarmSystem--><g class="entity" data-entity="AlarmSystem" data-source-line="57" data-uid="ent0004" id="entity_AlarmSystem"><rect fill="#EDE7F6" filter="url(#fr06y09kqf2t5)" height="80.5938" rx="11" ry="11" style="stroke:#4527A0;stroke-width:0.5;" width="159.6494" x="223.5" y="324.2969"/><ellipse cx="248.7415" cy="340.2969" fill="#B4A7E5" rx="11" ry="11" style="stroke:#181818;stroke-width:1;"/><path d="M244.6633,336.0625 L244.6633,333.9063 L252.054,333.9063 L252.054,336.0625 L249.5852,336.0625 L249.5852,344.1406 L252.054,344.1406 L252.054,346.2969 L244.6633,346.2969 L244.6633,344.1406 L247.1321,344.1406 L247.1321,336.0625 L244.6633,336.0625 Z " fill="#000000"/><text fill="#311B92" font-family="sans-serif" font-size="14" font-style="italic" font-weight="bold" lengthAdjust="spacing" textLength="104.8906" x="265.0173" y="345.1436">AlarmSystem</text><line style="stroke:#4527A0;stroke-width:0.5;" x1="224.5" x2="382.1494" y1="356.2969" y2="356.2969"/><line style="stroke:#4527A0;stroke-width:0.5;" x1="224.5" x2="382.1494" y1="364.2969" y2="364.2969"/><ellipse cx="234.5" cy="377.9453" fill="#84BE84" rx="3" ry="3" style="stroke:#038048;stroke-width:1;"/><text fill="#000000" font-family="sans-serif" font-size="14" lengthAdjust="spacing" textLength="133.6494" x="243.5" y="381.292">soundAlarm(): void</text><ellipse cx="234.5" cy="394.2422" fill="#84BE84" rx="3" ry="3" style="stroke:#038048;stroke-width:1;"/><text fill="#000000" font-family="sans-serif" font-size="14" lengthAdjust="spacing" textLength="121.3926" x="243.5" y="397.5889">stopAlarm(): void</text></g><!--class UserInterface--><g class="entity" data-entity="UserInterface" data-source-line="62" data-uid="ent0005" id="entity_UserInterface"><rect fill="#EDE7F6" filter="url(#fr06y09kqf2t5)" height="80.5938" rx="11" ry="11" style="stroke:#4527A0;stroke-width:0.5;" width="300.6543" x="419" y="324.2969"/><ellipse cx="511.2271" cy="340.2969" fill="#B4A7E5" rx="11" ry="11" style="stroke:#181818;stroke-width:1;"/><path d="M507.1489,336.0625 L507.1489,333.9063 L514.5396,333.9063 L514.5396,336.0625 L512.0708,336.0625 L512.0708,344.1406 L514.5396,344.1406 L514.5396,346.2969 L507.1489,346.2969 L507.1489,344.1406 L509.6177,344.1406 L509.6177,336.0625 L507.1489,336.0625 Z " fill="#000000"/><text fill="#311B92" font-family="sans-serif" font-size="14" font-style="italic" font-weight="bold" lengthAdjust="spacing" textLength="107.7002" x="531.7271" y="345.1436">UserInterface</text><line style="stroke:#4527A0;stroke-width:0.5;" x1="420" x2="718.6543" y1="356.2969" y2="356.2969"/><line style="stroke:#4527A0;stroke-width:0.5;" x1="420" x2="718.6543" y1="364.2969" y2="364.2969"/><ellipse cx="430" cy="377.9453" fill="#84BE84" rx="3" ry="3" style="stroke:#038048;stroke-width:1;"/><text fill="#000000" font-family="sans-serif" font-size="14" lengthAdjust="spacing" textLength="274.6543" x="439" y="381.292">displayMessage(message: String): void</text><ellipse cx="430" cy="394.2422" fill="#84BE84" rx="3" ry="3" style="stroke:#038048;stroke-width:1;"/><text fill="#000000" font-family="sans-serif" font-size="14" lengthAdjust="spacing" textLength="153.0225" x="439" y="397.5889">getUserInput(): String</text></g><g class="entity" data-entity="GMN9" data-source-line="74" data-uid="ent0010" id="entity_GMN9"><path d="M476,125.2969 L476,137.7969 L441.13,141.7969 L476,145.7969 L476,158.6953 A11,11 0 0 0 487,169.6953 L706.1367,169.6953 A11,11 0 0 0 717.1367,158.6953 L717.1367,124.2969 L707.1367,114.2969 L487,114.2969 A11,11 0 0 0 476,125.2969" fill="#C8E6C9" filter="url(#fr06y09kqf2t5)" style="stroke:#181818;stroke-width:0.5;"/><path d="M707.1367,114.2969 L707.1367,118.7969 A5.5,5.5 0 0 0 712.6367,124.2969 L717.1367,124.2969 L707.1367,114.2969" fill="#C8E6C9" style="stroke:#181818;stroke-width:0.5;"/><text fill="#000000" font-family="sans-serif" font-size="13" lengthAdjust="spacing" textLength="208.6665" x="482" y="131.3638">&#127807; Coordinates between sensors,</text><text fill="#000000" font-family="sans-serif" font-size="13" lengthAdjust="spacing" textLength="216.0044" x="482" y="146.4966">alarm system, and user interface</text><text fill="#000000" font-family="sans-serif" font-size="13" lengthAdjust="spacing" textLength="179.6577" x="482" y="161.6294">to ensure safety and alerts.</text></g><!--link SecurityControl to Sensor--><g class="link" data-entity-1="SecurityControl" data-entity-2="Sensor" data-source-line="68" data-uid="lnk6" id="link_SecurityControl_Sensor"><path codeLine="68" d="M213.45,239.4069 C188.65,266.0069 166.9306,289.3075 145.9806,311.7875" fill="none" id="SecurityControl-to-Sensor" style="stroke:#455A64;stroke-width:1.3;"/><polygon fill="#455A64" points="141.89,316.1769,150.9522,312.3199,145.2989,312.5191,145.0997,306.8657,141.89,316.1769" style="stroke:#455A64;stroke-width:1.3;"/><polygon fill="#000000" points="184.0907,281.5207,192.4079,276.9083,188.1084,272.9004,184.0907,281.5207" style="stroke:#000000;stroke-width:1;"/><text fill="#000000" font-family="sans-serif" font-size="13" lengthAdjust="spacing" textLength="59.8584" x="196.5" y="282.3638">manages</text></g><!--link SecurityControl to AlarmSystem--><g class="link" data-entity-1="SecurityControl" data-entity-2="AlarmSystem" data-source-line="69" data-uid="lnk7" id="link_SecurityControl_AlarmSystem"><path codeLine="69" d="M303.5,239.4069 C303.5,269.2569 303.5,294.4869 303.5,318.1769" fill="none" id="SecurityControl-to-AlarmSystem" style="stroke:#455A64;stroke-width:1.3;"/><polygon fill="#455A64" points="303.5,324.1769,307.5,315.1769,303.5,319.1769,299.5,315.1769,303.5,324.1769" style="stroke:#455A64;stroke-width:1.3;"/><polygon fill="#000000" points="308.5,282.8633,311.4389,273.8182,305.5611,273.8182,308.5,282.8633" style="stroke:#000000;stroke-width:1;"/><text fill="#000000" font-family="sans-serif" font-size="13" lengthAdjust="spacing" textLength="50.6733" x="317.5" y="282.3638">triggers</text></g><!--link SecurityControl to UserInterface--><g class="link" data-entity-1="SecurityControl" data-entity-2="UserInterface" data-source-line="70" data-uid="lnk8" id="link_SecurityControl_UserInterface"><path codeLine="70" d="M419.78,239.4069 C455.71,269.2569 488.6739,296.6539 517.2039,320.3439" fill="none" id="SecurityControl-to-UserInterface" style="stroke:#455A64;stroke-width:1.3;"/><polygon fill="#455A64" points="521.82,324.1769,517.4512,315.35,517.9733,320.9827,512.3406,321.5048,521.82,324.1769" style="stroke:#455A64;stroke-width:1.3;"/><polygon fill="#000000" points="484.3459,281.0584,479.2666,273.0178,475.5105,277.539,484.3459,281.0584" style="stroke:#000000;stroke-width:1;"/><text fill="#000000" font-family="sans-serif" font-size="13" lengthAdjust="spacing" textLength="57.2749" x="489.5" y="282.3638">interacts</text></g><!--SRC=[dLLjRjim3FsVKn3eZwPOqovfsYv64A3BlWfaHL5d1v1jsX5YIu4ajyY6tM30Zj3TP5Vg4KP9jcitBR0j26A7fFWUoITf7nxkV_o6g_UVBlOrNBCSZK4OG5WmPI34k5JSR27SQeC5p7EcDRpZB5EiWFw2tQ98KC5oXGKUz7hxC1WCOC6siZJsjMVa1eo4I1eZ2qYumjXmAUh8ZxcCMEwNktYzvcB3RFA8nUjCoL8aSvbB1NlfUJf9erQ4Nh54td6HWL4bjXnkLIoL86QZKSjnePIygzADJq_PsVYfSxdYyLeW5JayEgbP-gf3iyqjM9Tcx7pVUW1lTmYxZ_L8HKrgS4Vdx3LPFqXXAjl9S1XDHfKjv5yHXkFw7w4YzIzFo11sAmQuyN1rfTzhnfV2e4fPZ2-mvet_MUQOu7bwzf_CJ_w5w9ARt4_UkBTfD9l6DdLGmSqUxd_-QdGu9nGbynVrsUy8z61wx7BDfiVHh3DCr0xJ3-zfyhra68znubep0EqoXuQPKWVKJaLLUGSABTM2QnE0_Ps6pZ1pJfOpLGHmOH-UcpEN6jNrvLKh3trVGHFKtt1HEmy26hlCaGaNat3zDs7n2kErPwBxvBkLF74E2iuoL8vHno6auUds2p5hp3IUHuNuPBKeN5U8CMtZMsQmaod1PyrSBpqs9lqMsmv8gr5FaBHLpYvhJITBrzh9Pyjvt0JTZDJ9JSwsdscNimpxXN-s-jc0P6XyearfB4urjKQzDvWpUvpf5TzuHUq8TJ2h6nX0mGG1QPWz6zPkGL2FwwNWRds1tz3KVHjVaRkIff8vJHY1ygqCo7HNxl4RF8idLB2x2UQIzZmNp2wEqDmXYahg-j2grIcxsXM7m4JYHDqwKIY6JdnQKIe4pLAaxMd3w6fHHX_rwCQmciC_]--></g></svg>