<svg xmlns="http://www.w3.org/2000/svg" xmlns:xlink="http://www.w3.org/1999/xlink" contentStyleType="text/css" data-diagram-type="STATE" height="586px" preserveAspectRatio="none" style="width:684px;height:586px;background:#F7F9FB;" version="1.1" viewBox="0 0 684 586" width="684px" zoomAndPan="magnify"><title>&lt;b&gt;&lt;color:#311b92&gt;&#128274; State-Chart Diagram - SecurityControl&lt;/color&gt;&lt;/b&gt;</title><defs><filter height="300%" id="f1ie1wzoqnpwcl" width="300%" x="-1" y="-1"><feGaussianBlur result="blurOut" stdDeviation="2"/><feColorMatrix in="blurOut" result="blurOut2" type="matrix" values="0 0 0 0 0 0 0 0 0 0 0 0 0 0 0 0 0 0 .4 0"/><feOffset dx="4" dy="4" in="blurOut2" result="blurOut3"/><feBlend in="SourceGraphic" in2="blurOut3" mode="normal"/></filter></defs><g><rect fill="#F7F9FB" height="586" style="stroke:none;stroke-width:1;" width="684" x="0" y="0"/><g class="title" data-source-line="29"><rect fill="#D1C4E9" height="30.9531" rx="12" ry="12" style="stroke:#4527A0;stroke-width:1;" width="415.3604" x="124.5698" y="5"/><text fill="#311B92" font-family="Segoe UI" font-size="18" font-weight="bold" lengthAdjust="spacing" textLength="405.3604" x="129.5698" y="26.708">&#128274; State-Chart Diagram - SecurityControl</text></g><g id="Disarmed"><rect fill="#C8E6C9" filter="url(#f1ie1wzoqnpwcl)" height="50" rx="12" ry="12" style="stroke:#4527A0;stroke-width:0.5;" width="95.209" x="252" y="132.9531"/><line style="stroke:#4527A0;stroke-width:0.5;" x1="252" x2="347.209" y1="159.25" y2="159.25"/><text fill="#311B92" font-family="Segoe UI" font-size="14" font-weight="bold" lengthAdjust="spacing" textLength="75.209" x="262" y="150.9482">Disarmed</text></g><g id="Armed"><rect fill="#EDE7F6" filter="url(#f1ie1wzoqnpwcl)" height="50" rx="12" ry="12" style="stroke:#4527A0;stroke-width:0.5;" width="71.8438" x="132.5" y="237.9531"/><line style="stroke:#4527A0;stroke-width:0.5;" x1="132.5" x2="204.3438" y1="264.25" y2="264.25"/><text fill="#311B92" font-family="Segoe UI" font-size="14" font-weight="bold" lengthAdjust="spacing" textLength="51.8438" x="142.5" y="255.9482">Armed</text></g><g id="Triggered"><rect fill="#FCE4EC" filter="url(#f1ie1wzoqnpwcl)" height="50" rx="12" ry="12" style="stroke:#4527A0;stroke-width:0.5;" width="97.2119" x="6" y="342.9531"/><line style="stroke:#4527A0;stroke-width:0.5;" x1="6" x2="103.2119" y1="369.25" y2="369.25"/><text fill="#311B92" font-family="Segoe UI" font-size="14" font-weight="bold" lengthAdjust="spacing" textLength="77.2119" x="16" y="360.9482">Triggered</text></g><g id="AlertSent"><rect fill="#FFE0B2" filter="url(#f1ie1wzoqnpwcl)" height="50" rx="12" ry="12" style="stroke:#4527A0;stroke-width:0.5;" width="94.9629" x="299" y="447.9531"/><line style="stroke:#4527A0;stroke-width:0.5;" x1="299" x2="393.9629" y1="474.25" y2="474.25"/><text fill="#311B92" font-family="Segoe UI" font-size="14" font-weight="bold" lengthAdjust="spacing" textLength="74.9629" x="309" y="465.9482">AlertSent</text></g><ellipse cx="299.5" cy="63.9531" fill="#222222" filter="url(#f1ie1wzoqnpwcl)" rx="10" ry="10" style="stroke:#222222;stroke-width:1;"/><ellipse cx="346.5" cy="563.9531" fill="none" filter="url(#f1ie1wzoqnpwcl)" rx="11" ry="11" style="stroke:#222222;stroke-width:1;"/><ellipse cx="346.5" cy="563.9531" fill="#222222" rx="6" ry="6" style="stroke:#222222;stroke-width:1;"/><g class="entity" data-entity="GMN2" data-source-line="73" data-uid="ent0003" id="entity_GMN2"><path d="M365.5,157.4531 L365.5,153.9531 L347.1719,157.9531 L365.5,161.9531 L365.5,158.5859 A12,12 0 0 0 377.5,170.5859 L653.6064,170.5859 A12,12 0 0 0 665.6064,158.5859 L665.6064,155.4531 L655.6064,145.4531 L377.5,145.4531 A12,12 0 0 0 365.5,157.4531" fill="#F0F4C3" filter="url(#f1ie1wzoqnpwcl)" style="stroke:#AFB42B;stroke-width:0.5;"/><path d="M655.6064,145.4531 L655.6064,149.4531 A6,6 0 0 0 661.6064,155.4531 L665.6064,155.4531 L655.6064,145.4531" fill="#F0F4C3" style="stroke:#AFB42B;stroke-width:0.5;"/><text fill="#263238" font-family="Segoe UI" font-size="13" lengthAdjust="spacing" textLength="279.1064" x="371.5" y="162.52">&#127807; Initial state - system is inactive and safe.</text></g><g class="entity" data-entity="GMN5" data-source-line="77" data-uid="ent0006" id="entity_GMN5"><path d="M121,367.4531 L121,363.9531 L103.4375,367.9531 L121,371.9531 L121,368.5859 A12,12 0 0 0 133,380.5859 L440.0513,380.5859 A12,12 0 0 0 452.0513,368.5859 L452.0513,365.4531 L442.0513,355.4531 L133,355.4531 A12,12 0 0 0 121,367.4531" fill="#F0F4C3" filter="url(#f1ie1wzoqnpwcl)" style="stroke:#AFB42B;stroke-width:0.5;"/><path d="M442.0513,355.4531 L442.0513,359.4531 A6,6 0 0 0 448.0513,365.4531 L452.0513,365.4531 L442.0513,355.4531" fill="#F0F4C3" style="stroke:#AFB42B;stroke-width:0.5;"/><text fill="#263238" font-family="Segoe UI" font-size="13" lengthAdjust="spacing" textLength="310.0513" x="127" y="372.52">&#128156; Motion detected - alarm prepared to activate.</text></g><g class="entity" data-entity="GMN8" data-source-line="81" data-uid="ent0009" id="entity_GMN8"><path d="M412,472.4531 L412,468.9531 L394.0469,472.9531 L412,476.9531 L412,473.5859 A12,12 0 0 0 424,485.5859 L627.1592,485.5859 A12,12 0 0 0 639.1592,473.5859 L639.1592,470.4531 L629.1592,460.4531 L424,460.4531 A12,12 0 0 0 412,472.4531" fill="#F0F4C3" filter="url(#f1ie1wzoqnpwcl)" style="stroke:#AFB42B;stroke-width:0.5;"/><path d="M629.1592,460.4531 L629.1592,464.4531 A6,6 0 0 0 635.1592,470.4531 L639.1592,470.4531 L629.1592,460.4531" fill="#F0F4C3" style="stroke:#AFB42B;stroke-width:0.5;"/><text fill="#263238" font-family="Segoe UI" font-size="13" lengthAdjust="spacing" textLength="206.1592" x="418" y="477.52">&#128226; Alert notification sent to user.</text></g><g class="link" data-entity-1="*start*" data-entity-2="Disarmed" data-uid="lnk3" id="link_*start*_Disarmed"><polygon fill="#455A64" points="299.5,132.5978,303.5,123.5978,299.5,127.5978,295.5,123.5978,299.5,132.5978" style="stroke:#455A64;stroke-width:1;"/><path d="M299.5,77.9889 C299.5,91.5072 299.5,108.8022 299.5,126.5978" fill="none" style="stroke:#455A64;stroke-width:1.3;"/><text fill="#000000" font-family="Segoe UI" font-size="13" lengthAdjust="spacing" textLength="99.3789" x="301.5" y="110.02">System startup</text></g><g class="link" data-entity-1="Disarmed" data-entity-2="Armed" data-uid="lnk4" id="link_Disarmed_Armed"><polygon fill="#4527A0" points="162.7148,237.8462,165.5899,228.4264,162.1063,232.8834,157.6493,229.3999,162.7148,237.8462" style="stroke:#4527A0;stroke-width:1;"/><path d="M251.9528,161.0745 C223.1443,165.1003 188.4126,175.4105 169.5,200.9531 C161.8106,211.3381 160.493,219.7233 161.9847,231.8908" fill="none" style="stroke:#4527A0;stroke-width:1.3;"/><text fill="#000000" font-family="Segoe UI" font-size="13" lengthAdjust="spacing" textLength="104.6982" x="171.5" y="215.02">armSystem(pin)</text></g><g class="link" data-entity-1="Armed" data-entity-2="Triggered" data-uid="lnk5" id="link_Armed_Triggered"><polygon fill="#4527A0" points="81.4555,342.5986,90.8151,339.533,85.1655,339.2466,85.4519,333.597,81.4555,342.5986" style="stroke:#4527A0;stroke-width:1;"/><path d="M141.7721,288.102 C123.6084,304.5131 104.1192,322.1218 85.9075,338.5762" fill="none" style="stroke:#4527A0;stroke-width:1.3;"/><text fill="#000000" font-family="Segoe UI" font-size="13" lengthAdjust="spacing" textLength="108.8433" x="124.5" y="320.02">Sensor triggered</text></g><g class="link" data-entity-1="Triggered" data-entity-2="AlertSent" data-uid="lnk6" id="link_Triggered_AlertSent"><polygon fill="#8E24AA" points="298.873,457.0879,291.5068,450.5504,294.1078,455.5738,289.0843,458.1748,298.873,457.0879" style="stroke:#8E24AA;stroke-width:1;"/><path d="M103.2218,389.7477 C106.0144,390.8522 108.7882,391.928 111.5,392.9531 C175.7173,417.2283 245.4196,440.1043 293.1547,455.271" fill="none" style="stroke:#8E24AA;stroke-width:1.3;"/><text fill="#000000" font-family="Segoe UI" font-size="13" lengthAdjust="spacing" textLength="92.5234" x="216.5" y="425.02">triggerAlarm()</text></g><g class="link" data-entity-1="AlertSent" data-entity-2="Disarmed" data-uid="lnk7" id="link_AlertSent_Disarmed"><polygon fill="#4527A0" points="347.2258,179.556,354.2104,186.4996,351.8978,181.3371,357.0603,179.0244,347.2258,179.556" style="stroke:#4527A0;stroke-width:1;"/><path d="M390.1473,447.7803 C419.2264,430.6548 453.519,408.1185 461.5,392.9531 C471.8492,373.2879 464.6129,364.9562 461.5,342.9531 C452.2982,277.9117 467.1097,247.2414 420.5,200.9531 C399.5342,180.1319 384.3924,192.7051 356.5,182.9531 C353.4593,181.89 355.9549,182.8839 352.8322,181.6933" fill="none" style="stroke:#4527A0;stroke-width:1.3;"/><text fill="#000000" font-family="Segoe UI" font-size="13" lengthAdjust="spacing" textLength="123.335" x="460.5" y="320.02">disarmSystem(pin)</text></g><g class="link" data-entity-1="Armed" data-entity-2="Disarmed" data-uid="lnk8" id="link_Armed_Disarmed"><polygon fill="#4527A0" points="295.6981,183.2254,289.6551,191.0024,294.4981,188.0793,297.4213,192.9223,295.6981,183.2254" style="stroke:#4527A0;stroke-width:1;"/><path d="M204.6649,256.0366 C228.2176,250.4427 258.068,239.8105 277.5,219.9531 C287.185,210.0562 291.2021,201.4124 294.2582,189.05" fill="none" style="stroke:#4527A0;stroke-width:1.3;"/><text fill="#000000" font-family="Segoe UI" font-size="13" lengthAdjust="spacing" textLength="123.335" x="291.5" y="215.02">disarmSystem(pin)</text></g><g class="link" data-entity-1="AlertSent" data-entity-2="*end*" data-uid="lnk10" id="link_AlertSent_*end*"><polygon fill="#455A64" points="346.5,552.6372,350.5,543.6372,346.5,547.6372,342.5,543.6372,346.5,552.6372" style="stroke:#455A64;stroke-width:1;"/><path d="M346.5,498.0715 C346.5,515.7748 346.5,533.0183 346.5,546.6372" fill="none" style="stroke:#455A64;stroke-width:1.3;"/><text fill="#000000" font-family="Segoe UI" font-size="13" lengthAdjust="spacing" textLength="116.0352" x="348.5" y="530.02">System shutdown</text></g><!--SRC=[fLNDJjj04BxlKqp9WL0fG1mJI9H62hGK3aMeJa-8mzeUEolitMXtNPHMbVe0FT5UAbL2welqNVe4F49tRSTnVk1GSd9cThxvvflPsMruzOmVsOQ7-xjVSF7cRBIju98cg3L22zua65EkmTDKO-jaGgM6rup6agOcflpgWuT19fcUdGYkfKYWwQNsv9b84JmQePw1DrCQqnqJzIoYvCLKqZYbaD2Po3Ie53Nbb6Wn1It05rgB548cCT1CS5BbWxU9y6a2umaQKarRwT-lFwjQTyfZHDqmFgMcAl1fS1DBaV7mH2H2GYCwZ7gHNpkX9ZGKjup7e6M6DKSU5GZ9KOBZrXmZASLj2USU7D3kcdCyOS4DHwMWlTkfEKECQ9ReKwFm1JKLR7aO2uGFvrkR3tdi4qAxKnDWp7I2wsNgtFoP01ol5Xos0nTxrYDaYBBYxHpIVMErQKfRfztsUqvfAr8VpV_fcS7tHH8QmoKDGwjNsyPxo_9z8QJWCl27Wy3YzalSuSFzZxjDCsWcT6Nq1djvv72mvmzhjUUnOAdOT6iQgDozKGCCyJ3g_gS6xYODtXVenN0u6tMeU8-20Ctrkn0QrJfjBXvZ7Ur7Rj1PPKqZttNyPTPEj-DqbdirJIZZJ_9wnfRvzgTincaYRg4vBkxjSNvldxyThbvUG-kgl5hNhQ4P54LbYY7qomraUorrDYL5poj_8pZ2Rj0ZbI67iLssCACImxWAcEQKyHrIWXJU-QYCriF7aiKnoe86ScM4rtFJ76HnfX45w6905XO3TeIEIsdE9K6fFJiM_JdAA374cWi-rOb65E6-xv25PObNJPqm_rmgRaCXJmQi99ctmFPaeVuaqsQewejvQRZpaJP5JJI8g4fdXZ6Vd7FED3DBl2Yp1Qe0PGeOfsRXVqIWF0HbdfnTWkRBmf4Lq4hM7DMyUk-4VIhCyjJcqR0L0xLwmbIYkMV6O0OqHpT97uUjgizXl_yk3FOeYrX0ynJAYcFGCeLoWVGF]--></g></svg>