<svg xmlns="http://www.w3.org/2000/svg" xmlns:xlink="http://www.w3.org/1999/xlink" contentStyleType="text/css" data-diagram-type="ACTIVITY" height="785px" preserveAspectRatio="none" style="width:981px;height:785px;background:#F4F6F8;" version="1.1" viewBox="0 0 981 785" width="981px" zoomAndPan="magnify"><title>&lt;b&gt;&#127951; Cricket Match Result Predictor - Activity Diagram&lt;/b&gt;</title><defs><filter height="300%" id="fqvtsmehp4kiy" width="300%" x="-1" y="-1"><feGaussianBlur result="blurOut" stdDeviation="2"/><feColorMatrix in="blurOut" result="blurOut2" type="matrix" values="0 0 0 0 0 0 0 0 0 0 0 0 0 0 0 0 0 0 .4 0"/><feOffset dx="4" dy="4" in="blurOut2" result="blurOut3"/><feBlend in="SourceGraphic" in2="blurOut3" mode="normal"/></filter></defs><g><rect fill="#F4F6F8" height="785" style="stroke:none;stroke-width:1;" width="981" x="0" y="0"/><g class="title" data-source-line="51"><rect fill="#E3F2FD" height="33.2813" rx="10" ry="10" style="stroke:#1565C0;stroke-width:1;" width="585.2832" x="196.6558" y="15"/><text fill="#0D47A1" font-family="sans-serif" font-size="20" font-weight="bold" lengthAdjust="spacing" textLength="575.2832" x="201.6558" y="38.5645">&#127951; Cricket Match Result Predictor - Activity Diagram</text></g><ellipse cx="413.401" cy="64.2813" fill="#222222" filter="url(#fqvtsmehp4kiy)" rx="10" ry="10" style="stroke:#222222;stroke-width:1;"/><rect fill="#E8F0FE" filter="url(#fqvtsmehp4kiy)" height="88.0859" rx="10" ry="10" style="stroke:#1565C0;stroke-width:1.5;" width="277.6196" x="274.5912" y="84.2813"/><path d="M341.0209,84.2813 L341.0209,95.9063 L331.0209,105.9063 L274.5912,105.9063" fill="none" style="stroke:#1565C0;stroke-width:1.5;"/><text fill="#0D47A1" font-family="sans-serif" font-size="16" font-weight="bold" lengthAdjust="spacing" textLength="56.4297" x="277.5912" y="100.1328">&#128100; User</text><rect fill="#FFFFFF" filter="url(#fqvtsmehp4kiy)" height="37.4609" rx="10" ry="10" style="stroke:#607D8B;stroke-width:1.3;" width="257.6196" x="284.5912" y="122.9063"/><text fill="#263238" font-family="sans-serif" font-size="15" lengthAdjust="spacing" textLength="237.6196" x="294.5912" y="146.8296">Enter Runs, Wickets, Overs Left</text><rect fill="#E8F0FE" filter="url(#fqvtsmehp4kiy)" height="445.9297" rx="10" ry="10" style="stroke:#1565C0;stroke-width:1.5;" width="953.5947" x="11" y="182.3672"/><path d="M256.4219,182.3672 L256.4219,193.9922 L246.4219,203.9922 L11,203.9922" fill="none" style="stroke:#1565C0;stroke-width:1.5;"/><text fill="#0D47A1" font-family="sans-serif" font-size="16" font-weight="bold" lengthAdjust="spacing" textLength="235.4219" x="14" y="198.2188">&#9881;&#65039; System (CrickPredictor)</text><rect fill="#FFFFFF" filter="url(#fqvtsmehp4kiy)" height="37.4609" rx="10" ry="10" style="stroke:#607D8B;stroke-width:1.3;" width="125.2197" x="350.7911" y="220.9922"/><text fill="#263238" font-family="sans-serif" font-size="15" lengthAdjust="spacing" textLength="105.2197" x="360.7911" y="244.9155">Validate Input</text><rect fill="#FFFFFF" filter="url(#fqvtsmehp4kiy)" height="37.4609" rx="10" ry="10" style="stroke:#607D8B;stroke-width:1.3;" width="163.7524" x="331.5248" y="278.4531"/><text fill="#263238" font-family="sans-serif" font-size="15" lengthAdjust="spacing" textLength="143.7524" x="341.5248" y="302.3765">Calculate Run Rate</text><rect fill="#FFFFFF" filter="url(#fqvtsmehp4kiy)" height="37.4609" rx="10" ry="10" style="stroke:#607D8B;stroke-width:1.3;" width="169.2456" x="328.7782" y="335.9141"/><text fill="#263238" font-family="sans-serif" font-size="15" lengthAdjust="spacing" textLength="149.2456" x="338.7782" y="359.8374">Check Match Status</text><polygon fill="#FFFFFF" filter="url(#fqvtsmehp4kiy)" points="363.1129,393.375,463.6891,393.375,475.6891,405.375,463.6891,417.375,363.1129,417.375,351.1129,405.375,363.1129,393.375" style="stroke:#607D8B;stroke-width:1.3;"/><text fill="#263238" font-family="sans-serif" font-size="15" lengthAdjust="spacing" textLength="100.5762" x="363.1129" y="410.5679">Run Rate &gt; 8</text><text fill="#000000" font-family="sans-serif" font-size="11" lengthAdjust="spacing" textLength="35.3794" x="315.7335" y="402.7808">&#128200; High</text><text fill="#000000" font-family="sans-serif" font-size="11" lengthAdjust="spacing" textLength="31.9526" x="475.6891" y="402.7808">&#128201; Low</text><rect fill="#FFFFFF" filter="url(#fqvtsmehp4kiy)" height="37.4609" rx="10" ry="10" style="stroke:#607D8B;stroke-width:1.3;" width="299.0967" x="23" y="427.375"/><text fill="#263238" font-family="sans-serif" font-size="15" lengthAdjust="spacing" textLength="279.0967" x="33" y="451.2983">&#127942; Set Prediction = "Winning Position"</text><polygon fill="#FFFFFF" filter="url(#fqvtsmehp4kiy)" points="609.001,427.375,699.5063,427.375,711.5063,439.375,699.5063,451.375,609.001,451.375,597.001,439.375,609.001,427.375" style="stroke:#607D8B;stroke-width:1.3;"/><text fill="#263238" font-family="sans-serif" font-size="15" lengthAdjust="spacing" textLength="90.5054" x="609.001" y="444.5679">Wickets &lt; 5</text><text fill="#000000" font-family="sans-serif" font-size="11" lengthAdjust="spacing" textLength="35.4492" x="561.5518" y="436.7808">&#9878;&#65039; Few</text><text fill="#000000" font-family="sans-serif" font-size="11" lengthAdjust="spacing" textLength="44.2095" x="711.5063" y="436.7808">&#128148; Many</text><rect fill="#FFFFFF" filter="url(#fqvtsmehp4kiy)" height="37.4609" rx="10" ry="10" style="stroke:#607D8B;stroke-width:1.3;" width="294.0649" x="352.0967" y="461.375"/><text fill="#263238" font-family="sans-serif" font-size="15" lengthAdjust="spacing" textLength="274.0649" x="362.0967" y="485.2983">&#128202; Set Prediction = "Balanced Match"</text><rect fill="#FFFFFF" filter="url(#fqvtsmehp4kiy)" height="37.4609" rx="10" ry="10" style="stroke:#607D8B;stroke-width:1.3;" width="286.4331" x="666.1616" y="461.375"/><text fill="#263238" font-family="sans-serif" font-size="15" lengthAdjust="spacing" textLength="266.4331" x="676.1616" y="485.2983">&#128128; Set Prediction = "Losing Position"</text><polygon fill="#FFFFFF" filter="url(#fqvtsmehp4kiy)" points="654.2537,504.8359,666.2537,516.8359,654.2537,528.8359,642.2537,516.8359,654.2537,504.8359" style="stroke:#607D8B;stroke-width:1.3;"/><polygon fill="#FFFFFF" filter="url(#fqvtsmehp4kiy)" points="413.401,534.8359,425.401,546.8359,413.401,558.8359,401.401,546.8359,413.401,534.8359" style="stroke:#607D8B;stroke-width:1.3;"/><rect fill="#FFFFFF" filter="url(#fqvtsmehp4kiy)" height="37.4609" rx="10" ry="10" style="stroke:#607D8B;stroke-width:1.3;" width="212.356" x="307.223" y="578.8359"/><text fill="#263238" font-family="sans-serif" font-size="15" lengthAdjust="spacing" textLength="192.356" x="317.223" y="602.7593">Generate Result Message</text><rect fill="#E8F0FE" filter="url(#fqvtsmehp4kiy)" height="88.0859" rx="10" ry="10" style="stroke:#1565C0;stroke-width:1.5;" width="219.1357" x="303.8331" y="638.2969"/><path d="M395.4581,638.2969 L395.4581,649.9219 L385.4581,659.9219 L303.8331,659.9219" fill="none" style="stroke:#1565C0;stroke-width:1.5;"/><text fill="#0D47A1" font-family="sans-serif" font-size="16" font-weight="bold" lengthAdjust="spacing" textLength="81.625" x="306.8331" y="654.1484">&#128421;&#65039; Display</text><rect fill="#FFFFFF" filter="url(#fqvtsmehp4kiy)" height="37.4609" rx="10" ry="10" style="stroke:#607D8B;stroke-width:1.3;" width="199.1357" x="313.8331" y="676.9219"/><text fill="#263238" font-family="sans-serif" font-size="15" lengthAdjust="spacing" textLength="179.1357" x="323.8331" y="700.8452">Show Prediction to User</text><ellipse cx="413.401" cy="757.3828" fill="none" filter="url(#fqvtsmehp4kiy)" rx="11" ry="11" style="stroke:#222222;stroke-width:1;"/><ellipse cx="413.401" cy="757.3828" fill="#222222" rx="6" ry="6" style="stroke:#222222;stroke-width:1;"/><line style="stroke:#37474F;stroke-width:1.3;" x1="413.401" x2="413.401" y1="74.2813" y2="122.9063"/><polygon fill="#37474F" points="409.401,112.9063,413.401,122.9063,417.401,112.9063,413.401,116.9063" style="stroke:#37474F;stroke-width:1;"/><line style="stroke:#37474F;stroke-width:1.3;" x1="413.401" x2="413.401" y1="258.4531" y2="278.4531"/><polygon fill="#37474F" points="409.401,268.4531,413.401,278.4531,417.401,268.4531,413.401,272.4531" style="stroke:#37474F;stroke-width:1;"/><line style="stroke:#37474F;stroke-width:1.3;" x1="413.401" x2="413.401" y1="315.9141" y2="335.9141"/><polygon fill="#37474F" points="409.401,325.9141,413.401,335.9141,417.401,325.9141,413.401,329.9141" style="stroke:#37474F;stroke-width:1;"/><line style="stroke:#37474F;stroke-width:1.3;" x1="597.001" x2="499.1292" y1="439.375" y2="439.375"/><line style="stroke:#37474F;stroke-width:1.3;" x1="499.1292" x2="499.1292" y1="439.375" y2="461.375"/><polygon fill="#37474F" points="495.1292,451.375,499.1292,461.375,503.1292,451.375,499.1292,455.375" style="stroke:#37474F;stroke-width:1;"/><line style="stroke:#37474F;stroke-width:1.3;" x1="711.5063" x2="809.3782" y1="439.375" y2="439.375"/><line style="stroke:#37474F;stroke-width:1.3;" x1="809.3782" x2="809.3782" y1="439.375" y2="461.375"/><polygon fill="#37474F" points="805.3782,451.375,809.3782,461.375,813.3782,451.375,809.3782,455.375" style="stroke:#37474F;stroke-width:1;"/><line style="stroke:#37474F;stroke-width:1.3;" x1="499.1292" x2="499.1292" y1="498.8359" y2="516.8359"/><line style="stroke:#37474F;stroke-width:1.3;" x1="499.1292" x2="642.2537" y1="516.8359" y2="516.8359"/><polygon fill="#37474F" points="632.2537,512.8359,642.2537,516.8359,632.2537,520.8359,636.2537,516.8359" style="stroke:#37474F;stroke-width:1;"/><line style="stroke:#37474F;stroke-width:1.3;" x1="809.3782" x2="809.3782" y1="498.8359" y2="516.8359"/><line style="stroke:#37474F;stroke-width:1.3;" x1="809.3782" x2="666.2537" y1="516.8359" y2="516.8359"/><polygon fill="#37474F" points="676.2537,512.8359,666.2537,516.8359,676.2537,520.8359,672.2537,516.8359" style="stroke:#37474F;stroke-width:1;"/><line style="stroke:#37474F;stroke-width:1.3;" x1="351.1129" x2="172.5483" y1="405.375" y2="405.375"/><line style="stroke:#37474F;stroke-width:1.3;" x1="172.5483" x2="172.5483" y1="405.375" y2="427.375"/><polygon fill="#37474F" points="168.5483,417.375,172.5483,427.375,176.5483,417.375,172.5483,421.375" style="stroke:#37474F;stroke-width:1;"/><line style="stroke:#37474F;stroke-width:1.3;" x1="475.6891" x2="654.2537" y1="405.375" y2="405.375"/><line style="stroke:#37474F;stroke-width:1.3;" x1="654.2537" x2="654.2537" y1="405.375" y2="427.375"/><polygon fill="#37474F" points="650.2537,417.375,654.2537,427.375,658.2537,417.375,654.2537,421.375" style="stroke:#37474F;stroke-width:1;"/><line style="stroke:#37474F;stroke-width:1.3;" x1="172.5483" x2="172.5483" y1="464.8359" y2="546.8359"/><line style="stroke:#37474F;stroke-width:1.3;" x1="172.5483" x2="401.401" y1="546.8359" y2="546.8359"/><polygon fill="#37474F" points="391.401,542.8359,401.401,546.8359,391.401,550.8359,395.401,546.8359" style="stroke:#37474F;stroke-width:1;"/><line style="stroke:#37474F;stroke-width:1.3;" x1="654.2537" x2="654.2537" y1="528.8359" y2="546.8359"/><line style="stroke:#37474F;stroke-width:1.3;" x1="654.2537" x2="425.401" y1="546.8359" y2="546.8359"/><polygon fill="#37474F" points="435.401,542.8359,425.401,546.8359,435.401,550.8359,431.401,546.8359" style="stroke:#37474F;stroke-width:1;"/><line style="stroke:#37474F;stroke-width:1.3;" x1="413.401" x2="413.401" y1="373.375" y2="393.375"/><polygon fill="#37474F" points="409.401,383.375,413.401,393.375,417.401,383.375,413.401,387.375" style="stroke:#37474F;stroke-width:1;"/><line style="stroke:#37474F;stroke-width:1.3;" x1="413.401" x2="413.401" y1="558.8359" y2="578.8359"/><polygon fill="#37474F" points="409.401,568.8359,413.401,578.8359,417.401,568.8359,413.401,572.8359" style="stroke:#37474F;stroke-width:1;"/><line style="stroke:#37474F;stroke-width:1.3;" x1="413.401" x2="413.401" y1="160.3672" y2="220.9922"/><polygon fill="#37474F" points="409.401,210.9922,413.401,220.9922,417.401,210.9922,413.401,214.9922" style="stroke:#37474F;stroke-width:1;"/><line style="stroke:#37474F;stroke-width:1.3;" x1="413.401" x2="413.401" y1="616.2969" y2="676.9219"/><polygon fill="#37474F" points="409.401,666.9219,413.401,676.9219,417.401,666.9219,413.401,670.9219" style="stroke:#37474F;stroke-width:1;"/><line style="stroke:#37474F;stroke-width:1.3;" x1="413.401" x2="413.401" y1="714.3828" y2="746.3828"/><polygon fill="#37474F" points="409.401,736.3828,413.401,746.3828,417.401,736.3828,413.401,740.3828" style="stroke:#37474F;stroke-width:1;"/><!--SRC=[dPJBRjD058RtVegZi6WYKN3k4IsLUWUKGXGNkXvxnl4examqCsaKAYHM211IHOigqKqsy0uyJr-0F09dR2TDqhILyCRskVtVENDPWV7esmYs5G-wBSKe3unKi0gRWU4dt0nXXvEE8iUGzpPVxUusLpIqICoCOGN7MO7LLGpjzU8XBBgjoz5TBdh4fliaw7QKx0kwBMDKU1HMmbhOc8dG4Q5om4K7ZEgp6KUI5KWbc8AIE-FOL4eEidBbUgLU2HUTXn6s9PZMK7nIcV9EMlFCCBPwywHauZvr0BPkOIUFzKX5cSgiDRTE6pvQzwGmcQrKAvVAZSpcyVSCYbNyy-RRd1IQ9Iqx7oQiEFrZAIZaTrZ0DPS2NalA2dUWqonwARdlKnRwY-J5QgqQkFFaBgtKIV4XyYbZYoZ3ZMNBUmD-71Dn9s1l6heKaJL2DsJ_YLYR_A4o0r_650tjj7gwT-vhuf0Rp5fERHBVwKC49NSPmUqcos4ff7SssIAKMeIYUniVQLEMTNzZF3exIuyjCt10J111c-b-RE2-Oxp-rDzm76rm7HpdPZLouz7tN_1MCvLB-dosAmnAjlj2FuQZH0C_tfmmfQ79GhDcKMRIhwz-_lrp1jvG6uPNnVnjKiXglYCnfmHlXfUYrySIQDecST2FhGsbe8qVgJbYGJThoZF4zFMQWtOUGduI1nlGA8296EwwyUZYCxpWdQY0GPYEe_a47fjEmY8-XzmH5y9EjYLrWfspMYpMBAdm1Pfoa1QmEbdJi0xLYSprrQLjSezbOOdInTSbIbi43q70QDf2edEZTFu3pM8uK-Fyuv8QJQHSXCKYWd9x-wHlEwjzXfiZcM2w-WTuXv0EMroXyUZojwNVuReNas6s95ua1xEwHYQR84dMHlR-0G00]--></g></svg>