<svg xmlns="http://www.w3.org/2000/svg" xmlns:xlink="http://www.w3.org/1999/xlink" contentStyleType="text/css" data-diagram-type="ACTIVITY" height="423px" preserveAspectRatio="none" style="width:634px;height:423px;background:#F4F6F8;" version="1.1" viewBox="0 0 634 423" width="634px" zoomAndPan="magnify"><title>&lt;b&gt;&#127951; Cricket Match Result Predictor - Flowchart&lt;/b&gt;</title><defs><filter height="300%" id="f1ui2yl4ba6e8d" width="300%" x="-1" y="-1"><feGaussianBlur result="blurOut" stdDeviation="2"/><feColorMatrix in="blurOut" result="blurOut2" type="matrix" values="0 0 0 0 0 0 0 0 0 0 0 0 0 0 0 0 0 0 .4 0"/><feOffset dx="4" dy="4" in="blurOut2" result="blurOut3"/><feBlend in="SourceGraphic" in2="blurOut3" mode="normal"/></filter></defs><g><rect fill="#F4F6F8" height="423" style="stroke:none;stroke-width:1;" width="634" x="0" y="0"/><g class="title" data-source-line="40"><rect fill="#E3F2FD" height="33.2813" rx="10" ry="10" style="stroke:#1565C0;stroke-width:1;" width="508.3594" x="61.6465" y="15"/><text fill="#0D47A1" font-family="sans-serif" font-size="20" font-weight="bold" lengthAdjust="spacing" textLength="498.3594" x="66.6465" y="38.5645">&#127951; Cricket Match Result Predictor - Flowchart</text></g><ellipse cx="264.5132" cy="64.2813" fill="#222222" filter="url(#f1ui2yl4ba6e8d)" rx="10" ry="10" style="stroke:#222222;stroke-width:1;"/><rect fill="#F1F1F1" filter="url(#f1ui2yl4ba6e8d)" height="33.9688" rx="10" ry="10" style="stroke:#181818;stroke-width:0.5;" width="208.959" x="160.0337" y="94.2813"/><text fill="#000000" font-family="sans-serif" font-size="12" lengthAdjust="spacing" textLength="188.959" x="170.0337" y="115.4199">Input Runs, Wickets, Overs Left</text><rect fill="#F1F1F1" filter="url(#f1ui2yl4ba6e8d)" height="33.9688" rx="10" ry="10" style="stroke:#181818;stroke-width:0.5;" width="135.002" x="197.0122" y="148.25"/><text fill="#000000" font-family="sans-serif" font-size="12" lengthAdjust="spacing" textLength="115.002" x="207.0122" y="169.3887">Calculate Run Rate</text><polygon fill="#F1F1F1" filter="url(#f1ui2yl4ba6e8d)" points="224.7161,202.2188,304.3103,202.2188,316.3103,214.2188,304.3103,226.2188,224.7161,226.2188,212.7161,214.2188,224.7161,202.2188" style="stroke:#181818;stroke-width:0.5;"/><text fill="#000000" font-family="sans-serif" font-size="11" lengthAdjust="spacing" textLength="79.5942" x="224.7161" y="218.0269">Run Rate &gt; 8?</text><text fill="#000000" font-family="sans-serif" font-size="11" lengthAdjust="spacing" textLength="29.3154" x="183.4006" y="211.6245">&#9989; Yes</text><text fill="#000000" font-family="sans-serif" font-size="11" lengthAdjust="spacing" textLength="29.4551" x="316.3103" y="211.6245">&#10060; No</text><rect fill="#F1F1F1" filter="url(#f1ui2yl4ba6e8d)" height="33.9688" rx="10" ry="10" style="stroke:#181818;stroke-width:0.5;" width="187.4844" x="11" y="236.2188"/><text fill="#000000" font-family="sans-serif" font-size="12" lengthAdjust="spacing" textLength="167.4844" x="21" y="257.3574">&#127942; Output "Winning Position"</text><polygon fill="#F1F1F1" filter="url(#f1ui2yl4ba6e8d)" points="388.1797,236.2188,460.3887,236.2188,472.3887,248.2188,460.3887,260.2188,388.1797,260.2188,376.1797,248.2188,388.1797,236.2188" style="stroke:#181818;stroke-width:0.5;"/><text fill="#000000" font-family="sans-serif" font-size="11" lengthAdjust="spacing" textLength="72.209" x="388.1797" y="252.0269">Wickets &lt; 5?</text><text fill="#000000" font-family="sans-serif" font-size="11" lengthAdjust="spacing" textLength="29.3154" x="346.8643" y="245.6245">&#9989; Yes</text><text fill="#000000" font-family="sans-serif" font-size="11" lengthAdjust="spacing" textLength="29.4551" x="472.3887" y="245.6245">&#10060; No</text><rect fill="#F1F1F1" filter="url(#f1ui2yl4ba6e8d)" height="33.9688" rx="10" ry="10" style="stroke:#181818;stroke-width:0.5;" width="187.0156" x="228.4844" y="270.2188"/><text fill="#000000" font-family="sans-serif" font-size="12" lengthAdjust="spacing" textLength="167.0156" x="238.4844" y="291.3574">&#9878;&#65039; Output "Balanced Match"</text><rect fill="#F1F1F1" filter="url(#f1ui2yl4ba6e8d)" height="33.9688" rx="10" ry="10" style="stroke:#181818;stroke-width:0.5;" width="182.1523" x="435.5" y="270.2188"/><text fill="#000000" font-family="sans-serif" font-size="12" lengthAdjust="spacing" textLength="162.1523" x="445.5" y="291.3574">&#128148; Output "Losing Position"</text><polygon fill="#F1F1F1" filter="url(#f1ui2yl4ba6e8d)" points="424.2842,310.1875,436.2842,322.1875,424.2842,334.1875,412.2842,322.1875,424.2842,310.1875" style="stroke:#181818;stroke-width:0.5;"/><polygon fill="#F1F1F1" filter="url(#f1ui2yl4ba6e8d)" points="264.5132,340.1875,276.5132,352.1875,264.5132,364.1875,252.5132,352.1875,264.5132,340.1875" style="stroke:#181818;stroke-width:0.5;"/><ellipse cx="264.5132" cy="395.1875" fill="none" filter="url(#f1ui2yl4ba6e8d)" rx="11" ry="11" style="stroke:#222222;stroke-width:1;"/><ellipse cx="264.5132" cy="395.1875" fill="#222222" rx="6" ry="6" style="stroke:#222222;stroke-width:1;"/><line style="stroke:#37474F;stroke-width:1.4;" x1="264.5132" x2="264.5132" y1="74.2813" y2="94.2813"/><polygon fill="#37474F" points="260.5132,84.2813,264.5132,94.2813,268.5132,84.2813,264.5132,88.2813" style="stroke:#37474F;stroke-width:1;"/><line style="stroke:#37474F;stroke-width:1.4;" x1="264.5132" x2="264.5132" y1="128.25" y2="148.25"/><polygon fill="#37474F" points="260.5132,138.25,264.5132,148.25,268.5132,138.25,264.5132,142.25" style="stroke:#37474F;stroke-width:1;"/><line style="stroke:#37474F;stroke-width:1.4;" x1="376.1797" x2="321.9922" y1="248.2188" y2="248.2188"/><line style="stroke:#37474F;stroke-width:1.4;" x1="321.9922" x2="321.9922" y1="248.2188" y2="270.2188"/><polygon fill="#37474F" points="317.9922,260.2188,321.9922,270.2188,325.9922,260.2188,321.9922,264.2188" style="stroke:#37474F;stroke-width:1;"/><line style="stroke:#37474F;stroke-width:1.4;" x1="472.3887" x2="526.5762" y1="248.2188" y2="248.2188"/><line style="stroke:#37474F;stroke-width:1.4;" x1="526.5762" x2="526.5762" y1="248.2188" y2="270.2188"/><polygon fill="#37474F" points="522.5762,260.2188,526.5762,270.2188,530.5762,260.2188,526.5762,264.2188" style="stroke:#37474F;stroke-width:1;"/><line style="stroke:#37474F;stroke-width:1.4;" x1="321.9922" x2="321.9922" y1="304.1875" y2="322.1875"/><line style="stroke:#37474F;stroke-width:1.4;" x1="321.9922" x2="412.2842" y1="322.1875" y2="322.1875"/><polygon fill="#37474F" points="402.2842,318.1875,412.2842,322.1875,402.2842,326.1875,406.2842,322.1875" style="stroke:#37474F;stroke-width:1;"/><line style="stroke:#37474F;stroke-width:1.4;" x1="526.5762" x2="526.5762" y1="304.1875" y2="322.1875"/><line style="stroke:#37474F;stroke-width:1.4;" x1="526.5762" x2="436.2842" y1="322.1875" y2="322.1875"/><polygon fill="#37474F" points="446.2842,318.1875,436.2842,322.1875,446.2842,326.1875,442.2842,322.1875" style="stroke:#37474F;stroke-width:1;"/><line style="stroke:#37474F;stroke-width:1.4;" x1="212.7161" x2="104.7422" y1="214.2188" y2="214.2188"/><line style="stroke:#37474F;stroke-width:1.4;" x1="104.7422" x2="104.7422" y1="214.2188" y2="236.2188"/><polygon fill="#37474F" points="100.7422,226.2188,104.7422,236.2188,108.7422,226.2188,104.7422,230.2188" style="stroke:#37474F;stroke-width:1;"/><line style="stroke:#37474F;stroke-width:1.4;" x1="316.3103" x2="424.2842" y1="214.2188" y2="214.2188"/><line style="stroke:#37474F;stroke-width:1.4;" x1="424.2842" x2="424.2842" y1="214.2188" y2="236.2188"/><polygon fill="#37474F" points="420.2842,226.2188,424.2842,236.2188,428.2842,226.2188,424.2842,230.2188" style="stroke:#37474F;stroke-width:1;"/><line style="stroke:#37474F;stroke-width:1.4;" x1="104.7422" x2="104.7422" y1="270.1875" y2="352.1875"/><line style="stroke:#37474F;stroke-width:1.4;" x1="104.7422" x2="252.5132" y1="352.1875" y2="352.1875"/><polygon fill="#37474F" points="242.5132,348.1875,252.5132,352.1875,242.5132,356.1875,246.5132,352.1875" style="stroke:#37474F;stroke-width:1;"/><line style="stroke:#37474F;stroke-width:1.4;" x1="424.2842" x2="424.2842" y1="334.1875" y2="352.1875"/><line style="stroke:#37474F;stroke-width:1.4;" x1="424.2842" x2="276.5132" y1="352.1875" y2="352.1875"/><polygon fill="#37474F" points="286.5132,348.1875,276.5132,352.1875,286.5132,356.1875,282.5132,352.1875" style="stroke:#37474F;stroke-width:1;"/><line style="stroke:#37474F;stroke-width:1.4;" x1="264.5132" x2="264.5132" y1="182.2188" y2="202.2188"/><polygon fill="#37474F" points="260.5132,192.2188,264.5132,202.2188,268.5132,192.2188,264.5132,196.2188" style="stroke:#37474F;stroke-width:1;"/><line style="stroke:#37474F;stroke-width:1.4;" x1="264.5132" x2="264.5132" y1="364.1875" y2="384.1875"/><polygon fill="#37474F" points="260.5132,374.1875,264.5132,384.1875,268.5132,374.1875,264.5132,378.1875" style="stroke:#37474F;stroke-width:1;"/><!--SRC=[bPBVQXf15CRlvoaEwOKAiV6_ec8naa2BJKG3ePUpCsTrS3AppCn6af3BzYeWbDABqk9hz7do0iqZT5RTLAqbT2-McVFD-URt7IO3Juk71VICO5Dqy9uwDe4XsbWw61ZaWZbj80-dKi_OX1e7sL7ttSb9FsDXG2KwXpb2Cf3Fvw4RHV86TkL48dOgL4GDlOA0ikdOw5ZndfRU-bLO2MjXO-E4dL2kPqADmPaODuHb5zD6eO5IOKFe6gDdQxjolLAlXBlYnSJdKsWj55zNKju_cOwWovou5ixZknkPtBrDRP0vgiOIuOu07F-LOVabYZOSpRfQAzHv8_3LKwtSkbQgbKlbnhes4hS8nQhVZROpfqQRs6LV7QxkJ2TmJpOGkQ1NMl7zW470CGns0OlLMfKLjW4Bl5AdnPS0xzCPNWZdXx9_Q6wftRtaNqe94XU4G4k-BmAMmrB8_nbXG3bF48g5tJbL4zeLIpleF2tcy_zuxksZeEEdxFoIDD-gA7OmZ9KzXCkbWr-SNwEnqCVGjKYpHoMB9VMltf-2eL-q214XPDCjTA3n9WTkWWgoZzy_mWUqEK_Sz5oVu3nsoGq7bqAf9Cn0M-64LWSjWjAYx_Zn06SwQKXCrmpGXke-J-_w-Ethhv_pPzzZAgbYo5V1lIl0hkyIvVENvvQ-HzWcyJsAYv2i_dusEleD]--></g></svg>