<svg xmlns="http://www.w3.org/2000/svg" xmlns:xlink="http://www.w3.org/1999/xlink" contentStyleType="text/css" data-diagram-type="DESCRIPTION" height="701.0417px" preserveAspectRatio="none" style="width:821px;height:701px;background:#F7F9FB;" version="1.1" viewBox="0 0 821 701" width="821.875px" zoomAndPan="magnify"><title>&lt;b&gt;&lt;color:#311b92&gt;&#127963;&#65039; PHTRS - System Architecture&lt;/color&gt;&lt;/b&gt;</title><defs><filter height="300%" id="f8i1upwoj36bk" width="300%" x="-1" y="-1"><feGaussianBlur result="blurOut" stdDeviation="2.0833"/><feColorMatrix in="blurOut" result="blurOut2" type="matrix" values="0 0 0 0 0 0 0 0 0 0 0 0 0 0 0 0 0 0 .4 0"/><feOffset dx="4.1667" dy="4.1667" in="blurOut2" result="blurOut3"/><feBlend in="SourceGraphic" in2="blurOut3" mode="normal"/></filter></defs><g><rect fill="#F7F9FB" height="701.0417" style="stroke:none;stroke-width:1.0417;" width="821.875" x="0" y="0"/><g class="title" data-source-line="2"><text fill="#311B92" font-family="Segoe UI" font-size="14.5833" font-weight="bold" lengthAdjust="spacing" textLength="252.8798" x="277.4567" y="23.9532">&#127963;&#65039; PHTRS - System Architecture</text></g><!--cluster PL--><g class="cluster" data-entity="PL" data-source-line="52" data-uid="ent0002" id="cluster_PL"><rect fill="#EDE7F6" filter="url(#f8i1upwoj36bk)" height="89.5833" rx="13.0208" ry="13.0208" style="stroke:#4527A0;stroke-width:1.0417;" width="567.7083" x="7.2917" y="46.1426"/><text fill="#311B92" font-family="Segoe UI" font-size="14.5833" font-weight="bold" lengthAdjust="spacing" textLength="170.5353" x="205.8782" y="61.7625">&#127807; Presentation Layer</text></g><!--cluster AL--><g class="cluster" data-entity="AL" data-source-line="58" data-uid="ent0006" id="cluster_AL"><rect fill="#EDE7F6" filter="url(#f8i1upwoj36bk)" height="89.5833" rx="13.0208" ry="13.0208" style="stroke:#4527A0;stroke-width:1.0417;" width="629.1667" x="30.2083" y="187.8092"/><text fill="#311B92" font-family="Segoe UI" font-size="14.5833" font-weight="bold" lengthAdjust="spacing" textLength="161.969" x="263.8072" y="203.4292">&#9881;&#65039; Application Layer</text></g><!--cluster DAL--><g class="cluster" data-entity="DAL" data-source-line="64" data-uid="ent0010" id="cluster_DAL"><rect fill="#EDE7F6" filter="url(#f8i1upwoj36bk)" height="207.2917" rx="13.0208" ry="13.0208" style="stroke:#4527A0;stroke-width:1.0417;" width="202.0833" x="263.5417" y="329.4759"/><text fill="#311B92" font-family="Segoe UI" font-size="14.5833" font-weight="bold" lengthAdjust="spacing" textLength="164.2904" x="282.4382" y="345.0958">&#128450;&#65039; Data Access Layer</text></g><!--cluster DBL--><g class="cluster" data-entity="DBL" data-source-line="69" data-uid="ent0013" id="cluster_DBL"><rect fill="#EDE7F6" filter="url(#f8i1upwoj36bk)" height="100" rx="13.0208" ry="13.0208" style="stroke:#4527A0;stroke-width:1.0417;" width="659.375" x="86.4583" y="588.8509"/><text fill="#311B92" font-family="Segoe UI" font-size="14.5833" font-weight="bold" lengthAdjust="spacing" textLength="142.2373" x="345.0272" y="604.4708">&#129521; Database Layer</text></g><!--entity CWI--><g class="entity" data-entity="CWI" data-source-line="53" data-uid="ent0003" id="entity_CWI"><rect fill="#E3F2FD" filter="url(#f8i1upwoj36bk)" height="36.5967" rx="13.0208" ry="13.0208" style="stroke:#90A4AE;stroke-width:1.25;" width="192.6697" x="23.4375" y="82.6009"/><text fill="#263238" font-family="Segoe UI" font-size="13.5417" lengthAdjust="spacing" textLength="171.8363" x="33.8542" y="105.5873">&#128105;&#8205;&#128187; Citizen Web Interface</text></g><!--entity SD--><g class="entity" data-entity="SD" data-source-line="54" data-uid="ent0004" id="entity_SD"><rect fill="#C8E6C9" filter="url(#f8i1upwoj36bk)" height="36.5967" rx="13.0208" ry="13.0208" style="stroke:#90A4AE;stroke-width:1.25;" width="151.1388" x="252.6042" y="82.6009"/><text fill="#263238" font-family="Segoe UI" font-size="13.5417" lengthAdjust="spacing" textLength="130.3055" x="263.0208" y="105.5873">&#129489;&#8205;&#128188; Staff Dashboard</text></g><!--entity AP--><g class="entity" data-entity="AP" data-source-line="55" data-uid="ent0005" id="entity_AP"><rect fill="#EDE7F6" filter="url(#f8i1upwoj36bk)" height="36.5967" rx="13.0208" ry="13.0208" style="stroke:#90A4AE;stroke-width:1.25;" width="118.1046" x="440.1042" y="82.6009"/><text fill="#263238" font-family="Segoe UI" font-size="13.5417" lengthAdjust="spacing" textLength="97.2712" x="450.5208" y="105.5873">&#127963;&#65039; Admin Panel</text></g><!--entity RC--><g class="entity" data-entity="RC" data-source-line="59" data-uid="ent0007" id="entity_RC"><rect fill="#FFF9C4" filter="url(#f8i1upwoj36bk)" height="36.5967" rx="13.0208" ry="13.0208" style="stroke:#90A4AE;stroke-width:1.25;" width="145.6706" x="46.875" y="224.2676"/><text fill="#263238" font-family="Segoe UI" font-size="13.5417" lengthAdjust="spacing" textLength="124.8372" x="57.2917" y="247.2539">&#128226; ReportController</text></g><!--entity WOC--><g class="entity" data-entity="WOC" data-source-line="60" data-uid="ent0008" id="entity_WOC"><rect fill="#FFE0B2" filter="url(#f8i1upwoj36bk)" height="36.5967" rx="13.0208" ry="13.0208" style="stroke:#90A4AE;stroke-width:1.25;" width="173.9772" x="229.6875" y="224.2676"/><text fill="#263238" font-family="Segoe UI" font-size="13.5417" lengthAdjust="spacing" textLength="153.1438" x="240.1042" y="247.2539">&#129534; WorkOrderController</text></g><!--entity DRC--><g class="entity" data-entity="DRC" data-source-line="61" data-uid="ent0009" id="entity_DRC"><rect fill="#F0F4C3" filter="url(#f8i1upwoj36bk)" height="36.5967" rx="13.0208" ry="13.0208" style="stroke:#90A4AE;stroke-width:1.25;" width="202.8127" x="440.1042" y="224.2676"/><text fill="#263238" font-family="Segoe UI" font-size="13.5417" lengthAdjust="spacing" textLength="181.9794" x="450.5208" y="247.2539">&#128172; DamageReportController</text></g><!--entity DBC--><g class="entity" data-entity="DBC" data-source-line="65" data-uid="ent0011" id="entity_DBC"><rect fill="#EDE7F6" filter="url(#f8i1upwoj36bk)" height="36.5967" rx="13.0208" ry="13.0208" style="stroke:#90A4AE;stroke-width:1.25;" width="167.7221" x="280.7292" y="483.6426"/><text fill="#263238" font-family="Segoe UI" font-size="13.5417" lengthAdjust="spacing" textLength="146.8887" x="291.1458" y="506.6289">&#128268; DatabaseConnector</text></g><!--entity DM--><g class="entity" data-entity="DM" data-source-line="66" data-uid="ent0012" id="entity_DM"><rect fill="#C8E6C9" filter="url(#f8i1upwoj36bk)" height="36.5967" rx="13.0208" ry="13.0208" style="stroke:#90A4AE;stroke-width:1.25;" width="124.9547" x="280.2083" y="365.9342"/><text fill="#263238" font-family="Segoe UI" font-size="13.5417" lengthAdjust="spacing" textLength="104.1214" x="290.625" y="388.9206">&#128190; DataManager</text></g><!--entity PDB--><g class="entity" data-entity="PDB" data-source-line="70" data-uid="ent0014" id="entity_PDB"><path d="M103.125,635.7259 C103.125,625.3092 158.164,625.3092 158.164,625.3092 C158.164,625.3092 213.2029,625.3092 213.2029,635.7259 L213.2029,662.0768 C213.2029,672.4935 158.164,672.4935 158.164,672.4935 C158.164,672.4935 103.125,672.4935 103.125,662.0768 L103.125,635.7259" fill="#E3F2FD" filter="url(#f8i1upwoj36bk)" style="stroke:#2E7D32;stroke-width:0.5208;"/><path d="M103.125,635.7259 C103.125,646.1426 158.164,646.1426 158.164,646.1426 C158.164,646.1426 213.2029,646.1426 213.2029,635.7259" fill="none" style="stroke:#2E7D32;stroke-width:0.5208;"/><text fill="#1B5E20" font-family="Segoe UI" font-size="14.5833" lengthAdjust="spacing" textLength="89.2446" x="113.5417" y="663.8458">&#128202; PotholeDB</text></g><!--entity WODB--><g class="entity" data-entity="WODB" data-source-line="71" data-uid="ent0015" id="entity_WODB"><path d="M250,635.7259 C250,625.3092 317.4683,625.3092 317.4683,625.3092 C317.4683,625.3092 384.9365,625.3092 384.9365,635.7259 L384.9365,662.0768 C384.9365,672.4935 317.4683,672.4935 317.4683,672.4935 C317.4683,672.4935 250,672.4935 250,662.0768 L250,635.7259" fill="#EDE7F6" filter="url(#f8i1upwoj36bk)" style="stroke:#2E7D32;stroke-width:0.5208;"/><path d="M250,635.7259 C250,646.1426 317.4683,646.1426 317.4683,646.1426 C317.4683,646.1426 384.9365,646.1426 384.9365,635.7259" fill="none" style="stroke:#2E7D32;stroke-width:0.5208;"/><text fill="#1B5E20" font-family="Segoe UI" font-size="14.5833" lengthAdjust="spacing" textLength="114.1032" x="260.4167" y="663.8458">&#128193; WorkOrderDB</text></g><!--entity CDB--><g class="entity" data-entity="CDB" data-source-line="72" data-uid="ent0016" id="entity_CDB"><path d="M422.3958,635.7259 C422.3958,625.3092 475.06,625.3092 475.06,625.3092 C475.06,625.3092 527.7242,625.3092 527.7242,635.7259 L527.7242,662.0768 C527.7242,672.4935 475.06,672.4935 475.06,672.4935 C475.06,672.4935 422.3958,672.4935 422.3958,662.0768 L422.3958,635.7259" fill="#C8E6C9" filter="url(#f8i1upwoj36bk)" style="stroke:#2E7D32;stroke-width:0.5208;"/><path d="M422.3958,635.7259 C422.3958,646.1426 475.06,646.1426 475.06,646.1426 C475.06,646.1426 527.7242,646.1426 527.7242,635.7259" fill="none" style="stroke:#2E7D32;stroke-width:0.5208;"/><text fill="#1B5E20" font-family="Segoe UI" font-size="14.5833" lengthAdjust="spacing" textLength="84.495" x="432.8125" y="663.8458">&#128101; CitizenDB</text></g><!--entity DRDB--><g class="entity" data-entity="DRDB" data-source-line="73" data-uid="ent0017" id="entity_DRDB"><path d="M564.0625,635.7259 C564.0625,625.3092 647.0576,625.3092 647.0576,625.3092 C647.0576,625.3092 730.0527,625.3092 730.0527,635.7259 L730.0527,662.0768 C730.0527,672.4935 647.0576,672.4935 647.0576,672.4935 C647.0576,672.4935 564.0625,672.4935 564.0625,662.0768 L564.0625,635.7259" fill="#FFF9C4" filter="url(#f8i1upwoj36bk)" style="stroke:#2E7D32;stroke-width:0.5208;"/><path d="M564.0625,635.7259 C564.0625,646.1426 647.0576,646.1426 647.0576,646.1426 C647.0576,646.1426 730.0527,646.1426 730.0527,635.7259" fill="none" style="stroke:#2E7D32;stroke-width:0.5208;"/><text fill="#1B5E20" font-family="Segoe UI" font-size="14.5833" lengthAdjust="spacing" textLength="145.1569" x="574.4792" y="663.8458">&#128196; DamageReportDB</text></g><!--link CWI to RC--><g class="link" data-entity-1="CWI" data-entity-2="RC" data-source-line="77" data-uid="lnk18" id="link_CWI_RC"><path d="M119.7917,119.2676 C119.7917,146.0176 119.7917,190.7155 119.7917,217.5905" fill="none" id="CWI-to-RC" style="stroke:#455A64;stroke-width:1.5625;"/><polygon fill="#455A64" points="119.7917,223.8405,123.9583,214.4655,119.7917,218.6322,115.625,214.4655,119.7917,223.8405" style="stroke:#455A64;stroke-width:1.5625;"/><text fill="#000000" font-family="Segoe UI" font-size="14.5833" lengthAdjust="spacing" textLength="108.257" x="120.8333" y="166.9708">Report Pothole</text></g><!--link SD to WOC--><g class="link" data-entity-1="SD" data-entity-2="WOC" data-source-line="78" data-uid="lnk19" id="link_SD_WOC"><path d="M326.6979,119.2676 C324.5,146.0176 320.8348,190.7365 318.6264,217.6115" fill="none" id="SD-to-WOC" style="stroke:#455A64;stroke-width:1.5625;"/><polygon fill="#455A64" points="318.1146,223.8405,323.035,214.8382,318.5411,218.6497,314.7297,214.1558,318.1146,223.8405" style="stroke:#455A64;stroke-width:1.5625;"/><text fill="#000000" font-family="Segoe UI" font-size="14.5833" lengthAdjust="spacing" textLength="154.2786" x="325" y="166.9708">Manage Work Orders</text></g><!--link AP to DRC--><g class="link" data-entity-1="AP" data-entity-2="DRC" data-source-line="79" data-uid="lnk20" id="link_AP_DRC"><path d="M504.2813,119.2676 C512.4688,146.0176 526.2222,190.9894 534.4514,217.8644" fill="none" id="AP-to-DRC" style="stroke:#455A64;stroke-width:1.5625;"/><polygon fill="#455A64" points="536.2813,223.8405,537.5205,213.6564,534.7563,218.8604,529.5523,216.0962,536.2813,223.8405" style="stroke:#455A64;stroke-width:1.5625;"/><text fill="#000000" font-family="Segoe UI" font-size="14.5833" lengthAdjust="spacing" textLength="162.3322" x="520.8333" y="166.9708">View Damage Reports</text></g><!--link RC to DM--><g class="link" data-entity-1="RC" data-entity-2="DM" data-source-line="81" data-uid="lnk21" id="link_RC_DM"><path d="M118.9063,260.7259 C119.0417,276.1738 121.7188,298.5697 134.375,312.8092 C171.1354,354.1842 226.9129,370.3198 273.7254,377.3406" fill="none" id="RC-to-DM" style="stroke:#455A64;stroke-width:1.5625;"/><polygon fill="#455A64" points="279.9063,378.2676,271.2529,372.7565,274.7555,377.4951,270.0169,380.9977,279.9063,378.2676" style="stroke:#455A64;stroke-width:1.5625;"/><text fill="#000000" font-family="Segoe UI" font-size="14.5833" lengthAdjust="spacing" textLength="182.8328" x="135.4167" y="308.6375">Store/Fetch Pothole Data</text></g><!--link WOC to DM--><g class="link" data-entity-1="WOC" data-entity-2="DM" data-source-line="82" data-uid="lnk22" id="link_WOC_DM"><path d="M319.9167,260.9342 C324.9063,287.6842 333.2585,332.4885 338.2793,359.3635" fill="none" id="WOC-to-DM" style="stroke:#455A64;stroke-width:1.5625;"/><polygon fill="#455A64" points="339.4271,365.5072,341.8012,355.5264,338.4706,360.3874,333.6096,357.0568,339.4271,365.5072" style="stroke:#455A64;stroke-width:1.5625;"/><text fill="#000000" font-family="Segoe UI" font-size="14.5833" lengthAdjust="spacing" textLength="155.9021" x="330.2083" y="308.6375">Update Repair Status</text></g><!--link DRC to DM--><g class="link" data-entity-1="DRC" data-entity-2="DM" data-source-line="83" data-uid="lnk23" id="link_DRC_DM"><path d="M533.3854,260.8717 C525.3333,276.2051 511.8333,298.3301 494.7917,312.8092 C466.5313,336.8301 434.5514,352.1705 403.6868,363.7226" fill="none" id="DRC-to-DM" style="stroke:#455A64;stroke-width:1.5625;"/><polygon fill="#455A64" points="397.8333,365.9134,408.074,366.5294,402.7112,364.0877,405.1529,358.7249,397.8333,365.9134" style="stroke:#455A64;stroke-width:1.5625;"/><text fill="#000000" font-family="Segoe UI" font-size="14.5833" lengthAdjust="spacing" textLength="185.3322" x="513.5417" y="308.6375">Manage Damage Reports</text></g><!--link DM to DBC--><g class="link" data-entity-1="DM" data-entity-2="DBC" data-source-line="85" data-uid="lnk24" id="link_DM_DBC"><path d="M346.0313,402.7676 C350.1667,424.6217 356.0263,455.5847 360.1409,477.3451" fill="none" id="DM-to-DBC" style="stroke:#455A64;stroke-width:1.5625;"/><polygon fill="#455A64" points="361.3021,483.4863,363.6544,473.5004,360.3344,478.3687,355.4661,475.0487,361.3021,483.4863" style="stroke:#455A64;stroke-width:1.5625;"/><text fill="#000000" font-family="Segoe UI" font-size="14.5833" lengthAdjust="spacing" textLength="119.7144" x="356.25" y="448.2208">Execute Queries</text></g><!--link DBC to PDB--><g class="link" data-entity-1="DBC" data-entity-2="PDB" data-source-line="86" data-uid="lnk25" id="link_DBC_PDB"><path d="M280.6354,508.4238 C215.4583,514.653 132.6979,527.5384 111.4583,553.4342 C93.6042,575.1947 109.8883,600.366 129.1279,620.5743" fill="none" id="DBC-to-PDB" style="stroke:#455A64;stroke-width:1.5625;"/><polygon fill="#455A64" points="133.4375,625.1009,129.9908,615.438,129.8462,621.3288,123.9554,621.1841,133.4375,625.1009" style="stroke:#455A64;stroke-width:1.5625;"/><text fill="#000000" font-family="Segoe UI" font-size="14.5833" lengthAdjust="spacing" textLength="172.9706" x="112.5" y="568.0125">Access Pothole Records</text></g><!--link DBC to WODB--><g class="link" data-entity-1="DBC" data-entity-2="WODB" data-source-line="87" data-uid="lnk26" id="link_DBC_WODB"><path d="M330.6771,520.3092 C318.3333,528.5384 305.75,539.6322 298.9583,553.4342 C287.7604,576.1947 293.8967,599.4672 302.8238,619.238" fill="none" id="DBC-to-WODB" style="stroke:#455A64;stroke-width:1.5625;"/><polygon fill="#455A64" points="305.3958,624.9342,305.3353,614.6752,303.2525,620.1874,297.7403,618.1045,305.3958,624.9342" style="stroke:#455A64;stroke-width:1.5625;"/><text fill="#000000" font-family="Segoe UI" font-size="14.5833" lengthAdjust="spacing" textLength="146.5312" x="300" y="568.0125">Access Work Orders</text></g><!--link DBC to CDB--><g class="link" data-entity-1="DBC" data-entity-2="CDB" data-source-line="88" data-uid="lnk27" id="link_DBC_CDB"><path d="M408.7708,520.153 C424.1667,528.153 440.2708,539.1322 451.0417,553.4342 C466.7917,574.3405 471.6879,598.2721 473.542,618.8033" fill="none" id="DBC-to-CDB" style="stroke:#455A64;stroke-width:1.5625;"/><polygon fill="#455A64" points="474.1042,625.028,477.4107,615.3162,473.6357,619.8408,469.1112,616.0658,474.1042,625.028" style="stroke:#455A64;stroke-width:1.5625;"/><text fill="#000000" font-family="Segoe UI" font-size="14.5833" lengthAdjust="spacing" textLength="151.7436" x="463.5417" y="568.0125">Access Citizens Data</text></g><!--link DBC to DRDB--><g class="link" data-entity-1="DBC" data-entity-2="DRDB" data-source-line="89" data-uid="lnk28" id="link_DBC_DRDB"><path d="M448.6979,509.5384 C514.5833,516.4551 599.1146,529.7155 623.9583,553.4342 C643.2083,571.8092 647.309,597.1645 647.7153,618.6645" fill="none" id="DBC-to-DRDB" style="stroke:#455A64;stroke-width:1.5625;"/><polygon fill="#455A64" points="647.8333,624.9134,651.8221,615.4614,647.7349,619.706,643.4903,615.6188,647.8333,624.9134" style="stroke:#455A64;stroke-width:1.5625;"/><text fill="#000000" font-family="Segoe UI" font-size="14.5833" lengthAdjust="spacing" textLength="177.5848" x="636.4583" y="568.0125">Access Damage Reports</text></g><!--SRC=[VLLDRzj64BtpLqpjGqwg9Kgs8yCG855ERC2ELKcfpajoA16cTeNbgevJ56YBd88KWTC2HTk3WG95KA2NtWgqIFzB_a3z4pgx_D2ILUgJiVDcvhqtCzG3kBzxzJSyEJdjm_JqvE846Z36AEOOWYT4qfWAZd1wuyiuXEa2bmYHa32vIHKkeI-3HQmmK6k9ZefLWd3izuu3aGXvjDjkjVoksxk_U_tJFt-yXj7fT3oXybjoZ_TCIkzup-yvZX8hK09yePHOGXXB0iM2E-bLp5TCiYNuBBYQIx7ceQVpO3SwZBgHRo7I1Gl5TSpdeEGQhO392eJaAC7Tjm9zASLrNgwplyyEElNWT147LnpJ55eVsvc1MAx89QucweOSq7GPdoTsrt0LGwlPj5ymOkj4FH9SFM7awiu4vmBXwTdETj0aVexGwZZE0sWqz8po9g2RQftqQiiiuvyx08EwNnZYONIW8qA6A4lPxY5hqgjkcBzbGypVCe6-I49w66Vr2YS19bNFloYuUeK_7-1Q-hUTQsJ-wboxJTPXMENg7hJTziE2gp6i_LzUHI5xdEw6xP0fvhFqGyQ6HNYxh-t8ZS8wLnSFmxPRvThozz5j_ezh_I3GbXXuQexkdDqW_QlvV1IQ6uN74f4Fn3FO3HxYGT0j0-ViC-J4mCJoQHUnGRB6x3rZMxnx4jdI1CZlRj0f0oDamI8FODDtoy14HEenRKCMQqQTe5tGjyXkTd77V6n64bEInlHHPxWTO2cCpesdcsqWzEslxx_yvlxkpP_WnOe6oc66FfnnXJ9Y0PeyRtPc6Lz9VtkRfVz5msHHHBDD5xvWCZI9as5fMoql-s3rmsNCOSGu9WRV7vLMqfGiLUz__C7WLwia3kgo-bjaVVip7V1AI5e6hgH8aXmxzahlwqhUmKp8gyjigof9iqkl74mjwyrl97d9vhYrsz2qowPM5NH_z_tNMf6-1RE8T2GRHSDjahvxLLuEjU5KI-JeWMTzRwhqtfcS2yQ9Oew-A6TIf_JszyrjMcG66PdoBhMzBs4ar48aE1nagpKSM2jIWNwryJK7pouDkc1iesz_AVOmnteQMkvGfV2BYlKvVZZM2Vc8hG-aCOps9WKVrJNTj7q_Ui4RZPxUZgDyRmfz3ksm3kaTE8BCI2C8ZABKePtLyQ79_JJ6wvnLNYTr78eOn0K19ZGqt7k4AbWK7OpdZgvVefwkIAYfm6AfBqkjKsTeryc9r5jHp406cip9CmpMLEQJDSeOgS0WAw1dTLGiNK62VkxeWxe1cHcLA5jmWV1iG3wqD1DJGCmmIaoLxBy0]--></g></svg>