<svg xmlns="http://www.w3.org/2000/svg" xmlns:xlink="http://www.w3.org/1999/xlink" contentStyleType="text/css" data-diagram-type="DESCRIPTION" height="701.0417px" preserveAspectRatio="none" style="width:819px;height:701px;background:#F5F7FA;" version="1.1" viewBox="0 0 819 701" width="819.7917px" zoomAndPan="magnify"><title>&lt;b&gt;&lt;color:#0d47a1&gt;&#129513; PHTRS - System Architecture&lt;/color&gt;&lt;/b&gt;</title><defs><filter height="300%" id="f1g5gt8wmx43tn" width="300%" x="-1" y="-1"><feGaussianBlur result="blurOut" stdDeviation="2.0833"/><feColorMatrix in="blurOut" result="blurOut2" type="matrix" values="0 0 0 0 0 0 0 0 0 0 0 0 0 0 0 0 0 0 .4 0"/><feOffset dx="4.1667" dy="4.1667" in="blurOut2" result="blurOut3"/><feBlend in="SourceGraphic" in2="blurOut3" mode="normal"/></filter></defs><g><rect fill="#F5F7FA" height="701.0417" style="stroke:none;stroke-width:1.0417;" width="819.7917" x="0" y="0"/><g class="title" data-source-line="3"><text fill="#0D47A1" font-family="Segoe UI" font-size="14.5833" font-weight="bold" lengthAdjust="spacing" textLength="252.8798" x="276.415" y="23.9532">&#129513; PHTRS - System Architecture</text></g><!--cluster PL--><g class="cluster" data-entity="PL" data-source-line="55" data-uid="ent0002" id="cluster_PL"><rect fill="#E3F2FD" filter="url(#f1g5gt8wmx43tn)" height="89.5833" rx="13.0208" ry="13.0208" style="stroke:#1E88E5;stroke-width:1.0417;" width="551.0417" x="7.2917" y="46.1426"/><text fill="#0D47A1" font-family="Segoe UI" font-size="14.5833" font-weight="bold" lengthAdjust="spacing" textLength="170.5353" x="197.5449" y="61.7625">&#128160; Presentation Layer</text></g><!--cluster AL--><g class="cluster" data-entity="AL" data-source-line="61" data-uid="ent0006" id="cluster_AL"><rect fill="#E3F2FD" filter="url(#f1g5gt8wmx43tn)" height="89.5833" rx="13.0208" ry="13.0208" style="stroke:#1E88E5;stroke-width:1.0417;" width="629.1667" x="26.0417" y="187.8092"/><text fill="#0D47A1" font-family="Segoe UI" font-size="14.5833" font-weight="bold" lengthAdjust="spacing" textLength="161.969" x="259.6405" y="203.4292">&#9881;&#65039; Application Layer</text></g><!--cluster DAL--><g class="cluster" data-entity="DAL" data-source-line="67" data-uid="ent0010" id="cluster_DAL"><rect fill="#E3F2FD" filter="url(#f1g5gt8wmx43tn)" height="207.2917" rx="13.0208" ry="13.0208" style="stroke:#1E88E5;stroke-width:1.0417;" width="202.0833" x="259.375" y="329.4759"/><text fill="#0D47A1" font-family="Segoe UI" font-size="14.5833" font-weight="bold" lengthAdjust="spacing" textLength="164.2904" x="278.2715" y="345.0958">&#128450;&#65039; Data Access Layer</text></g><!--cluster DBL--><g class="cluster" data-entity="DBL" data-source-line="72" data-uid="ent0013" id="cluster_DBL"><rect fill="#E3F2FD" filter="url(#f1g5gt8wmx43tn)" height="100" rx="13.0208" ry="13.0208" style="stroke:#1E88E5;stroke-width:1.0417;" width="659.375" x="84.375" y="588.8509"/><text fill="#0D47A1" font-family="Segoe UI" font-size="14.5833" font-weight="bold" lengthAdjust="spacing" textLength="142.2373" x="342.9438" y="604.4708">&#129521; Database Layer</text></g><!--entity CWI--><g class="entity" data-entity="CWI" data-source-line="56" data-uid="ent0003" id="entity_CWI"><rect fill="#BBDEFB" filter="url(#f1g5gt8wmx43tn)" height="36.5967" rx="13.0208" ry="13.0208" style="stroke:#9FA8DA;stroke-width:1.25;" width="184.5434" x="23.4375" y="82.6009"/><text fill="#1A237E" font-family="Segoe UI" font-size="13.5417" lengthAdjust="spacing" textLength="163.71" x="33.8542" y="105.5873">&#127760; Citizen Web Interface</text></g><!--entity SD--><g class="entity" data-entity="SD" data-source-line="57" data-uid="ent0004" id="entity_SD"><rect fill="#EDE7F6" filter="url(#f1g5gt8wmx43tn)" height="36.5967" rx="13.0208" ry="13.0208" style="stroke:#9FA8DA;stroke-width:1.25;" width="143.0125" x="244.2708" y="82.6009"/><text fill="#1A237E" font-family="Segoe UI" font-size="13.5417" lengthAdjust="spacing" textLength="122.1792" x="254.6875" y="105.5873">&#128421;&#65039; Staff Dashboard</text></g><!--entity AP--><g class="entity" data-entity="AP" data-source-line="58" data-uid="ent0005" id="entity_AP"><rect fill="#C8E6C9" filter="url(#f1g5gt8wmx43tn)" height="36.5967" rx="13.0208" ry="13.0208" style="stroke:#9FA8DA;stroke-width:1.25;" width="118.1046" x="423.4375" y="82.6009"/><text fill="#1A237E" font-family="Segoe UI" font-size="13.5417" lengthAdjust="spacing" textLength="97.2712" x="433.8542" y="105.5873">&#127963;&#65039; Admin Panel</text></g><!--entity RC--><g class="entity" data-entity="RC" data-source-line="62" data-uid="ent0007" id="entity_RC"><rect fill="#FFF59D" filter="url(#f1g5gt8wmx43tn)" height="36.5967" rx="13.0208" ry="13.0208" style="stroke:#9FA8DA;stroke-width:1.25;" width="145.6706" x="42.7083" y="224.2676"/><text fill="#1A237E" font-family="Segoe UI" font-size="13.5417" lengthAdjust="spacing" textLength="124.8372" x="53.125" y="247.2539">&#128226; ReportController</text></g><!--entity WOC--><g class="entity" data-entity="WOC" data-source-line="63" data-uid="ent0008" id="entity_WOC"><rect fill="#F3E5F5" filter="url(#f1g5gt8wmx43tn)" height="36.5967" rx="13.0208" ry="13.0208" style="stroke:#9FA8DA;stroke-width:1.25;" width="173.9772" x="225.5208" y="224.2676"/><text fill="#1A237E" font-family="Segoe UI" font-size="13.5417" lengthAdjust="spacing" textLength="153.1438" x="235.9375" y="247.2539">&#129534; WorkOrderController</text></g><!--entity DRC--><g class="entity" data-entity="DRC" data-source-line="64" data-uid="ent0009" id="entity_DRC"><rect fill="#DCEDC8" filter="url(#f1g5gt8wmx43tn)" height="36.5967" rx="13.0208" ry="13.0208" style="stroke:#9FA8DA;stroke-width:1.25;" width="202.8127" x="435.9375" y="224.2676"/><text fill="#1A237E" font-family="Segoe UI" font-size="13.5417" lengthAdjust="spacing" textLength="181.9794" x="446.3542" y="247.2539">&#128172; DamageReportController</text></g><!--entity DBC--><g class="entity" data-entity="DBC" data-source-line="68" data-uid="ent0011" id="entity_DBC"><rect fill="#F0F4C3" filter="url(#f1g5gt8wmx43tn)" height="36.5967" rx="13.0208" ry="13.0208" style="stroke:#9FA8DA;stroke-width:1.25;" width="167.7221" x="276.5625" y="483.6426"/><text fill="#1A237E" font-family="Segoe UI" font-size="13.5417" lengthAdjust="spacing" textLength="146.8887" x="286.9792" y="506.6289">&#128268; DatabaseConnector</text></g><!--entity DM--><g class="entity" data-entity="DM" data-source-line="69" data-uid="ent0012" id="entity_DM"><rect fill="#FFCCBC" filter="url(#f1g5gt8wmx43tn)" height="36.5967" rx="13.0208" ry="13.0208" style="stroke:#9FA8DA;stroke-width:1.25;" width="124.9547" x="276.0417" y="365.9342"/><text fill="#1A237E" font-family="Segoe UI" font-size="13.5417" lengthAdjust="spacing" textLength="104.1214" x="286.4583" y="388.9206">&#128190; DataManager</text></g><!--entity PDB--><g class="entity" data-entity="PDB" data-source-line="73" data-uid="ent0014" id="entity_PDB"><path d="M101.0417,635.7259 C101.0417,625.3092 156.0806,625.3092 156.0806,625.3092 C156.0806,625.3092 211.1196,625.3092 211.1196,635.7259 L211.1196,662.0768 C211.1196,672.4935 156.0806,672.4935 156.0806,672.4935 C156.0806,672.4935 101.0417,672.4935 101.0417,662.0768 L101.0417,635.7259" fill="#BBDEFB" filter="url(#f1g5gt8wmx43tn)" style="stroke:#3F51B5;stroke-width:0.5208;"/><path d="M101.0417,635.7259 C101.0417,646.1426 156.0806,646.1426 156.0806,646.1426 C156.0806,646.1426 211.1196,646.1426 211.1196,635.7259" fill="none" style="stroke:#3F51B5;stroke-width:0.5208;"/><text fill="#1A237E" font-family="Segoe UI" font-size="14.5833" lengthAdjust="spacing" textLength="89.2446" x="111.4583" y="663.8458">&#128202; PotholeDB</text></g><!--entity WODB--><g class="entity" data-entity="WODB" data-source-line="74" data-uid="ent0015" id="entity_WODB"><path d="M247.9167,635.7259 C247.9167,625.3092 315.3849,625.3092 315.3849,625.3092 C315.3849,625.3092 382.8532,625.3092 382.8532,635.7259 L382.8532,662.0768 C382.8532,672.4935 315.3849,672.4935 315.3849,672.4935 C315.3849,672.4935 247.9167,672.4935 247.9167,662.0768 L247.9167,635.7259" fill="#EDE7F6" filter="url(#f1g5gt8wmx43tn)" style="stroke:#3F51B5;stroke-width:0.5208;"/><path d="M247.9167,635.7259 C247.9167,646.1426 315.3849,646.1426 315.3849,646.1426 C315.3849,646.1426 382.8532,646.1426 382.8532,635.7259" fill="none" style="stroke:#3F51B5;stroke-width:0.5208;"/><text fill="#1A237E" font-family="Segoe UI" font-size="14.5833" lengthAdjust="spacing" textLength="114.1032" x="258.3333" y="663.8458">&#128193; WorkOrderDB</text></g><!--entity CDB--><g class="entity" data-entity="CDB" data-source-line="75" data-uid="ent0016" id="entity_CDB"><path d="M420.3125,635.7259 C420.3125,625.3092 472.9767,625.3092 472.9767,625.3092 C472.9767,625.3092 525.6409,625.3092 525.6409,635.7259 L525.6409,662.0768 C525.6409,672.4935 472.9767,672.4935 472.9767,672.4935 C472.9767,672.4935 420.3125,672.4935 420.3125,662.0768 L420.3125,635.7259" fill="#C8E6C9" filter="url(#f1g5gt8wmx43tn)" style="stroke:#3F51B5;stroke-width:0.5208;"/><path d="M420.3125,635.7259 C420.3125,646.1426 472.9767,646.1426 472.9767,646.1426 C472.9767,646.1426 525.6409,646.1426 525.6409,635.7259" fill="none" style="stroke:#3F51B5;stroke-width:0.5208;"/><text fill="#1A237E" font-family="Segoe UI" font-size="14.5833" lengthAdjust="spacing" textLength="84.495" x="430.7292" y="663.8458">&#128101; CitizenDB</text></g><!--entity DRDB--><g class="entity" data-entity="DRDB" data-source-line="76" data-uid="ent0017" id="entity_DRDB"><path d="M561.9792,635.7259 C561.9792,625.3092 644.9743,625.3092 644.9743,625.3092 C644.9743,625.3092 727.9694,625.3092 727.9694,635.7259 L727.9694,662.0768 C727.9694,672.4935 644.9743,672.4935 644.9743,672.4935 C644.9743,672.4935 561.9792,672.4935 561.9792,662.0768 L561.9792,635.7259" fill="#FFF59D" filter="url(#f1g5gt8wmx43tn)" style="stroke:#3F51B5;stroke-width:0.5208;"/><path d="M561.9792,635.7259 C561.9792,646.1426 644.9743,646.1426 644.9743,646.1426 C644.9743,646.1426 727.9694,646.1426 727.9694,635.7259" fill="none" style="stroke:#3F51B5;stroke-width:0.5208;"/><text fill="#1A237E" font-family="Segoe UI" font-size="14.5833" lengthAdjust="spacing" textLength="145.1569" x="572.3958" y="663.8458">&#128196; DamageReportDB</text></g><!--link CWI to RC--><g class="link" data-entity-1="CWI" data-entity-2="RC" data-source-line="80" data-uid="lnk18" id="link_CWI_RC"><path d="M115.625,119.2676 C115.625,146.0176 115.625,190.7155 115.625,217.5905" fill="none" id="CWI-to-RC" style="stroke:#37474F;stroke-width:1.5625;"/><polygon fill="#37474F" points="115.625,223.8405,119.7917,214.4655,115.625,218.6322,111.4583,214.4655,115.625,223.8405" style="stroke:#37474F;stroke-width:1.5625;"/><text fill="#000000" font-family="Segoe UI" font-size="14.5833" lengthAdjust="spacing" textLength="108.257" x="116.6667" y="166.9708">Report Pothole</text></g><!--link SD to WOC--><g class="link" data-entity-1="SD" data-entity-2="WOC" data-source-line="81" data-uid="lnk19" id="link_SD_WOC"><path d="M315.2396,119.2676 C314.6354,146.0176 313.6405,190.7171 313.0363,217.5921" fill="none" id="SD-to-WOC" style="stroke:#37474F;stroke-width:1.5625;"/><polygon fill="#37474F" points="312.8958,223.8405,317.2722,214.5615,313.0129,218.6335,308.9409,214.3742,312.8958,223.8405" style="stroke:#37474F;stroke-width:1.5625;"/><text fill="#000000" font-family="Segoe UI" font-size="14.5833" lengthAdjust="spacing" textLength="154.2786" x="315.625" y="166.9708">Manage Work Orders</text></g><!--link AP to DRC--><g class="link" data-entity-1="AP" data-entity-2="DRC" data-source-line="82" data-uid="lnk20" id="link_AP_DRC"><path d="M489.1771,119.2676 C499.75,146.0176 517.6084,191.1532 528.2334,218.0282" fill="none" id="AP-to-DRC" style="stroke:#37474F;stroke-width:1.5625;"/><polygon fill="#37474F" points="530.5313,223.8405,530.9593,213.5902,528.6164,218.9969,523.2096,216.654,530.5313,223.8405" style="stroke:#37474F;stroke-width:1.5625;"/><text fill="#000000" font-family="Segoe UI" font-size="14.5833" lengthAdjust="spacing" textLength="162.3322" x="509.375" y="166.9708">View Damage Reports</text></g><!--link RC to DM--><g class="link" data-entity-1="RC" data-entity-2="DM" data-source-line="84" data-uid="lnk21" id="link_RC_DM"><path d="M114.7396,260.7259 C114.875,276.1738 117.5521,298.5697 130.2083,312.8092 C166.9688,354.1842 222.7462,370.3198 269.5587,377.3406" fill="none" id="RC-to-DM" style="stroke:#37474F;stroke-width:1.5625;"/><polygon fill="#37474F" points="275.7396,378.2676,267.0863,372.7565,270.5889,377.4951,265.8503,380.9977,275.7396,378.2676" style="stroke:#37474F;stroke-width:1.5625;"/><text fill="#000000" font-family="Segoe UI" font-size="14.5833" lengthAdjust="spacing" textLength="182.8328" x="131.25" y="308.6375">Store/Fetch Pothole Data</text></g><!--link WOC to DM--><g class="link" data-entity-1="WOC" data-entity-2="DM" data-source-line="85" data-uid="lnk22" id="link_WOC_DM"><path d="M315.75,260.9342 C320.7396,287.6842 329.0918,332.4885 334.1126,359.3635" fill="none" id="WOC-to-DM" style="stroke:#37474F;stroke-width:1.5625;"/><polygon fill="#37474F" points="335.2604,365.5072,337.6346,355.5264,334.3039,360.3874,329.4429,357.0568,335.2604,365.5072" style="stroke:#37474F;stroke-width:1.5625;"/><text fill="#000000" font-family="Segoe UI" font-size="14.5833" lengthAdjust="spacing" textLength="155.9021" x="326.0417" y="308.6375">Update Repair Status</text></g><!--link DRC to DM--><g class="link" data-entity-1="DRC" data-entity-2="DM" data-source-line="86" data-uid="lnk23" id="link_DRC_DM"><path d="M529.2188,260.8717 C521.1667,276.2051 507.6667,298.3301 490.625,312.8092 C462.3646,336.8301 430.3847,352.1705 399.5201,363.7226" fill="none" id="DRC-to-DM" style="stroke:#37474F;stroke-width:1.5625;"/><polygon fill="#37474F" points="393.6667,365.9134,403.9074,366.5294,398.5445,364.0877,400.9863,358.7249,393.6667,365.9134" style="stroke:#37474F;stroke-width:1.5625;"/><text fill="#000000" font-family="Segoe UI" font-size="14.5833" lengthAdjust="spacing" textLength="185.3322" x="509.375" y="308.6375">Manage Damage Reports</text></g><!--link DM to DBC--><g class="link" data-entity-1="DM" data-entity-2="DBC" data-source-line="88" data-uid="lnk24" id="link_DM_DBC"><path d="M341.8646,402.7676 C346,424.6217 351.8596,455.5847 355.9742,477.3451" fill="none" id="DM-to-DBC" style="stroke:#37474F;stroke-width:1.5625;"/><polygon fill="#37474F" points="357.1354,483.4863,359.4877,473.5004,356.1677,478.3687,351.2995,475.0487,357.1354,483.4863" style="stroke:#37474F;stroke-width:1.5625;"/><text fill="#000000" font-family="Segoe UI" font-size="14.5833" lengthAdjust="spacing" textLength="119.7144" x="352.0833" y="448.2208">Execute Queries</text></g><!--link DBC to PDB--><g class="link" data-entity-1="DBC" data-entity-2="PDB" data-source-line="89" data-uid="lnk25" id="link_DBC_PDB"><path d="M276.5104,508.5801 C211.9583,514.903 130.3542,527.8092 109.375,553.4342 C91.5417,575.2155 107.8142,600.3775 127.0538,620.5754" fill="none" id="DBC-to-PDB" style="stroke:#37474F;stroke-width:1.5625;"/><polygon fill="#37474F" points="131.3646,625.1009,127.9154,615.4389,127.7723,621.3297,121.8815,621.1865,131.3646,625.1009" style="stroke:#37474F;stroke-width:1.5625;"/><text fill="#000000" font-family="Segoe UI" font-size="14.5833" lengthAdjust="spacing" textLength="172.9706" x="110.4167" y="568.0125">Access Pothole Records</text></g><!--link DBC to WODB--><g class="link" data-entity-1="DBC" data-entity-2="WODB" data-source-line="90" data-uid="lnk26" id="link_DBC_WODB"><path d="M327.8958,520.2988 C315.8333,528.5905 303.4896,539.7259 296.875,553.4342 C285.8542,576.278 291.9731,599.5234 300.8377,619.2838" fill="none" id="DBC-to-WODB" style="stroke:#37474F;stroke-width:1.5625;"/><polygon fill="#37474F" points="303.3958,624.9863,303.3603,614.7272,301.264,620.2343,295.7569,618.138,303.3958,624.9863" style="stroke:#37474F;stroke-width:1.5625;"/><text fill="#000000" font-family="Segoe UI" font-size="14.5833" lengthAdjust="spacing" textLength="146.5312" x="297.9167" y="568.0125">Access Work Orders</text></g><!--link DBC to CDB--><g class="link" data-entity-1="DBC" data-entity-2="CDB" data-source-line="91" data-uid="lnk27" id="link_DBC_CDB"><path d="M406.125,520.1738 C421.75,528.1322 438.0208,539.0697 448.9583,553.4342 C464.8125,574.2572 469.6981,598.1982 471.521,618.7607" fill="none" id="DBC-to-CDB" style="stroke:#37474F;stroke-width:1.5625;"/><polygon fill="#37474F" points="472.0729,624.9863,475.3954,615.28,471.613,619.7983,467.0947,616.0159,472.0729,624.9863" style="stroke:#37474F;stroke-width:1.5625;"/><text fill="#000000" font-family="Segoe UI" font-size="14.5833" lengthAdjust="spacing" textLength="151.7436" x="461.4583" y="568.0125">Access Citizens Data</text></g><!--link DBC to DRDB--><g class="link" data-entity-1="DBC" data-entity-2="DRDB" data-source-line="92" data-uid="lnk28" id="link_DBC_DRDB"><path d="M444.5313,509.3822 C511.0417,516.2259 596.7396,529.4655 621.875,553.4342 C641.1354,571.7988 645.2361,597.1541 645.6424,618.6645" fill="none" id="DBC-to-DRDB" style="stroke:#37474F;stroke-width:1.5625;"/><polygon fill="#37474F" points="645.7604,624.9134,649.7493,615.4614,645.6621,619.706,641.4175,615.6188,645.7604,624.9134" style="stroke:#37474F;stroke-width:1.5625;"/><text fill="#000000" font-family="Segoe UI" font-size="14.5833" lengthAdjust="spacing" textLength="177.5848" x="634.375" y="568.0125">Access Damage Reports</text></g><!--SRC=[VLN1RYD54BtFLnI9nCB198xjjHD5bkonTpSe8SQJNOjZJq-DFVAus-ffonlG7XPnGYiM5WG23a58gmY92pTE-p7y0Fa4kdjwskEHGmuvTBsgUg_grVW1tDsy-GQ2tiV3uJbSFHbU3A46GOeu1v_p5Fhf2k5zU9Rm52MCYFel4Jw8kO3Hawjn03r1Pub4AbS2F_GycSWKuJJidbAUSd6oVnWrswJUlRkv_SDcgFhNcSJ5LkhfWS5tJm_2hgh2bo0vX5nAle0e4GgKSEPbyuGjYI0B20cTJmLViSZNUR0Vj-9sJ4g8R4OYlaxO5AHOOIbWiYWN30KSjKg1dX1yRSirsirsCwu6hsO9dJFCCgX_LCwaVB7a39aCvBMIh-aIDatBNQDb0lN3m_8BncILoaUSoK_80c4lm2b7U7gsjniK99yZr9kUzm1gjHgCYoQWcsgTwhKiqyM_y03wrNbX8pwA8ntX8a9XN-lOwM1BlUg6zYtVe7tB1OOyrQdZl5unIO1WU-Ol2gv-CPzxkBhvxUOQcxygr-EOT2AopRLEZXfjBBYQWJLSNdbxH__3Ta0a2Kbsts2Z8hnxhX6suuTLhesuLGzRzt2zZqUFKZqI0yz0dvoRKsOulQVSaJ0qHzhdps4_3DLBwDxpgpKHIwk8F1Q8p0He1n_IOnVu3DEKhqr4ZRnr7Bd8A67p_Bs1hRZbti-JwKnkwaKK8zfnKLyWMUHfXt6JDZRbaD2PxKDfI0lHv-GQHIvlu-0zzPNw3KO2CwMTw4z1Zji3ai7et6nYuo65VlKj-8bK-sSmmH3Ec4GH4uecmP-SkL5Lydvy- -_VhzNUIHmh6sIpa1CHcQHWKDhjLixhNtLEBreaJ7qW6QO6tnkvsQg5bgJyyylF1hzSfWcjQkdjqFBzx-hMbrmetp0fU9fQxDXtEwfatBw32HVpozo0MqcJIzzji9BrvaybUK6ckBFRGBUpozqMT7VpqvTQaJuRurbrO1j5WrsIVdZbZaorOQeMj-Y-xvnIfVVEv5mGfYXQz8LpJvNIxL-RCowHwUTat0dhyNuD8ovdwb86_TnFWtx97blGbvkvMl3aKgETCShexzuM7hHONqEj9og5lzeQlSKFnZh1hhZqBJK3Kxx984IvLeTNFXfjxbgjgzrnOdrJwFEKXtL8U-04ya4QGM0KPPxoh8uFJEwp1DUMbQsJUPwA6CI50WHgQNZm22MT5HtCp3rTtw6UBfLGKu4aGb-MN6NUe5p74gcsKZ43wMiom-T8LwhCfoiK2Qe2_Ro0tjL9ORg2XFfbLD_U3SZioA7AWWk4NmROfMMvc09Ybk4mssJ_0m00]--></g></svg>