<svg xmlns="http://www.w3.org/2000/svg" xmlns:xlink="http://www.w3.org/1999/xlink" contentStyleType="text/css" data-diagram-type="CLASS" height="484px" preserveAspectRatio="none" style="width:661px;height:484px;background:#F7F9FB;" version="1.1" viewBox="0 0 661 484" width="661px" zoomAndPan="magnify"><title>&lt;b&gt;&lt;color:#311b92&gt;Smart Energy Optimization Strategy Pattern - Class Diagram&lt;/color&gt;&lt;/b&gt;</title><defs><filter height="300%" id="f1v869fjcv1f79" width="300%" x="-1" y="-1"><feGaussianBlur result="blurOut" stdDeviation="2"/><feColorMatrix in="blurOut" result="blurOut2" type="matrix" values="0 0 0 0 0 0 0 0 0 0 0 0 0 0 0 0 0 0 .4 0"/><feOffset dx="4" dy="4" in="blurOut2" result="blurOut3"/><feBlend in="SourceGraphic" in2="blurOut3" mode="normal"/></filter></defs><g><rect fill="#F7F9FB" height="484" style="stroke:none;stroke-width:1;" width="661" x="0" y="0"/><g class="title" data-source-line="23"><text fill="#311B92" font-family="sans-serif" font-size="14" font-weight="bold" lengthAdjust="spacing" textLength="480.1289" x="78.0583" y="22.9951">Smart Energy Optimization Strategy Pattern - Class Diagram</text></g><!--class EnergyMonitor--><g class="entity" data-entity="EnergyMonitor" data-source-line="26" data-uid="ent0002" id="entity_EnergyMonitor"><rect fill="#EDE7F6" filter="url(#f1v869fjcv1f79)" height="145.7813" rx="11" ry="11" style="stroke:#4527A0;stroke-width:0.5;" width="200.043" x="279.5" y="44.2969"/><ellipse cx="321.3941" cy="60.2969" fill="#ADD1B2" rx="11" ry="11" style="stroke:#181818;stroke-width:1;"/><path d="M324.3628,65.9375 Q323.7847,66.2344 323.1441,66.375 Q322.5035,66.5313 321.8003,66.5313 Q319.3003,66.5313 317.9722,64.8906 Q316.6597,63.2344 316.6597,60.1094 Q316.6597,56.9844 317.9722,55.3281 Q319.3003,53.6719 321.8003,53.6719 Q322.5035,53.6719 323.1441,53.8281 Q323.8003,53.9844 324.3628,54.2813 L324.3628,57 Q323.7378,56.4219 323.1441,56.1563 Q322.5503,55.875 321.9253,55.875 Q320.5816,55.875 319.8941,56.9531 Q319.2066,58.0156 319.2066,60.1094 Q319.2066,62.2031 319.8941,63.2813 Q320.5816,64.3438 321.9253,64.3438 Q322.5503,64.3438 323.1441,64.0781 Q323.7378,63.7969 324.3628,63.2188 L324.3628,65.9375 Z " fill="#000000"/><text fill="#311B92" font-family="sans-serif" font-size="13" font-weight="bold" lengthAdjust="spacing" textLength="108.2783" x="341.3706" y="64.7974">EnergyMonitor</text><line style="stroke:#4527A0;stroke-width:0.5;" x1="280.5" x2="478.543" y1="76.2969" y2="76.2969"/><rect fill="none" height="6" style="stroke:#C82930;stroke-width:1;" width="6" x="287.5" y="86.9453"/><text fill="#000000" font-family="sans-serif" font-size="14" lengthAdjust="spacing" textLength="174.043" x="299.5" y="93.292">observers: List&lt;Device&gt;</text><rect fill="none" height="6" style="stroke:#C82930;stroke-width:1;" width="6" x="287.5" y="103.2422"/><text fill="#000000" font-family="sans-serif" font-size="14" lengthAdjust="spacing" textLength="165.3545" x="299.5" y="109.5889">totalConsumption: float</text><line style="stroke:#4527A0;stroke-width:0.5;" x1="280.5" x2="478.543" y1="116.8906" y2="116.8906"/><ellipse cx="290.5" cy="130.5391" fill="#84BE84" rx="3" ry="3" style="stroke:#038048;stroke-width:1;"/><text fill="#000000" font-family="sans-serif" font-size="14" lengthAdjust="spacing" textLength="103.5098" x="299.5" y="133.8857">attach(Device)</text><ellipse cx="290.5" cy="146.8359" fill="#84BE84" rx="3" ry="3" style="stroke:#038048;stroke-width:1;"/><text fill="#000000" font-family="sans-serif" font-size="14" lengthAdjust="spacing" textLength="106.9414" x="299.5" y="150.1826">detach(Device)</text><ellipse cx="290.5" cy="163.1328" fill="#84BE84" rx="3" ry="3" style="stroke:#038048;stroke-width:1;"/><text fill="#000000" font-family="sans-serif" font-size="14" lengthAdjust="spacing" textLength="50.9551" x="299.5" y="166.4795">notify()</text><ellipse cx="290.5" cy="179.4297" fill="#84BE84" rx="3" ry="3" style="stroke:#038048;stroke-width:1;"/><text fill="#000000" font-family="sans-serif" font-size="14" lengthAdjust="spacing" textLength="156.4951" x="299.5" y="182.7764">setConsumption(float)</text></g><!--class Device--><g class="entity" data-entity="Device" data-source-line="35" data-uid="ent0003" id="entity_Device"><rect fill="#EDE7F6" filter="url(#f1v869fjcv1f79)" height="64.2969" rx="11" ry="11" style="stroke:#4527A0;stroke-width:0.5;" width="117.7041" x="201.5" y="267.2969"/><ellipse cx="232.9894" cy="283.2969" fill="#B4A7E5" rx="11" ry="11" style="stroke:#181818;stroke-width:1;"/><path d="M228.9113,279.0625 L228.9113,276.9063 L236.3019,276.9063 L236.3019,279.0625 L233.8331,279.0625 L233.8331,287.1406 L236.3019,287.1406 L236.3019,289.2969 L228.9113,289.2969 L228.9113,287.1406 L231.38,287.1406 L231.38,279.0625 L228.9113,279.0625 Z " fill="#000000"/><text fill="#311B92" font-family="sans-serif" font-size="13" font-style="italic" font-weight="bold" lengthAdjust="spacing" textLength="49.061" x="250.6537" y="287.7974">Device</text><line style="stroke:#4527A0;stroke-width:0.5;" x1="202.5" x2="318.2041" y1="299.2969" y2="299.2969"/><line style="stroke:#4527A0;stroke-width:0.5;" x1="202.5" x2="318.2041" y1="307.2969" y2="307.2969"/><ellipse cx="212.5" cy="320.9453" fill="#84BE84" rx="3" ry="3" style="stroke:#038048;stroke-width:1;"/><text fill="#000000" font-family="sans-serif" font-size="14" lengthAdjust="spacing" textLength="91.7041" x="221.5" y="324.292">update(float)</text></g><!--class AirConditioner--><g class="entity" data-entity="AirConditioner" data-source-line="39" data-uid="ent0004" id="entity_AirConditioner"><rect fill="#EDE7F6" filter="url(#f1v869fjcv1f79)" height="80.5938" rx="11" ry="11" style="stroke:#4527A0;stroke-width:0.5;" width="154.9258" x="7" y="392.2969"/><ellipse cx="29.3912" cy="408.2969" fill="#ADD1B2" rx="11" ry="11" style="stroke:#181818;stroke-width:1;"/><path d="M32.3599,413.9375 Q31.7818,414.2344 31.1412,414.375 Q30.5005,414.5313 29.7974,414.5313 Q27.2974,414.5313 25.9693,412.8906 Q24.6568,411.2344 24.6568,408.1094 Q24.6568,404.9844 25.9693,403.3281 Q27.2974,401.6719 29.7974,401.6719 Q30.5005,401.6719 31.1412,401.8281 Q31.7974,401.9844 32.3599,402.2813 L32.3599,405 Q31.7349,404.4219 31.1412,404.1563 Q30.5474,403.875 29.9224,403.875 Q28.5787,403.875 27.8912,404.9531 Q27.2037,406.0156 27.2037,408.1094 Q27.2037,410.2031 27.8912,411.2813 Q28.5787,412.3438 29.9224,412.3438 Q30.5474,412.3438 31.1412,412.0781 Q31.7349,411.7969 32.3599,411.2188 L32.3599,413.9375 Z " fill="#000000"/><text fill="#311B92" font-family="sans-serif" font-size="13" font-weight="bold" lengthAdjust="spacing" textLength="106.501" x="45.0336" y="412.7974">AirConditioner</text><line style="stroke:#4527A0;stroke-width:0.5;" x1="8" x2="160.9258" y1="424.2969" y2="424.2969"/><rect fill="none" height="6" style="stroke:#C82930;stroke-width:1;" width="6" x="15" y="434.9453"/><text fill="#000000" font-family="sans-serif" font-size="14" lengthAdjust="spacing" textLength="128.9258" x="27" y="441.292">temperature: float</text><line style="stroke:#4527A0;stroke-width:0.5;" x1="8" x2="160.9258" y1="448.5938" y2="448.5938"/><ellipse cx="18" cy="462.2422" fill="#84BE84" rx="3" ry="3" style="stroke:#038048;stroke-width:1;"/><text fill="#000000" font-family="sans-serif" font-size="14" lengthAdjust="spacing" textLength="91.7041" x="27" y="465.5889">update(float)</text></g><!--class SmartLight--><g class="entity" data-entity="SmartLight" data-source-line="44" data-uid="ent0005" id="entity_SmartLight"><rect fill="#EDE7F6" filter="url(#f1v869fjcv1f79)" height="80.5938" rx="11" ry="11" style="stroke:#4527A0;stroke-width:0.5;" width="127.2744" x="197" y="392.2969"/><ellipse cx="218.0539" cy="408.2969" fill="#ADD1B2" rx="11" ry="11" style="stroke:#181818;stroke-width:1;"/><path d="M221.0227,413.9375 Q220.4445,414.2344 219.8039,414.375 Q219.1633,414.5313 218.4602,414.5313 Q215.9602,414.5313 214.632,412.8906 Q213.3195,411.2344 213.3195,408.1094 Q213.3195,404.9844 214.632,403.3281 Q215.9602,401.6719 218.4602,401.6719 Q219.1633,401.6719 219.8039,401.8281 Q220.4602,401.9844 221.0227,402.2813 L221.0227,405 Q220.3977,404.4219 219.8039,404.1563 Q219.2102,403.875 218.5852,403.875 Q217.2414,403.875 216.5539,404.9531 Q215.8664,406.0156 215.8664,408.1094 Q215.8664,410.2031 216.5539,411.2813 Q217.2414,412.3438 218.5852,412.3438 Q219.2102,412.3438 219.8039,412.0781 Q220.3977,411.7969 221.0227,411.2188 L221.0227,413.9375 Z " fill="#000000"/><text fill="#311B92" font-family="sans-serif" font-size="13" font-weight="bold" lengthAdjust="spacing" textLength="81.8213" x="233.3992" y="412.7974">SmartLight</text><line style="stroke:#4527A0;stroke-width:0.5;" x1="198" x2="323.2744" y1="424.2969" y2="424.2969"/><rect fill="none" height="6" style="stroke:#C82930;stroke-width:1;" width="6" x="205" y="434.9453"/><text fill="#000000" font-family="sans-serif" font-size="14" lengthAdjust="spacing" textLength="101.2744" x="217" y="441.292">brightness: int</text><line style="stroke:#4527A0;stroke-width:0.5;" x1="198" x2="323.2744" y1="448.5938" y2="448.5938"/><ellipse cx="208" cy="462.2422" fill="#84BE84" rx="3" ry="3" style="stroke:#038048;stroke-width:1;"/><text fill="#000000" font-family="sans-serif" font-size="14" lengthAdjust="spacing" textLength="91.7041" x="217" y="465.5889">update(float)</text></g><!--class SmartHeater--><g class="entity" data-entity="SmartHeater" data-source-line="49" data-uid="ent0006" id="entity_SmartHeater"><rect fill="#EDE7F6" filter="url(#f1v869fjcv1f79)" height="80.5938" rx="11" ry="11" style="stroke:#4527A0;stroke-width:0.5;" width="133.8916" x="359.5" y="392.2969"/><ellipse cx="377.953" cy="408.2969" fill="#ADD1B2" rx="11" ry="11" style="stroke:#181818;stroke-width:1;"/><path d="M380.9218,413.9375 Q380.3436,414.2344 379.703,414.375 Q379.0624,414.5313 378.3593,414.5313 Q375.8593,414.5313 374.5311,412.8906 Q373.2186,411.2344 373.2186,408.1094 Q373.2186,404.9844 374.5311,403.3281 Q375.8593,401.6719 378.3593,401.6719 Q379.0624,401.6719 379.703,401.8281 Q380.3593,401.9844 380.9218,402.2813 L380.9218,405 Q380.2968,404.4219 379.703,404.1563 Q379.1093,403.875 378.4843,403.875 Q377.1405,403.875 376.453,404.9531 Q375.7655,406.0156 375.7655,408.1094 Q375.7655,410.2031 376.453,411.2813 Q377.1405,412.3438 378.4843,412.3438 Q379.1093,412.3438 379.703,412.0781 Q380.2968,411.7969 380.9218,411.2188 L380.9218,413.9375 Z " fill="#000000"/><text fill="#311B92" font-family="sans-serif" font-size="13" font-weight="bold" lengthAdjust="spacing" textLength="94.2183" x="392.7203" y="412.7974">SmartHeater</text><line style="stroke:#4527A0;stroke-width:0.5;" x1="360.5" x2="492.3916" y1="424.2969" y2="424.2969"/><rect fill="none" height="6" style="stroke:#C82930;stroke-width:1;" width="6" x="367.5" y="434.9453"/><text fill="#000000" font-family="sans-serif" font-size="14" lengthAdjust="spacing" textLength="107.8916" x="379.5" y="441.292">powerLevel: int</text><line style="stroke:#4527A0;stroke-width:0.5;" x1="360.5" x2="492.3916" y1="448.5938" y2="448.5938"/><ellipse cx="370.5" cy="462.2422" fill="#84BE84" rx="3" ry="3" style="stroke:#038048;stroke-width:1;"/><text fill="#000000" font-family="sans-serif" font-size="14" lengthAdjust="spacing" textLength="91.7041" x="379.5" y="465.5889">update(float)</text></g><g class="entity" data-entity="GMN11" data-source-line="62" data-uid="ent0012" id="entity_GMN11"><path d="M354,290.2969 L354,308.5625 A11,11 0 0 0 365,319.5625 L632.2456,319.5625 A11,11 0 0 0 643.2456,308.5625 L643.2456,289.2969 L633.2456,279.2969 L489.72,279.2969 L427.22,190.4769 L481.72,279.2969 L365,279.2969 A11,11 0 0 0 354,290.2969" fill="#FEFFDD" filter="url(#f1v869fjcv1f79)" style="stroke:#181818;stroke-width:0.5;"/><path d="M633.2456,279.2969 L633.2456,283.7969 A5.5,5.5 0 0 0 638.7456,289.2969 L643.2456,289.2969 L633.2456,279.2969" fill="#FEFFDD" style="stroke:#181818;stroke-width:0.5;"/><text fill="#000000" font-family="sans-serif" font-size="13" lengthAdjust="spacing" textLength="268.2456" x="360" y="296.3638">&#8226; Acts as the Subject in Observer Pattern</text><text fill="#000000" font-family="sans-serif" font-size="13" lengthAdjust="spacing" textLength="248.2568" x="360" y="311.4966">&#8226; Notifies all connected smart devices</text></g><!--link EnergyMonitor to Device--><g class="link" data-entity-1="EnergyMonitor" data-entity-2="Device" data-source-line="55" data-uid="lnk7" id="link_EnergyMonitor_Device"><path codeLine="55" d="M331.78,190.4769 C314.2,217.0769 298.4901,240.8426 284.5201,261.9626" fill="none" id="EnergyMonitor-to-Device" style="stroke:#455A64;stroke-width:1.4;"/><polygon fill="#455A64" points="281.21,266.9669,289.5114,261.6672,283.9684,262.7966,282.839,257.2537,281.21,266.9669" style="stroke:#455A64;stroke-width:1.4;"/><polygon fill="#000000" points="311.7426,233.0342,319.1824,227.1097,314.2792,223.8682,311.7426,233.0342" style="stroke:#000000;stroke-width:1;"/><text fill="#000000" font-family="sans-serif" font-size="13" lengthAdjust="spacing" textLength="47.8613" x="323.5" y="233.3638">notifies</text></g><!--reverse link Device to AirConditioner--><g class="link" data-entity-1="Device" data-entity-2="AirConditioner" data-source-line="56" data-uid="lnk8" id="link_Device_AirConditioner"><path codeLine="56" d="M204.3736,342.235 C180.0836,360.395 163.62,372.6769 137.6,392.1169" fill="none" id="Device-backto-AirConditioner" style="stroke:#455A64;stroke-width:1.4;stroke-dasharray:7.0,7.0;"/><polygon fill="none" points="218.79,331.4569,200.7809,337.4296,207.9664,347.0405,218.79,331.4569" style="stroke:#455A64;stroke-width:1.4;"/></g><!--reverse link Device to SmartLight--><g class="link" data-entity-1="Device" data-entity-2="SmartLight" data-source-line="57" data-uid="lnk9" id="link_Device_SmartLight"><path codeLine="57" d="M260.5,349.4569 C260.5,367.5369 260.5,372.4869 260.5,391.8769" fill="none" id="Device-backto-SmartLight" style="stroke:#455A64;stroke-width:1.4;stroke-dasharray:7.0,7.0;"/><polygon fill="none" points="260.5,331.4569,254.5,349.4569,266.5,349.4569,260.5,331.4569" style="stroke:#455A64;stroke-width:1.4;"/></g><!--reverse link Device to SmartHeater--><g class="link" data-entity-1="Device" data-entity-2="SmartHeater" data-source-line="58" data-uid="lnk10" id="link_Device_SmartHeater"><path codeLine="58" d="M313.946,342.6382 C336.856,360.7982 351.87,372.6769 376.41,392.1169" fill="none" id="Device-backto-SmartHeater" style="stroke:#455A64;stroke-width:1.4;stroke-dasharray:7.0,7.0;"/><polygon fill="none" points="299.84,331.4569,310.2188,347.3402,317.6731,337.9362,299.84,331.4569" style="stroke:#455A64;stroke-width:1.4;"/></g><!--SRC=[fLHjRXCn4Fs_fnW9YIQgafBqIusYbK9RA5A_rFG2tlLirjHhh-n9gxOWSGOk0E9ed80ZCFRkGj8A-45-nMyyC- -zcVK6_FZo-IkS7v_CDZnS2er420Euma8PbF0Ipgn4P-2wn0gXDwjhhL3samqO_CSl8Li3MSWiaQr0AeSvAMkIfYwyrJOJ6kPqhp40YRzHfXPEL929_6RXxDB8GwkjWnV5Vd5GP2itV2calLDc0UIMk1A8MRbr1XsCnok1cNFshYstixihzdQU1gzBbTyOz1v6mvsEvQ4M30IIeTawpJp67XE0rqy9eyJzOYz4h6DlV_KTxujNZBwnXbfiUpJA3iOjDbSF2AFjxXIjoQoM3CpN5N_i25uhQlsZ-6-QfTCyb9wqfTDv9Hp1CJkok8UBcbIb7aIO1CjoWf3HIy4hmHlGwJrIOi4AfrknKZhToj8rGz23C1BU6SugHCx7GA3nesbqPeqYrXVS6O3DFBfRT7u2fyhJz0XlLOvfZ94beG-jySkg3gmcK6WhY6ERmBH4NlQQw_q8INm66KkgkEyr1u-qKgmNQ_M3NQeZ2qrkfBO9orgo1olt6XKpnKCpKeKYsCaWh6faovOELrd-eKJq_LGjIchJCnSEOSCcm6p-cNk27Efwr_OEtIdUelvBSZEYAzHnlhvKTJEPzPaC1cddmQGnJ_44qwJ5fX-6moVwrqA_TJs76yeTaNDBNBXt4KV1t_gnAON9-P4nr8-yk3bs3uGjrbU75Nx_z0rcEV6oUQ0IORxCtlCZmlhXejseRdNRs-UT6g4rvDOOlivFd8-VW8niVOAykg7pJm00]--></g></svg>