<svg xmlns="http://www.w3.org/2000/svg" xmlns:xlink="http://www.w3.org/1999/xlink" contentStyleType="text/css" data-diagram-type="CLASS" height="419px" preserveAspectRatio="none" style="width:780px;height:419px;background:#F4F6F8;" version="1.1" viewBox="0 0 780 419" width="780px" zoomAndPan="magnify"><title>&lt;b&gt;&lt;color:#0d47a1&gt;AI Recommendation Strategy Pattern Class Diagram&lt;/color&gt;&lt;/b&gt;</title><defs><filter height="300%" id="fjv2xmvmrq1a4" width="300%" x="-1" y="-1"><feGaussianBlur result="blurOut" stdDeviation="2"/><feColorMatrix in="blurOut" result="blurOut2" type="matrix" values="0 0 0 0 0 0 0 0 0 0 0 0 0 0 0 0 0 0 .4 0"/><feOffset dx="4" dy="4" in="blurOut2" result="blurOut3"/><feBlend in="SourceGraphic" in2="blurOut3" mode="normal"/></filter></defs><g><rect fill="#F4F6F8" height="419" style="stroke:none;stroke-width:1;" width="780" x="0" y="0"/><g class="title" data-source-line="23"><text fill="#0D47A1" font-family="sans-serif" font-size="14" font-weight="bold" lengthAdjust="spacing" textLength="413.7246" x="171.5417" y="22.9951">AI Recommendation Strategy Pattern Class Diagram</text></g><!--class RecommendationStrategy--><g class="entity" data-entity="RecommendationStrategy" data-source-line="26" data-uid="ent0002" id="entity_RecommendationStrategy"><rect fill="#FFFFFF" filter="url(#fjv2xmvmrq1a4)" height="64.2969" rx="10" ry="10" style="stroke:#1565C0;stroke-width:0.5;" width="270.084" x="159" y="218.2969"/><ellipse cx="195.1274" cy="234.2969" fill="#B4A7E5" rx="11" ry="11" style="stroke:#181818;stroke-width:1;"/><path d="M191.0492,230.0625 L191.0492,227.9063 L198.4399,227.9063 L198.4399,230.0625 L195.9711,230.0625 L195.9711,238.1406 L198.4399,238.1406 L198.4399,240.2969 L191.0492,240.2969 L191.0492,238.1406 L193.518,238.1406 L193.518,230.0625 L191.0492,230.0625 Z " fill="#000000"/><text fill="#0D47A1" font-family="sans-serif" font-size="13" font-style="italic" font-weight="bold" lengthAdjust="spacing" textLength="191.1343" x="213.8223" y="238.7974">RecommendationStrategy</text><line style="stroke:#1565C0;stroke-width:0.5;" x1="160" x2="428.084" y1="250.2969" y2="250.2969"/><line style="stroke:#1565C0;stroke-width:0.5;" x1="160" x2="428.084" y1="258.2969" y2="258.2969"/><ellipse cx="170" cy="271.9453" fill="#84BE84" rx="3" ry="3" style="stroke:#038048;stroke-width:1;"/><text fill="#000000" font-family="sans-serif" font-size="14" lengthAdjust="spacing" textLength="244.084" x="179" y="275.292">generateRecommendations(): void</text></g><!--class SmartRecommendationEngine--><g class="entity" data-entity="SmartRecommendationEngine" data-source-line="30" data-uid="ent0003" id="entity_SmartRecommendationEngine"><rect fill="#FFFFFF" filter="url(#fjv2xmvmrq1a4)" height="96.8906" rx="10" ry="10" style="stroke:#1565C0;stroke-width:0.5;" width="369.499" x="335.5" y="44.2969"/><ellipse cx="405.0806" cy="60.2969" fill="#ADD1B2" rx="11" ry="11" style="stroke:#181818;stroke-width:1;"/><path d="M408.0493,65.9375 Q407.4712,66.2344 406.8306,66.375 Q406.1899,66.5313 405.4868,66.5313 Q402.9868,66.5313 401.6587,64.8906 Q400.3462,63.2344 400.3462,60.1094 Q400.3462,56.9844 401.6587,55.3281 Q402.9868,53.6719 405.4868,53.6719 Q406.1899,53.6719 406.8306,53.8281 Q407.4868,53.9844 408.0493,54.2813 L408.0493,57 Q407.4243,56.4219 406.8306,56.1563 Q406.2368,55.875 405.6118,55.875 Q404.2681,55.875 403.5806,56.9531 Q402.8931,58.0156 402.8931,60.1094 Q402.8931,62.2031 403.5806,63.2813 Q404.2681,64.3438 405.6118,64.3438 Q406.2368,64.3438 406.8306,64.0781 Q407.4243,63.7969 408.0493,63.2188 L408.0493,65.9375 Z " fill="#000000"/><text fill="#0D47A1" font-family="sans-serif" font-size="13" font-weight="bold" lengthAdjust="spacing" textLength="221.8379" x="425.5806" y="64.7974">SmartRecommendationEngine</text><line style="stroke:#1565C0;stroke-width:0.5;" x1="336.5" x2="703.999" y1="76.2969" y2="76.2969"/><rect fill="none" height="6" style="stroke:#C82930;stroke-width:1;" width="6" x="343.5" y="86.9453"/><text fill="#000000" font-family="sans-serif" font-size="14" lengthAdjust="spacing" textLength="251.1934" x="355.5" y="93.292">strategy: RecommendationStrategy</text><line style="stroke:#1565C0;stroke-width:0.5;" x1="336.5" x2="703.999" y1="100.5938" y2="100.5938"/><ellipse cx="346.5" cy="114.2422" fill="#84BE84" rx="3" ry="3" style="stroke:#038048;stroke-width:1;"/><text fill="#000000" font-family="sans-serif" font-size="14" lengthAdjust="spacing" textLength="343.499" x="355.5" y="117.5889">setStrategy(strategy: RecommendationStrategy)</text><ellipse cx="346.5" cy="130.5391" fill="#84BE84" rx="3" ry="3" style="stroke:#038048;stroke-width:1;"/><text fill="#000000" font-family="sans-serif" font-size="14" lengthAdjust="spacing" textLength="133.998" x="355.5" y="133.8857">recommend(): void</text></g><!--class MoodBasedStrategy--><g class="entity" data-entity="MoodBasedStrategy" data-source-line="36" data-uid="ent0004" id="entity_MoodBasedStrategy"><rect fill="#FFFFFF" filter="url(#fjv2xmvmrq1a4)" height="64.2969" rx="10" ry="10" style="stroke:#1565C0;stroke-width:0.5;" width="270.084" x="7" y="343.2969"/><ellipse cx="63.6831" cy="359.2969" fill="#ADD1B2" rx="11" ry="11" style="stroke:#181818;stroke-width:1;"/><path d="M66.6519,364.9375 Q66.0737,365.2344 65.4331,365.375 Q64.7925,365.5313 64.0894,365.5313 Q61.5894,365.5313 60.2612,363.8906 Q58.9487,362.2344 58.9487,359.1094 Q58.9487,355.9844 60.2612,354.3281 Q61.5894,352.6719 64.0894,352.6719 Q64.7925,352.6719 65.4331,352.8281 Q66.0894,352.9844 66.6519,353.2813 L66.6519,356 Q66.0269,355.4219 65.4331,355.1563 Q64.8394,354.875 64.2144,354.875 Q62.8706,354.875 62.1831,355.9531 Q61.4956,357.0156 61.4956,359.1094 Q61.4956,361.2031 62.1831,362.2813 Q62.8706,363.3438 64.2144,363.3438 Q64.8394,363.3438 65.4331,363.0781 Q66.0269,362.7969 66.6519,362.2188 L66.6519,364.9375 Z " fill="#000000"/><text fill="#0D47A1" font-family="sans-serif" font-size="13" font-weight="bold" lengthAdjust="spacing" textLength="148.2178" x="84.1831" y="363.7974">MoodBasedStrategy</text><line style="stroke:#1565C0;stroke-width:0.5;" x1="8" x2="276.084" y1="375.2969" y2="375.2969"/><line style="stroke:#1565C0;stroke-width:0.5;" x1="8" x2="276.084" y1="383.2969" y2="383.2969"/><ellipse cx="18" cy="396.9453" fill="#84BE84" rx="3" ry="3" style="stroke:#038048;stroke-width:1;"/><text fill="#000000" font-family="sans-serif" font-size="14" lengthAdjust="spacing" textLength="244.084" x="27" y="400.292">generateRecommendations(): void</text></g><!--class TimeBasedStrategy--><g class="entity" data-entity="TimeBasedStrategy" data-source-line="40" data-uid="ent0005" id="entity_TimeBasedStrategy"><rect fill="#FFFFFF" filter="url(#fjv2xmvmrq1a4)" height="64.2969" rx="10" ry="10" style="stroke:#1565C0;stroke-width:0.5;" width="270.084" x="312" y="343.2969"/><ellipse cx="370.8921" cy="359.2969" fill="#ADD1B2" rx="11" ry="11" style="stroke:#181818;stroke-width:1;"/><path d="M373.8608,364.9375 Q373.2827,365.2344 372.6421,365.375 Q372.0015,365.5313 371.2983,365.5313 Q368.7983,365.5313 367.4702,363.8906 Q366.1577,362.2344 366.1577,359.1094 Q366.1577,355.9844 367.4702,354.3281 Q368.7983,352.6719 371.2983,352.6719 Q372.0015,352.6719 372.6421,352.8281 Q373.2983,352.9844 373.8608,353.2813 L373.8608,356 Q373.2358,355.4219 372.6421,355.1563 Q372.0483,354.875 371.4233,354.875 Q370.0796,354.875 369.3921,355.9531 Q368.7046,357.0156 368.7046,359.1094 Q368.7046,361.2031 369.3921,362.2813 Q370.0796,363.3438 371.4233,363.3438 Q372.0483,363.3438 372.6421,363.0781 Q373.2358,362.7969 373.8608,362.2188 L373.8608,364.9375 Z " fill="#000000"/><text fill="#0D47A1" font-family="sans-serif" font-size="13" font-weight="bold" lengthAdjust="spacing" textLength="143.7998" x="391.3921" y="363.7974">TimeBasedStrategy</text><line style="stroke:#1565C0;stroke-width:0.5;" x1="313" x2="581.084" y1="375.2969" y2="375.2969"/><line style="stroke:#1565C0;stroke-width:0.5;" x1="313" x2="581.084" y1="383.2969" y2="383.2969"/><ellipse cx="323" cy="396.9453" fill="#84BE84" rx="3" ry="3" style="stroke:#038048;stroke-width:1;"/><text fill="#000000" font-family="sans-serif" font-size="14" lengthAdjust="spacing" textLength="244.084" x="332" y="400.292">generateRecommendations(): void</text></g><g class="entity" data-entity="GMN9" data-source-line="51" data-uid="ent0010" id="entity_GMN9"><path d="M464,247.7969 L464,252.9297 A10,10 0 0 0 474,262.9297 L753.8081,262.9297 A10,10 0 0 0 763.8081,252.9297 L763.8081,247.7969 L753.8081,237.7969 L610.93,237.7969 L548.71,141.2969 L602.93,237.7969 L474,237.7969 A10,10 0 0 0 464,247.7969" fill="#FEFFDD" filter="url(#fjv2xmvmrq1a4)" style="stroke:#181818;stroke-width:0.5;"/><path d="M753.8081,237.7969 L753.8081,242.7969 A5,5 0 0 0 758.8081,247.7969 L763.8081,247.7969 L753.8081,237.7969" fill="#FEFFDD" style="stroke:#181818;stroke-width:0.5;"/><text fill="#000000" font-family="sans-serif" font-size="13" lengthAdjust="spacing" textLength="278.8081" x="470" y="254.8638">&#8226; Selects and applies strategy dynamically</text></g><!--link SmartRecommendationEngine to RecommendationStrategy--><g class="link" data-entity-1="SmartRecommendationEngine" data-entity-2="RecommendationStrategy" data-source-line="45" data-uid="lnk6" id="link_SmartRecommendationEngine_RecommendationStrategy"><path codeLine="45" d="M450.96,141.2969 C414.62,166.3069 376.0223,192.8549 344.0323,214.8749" fill="none" id="SmartRecommendationEngine-to-RecommendationStrategy" style="stroke:#37474F;stroke-width:1.4;"/><polygon fill="#37474F" points="339.09,218.2769,348.7715,216.4688,343.2086,215.4419,344.2355,209.879,339.09,218.2769" style="stroke:#37474F;stroke-width:1.4;"/><text fill="#000000" font-family="sans-serif" font-size="13" lengthAdjust="spacing" textLength="29.7832" x="408" y="184.3638">uses</text></g><!--reverse link RecommendationStrategy to MoodBasedStrategy--><g class="link" data-entity-1="RecommendationStrategy" data-entity-2="MoodBasedStrategy" data-source-line="46" data-uid="lnk7" id="link_RecommendationStrategy_MoodBasedStrategy"><path codeLine="46" d="M241.6462,293.6582 C218.6062,312.2982 203.38,324.6269 180.34,343.2669" fill="none" id="RecommendationStrategy-backto-MoodBasedStrategy" style="stroke:#37474F;stroke-width:1.4;stroke-dasharray:7.0,7.0;"/><polygon fill="none" points="255.64,282.3369,237.8724,288.9936,245.42,298.3228,255.64,282.3369" style="stroke:#37474F;stroke-width:1.4;"/></g><!--reverse link RecommendationStrategy to TimeBasedStrategy--><g class="link" data-entity-1="RecommendationStrategy" data-entity-2="TimeBasedStrategy" data-source-line="47" data-uid="lnk8" id="link_RecommendationStrategy_TimeBasedStrategy"><path codeLine="47" d="M346.6396,293.6138 C369.8296,312.2538 385.21,324.6269 408.4,343.2669" fill="none" id="RecommendationStrategy-backto-TimeBasedStrategy" style="stroke:#37474F;stroke-width:1.4;stroke-dasharray:7.0,7.0;"/><polygon fill="none" points="332.61,282.3369,342.8806,298.2904,350.3986,288.9373,332.61,282.3369" style="stroke:#37474F;stroke-width:1.4;"/></g><!--SRC=[fLHTQjj047xNAGRwO9iYnswSk1XZS5Atf2GbHARlA-r8NhpQCQjrWziKUe3U8T2ZzGGzGcVrKwmOjv3gIJFV_7tVZDI1Nu_V7o6QlryihZi5t0gDpY64S4CIhO5RIoaMXI8ZD2nNc2DqFw9rAc7xMknewtf11yB_U0976t04CJb7EKXbCN7SCAZgmZjDCJUBt4wZTmJ5MfcDi2A7M2JhpDBMo4lIPE55EahFqzTx4SLAIBfN9WDdjxW7b5a9MOCMNWtsWBcrT5-NEnsFngFqARXSgMHjM1KOzaVDb9TQiCCFwPkrnqnAx4i0S74mSFbuX2mBNdk7P-TdoO2zRycusZUGex4Orhv8VKOOdZPMAKrCMh8ZQZF-sWouLAxMpvLlqtWsJNpfILrwDh-2Eqmepz58uJV0TAnmcEtuBlWg-1mgbc-Ko9ZNzAJCdqrFubbB1Yn060bNXdDIaR3fswh6VDBbJnClqCiCUIDijsEARcy2dqX9pwUICyg5TUseXScKmR9EMDHL9qUw-Lu5kiRi_Yk-vnDi0nsESqCaBqI1yfbqbYh7v-LNmj-Xhg2LsbHw7nSe36V7TZ21BQylE89E7_hzGwP_ZJxWrGpyWLnz68RVcg-VqkEBPJr-Vli14Mh-GLGd9ZORhRXCipsGEoDo_tFIku2pmTV-3G00]--></g></svg>