<svg xmlns="http://www.w3.org/2000/svg" xmlns:xlink="http://www.w3.org/1999/xlink" contentStyleType="text/css" data-diagram-type="CLASS" height="434px" preserveAspectRatio="none" style="width:557px;height:434px;background:#F4F6F8;" version="1.1" viewBox="0 0 557 434" width="557px" zoomAndPan="magnify"><title>&lt;b&gt;&lt;color:#1565c0&gt;&#129513; SafeHome Interfaces Description&lt;/color&gt;&lt;/b&gt;</title><defs><filter height="300%" id="ftk7lezuo22t4" width="300%" x="-1" y="-1"><feGaussianBlur result="blurOut" stdDeviation="2"/><feColorMatrix in="blurOut" result="blurOut2" type="matrix" values="0 0 0 0 0 0 0 0 0 0 0 0 0 0 0 0 0 0 .4 0"/><feOffset dx="4" dy="4" in="blurOut2" result="blurOut3"/><feBlend in="SourceGraphic" in2="blurOut3" mode="normal"/></filter></defs><g><rect fill="#F4F6F8" height="434" style="stroke:none;stroke-width:1;" width="557" x="0" y="0"/><g class="title" data-source-line="24"><text fill="#1565C0" font-family="sans-serif" font-size="14" font-weight="bold" lengthAdjust="spacing" textLength="274.0391" x="129.2844" y="22.9951">&#129513; SafeHome Interfaces Description</text></g><!--class Sensor--><g class="entity" data-entity="Sensor" data-source-line="27" data-uid="ent0002" id="entity_Sensor"><rect fill="#FCE4EC" filter="url(#ftk7lezuo22t4)" height="96.8906" rx="11" ry="11" style="stroke:#181818;stroke-width:0.5;" width="181.0869" x="67" y="44.2969"/><ellipse cx="129.2993" cy="60.2969" fill="#B4A7E5" rx="11" ry="11" style="stroke:#181818;stroke-width:1;"/><path d="M125.2212,56.0625 L125.2212,53.9063 L132.6118,53.9063 L132.6118,56.0625 L130.1431,56.0625 L130.1431,64.1406 L132.6118,64.1406 L132.6118,66.2969 L125.2212,66.2969 L125.2212,64.1406 L127.6899,64.1406 L127.6899,56.0625 L125.2212,56.0625 Z " fill="#000000"/><text fill="#000000" font-family="sans-serif" font-size="14" font-style="italic" lengthAdjust="spacing" textLength="47.9883" x="149.7993" y="65.1436">Sensor</text><line style="stroke:#181818;stroke-width:0.5;" x1="68" x2="247.0869" y1="76.2969" y2="76.2969"/><line style="stroke:#181818;stroke-width:0.5;" x1="68" x2="247.0869" y1="84.2969" y2="84.2969"/><ellipse cx="78" cy="97.9453" fill="#84BE84" rx="3" ry="3" style="stroke:#038048;stroke-width:1;"/><text fill="#000000" font-family="sans-serif" font-size="14" lengthAdjust="spacing" textLength="106.3398" x="87" y="101.292">activate(): void</text><ellipse cx="78" cy="114.2422" fill="#84BE84" rx="3" ry="3" style="stroke:#038048;stroke-width:1;"/><text fill="#000000" font-family="sans-serif" font-size="14" lengthAdjust="spacing" textLength="123.8398" x="87" y="117.5889">deactivate(): void</text><ellipse cx="78" cy="130.5391" fill="#84BE84" rx="3" ry="3" style="stroke:#038048;stroke-width:1;"/><text fill="#000000" font-family="sans-serif" font-size="14" lengthAdjust="spacing" textLength="155.0869" x="87" y="133.8857">isTriggered(): boolean</text></g><!--class AlarmSystem--><g class="entity" data-entity="AlarmSystem" data-source-line="33" data-uid="ent0003" id="entity_AlarmSystem"><rect fill="#C8E6C9" filter="url(#ftk7lezuo22t4)" height="80.5938" rx="11" ry="11" style="stroke:#181818;stroke-width:0.5;" width="159.6494" x="77.5" y="201.2969"/><ellipse cx="107.8018" cy="217.2969" fill="#B4A7E5" rx="11" ry="11" style="stroke:#181818;stroke-width:1;"/><path d="M103.7236,213.0625 L103.7236,210.9063 L111.1143,210.9063 L111.1143,213.0625 L108.6455,213.0625 L108.6455,221.1406 L111.1143,221.1406 L111.1143,223.2969 L103.7236,223.2969 L103.7236,221.1406 L106.1924,221.1406 L106.1924,213.0625 L103.7236,213.0625 Z " fill="#000000"/><text fill="#000000" font-family="sans-serif" font-size="14" font-style="italic" lengthAdjust="spacing" textLength="93.6455" x="125.2021" y="222.1436">AlarmSystem</text><line style="stroke:#181818;stroke-width:0.5;" x1="78.5" x2="236.1494" y1="233.2969" y2="233.2969"/><line style="stroke:#181818;stroke-width:0.5;" x1="78.5" x2="236.1494" y1="241.2969" y2="241.2969"/><ellipse cx="88.5" cy="254.9453" fill="#84BE84" rx="3" ry="3" style="stroke:#038048;stroke-width:1;"/><text fill="#000000" font-family="sans-serif" font-size="14" lengthAdjust="spacing" textLength="133.6494" x="97.5" y="258.292">soundAlarm(): void</text><ellipse cx="88.5" cy="271.2422" fill="#84BE84" rx="3" ry="3" style="stroke:#038048;stroke-width:1;"/><text fill="#000000" font-family="sans-serif" font-size="14" lengthAdjust="spacing" textLength="121.3926" x="97.5" y="274.5889">stopAlarm(): void</text></g><!--class UserInterface--><g class="entity" data-entity="UserInterface" data-source-line="38" data-uid="ent0004" id="entity_UserInterface"><rect fill="#FFF9C4" filter="url(#ftk7lezuo22t4)" height="80.5938" rx="11" ry="11" style="stroke:#181818;stroke-width:0.5;" width="300.6543" x="7" y="342.2969"/><ellipse cx="105.7827" cy="358.2969" fill="#B4A7E5" rx="11" ry="11" style="stroke:#181818;stroke-width:1;"/><path d="M101.7046,354.0625 L101.7046,351.9063 L109.0952,351.9063 L109.0952,354.0625 L106.6265,354.0625 L106.6265,362.1406 L109.0952,362.1406 L109.0952,364.2969 L101.7046,364.2969 L101.7046,362.1406 L104.1733,362.1406 L104.1733,354.0625 L101.7046,354.0625 Z " fill="#000000"/><text fill="#000000" font-family="sans-serif" font-size="14" font-style="italic" lengthAdjust="spacing" textLength="94.5889" x="126.2827" y="363.1436">UserInterface</text><line style="stroke:#181818;stroke-width:0.5;" x1="8" x2="306.6543" y1="374.2969" y2="374.2969"/><line style="stroke:#181818;stroke-width:0.5;" x1="8" x2="306.6543" y1="382.2969" y2="382.2969"/><ellipse cx="18" cy="395.9453" fill="#84BE84" rx="3" ry="3" style="stroke:#038048;stroke-width:1;"/><text fill="#000000" font-family="sans-serif" font-size="14" lengthAdjust="spacing" textLength="274.6543" x="27" y="399.292">displayMessage(message: String): void</text><ellipse cx="18" cy="412.2422" fill="#84BE84" rx="3" ry="3" style="stroke:#038048;stroke-width:1;"/><text fill="#000000" font-family="sans-serif" font-size="14" lengthAdjust="spacing" textLength="153.0225" x="27" y="415.5889">getUserInput(): String</text></g><g class="entity" data-entity="GMN7" data-source-line="49" data-uid="ent0008" id="entity_GMN7"><path d="M283.5,83.7969 L283.5,88.7969 L248.44,92.7969 L283.5,96.7969 L283.5,102.0625 A11,11 0 0 0 294.5,113.0625 L500.6812,113.0625 A11,11 0 0 0 511.6812,102.0625 L511.6812,82.7969 L501.6812,72.7969 L294.5,72.7969 A11,11 0 0 0 283.5,83.7969" fill="#E8F0FE" filter="url(#ftk7lezuo22t4)" style="stroke:#181818;stroke-width:0.5;"/><path d="M501.6812,72.7969 L501.6812,77.2969 A5.5,5.5 0 0 0 507.1812,82.7969 L511.6812,82.7969 L501.6812,72.7969" fill="#E8F0FE" style="stroke:#181818;stroke-width:0.5;"/><text fill="#000000" font-family="sans-serif" font-size="13" lengthAdjust="spacing" textLength="181.1875" x="289.5" y="89.8638">&#128161; Detects motion or activity</text><text fill="#000000" font-family="sans-serif" font-size="13" lengthAdjust="spacing" textLength="207.1812" x="289.5" y="104.9966">and reports status to controller.</text></g><g class="entity" data-entity="GMN10" data-source-line="54" data-uid="ent0011" id="entity_GMN10"><path d="M272.5,232.7969 L272.5,237.7969 L237.71,241.7969 L272.5,245.7969 L272.5,251.0625 A11,11 0 0 0 283.5,262.0625 L475.1387,262.0625 A11,11 0 0 0 486.1387,251.0625 L486.1387,231.7969 L476.1387,221.7969 L283.5,221.7969 A11,11 0 0 0 272.5,232.7969" fill="#D1C4E9" filter="url(#ftk7lezuo22t4)" style="stroke:#181818;stroke-width:0.5;"/><path d="M476.1387,221.7969 L476.1387,226.2969 A5.5,5.5 0 0 0 481.6387,231.7969 L486.1387,231.7969 L476.1387,221.7969" fill="#D1C4E9" style="stroke:#181818;stroke-width:0.5;"/><text fill="#000000" font-family="sans-serif" font-size="13" lengthAdjust="spacing" textLength="188.5063" x="278.5" y="238.8638">&#128276; Manages alert notifications</text><text fill="#000000" font-family="sans-serif" font-size="13" lengthAdjust="spacing" textLength="176.2935" x="278.5" y="253.9966">and emergency responses.</text></g><g class="entity" data-entity="GMN13" data-source-line="59" data-uid="ent0014" id="entity_GMN13"><path d="M343,373.7969 L343,378.7969 L308.1,382.7969 L343,386.7969 L343,392.0625 A11,11 0 0 0 354,403.0625 L528.6079,403.0625 A11,11 0 0 0 539.6079,392.0625 L539.6079,372.7969 L529.6079,362.7969 L354,362.7969 A11,11 0 0 0 343,373.7969" fill="#FFE0B2" filter="url(#ftk7lezuo22t4)" style="stroke:#181818;stroke-width:0.5;"/><path d="M529.6079,362.7969 L529.6079,367.2969 A5.5,5.5 0 0 0 535.1079,372.7969 L539.6079,372.7969 L529.6079,362.7969" fill="#FFE0B2" style="stroke:#181818;stroke-width:0.5;"/><text fill="#000000" font-family="sans-serif" font-size="13" lengthAdjust="spacing" textLength="171.4756" x="349" y="379.8638">&#129504; Handles user interaction</text><text fill="#000000" font-family="sans-serif" font-size="13" lengthAdjust="spacing" textLength="164.5503" x="349" y="394.9966">and system input/output.</text></g><!--link Sensor to AlarmSystem--><g class="link" data-entity-1="Sensor" data-entity-2="AlarmSystem" data-source-line="44" data-uid="lnk5" id="link_Sensor_AlarmSystem"><path codeLine="44" d="M157.5,141.5269 C157.5,160.8069 157.5,176.7969 157.5,195.1769" fill="none" id="Sensor-to-AlarmSystem" style="stroke:#37474F;stroke-width:1.4;"/><polygon fill="#37474F" points="157.5,201.1769,161.5,192.1769,157.5,196.1769,153.5,192.1769,157.5,201.1769" style="stroke:#37474F;stroke-width:1.4;"/></g><!--link AlarmSystem to UserInterface--><g class="link" data-entity-1="AlarmSystem" data-entity-2="UserInterface" data-source-line="45" data-uid="lnk6" id="link_AlarmSystem_UserInterface"><path codeLine="45" d="M157.5,282.6269 C157.5,301.2369 157.5,317.3469 157.5,335.9569" fill="none" id="AlarmSystem-to-UserInterface" style="stroke:#37474F;stroke-width:1.4;"/><polygon fill="#37474F" points="157.5,341.9569,161.5,332.9569,157.5,336.9569,153.5,332.9569,157.5,341.9569" style="stroke:#37474F;stroke-width:1.4;"/></g><!--SRC=[TLJDRjGm4BxdAKQgH5kXRNTB-glLIWij5DGYH1RkZZF9MdNioFPI0k8LEA3U2wUAj-iZC7QItKrRJavcnlFDVDzuDk7-zjTFIARlpiukDYryO1ATGnX0md8yroN2M-NGv8oZXQtFQ9pWJC85g_N2RKVH9Wm6W_ONdi6fCCYTqCgR8wShS1fIxPmk8UjytQqtKgUKQpP7Wl7nzageYXbMGihuLM7qGcMljDG6Dl8uFyYFrYBid6NwMgW2d5dWcYFSujeeDB2tj-QO6gElstGl3kF3E7_edCq5lr9eBOnsugxAPV-Gk5fwm7wfOkd_7W6yV5Wu7kN37Br7cmnDQntj7-pp8LbVQ-LQsp2B3zcejINY6y8exlu86Ob7cP4XwNV-eojq9fniU7JXQvnEnjodFcdX9lUtTt-V5FOKBJUYykACTyEToNWtdJoYW4OWSTGXPj2DWgot0-QAXWIL3P9nZ947Lfu38-M_C8TRsoVmHOii63DyqYpip8YYG8EPjwTQIsJADxe2cKfcogIs3alOu4Tum8zR9El93-vUKal3sBVsydsoQ5PAR-HvVipZDcCcR2LPVKc3mGhSAflpXER1a0hh80Mw9b6rS1wdYLX9z14byoJRkQWivCJIyaLDfIXKYSe5DbiE1oIq6apMkutME-_ylUexiFVQOGDozfNgLspvBXLvW2YUEz3vKg_bfD9A-4CZuUYrMYXrk4O1GIlXQg0GfZ8mM6b34TOnjx3-eNCQLQEbHBCJ8KLudEW1Ma-uRCHZF0wGDpTmIJKML3Bj8EFyPP4JDO6l3fCsXIbGyPhGRKKEjF-7UgGf3jEz07Rt6yufdIIm1GKrRvWrYwj5ias9makvIykDZXNIFm00]--></g></svg>