<svg xmlns="http://www.w3.org/2000/svg" xmlns:xlink="http://www.w3.org/1999/xlink" contentStyleType="text/css" data-diagram-type="ACTIVITY" height="529px" preserveAspectRatio="none" style="width:427px;height:529px;background:#F4F6F8;" version="1.1" viewBox="0 0 427 529" width="427px" zoomAndPan="magnify"><title>&lt;b&gt;&lt;color:#0d47a1&gt;&#128272; Activity Diagram - armSystem()&lt;/color&gt;&lt;/b&gt;</title><defs><filter height="300%" id="fl6br2zzpr8d1" width="300%" x="-1" y="-1"><feGaussianBlur result="blurOut" stdDeviation="2"/><feColorMatrix in="blurOut" result="blurOut2" type="matrix" values="0 0 0 0 0 0 0 0 0 0 0 0 0 0 0 0 0 0 .4 0"/><feOffset dx="4" dy="4" in="blurOut2" result="blurOut3"/><feBlend in="SourceGraphic" in2="blurOut3" mode="normal"/></filter></defs><g><rect fill="#F4F6F8" height="529" style="stroke:none;stroke-width:1;" width="427" x="0" y="0"/><g class="title" data-source-line="8"><rect fill="#BBDEFB" height="30.9531" rx="12.5" ry="12.5" style="stroke:#1565C0;stroke-width:1;" width="348.0889" x="33.2056" y="5"/><text fill="#0D47A1" font-family="Segoe UI" font-size="18" font-weight="bold" lengthAdjust="spacing" textLength="338.0889" x="38.2056" y="26.708">&#128272; Activity Diagram - armSystem()</text></g><ellipse cx="245.5" cy="63.9531" fill="#222222" filter="url(#fl6br2zzpr8d1)" rx="10" ry="10" style="stroke:#222222;stroke-width:1;"/><rect fill="#E3F2FD" filter="url(#fl6br2zzpr8d1)" height="35.1328" rx="12.5" ry="12.5" style="stroke:#1565C0;stroke-width:0.5;" width="135.0703" x="178" y="114.9531"/><text fill="#0D47A1" font-family="Segoe UI" font-size="13" font-weight="bold" lengthAdjust="spacing" textLength="115.0703" x="188" y="137.02">User enters PIN</text><rect fill="#C8E6C9" filter="url(#fl6br2zzpr8d1)" height="35.1328" rx="12.5" ry="12.5" style="stroke:#1565C0;stroke-width:0.5;" width="110.6255" x="190" y="186.9531"/><text fill="#0D47A1" font-family="Segoe UI" font-size="13" font-weight="bold" lengthAdjust="spacing" textLength="90.6255" x="200" y="209.02">Validate PIN</text><g class="entity" data-entity="#7" data-uid="ent0008" id="entity_#7"><polygon fill="#C8E6C9" filter="url(#fl6br2zzpr8d1)" points="245.5,258.9531,257.5,270.9531,245.5,282.9531,233.5,270.9531,245.5,258.9531" style="stroke:#2E7D32;stroke-width:0.5;"/></g><rect fill="#FCE4EC" filter="url(#fl6br2zzpr8d1)" height="35.1328" rx="12.5" ry="12.5" style="stroke:#1565C0;stroke-width:0.5;" width="225.0483" x="6" y="337.9531"/><text fill="#0D47A1" font-family="Segoe UI" font-size="13" font-weight="bold" lengthAdjust="spacing" textLength="205.0483" x="16" y="360.02">Set systemStatus = 'Armed'</text><rect fill="#D1C4E9" filter="url(#fl6br2zzpr8d1)" height="35.1328" rx="12.5" ry="12.5" style="stroke:#1565C0;stroke-width:0.5;" width="164.0791" x="36.5" y="409.9531"/><text fill="#0D47A1" font-family="Segoe UI" font-size="13" font-weight="bold" lengthAdjust="spacing" textLength="144.0791" x="46.5" y="432.02">Activate all sensors</text><rect fill="#C8E6C9" filter="url(#fl6br2zzpr8d1)" height="35.1328" rx="12.5" ry="12.5" style="stroke:#1565C0;stroke-width:0.5;" width="193.2974" x="22" y="481.9531"/><text fill="#0D47A1" font-family="Segoe UI" font-size="13" font-weight="bold" lengthAdjust="spacing" textLength="173.2974" x="32" y="504.02">Display 'System Armed'</text><rect fill="#FFE0B2" filter="url(#fl6br2zzpr8d1)" height="35.1328" rx="12.5" ry="12.5" style="stroke:#1565C0;stroke-width:0.5;" width="165.8057" x="249.5" y="337.9531"/><text fill="#0D47A1" font-family="Segoe UI" font-size="13" font-weight="bold" lengthAdjust="spacing" textLength="145.8057" x="259.5" y="360.02">Display 'Invalid PIN'</text><ellipse cx="332.5" cy="426.4531" fill="none" filter="url(#fl6br2zzpr8d1)" rx="11" ry="11" style="stroke:#222222;stroke-width:1;"/><ellipse cx="332.5" cy="426.4531" fill="#222222" rx="6" ry="6" style="stroke:#222222;stroke-width:1;"/><g class="link" data-entity-1="start" data-entity-2="User enters PIN" data-uid="lnk4" id="link_start_User enters PIN"><polygon fill="#607D8B" points="245.5,114.7799,249.5,105.7799,245.5,109.7799,241.5,105.7799,245.5,114.7799" style="stroke:#607D8B;stroke-width:1;"/><path d="M245.5,78.1882 C245.5,88.2942 245.5,97.2769 245.5,108.7799" fill="none" style="stroke:#607D8B;stroke-width:1.4;"/></g><g class="link" data-entity-1="User enters PIN" data-entity-2="Validate PIN" data-uid="lnk6" id="link_User enters PIN_Validate PIN"><polygon fill="#607D8B" points="245.5,186.4969,249.5,177.4969,245.5,181.4969,241.5,177.4969,245.5,186.4969" style="stroke:#607D8B;stroke-width:1;"/><path d="M245.5,150.0421 C245.5,161.039 245.5,169.4257 245.5,180.4969" fill="none" style="stroke:#607D8B;stroke-width:1.4;"/></g><g class="link" data-entity-1="Validate PIN" data-entity-2="#7" data-uid="lnk9" id="link_Validate PIN_#7"><polygon fill="#37474F" points="245.5,258.6789,249.5,249.6789,245.5,253.6789,241.5,249.6789,245.5,258.6789" style="stroke:#37474F;stroke-width:1;"/><path d="M245.5,222.0635 C245.5,233.5599 245.5,242.5549 245.5,252.6789" fill="none" style="stroke:#37474F;stroke-width:1.4;"/><text fill="#000000" font-family="Segoe UI" font-size="13" lengthAdjust="spacing" textLength="63.5654" x="181.5" y="254.7458">PIN valid?</text></g><g class="link" data-entity-1="#7" data-entity-2="Set systemStatus = 'Armed'" data-uid="lnk11" id="link_#7_Set systemStatus = 'Armed'"><polygon fill="#37474F" points="143.9451,337.9238,153.6715,336.3754,148.1381,335.2,149.3134,329.6666,143.9451,337.9238" style="stroke:#37474F;stroke-width:1;"/><path d="M233.3227,279.8636 C212.8349,293.1726 176.089,317.0429 148.9767,334.6553" fill="none" style="stroke:#37474F;stroke-width:1.4;"/><text fill="#000000" font-family="Segoe UI" font-size="13" lengthAdjust="spacing" textLength="22.7119" x="203.5" y="315.02">Yes</text></g><g class="link" data-entity-1="Set systemStatus = 'Armed'" data-entity-2="Activate all sensors" data-uid="lnk13" id="link_Set systemStatus = 'Armed'_Activate all sensors"><polygon fill="#37474F" points="118.5,409.4969,122.5,400.4969,118.5,404.4969,114.5,400.4969,118.5,409.4969" style="stroke:#37474F;stroke-width:1;"/><path d="M118.5,373.0421 C118.5,384.039 118.5,392.4257 118.5,403.4969" fill="none" style="stroke:#37474F;stroke-width:1.4;"/></g><g class="link" data-entity-1="Activate all sensors" data-entity-2="Display 'System Armed'" data-uid="lnk15" id="link_Activate all sensors_Display 'System Armed'"><polygon fill="#37474F" points="118.5,481.4969,122.5,472.4969,118.5,476.4969,114.5,472.4969,118.5,481.4969" style="stroke:#37474F;stroke-width:1;"/><path d="M118.5,445.0421 C118.5,456.039 118.5,464.4257 118.5,475.4969" fill="none" style="stroke:#37474F;stroke-width:1.4;"/></g><g class="link" data-entity-1="#7" data-entity-2="Display 'Invalid PIN'" data-uid="lnk17" id="link_#7_Display 'Invalid PIN'"><polygon fill="#37474F" points="314.9466,337.8077,311.1684,328.7123,311.3185,334.3672,305.6636,334.5173,314.9466,337.8077" style="stroke:#37474F;stroke-width:1;"/><path d="M257.2332,283.0794 C272.0753,297.1538 293.4121,317.387 310.5929,333.6791" fill="none" style="stroke:#37474F;stroke-width:1.4;"/><text fill="#000000" font-family="Segoe UI" font-size="13" lengthAdjust="spacing" textLength="17.6782" x="296.5" y="315.02">No</text></g><g class="link" data-entity-1="Display 'Invalid PIN'" data-entity-2="end" data-uid="lnk19" id="link_Display 'Invalid PIN'_end"><polygon fill="#607D8B" points="332.5,415.4362,336.5,406.4362,332.5,410.4362,328.5,406.4362,332.5,415.4362" style="stroke:#607D8B;stroke-width:1;"/><path d="M332.5,373.0421 C332.5,386.1413 332.5,398.0504 332.5,409.4362" fill="none" style="stroke:#607D8B;stroke-width:1.4;"/></g><!--SRC=[fLJTQXD15BxVfpYcO58XcfzjafOOYRQ5IWs5j0KflPYTEPCCtPqfCvEMA0KVG4J46w_wRZv17y6pcqtS_A3GvcfpVh_pVMTE6Lu_zXUKuU7-npSOzjyV71oN7Pom6Br7gC878z1gEB56edFAQ1P3dtjre_mKzXKRMPPGUlwr1ymcmwdpc5IsoVnuHC-kBHib368sDHCFBa7FD0kykGPl83BUcmI4iaXOZ0u2htoCq8rwNMvYO_UsQY9iithluVxdzpN0D5S1P_TLbjBhlefwmG8ql6KEuNIC2K9bHiplBxyMr6pdOO6xKlgQfKKZngz6raoqU9VMWoqPofRi52BSc0bpg_G8l9rWmP5bSMCrMcZi51nzQyrjNgxP3jkXN7MUZXM_qgGDr5-61VYBcGUae5j7o-R-pm7Gh2lGiIDh4bEFiRG0kRM-qzhXDR8U6krpsupdt3PKdn3guVoVdv8caOa56ORBiqEgHMAqM6iTHG9bL0We8bXqovsRW1HS1GHt1MvEisLPesIsGnlvM81w31-TJNoSC25IDkgrTNBkbdJag3sfw4d5vx2Fj2OitVaDcceAsenVIhdBmrNyCkArXbZ6dszP4V5rp9J-3qeQni-lGmOuI_t7tkKgRORBEzZYkwjm6zWMpSPItnJaUW_IYarYdpe7ZDvlQOWZWt1sLDeSD9Ef6JpfOgKtzElzttTt69jRg9oZzOeJBSVP8NlQKQoys8RgnLQhrXQTwBBQWzAPeuj1TAEbotGqAD7BRSg65C5os3cBbM2q7BEOdDv0IIYH1MvIzviI-36cEbSfvU8ZkikKEBgzsPqSUkOdf2UK-pP1KQOoacE8F4yePOEdFLWSWqFjZ7KK9EeynDrvqBvoj4rJAC-EBongvP0mTZX7C32NXOGZdQ5C9yXwIwn5ZG2rK39OdfPO-WC0]--></g></svg>