<svg xmlns="http://www.w3.org/2000/svg" xmlns:xlink="http://www.w3.org/1999/xlink" contentStyleType="text/css" data-diagram-type="STATE" height="586px" preserveAspectRatio="none" style="width:645px;height:586px;background:#F4F6F8;" version="1.1" viewBox="0 0 645 586" width="645px" zoomAndPan="magnify"><title>&lt;b&gt;&lt;color:#1565c0&gt;&#128274; State-Chart Diagram - SecurityControl&lt;/color&gt;&lt;/b&gt;</title><defs><filter height="300%" id="f15rof3blmt13l" width="300%" x="-1" y="-1"><feGaussianBlur result="blurOut" stdDeviation="2"/><feColorMatrix in="blurOut" result="blurOut2" type="matrix" values="0 0 0 0 0 0 0 0 0 0 0 0 0 0 0 0 0 0 .4 0"/><feOffset dx="4" dy="4" in="blurOut2" result="blurOut3"/><feBlend in="SourceGraphic" in2="blurOut3" mode="normal"/></filter></defs><g><rect fill="#F4F6F8" height="586" style="stroke:none;stroke-width:1;" width="645" x="0" y="0"/><g class="title" data-source-line="9"><rect fill="#BBDEFB" height="30.9531" rx="12.5" ry="12.5" style="stroke:#1565C0;stroke-width:1;" width="415.3604" x="104.8198" y="5"/><text fill="#1565C0" font-family="Segoe UI" font-size="18" font-weight="bold" lengthAdjust="spacing" textLength="405.3604" x="109.8198" y="26.708">&#128274; State-Chart Diagram - SecurityControl</text></g><g id="Disarmed"><rect fill="#C8E6C9" filter="url(#f15rof3blmt13l)" height="50" rx="12.5" ry="12.5" style="stroke:#1565C0;stroke-width:0.5;" width="89.8369" x="224" y="132.9531"/><line style="stroke:#1565C0;stroke-width:0.5;" x1="224" x2="313.8369" y1="158.0859" y2="158.0859"/><text fill="#0D47A1" font-family="Segoe UI" font-size="13" font-weight="bold" lengthAdjust="spacing" textLength="69.8369" x="234" y="150.02">Disarmed</text></g><g id="Armed"><rect fill="#D1C4E9" filter="url(#f15rof3blmt13l)" height="50" rx="12.5" ry="12.5" style="stroke:#1565C0;stroke-width:0.5;" width="68.1406" x="104" y="237.9531"/><line style="stroke:#1565C0;stroke-width:0.5;" x1="104" x2="172.1406" y1="263.0859" y2="263.0859"/><text fill="#0D47A1" font-family="Segoe UI" font-size="13" font-weight="bold" lengthAdjust="spacing" textLength="48.1406" x="114" y="255.02">Armed</text></g><g id="Triggered"><rect fill="#FCE4EC" filter="url(#f15rof3blmt13l)" height="50" rx="12.5" ry="12.5" style="stroke:#1565C0;stroke-width:0.5;" width="91.6968" x="6" y="342.9531"/><line style="stroke:#1565C0;stroke-width:0.5;" x1="6" x2="97.6968" y1="368.0859" y2="368.0859"/><text fill="#0D47A1" font-family="Segoe UI" font-size="13" font-weight="bold" lengthAdjust="spacing" textLength="71.6968" x="16" y="360.02">Triggered</text></g><g id="AlertSent"><rect fill="#FFE0B2" filter="url(#f15rof3blmt13l)" height="50" rx="12.5" ry="12.5" style="stroke:#1565C0;stroke-width:0.5;" width="89.6084" x="270" y="447.9531"/><line style="stroke:#1565C0;stroke-width:0.5;" x1="270" x2="359.6084" y1="473.0859" y2="473.0859"/><text fill="#0D47A1" font-family="Segoe UI" font-size="13" font-weight="bold" lengthAdjust="spacing" textLength="69.6084" x="280" y="465.02">AlertSent</text></g><ellipse cx="269" cy="63.9531" fill="#222222" filter="url(#f15rof3blmt13l)" rx="10" ry="10" style="stroke:#222222;stroke-width:1;"/><ellipse cx="315" cy="563.9531" fill="none" filter="url(#f15rof3blmt13l)" rx="11" ry="11" style="stroke:#222222;stroke-width:1;"/><ellipse cx="315" cy="563.9531" fill="#222222" rx="6" ry="6" style="stroke:#222222;stroke-width:1;"/><g class="entity" data-entity="GMN2" data-source-line="74" data-uid="ent0003" id="entity_GMN2"><path d="M332,157.9531 L332,153.9531 L314.1172,157.9531 L332,161.9531 L332,158.0859 A12.5,12.5 0 0 0 344.5,170.5859 L613.3984,170.5859 A12.5,12.5 0 0 0 625.8984,158.0859 L625.8984,155.4531 L615.8984,145.4531 L344.5,145.4531 A12.5,12.5 0 0 0 332,157.9531" fill="#FFF9C4" filter="url(#f15rof3blmt13l)" style="stroke:#FBC02D;stroke-width:0.5;"/><path d="M615.8984,145.4531 L615.8984,149.2031 A6.25,6.25 0 0 0 622.1484,155.4531 L625.8984,155.4531 L615.8984,145.4531" fill="#FFF9C4" style="stroke:#FBC02D;stroke-width:0.5;"/><text fill="#37474F" font-family="Segoe UI" font-size="13" lengthAdjust="spacing" textLength="272.8984" x="338" y="162.52">&#128994; Initial system state &#8212; inactive and safe.</text></g><g class="entity" data-entity="GMN5" data-source-line="78" data-uid="ent0006" id="entity_GMN5"><path d="M116,367.9531 L116,363.9531 L98.375,367.9531 L116,371.9531 L116,368.0859 A12.5,12.5 0 0 0 128.5,380.5859 L399.5122,380.5859 A12.5,12.5 0 0 0 412.0122,368.0859 L412.0122,365.4531 L402.0122,355.4531 L128.5,355.4531 A12.5,12.5 0 0 0 116,367.9531" fill="#FFF9C4" filter="url(#f15rof3blmt13l)" style="stroke:#FBC02D;stroke-width:0.5;"/><path d="M402.0122,355.4531 L402.0122,359.2031 A6.25,6.25 0 0 0 408.2622,365.4531 L412.0122,365.4531 L402.0122,355.4531" fill="#FFF9C4" style="stroke:#FBC02D;stroke-width:0.5;"/><text fill="#37474F" font-family="Segoe UI" font-size="13" lengthAdjust="spacing" textLength="275.0122" x="122" y="372.52">&#128308; Sensors detect movement; alarm ready.</text></g><g class="entity" data-entity="GMN8" data-source-line="82" data-uid="ent0009" id="entity_GMN8"><path d="M378,472.9531 L378,468.9531 L360.2207,472.9531 L378,476.9531 L378,473.0859 A12.5,12.5 0 0 0 390.5,485.5859 L577.0313,485.5859 A12.5,12.5 0 0 0 589.5313,473.0859 L589.5313,470.4531 L579.5313,460.4531 L390.5,460.4531 A12.5,12.5 0 0 0 378,472.9531" fill="#FFF9C4" filter="url(#f15rof3blmt13l)" style="stroke:#FBC02D;stroke-width:0.5;"/><path d="M579.5313,460.4531 L579.5313,464.2031 A6.25,6.25 0 0 0 585.7813,470.4531 L589.5313,470.4531 L579.5313,460.4531" fill="#FFF9C4" style="stroke:#FBC02D;stroke-width:0.5;"/><text fill="#37474F" font-family="Segoe UI" font-size="13" lengthAdjust="spacing" textLength="190.5313" x="384" y="477.52">&#128226; System sends alert to user.</text></g><g class="link" data-entity-1="*start*" data-entity-2="Disarmed" data-uid="lnk3" id="link_*start*_Disarmed"><polygon fill="#607D8B" points="269,132.5978,273,123.5978,269,127.5978,265,123.5978,269,132.5978" style="stroke:#607D8B;stroke-width:1;"/><path d="M269,77.9889 C269,91.5072 269,108.8022 269,126.5978" fill="none" style="stroke:#607D8B;stroke-width:1.4;"/><text fill="#000000" font-family="Segoe UI" font-size="13" lengthAdjust="spacing" textLength="99.3789" x="271" y="110.02">System startup</text></g><g class="link" data-entity-1="Disarmed" data-entity-2="Armed" data-uid="lnk4" id="link_Disarmed_Armed"><polygon fill="#1565C0" points="132.2148,237.8462,135.0899,228.4264,131.6063,232.8834,127.1493,229.3999,132.2148,237.8462" style="stroke:#1565C0;stroke-width:1;"/><path d="M223.6976,160.7718 C194.4695,164.5721 158.4065,174.7433 139,200.9531 C131.3106,211.3381 129.993,219.7233 131.4847,231.8908" fill="none" style="stroke:#1565C0;stroke-width:1.4;"/><text fill="#000000" font-family="Segoe UI" font-size="13" lengthAdjust="spacing" textLength="104.6982" x="141" y="215.02">armSystem(pin)</text></g><g class="link" data-entity-1="Armed" data-entity-2="Triggered" data-uid="lnk5" id="link_Armed_Triggered"><polygon fill="#1565C0" points="72.3348,342.5986,81.1735,338.2538,75.5394,338.7606,75.0326,333.1265,72.3348,342.5986" style="stroke:#1565C0;stroke-width:1;"/><path d="M117.8368,288.102 C104.1344,304.5131 89.919,321.5385 76.1803,337.993" fill="none" style="stroke:#1565C0;stroke-width:1.4;"/><text fill="#000000" font-family="Segoe UI" font-size="13" lengthAdjust="spacing" textLength="108.8433" x="105" y="320.02">Sensor triggered</text></g><g class="link" data-entity-1="Triggered" data-entity-2="AlertSent" data-uid="lnk6" id="link_Triggered_AlertSent"><polygon fill="#B71C1C" points="269.7157,455.4738,262.6505,448.6122,265.0233,453.7473,259.8881,456.1201,269.7157,455.4738" style="stroke:#B71C1C;stroke-width:1;"/><path d="M98.1446,389.2822 C101.1349,390.5397 104.106,391.7729 107,392.9531 C162.6194,415.6351 221.7829,437.8382 264.0848,453.402" fill="none" style="stroke:#B71C1C;stroke-width:1.4;"/><text fill="#000000" font-family="Segoe UI" font-size="13" lengthAdjust="spacing" textLength="92.5234" x="200" y="425.02">triggerAlarm()</text></g><g class="link" data-entity-1="AlertSent" data-entity-2="Disarmed" data-uid="lnk7" id="link_AlertSent_Disarmed"><polygon fill="#1565C0" points="314.1658,179.6395,321.0734,186.6598,318.8178,181.4721,324.0056,179.2166,314.1658,179.6395" style="stroke:#1565C0;stroke-width:1;"/><path d="M360.0272,451.0491 C382.7613,437.8747 408.1824,418.4917 421,392.9531 C430.9681,373.092 423.3836,365.0471 421,342.9531 C414.0711,278.7283 434.5792,247.7028 390,200.9531 C368.7215,178.6386 352.0651,193.2457 323,182.9531 C320.0988,181.9257 322.7184,183.0087 319.7482,181.8386" fill="none" style="stroke:#1565C0;stroke-width:1.4;"/><text fill="#000000" font-family="Segoe UI" font-size="13" lengthAdjust="spacing" textLength="123.335" x="421" y="320.02">disarmSystem(pin)</text></g><g class="link" data-entity-1="Armed" data-entity-2="Disarmed" data-uid="lnk8" id="link_Armed_Disarmed"><polygon fill="#1565C0" points="265.1981,183.2254,259.1551,191.0024,263.9981,188.0793,266.9213,192.9223,265.1981,183.2254" style="stroke:#1565C0;stroke-width:1;"/><path d="M172.1184,256.5138 C195.9656,251.0557 227.0007,240.3902 247,219.9531 C256.685,210.0562 260.7021,201.4124 263.7582,189.05" fill="none" style="stroke:#1565C0;stroke-width:1.4;"/><text fill="#000000" font-family="Segoe UI" font-size="13" lengthAdjust="spacing" textLength="123.335" x="261" y="215.02">disarmSystem(pin)</text></g><g class="link" data-entity-1="AlertSent" data-entity-2="*end*" data-uid="lnk10" id="link_AlertSent_*end*"><polygon fill="#607D8B" points="315,552.6372,319,543.6372,315,547.6372,311,543.6372,315,552.6372" style="stroke:#607D8B;stroke-width:1;"/><path d="M315,498.0715 C315,515.7748 315,533.0183 315,546.6372" fill="none" style="stroke:#607D8B;stroke-width:1.4;"/><text fill="#000000" font-family="Segoe UI" font-size="13" lengthAdjust="spacing" textLength="116.0352" x="317" y="530.02">System shutdown</text></g><!--SRC=[fLNDJXin4BxxAQRaGAWKI619GaeZfHHKgXQXRdf27BpUsMJ5hXtP3YYjAl40LG-KIq-HU8O-4K_08tJs9vjVE3GSq6Pc_FdxPZxRc_1sZJ-s2K_Zkr_WTZuU7t_QD73E8xGMeGAVbOzQmhbM0HeJAiaZS2stM3dgSstXVSXxciU4a7-rm4KnrA4T7IbfjOgWxCP9vGSL8xWyG3i2TsGinbkqQYtQxDL0yrxC8U8ZDRHWOhHSScRL0Am2JrchOl13ZS8ITSPiQ2E4GwzzA5IaTAjKsw_lYshxQNn_jqeMDM11pU5Ekh9zkEErMS4Vtd63qEqZIIndNNoy_LFqSIilO-Ogb0EU07jSNFMq6ah_AC63Kk04zQ0vKs7wt5SteUo1rKESIQIhXD8IDUpkpoGwMgkR76wluJISO37PxOVYIj8WeRRjpD1FfTF_KPJijqJMfEdl34Zd0cri1jK0aupIv9GychMLeYVKjJnMzPq6h-KnD_o6K7CclsXZf755FWNSUTq0NxBj9df_pF3kflDybdSsxfMyFS_7mFjFtirLlC-vxoSiQjLb4RESEqAWj72cB9fbob8zr-aW20w4iyWuy4HrrvzddC_-HHP9ENdRMigke47DuSF89bLdd4ozuM9F8NmztLXTbFLbZwrxefEBwESuz-D9f6wWtCqEyxlqCAz_PLoyleJAHQbURVXDxxBIfgDkk8xHXrP-BILsrtOuO9djYtn9DB4k3bWH89ZCC0bC9yUWL0PJ7eHoY-KWMRRaruI31woplBohmruFTKO3fQ4vsabe0ZAjAGK27HHi6Y4mhr4JDP5oYL1RDt5PQuBIYOXOUSgdg21VOTNRPTF87A-PxlZfvvou5K9UN32toNG4oKoctUyFBRbMpfXrxgoa9uH4zIseeDYEtFuq7Z_0gGnjI6-KAKP9rO-tzn1AJe_0DGANFXXwXhOPqbU2nXOmYwwceFT_yu4OChobbmHYTKqNlRHlW2TT1OtS7pqFLuXEuNu_549fWI48oYO67nhKKv1_]--></g></svg>