<svg xmlns="http://www.w3.org/2000/svg" xmlns:xlink="http://www.w3.org/1999/xlink" contentStyleType="text/css" data-diagram-type="DESCRIPTION" height="667px" preserveAspectRatio="none" style="width:1205px;height:667px;background:#F7F9FB;" version="1.1" viewBox="0 0 1205 667" width="1205px" zoomAndPan="magnify"><title>&#127807; Municipal Pothole Response &amp; Tracking Network</title><defs><filter height="300%" id="f29pnk7aya7fy" width="300%" x="-1" y="-1"><feGaussianBlur result="blurOut" stdDeviation="2"/><feColorMatrix in="blurOut" result="blurOut2" type="matrix" values="0 0 0 0 0 0 0 0 0 0 0 0 0 0 0 0 0 0 .4 0"/><feOffset dx="4" dy="4" in="blurOut2" result="blurOut3"/><feBlend in="SourceGraphic" in2="blurOut3" mode="normal"/></filter></defs><g><rect fill="#F7F9FB" height="667" style="stroke:none;stroke-width:1;" width="1205" x="0" y="0"/><g class="title" data-source-line="4"><text fill="#000000" font-family="sans-serif" font-size="14" font-weight="bold" lengthAdjust="spacing" textLength="397.3457" x="396.8271" y="22.9951">&#127807; Municipal Pothole Response &amp; Tracking Network</text></g><!--cluster ? PHTRS - City Pothole Repair Unit--><g class="cluster" data-entity="&#129699; PHTRS - City Pothole Repair Unit" data-source-line="45" data-uid="ent0006" id="cluster_&#129699; PHTRS - City Pothole Repair Unit"><rect fill="#EDE7F6" filter="url(#f29pnk7aya7fy)" height="520" rx="12.5" ry="12.5" style="stroke:#4527A0;stroke-width:1;" width="964" x="229" y="44.2969"/><text fill="#311B92" font-family="sans-serif" font-size="18" font-weight="bold" lengthAdjust="spacing" textLength="349.0225" x="536.4888" y="63.0049">&#129699; PHTRS - City Pothole Repair Unit</text></g><!--entity UC1--><g class="entity" data-entity="UC1" data-source-line="46" data-uid="ent0007" id="entity_UC1"><ellipse cx="364.8323" cy="108.2633" fill="#D1C4E9" rx="112.8323" ry="24.9665" style="stroke:#90A4AE;stroke-width:1.3;"/><text fill="#263238" font-family="sans-serif" font-size="15" lengthAdjust="spacing" textLength="201.5698" x="264.0473" y="113.4938">&#128221; Lodge New Pothole Issue</text></g><!--entity UC2--><g class="entity" data-entity="UC2" data-source-line="47" data-uid="ent0008" id="entity_UC2"><ellipse cx="364.8867" cy="191.4742" fill="#C8E6C9" rx="101.3867" ry="22.6773" style="stroke:#90A4AE;stroke-width:1.3;"/><text fill="#263238" font-family="sans-serif" font-size="15" lengthAdjust="spacing" textLength="176.3452" x="276.7141" y="196.7047">&#128270; Review Case Updates</text></g><!--entity UC3--><g class="entity" data-entity="UC3" data-source-line="48" data-uid="ent0009" id="entity_UC3"><ellipse cx="365.2015" cy="359.4372" fill="#E3F2FD" rx="98.7015" ry="22.1403" style="stroke:#90A4AE;stroke-width:1.3;"/><text fill="#263238" font-family="sans-serif" font-size="15" lengthAdjust="spacing" textLength="170.332" x="280.0355" y="364.6676">&#128451;&#65039; Input Pothole Details</text></g><!--entity UC4--><g class="entity" data-entity="UC4" data-source-line="49" data-uid="ent0010" id="entity_UC4"><ellipse cx="364.9963" cy="438.1961" fill="#F3E5F5" rx="94.9963" ry="21.3993" style="stroke:#90A4AE;stroke-width:1.3;"/><text fill="#263238" font-family="sans-serif" font-size="15" lengthAdjust="spacing" textLength="161.9604" x="284.0161" y="443.4266">&#128232; Assign Work Orders</text></g><!--entity UC5--><g class="entity" data-entity="UC5" data-source-line="50" data-uid="ent0011" id="entity_UC5"><ellipse cx="717.9142" cy="513.2797" fill="#F0F4C3" rx="107.9142" ry="23.9828" style="stroke:#90A4AE;stroke-width:1.3;"/><text fill="#263238" font-family="sans-serif" font-size="15" lengthAdjust="spacing" textLength="190.8032" x="622.5126" y="518.5102">&#128295; Mark Repair Completed</text></g><!--entity UC6--><g class="entity" data-entity="UC6" data-source-line="51" data-uid="ent0012" id="entity_UC6"><ellipse cx="1064.1381" cy="518.3245" fill="#C5CAE9" rx="113.1381" ry="25.0276" style="stroke:#90A4AE;stroke-width:1.3;"/><text fill="#263238" font-family="sans-serif" font-size="15" lengthAdjust="spacing" textLength="202.2363" x="963.02" y="523.555">&#128181; Record Repair Expenses</text></g><!--entity UC7--><g class="entity" data-entity="UC7" data-source-line="52" data-uid="ent0013" id="entity_UC7"><ellipse cx="365.1058" cy="275.218" fill="#DCEDC8" rx="120.1058" ry="26.4212" style="stroke:#90A4AE;stroke-width:1.3;"/><text fill="#263238" font-family="sans-serif" font-size="15" lengthAdjust="spacing" textLength="217.3315" x="256.4401" y="280.4485">&#129534; Register Damage Incidents</text></g><!--entity UC8--><g class="entity" data-entity="UC8" data-source-line="53" data-uid="ent0014" id="entity_UC8"><ellipse cx="365.0623" cy="521.1093" fill="#FFE0B2" rx="119.5623" ry="26.3125" style="stroke:#90A4AE;stroke-width:1.3;"/><text fill="#263238" font-family="sans-serif" font-size="15" lengthAdjust="spacing" textLength="216.1597" x="256.9825" y="526.3398">&#128200; Generate Citywide Reports</text></g><!--entity Citizen--><g class="entity" data-entity="Citizen" data-source-line="40" data-uid="ent0002" id="entity_Citizen"><ellipse cx="93.8359" cy="167.7969" fill="#2E7D32" filter="url(#f29pnk7aya7fy)" rx="16" ry="16" style="stroke:#2E7D32;stroke-width:0.5;"/><path d="M93.8359,187.7969 C97.8359,187.7969 100.8359,187.7969 104.8359,183.7969 C112.8359,183.7969 120.8359,191.7969 120.8359,199.7969 L120.8359,203.7969 C120.8359,207.7969 116.8359,211.7969 112.8359,211.7969 L74.8359,211.7969 C70.8359,211.7969 66.8359,207.7969 66.8359,203.7969 L66.8359,199.7969 C66.8359,191.7969 74.8359,183.7969 82.8359,183.7969 C86.8359,187.7969 89.8359,187.7969 93.8359,187.7969" fill="#2E7D32" filter="url(#f29pnk7aya7fy)"/><text fill="#1B5E20" font-family="sans-serif" font-size="16" lengthAdjust="spacing" textLength="144.6719" x="21.5" y="227.1484">&#129485; Citizen Reporter</text></g><!--entity Staff--><g class="entity" data-entity="Staff" data-source-line="41" data-uid="ent0003" id="entity_Staff"><ellipse cx="94.168" cy="390.7969" fill="#1565C0" filter="url(#f29pnk7aya7fy)" rx="16" ry="16" style="stroke:#2E7D32;stroke-width:0.5;"/><path d="M94.168,410.7969 C98.168,410.7969 101.168,410.7969 105.168,406.7969 C113.168,406.7969 121.168,414.7969 121.168,422.7969 L121.168,426.7969 C121.168,430.7969 117.168,434.7969 113.168,434.7969 L75.168,434.7969 C71.168,434.7969 67.168,430.7969 67.168,426.7969 L67.168,422.7969 C67.168,414.7969 75.168,406.7969 83.168,406.7969 C87.168,410.7969 90.168,410.7969 94.168,410.7969" fill="#1565C0" filter="url(#f29pnk7aya7fy)" style="stroke:#2E7D32;stroke-width:0.5;"/><text fill="#1B5E20" font-family="sans-serif" font-size="16" lengthAdjust="spacing" textLength="176.3359" x="6" y="450.1484">&#129520; Maintenance Officer</text></g><!--entity Crew--><g class="entity" data-entity="Crew" data-source-line="42" data-uid="ent0004" id="entity_Crew"><ellipse cx="365.2266" cy="599.7969" fill="#00897B" filter="url(#f29pnk7aya7fy)" rx="16" ry="16" style="stroke:#2E7D32;stroke-width:0.5;"/><path d="M365.2266,619.7969 C369.2266,619.7969 372.2266,619.7969 376.2266,615.7969 C384.2266,615.7969 392.2266,623.7969 392.2266,631.7969 L392.2266,635.7969 C392.2266,639.7969 388.2266,643.7969 384.2266,643.7969 L346.2266,643.7969 C342.2266,643.7969 338.2266,639.7969 338.2266,635.7969 L338.2266,631.7969 C338.2266,623.7969 346.2266,615.7969 354.2266,615.7969 C358.2266,619.7969 361.2266,619.7969 365.2266,619.7969" fill="#00897B" filter="url(#f29pnk7aya7fy)" style="stroke:#2E7D32;stroke-width:0.5;"/><text fill="#1B5E20" font-family="sans-serif" font-size="16" lengthAdjust="spacing" textLength="166.4531" x="282" y="659.1484">&#128679; Street Repair Crew</text></g><!--entity Admin--><g class="entity" data-entity="Admin" data-source-line="43" data-uid="ent0005" id="entity_Admin"><ellipse cx="94.2031" cy="505.7969" fill="#5E35B1" filter="url(#f29pnk7aya7fy)" rx="16" ry="16" style="stroke:#2E7D32;stroke-width:0.5;"/><path d="M94.2031,525.7969 C98.2031,525.7969 101.2031,525.7969 105.2031,521.7969 C113.2031,521.7969 121.2031,529.7969 121.2031,537.7969 L121.2031,541.7969 C121.2031,545.7969 117.2031,549.7969 113.2031,549.7969 L75.2031,549.7969 C71.2031,549.7969 67.2031,545.7969 67.2031,541.7969 L67.2031,537.7969 C67.2031,529.7969 75.2031,521.7969 83.2031,521.7969 C87.2031,525.7969 90.2031,525.7969 94.2031,525.7969" fill="#5E35B1" filter="url(#f29pnk7aya7fy)" style="stroke:#2E7D32;stroke-width:0.5;"/><text fill="#1B5E20" font-family="sans-serif" font-size="16" lengthAdjust="spacing" textLength="102.4063" x="43" y="565.1484">&#127961;&#65039; City Admin</text></g><!--link Citizen to UC1--><g class="link" data-entity-1="Citizen" data-entity-2="UC1" data-source-line="56" data-uid="lnk15" id="link_Citizen_UC1"><path d="M166.57,168.3669 C184.34,162.7369 203.35,156.7569 221,151.2969 C245.64,143.6769 266.9826,137.2096 290.9026,130.0396" fill="none" id="Citizen-to-UC1" style="stroke:#546E7A;stroke-width:1.4;"/><polygon fill="#546E7A" points="296.65,128.3169,286.8805,127.0695,291.8605,129.7525,289.1775,134.7326,296.65,128.3169" style="stroke:#546E7A;stroke-width:1.4;"/></g><!--link Citizen to UC2--><g class="link" data-entity-1="Citizen" data-entity-2="UC2" data-source-line="57" data-uid="lnk16" id="link_Citizen_UC2"><path d="M166.73,191.2969 C196.38,191.2969 225.28,191.2969 257.41,191.2969" fill="none" id="Citizen-to-UC2" style="stroke:#546E7A;stroke-width:1.4;"/><polygon fill="#546E7A" points="263.41,191.2969,254.41,187.2969,258.41,191.2969,254.41,195.2969,263.41,191.2969" style="stroke:#546E7A;stroke-width:1.4;"/></g><!--link Citizen to UC7--><g class="link" data-entity-1="Citizen" data-entity-2="UC7" data-source-line="58" data-uid="lnk17" id="link_Citizen_UC7"><path d="M166.6,214.1469 C184.36,219.7869 203.37,225.7869 221,231.2969 C244.68,238.6969 264.8552,244.9329 288.0352,252.0629" fill="none" id="Citizen-to-UC7" style="stroke:#546E7A;stroke-width:1.4;"/><polygon fill="#546E7A" points="293.77,253.8269,286.3437,247.3577,288.991,252.3569,283.9918,255.0041,293.77,253.8269" style="stroke:#546E7A;stroke-width:1.4;"/></g><!--link Staff to UC3--><g class="link" data-entity-1="Staff" data-entity-2="UC3" data-source-line="60" data-uid="lnk18" id="link_Staff_UC3"><path d="M182.34,396.4369 C217.62,389.2269 251.9814,382.1978 285.6114,375.3278" fill="none" id="Staff-to-UC3" style="stroke:#546E7A;stroke-width:1.4;"/><polygon fill="#546E7A" points="291.49,374.1269,281.8715,372.0091,286.5912,375.1276,283.4727,379.8473,291.49,374.1269" style="stroke:#546E7A;stroke-width:1.4;"/></g><!--link Staff to UC4--><g class="link" data-entity-1="Staff" data-entity-2="UC4" data-source-line="61" data-uid="lnk19" id="link_Staff_UC4"><path d="M182.34,422.0869 C212.41,424.7669 240.0936,427.2449 270.2036,429.9249" fill="none" id="Staff-to-UC4" style="stroke:#546E7A;stroke-width:1.4;"/><polygon fill="#546E7A" points="276.18,430.4569,267.5701,425.6747,271.1997,430.0136,266.8608,433.6432,276.18,430.4569" style="stroke:#546E7A;stroke-width:1.4;"/></g><!--link Staff to UC8--><g class="link" data-entity-1="Staff" data-entity-2="UC8" data-source-line="62" data-uid="lnk20" id="link_Staff_UC8"><path d="M170.03,454.3369 C186.58,462.4669 204.2,470.5669 221,477.2969 C242.7,485.9869 261.0806,492.2578 283.2306,499.0078" fill="none" id="Staff-to-UC8" style="stroke:#546E7A;stroke-width:1.4;"/><polygon fill="#546E7A" points="288.97,500.7569,281.5269,494.3071,284.1872,499.2993,279.1949,501.9596,288.97,500.7569" style="stroke:#546E7A;stroke-width:1.4;"/></g><!--link Crew to UC5--><g class="link" data-entity-1="Crew" data-entity-2="UC5" data-source-line="64" data-uid="lnk21" id="link_Crew_UC5"><path d="M448.29,597.5069 C511.41,577.7269 591.4646,552.6412 648.9646,534.6212" fill="none" id="Crew-to-UC5" style="stroke:#546E7A;stroke-width:1.4;"/><polygon fill="#546E7A" points="654.69,532.8269,644.9057,531.7014,649.9188,534.3221,647.2981,539.3353,654.69,532.8269" style="stroke:#546E7A;stroke-width:1.4;"/></g><!--link Crew to UC6--><g class="link" data-entity-1="Crew" data-entity-2="UC6" data-source-line="65" data-uid="lnk22" id="link_Crew_UC6"><path d="M448.27,611.0069 C540.31,597.2369 693.85,574.2469 826,554.2969 C873.63,547.1069 920.7082,539.959 964.4982,533.299" fill="none" id="Crew-to-UC6" style="stroke:#546E7A;stroke-width:1.4;"/><polygon fill="#546E7A" points="970.43,532.3969,960.9309,529.7956,965.4868,533.1487,962.1338,537.7046,970.43,532.3969" style="stroke:#546E7A;stroke-width:1.4;"/></g><!--link Admin to UC8--><g class="link" data-entity-1="Admin" data-entity-2="UC8" data-source-line="67" data-uid="lnk23" id="link_Admin_UC8"><path d="M145.28,527.7969 C173.87,526.9469 204.9526,526.0243 240.4426,524.9743" fill="none" id="Admin-to-UC8" style="stroke:#546E7A;stroke-width:1.4;"/><polygon fill="#546E7A" points="246.44,524.7969,237.3256,521.0648,241.4422,524.9447,237.5622,529.0613,246.44,524.7969" style="stroke:#546E7A;stroke-width:1.4;"/></g><!--link UC4 to UC5--><g class="link" data-entity-1="UC4" data-entity-2="UC5" data-source-line="69" data-uid="lnk24" id="link_UC4_UC5"><path d="M434.93,453.0269 C493.72,465.5869 572.3425,482.383 633.5025,495.453" fill="none" id="UC4-to-UC5" style="stroke:#546E7A;stroke-width:1.4;"/><polygon fill="#546E7A" points="639.37,496.7069,631.4047,490.9144,634.4804,495.662,629.7328,498.7377,639.37,496.7069" style="stroke:#546E7A;stroke-width:1.4;"/><text fill="#000000" font-family="sans-serif" font-size="13" lengthAdjust="spacing" textLength="63.0068" x="516" y="468.3638">&#171;include&#187;</text></g><!--link UC5 to UC6--><g class="link" data-entity-1="UC5" data-entity-2="UC6" data-source-line="70" data-uid="lnk25" id="link_UC5_UC6"><path d="M825.96,514.8469 C865.7,515.4269 904.8806,516.0003 945.0506,516.5803" fill="none" id="UC5-to-UC6" style="stroke:#546E7A;stroke-width:1.4;"/><polygon fill="#546E7A" points="951.05,516.6669,942.1087,512.5374,946.0505,516.5947,941.9932,520.5365,951.05,516.6669" style="stroke:#546E7A;stroke-width:1.4;"/><text fill="#000000" font-family="sans-serif" font-size="13" lengthAdjust="spacing" textLength="63.0068" x="857" y="512.3638">&#171;include&#187;</text></g><!--SRC=[XLHBZnCv4BxthoZDI70XAEbEvu7GI4E6NKRYfPaCdDrsTM9DnsxP3c50UzeB1nxIBX822N7WC8WJ5oHEy9FW9r3kHv9kM6qkwNfyLP_BN_aY_7Ztz1iSe9Kp1I5qu0XJgL30HEkiCzKAuSPPOgI0wHmN2AasSFV6zEWuk0ZNCvmnvIx1JJcRqnzJ0cupjpJOELGsbuRAt4DZfLP1Xga3fy7uL10KuyxxdNGPbYHkBPNaCcSPtDLkhibzX3RNoY9SWAbX_5Ig6Tn6jzBcD0WicJapR049XMP6BvMOw8puxQR3T9mcMnbspeHUURWpIzmA52YkZK83ORWLs3T6hwfoSN-0GzOEJkUIdogq5dgN-zjqbXOv8zAF0u1hlr0hVZwYZK1JUSTTrcT8tZ-qSfKl74HXDAfyn_8HGYzUuxQRH-GzRXxmhsq-Z3kgzrisE4fZ7BVPX3WKKTXaqqjY3BiDDWFVrvtHFR4LMht0_-7XhvofMVOVaq61mtJGvjAFmo7pVO_ArFAcuWQHKPDgrEibuvf-IJ3HcVWjkt8sEp_UdJ-3YNHKJf7gScqScXrWTksiXx81V89RJ2g7YYcES2TD9QymnuwbAOqi7iIykq6yEQU8GNI-0vC69WPNPHFwWDrkTpGU9fly5w-_VtdX2Pp1lbX8LQGMNoH9ZEAa5mIRcHBWu_joDMcB2zHcZOfs9qgwdMBsjK89y-zRkAd536clLcl0eRLBBDgTJ7gmAtgyNwXa2_VoEPLz80aqyPwJN327jiA4iCj7EE0jpAk__O4ELRvqwrO7w9ZCQc14CeZIC1KjaXzWtnOlr7rQVRZZzL53-hHJ4SPftE9tJjT3kVMezIBFqA6eK36XkccVHqtKFvy9GC-1g77N7-P83r3TR407Ypbh3-FyA-NFf2NHm05RC1hdeU9Ie78rSaXZv2Zug7Mo9_0dagHfUCMThGXK2R16ZloZWTqaz7gjvTZfxFcxQTbXonu6GQd5qemQLhzXZQYsLs5fnTl680XArQqp_TIhHBW2LwzAnREbmBszm7igL3Fo4m00]--></g></svg>