<svg xmlns="http://www.w3.org/2000/svg" xmlns:xlink="http://www.w3.org/1999/xlink" contentStyleType="text/css" data-diagram-type="CLASS" height="1102.0833px" preserveAspectRatio="none" style="width:548px;height:1102px;background:#F7F9FB;" version="1.1" viewBox="0 0 548 1102" width="548.9583px" zoomAndPan="magnify"><title>&lt;b&gt;&lt;color:#311b92&gt;&#128156; Class Diagram - Pothole Tracking and Repair System (PHTRS)&lt;/color&gt;&lt;/b&gt;</title><defs><filter height="300%" id="f1d5evpoy7zc89" width="300%" x="-1" y="-1"><feGaussianBlur result="blurOut" stdDeviation="2.0833"/><feColorMatrix in="blurOut" result="blurOut2" type="matrix" values="0 0 0 0 0 0 0 0 0 0 0 0 0 0 0 0 0 0 .4 0"/><feOffset dx="4.1667" dy="4.1667" in="blurOut2" result="blurOut3"/><feBlend in="SourceGraphic" in2="blurOut3" mode="normal"/></filter></defs><g><rect fill="#F7F9FB" height="1102.0833" style="stroke:none;stroke-width:1.0417;" width="548.9583" x="0" y="0"/><g class="title" data-source-line="2"><text fill="#311B92" font-family="sans-serif" font-size="14.5833" font-weight="bold" lengthAdjust="spacing" textLength="520.0297" x="10.4167" y="23.9532">&#128156; Class Diagram - Pothole Tracking and Repair System (PHTRS)</text></g><!--class Citizen--><g class="entity" data-entity="Citizen" data-source-line="28" data-uid="ent0002" id="entity_Citizen"><rect fill="#E3F2FD" filter="url(#f1d5evpoy7zc89)" height="151.8555" rx="13.0208" ry="13.0208" style="stroke:#90A4AE;stroke-width:0.5208;" width="179.6885" x="61.3561" y="46.1426"/><ellipse cx="123.6176" cy="62.8092" fill="#ADD1B2" rx="11.4583" ry="11.4583" style="stroke:#181818;stroke-width:1.0417;"/><path d="M126.71,68.6849 Q126.1078,68.9941 125.4405,69.1406 Q124.7732,69.3034 124.0407,69.3034 Q121.4366,69.3034 120.0531,67.5944 Q118.6859,65.8691 118.6859,62.6139 Q118.6859,59.3587 120.0531,57.6335 Q121.4366,55.9082 124.0407,55.9082 Q124.7732,55.9082 125.4405,56.071 Q126.1241,56.2337 126.71,56.543 L126.71,59.375 Q126.059,58.7728 125.4405,58.4961 Q124.822,58.2031 124.1709,58.2031 Q122.7712,58.2031 122.0551,59.3262 Q121.3389,60.4329 121.3389,62.6139 Q121.3389,64.7949 122.0551,65.918 Q122.7712,67.0247 124.1709,67.0247 Q124.822,67.0247 125.4405,66.748 Q126.059,66.4551 126.71,65.8529 L126.71,68.6849 Z " fill="#000000"/><text fill="#263238" font-family="Segoe UI" font-size="13.5417" lengthAdjust="spacing" textLength="46.3114" x="144.9717" y="67.4973">Citizen</text><line style="stroke:#90A4AE;stroke-width:0.5208;" x1="62.3978" x2="240.003" y1="79.4759" y2="79.4759"/><text fill="#000000" font-family="sans-serif" font-size="14.5833" lengthAdjust="spacing" textLength="104.3264" x="67.6061" y="97.1792">-name : String</text><text fill="#000000" font-family="sans-serif" font-size="14.5833" lengthAdjust="spacing" textLength="120.5831" x="67.6061" y="114.1551">-address : String</text><text fill="#000000" font-family="sans-serif" font-size="14.5833" lengthAdjust="spacing" textLength="167.1885" x="67.6061" y="131.131">-phoneNumber : String</text><line style="stroke:#90A4AE;stroke-width:0.5208;" x1="62.3978" x2="240.003" y1="138.737" y2="138.737"/><text fill="#000000" font-family="sans-serif" font-size="14.5833" lengthAdjust="spacing" textLength="123.0825" x="67.6061" y="156.4402">+reportPothole()</text><text fill="#000000" font-family="sans-serif" font-size="14.5833" lengthAdjust="spacing" textLength="129.9967" x="67.6061" y="173.4161">+reportDamage()</text><text fill="#000000" font-family="sans-serif" font-size="14.5833" lengthAdjust="spacing" textLength="103.6499" x="67.6061" y="190.392">+viewStatus()</text></g><!--class Pothole--><g class="entity" data-entity="Pothole" data-source-line="38" data-uid="ent0003" id="entity_Pothole"><rect fill="#EDE7F6" filter="url(#f1d5evpoy7zc89)" height="202.7832" rx="13.0208" ry="13.0208" style="stroke:#90A4AE;stroke-width:0.5208;" width="177.0966" x="76.4603" y="309.6842"/><ellipse cx="135.2206" cy="326.3509" fill="#ADD1B2" rx="11.4583" ry="11.4583" style="stroke:#181818;stroke-width:1.0417;"/><path d="M138.313,332.2266 Q137.7108,332.5358 137.0435,332.6823 Q136.3762,332.8451 135.6438,332.8451 Q133.0396,332.8451 131.6561,331.1361 Q130.289,329.4108 130.289,326.1556 Q130.289,322.9004 131.6561,321.1751 Q133.0396,319.4499 135.6438,319.4499 Q136.3762,319.4499 137.0435,319.6126 Q137.7271,319.7754 138.313,320.0846 L138.313,322.9167 Q137.662,322.3145 137.0435,322.0378 Q136.425,321.7448 135.774,321.7448 Q134.3742,321.7448 133.6581,322.8678 Q132.9419,323.9746 132.9419,326.1556 Q132.9419,328.3366 133.6581,329.4596 Q134.3742,330.5664 135.774,330.5664 Q136.425,330.5664 137.0435,330.2897 Q137.662,329.9967 138.313,329.3945 L138.313,332.2266 Z " fill="#000000"/><text fill="#263238" font-family="Segoe UI" font-size="13.5417" lengthAdjust="spacing" textLength="50.7217" x="156.5748" y="331.0389">Pothole</text><line style="stroke:#90A4AE;stroke-width:0.5208;" x1="77.5019" x2="252.5152" y1="343.0176" y2="343.0176"/><text fill="#000000" font-family="sans-serif" font-size="14.5833" lengthAdjust="spacing" textLength="109.0759" x="82.7103" y="360.7208">-potholeID : int</text><text fill="#000000" font-family="sans-serif" font-size="14.5833" lengthAdjust="spacing" textLength="164.5966" x="82.7103" y="377.6967">-streetAddress : String</text><text fill="#000000" font-family="sans-serif" font-size="14.5833" lengthAdjust="spacing" textLength="66.7358" x="82.7103" y="394.6726">-size : int</text><text fill="#000000" font-family="sans-serif" font-size="14.5833" lengthAdjust="spacing" textLength="156.5999" x="82.7103" y="411.6486">-locationType : String</text><text fill="#000000" font-family="sans-serif" font-size="14.5833" lengthAdjust="spacing" textLength="113.3769" x="82.7103" y="428.6245">-district : String</text><text fill="#000000" font-family="sans-serif" font-size="14.5833" lengthAdjust="spacing" textLength="91.0817" x="82.7103" y="445.6004">-priority : int</text><text fill="#000000" font-family="sans-serif" font-size="14.5833" lengthAdjust="spacing" textLength="107.7799" x="82.7103" y="462.5763">-status : String</text><line style="stroke:#90A4AE;stroke-width:0.5208;" x1="77.5019" x2="252.5152" y1="470.1823" y2="470.1823"/><text fill="#000000" font-family="sans-serif" font-size="14.5833" lengthAdjust="spacing" textLength="141.7033" x="82.7103" y="487.8855">+calculatePriority()</text><text fill="#000000" font-family="sans-serif" font-size="14.5833" lengthAdjust="spacing" textLength="128.8717" x="82.7103" y="504.8615">+linkWorkOrder()</text></g><!--class WorkOrder--><g class="entity" data-entity="WorkOrder" data-source-line="51" data-uid="ent0004" id="entity_WorkOrder"><rect fill="#C8E6C9" filter="url(#f1d5evpoy7zc89)" height="219.7591" rx="13.0208" ry="13.0208" style="stroke:#90A4AE;stroke-width:0.5208;" width="172.8383" x="316.0436" y="624.2676"/><ellipse cx="361.2337" cy="640.9342" fill="#ADD1B2" rx="11.4583" ry="11.4583" style="stroke:#181818;stroke-width:1.0417;"/><path d="M364.3262,646.8099 Q363.724,647.1191 363.0566,647.2656 Q362.3893,647.4284 361.6569,647.4284 Q359.0527,647.4284 357.6693,645.7194 Q356.3021,643.9941 356.3021,640.7389 Q356.3021,637.4837 357.6693,635.7585 Q359.0527,634.0332 361.6569,634.0332 Q362.3893,634.0332 363.0566,634.196 Q363.7402,634.3587 364.3262,634.668 L364.3262,637.5 Q363.6751,636.8978 363.0566,636.6211 Q362.4382,636.3281 361.7871,636.3281 Q360.3874,636.3281 359.6712,637.4512 Q358.9551,638.5579 358.9551,640.7389 Q358.9551,642.9199 359.6712,644.043 Q360.3874,645.1497 361.7871,645.1497 Q362.4382,645.1497 363.0566,644.873 Q363.6751,644.5801 364.3262,643.9779 L364.3262,646.8099 Z " fill="#000000"/><text fill="#263238" font-family="Segoe UI" font-size="13.5417" lengthAdjust="spacing" textLength="73.8047" x="382.3871" y="645.6223">WorkOrder</text><line style="stroke:#90A4AE;stroke-width:0.5208;" x1="317.0853" x2="487.8403" y1="657.6009" y2="657.6009"/><text fill="#000000" font-family="sans-serif" font-size="14.5833" lengthAdjust="spacing" textLength="130.9794" x="322.2936" y="675.3042">-workOrderID : int</text><text fill="#000000" font-family="sans-serif" font-size="14.5833" lengthAdjust="spacing" textLength="88.9028" x="322.2936" y="692.2801">-crewID : int</text><text fill="#000000" font-family="sans-serif" font-size="14.5833" lengthAdjust="spacing" textLength="120.1202" x="322.2936" y="709.256">-numPeople : int</text><text fill="#000000" font-family="sans-serif" font-size="14.5833" lengthAdjust="spacing" textLength="141.8884" x="322.2936" y="726.2319">-equipment : String</text><text fill="#000000" font-family="sans-serif" font-size="14.5833" lengthAdjust="spacing" textLength="148.0337" x="322.2936" y="743.2078">-hoursApplied : float</text><text fill="#000000" font-family="sans-serif" font-size="14.5833" lengthAdjust="spacing" textLength="160.3383" x="322.2936" y="760.1837">-materialUsed : String</text><text fill="#000000" font-family="sans-serif" font-size="14.5833" lengthAdjust="spacing" textLength="82.4656" x="322.2936" y="777.1596">-cost : float</text><line style="stroke:#90A4AE;stroke-width:0.5208;" x1="317.0853" x2="487.8403" y1="784.7656" y2="784.7656"/><text fill="#000000" font-family="sans-serif" font-size="14.5833" lengthAdjust="spacing" textLength="107.3598" x="322.2936" y="802.4689">+assignCrew()</text><text fill="#000000" font-family="sans-serif" font-size="14.5833" lengthAdjust="spacing" textLength="121.4518" x="322.2936" y="819.4448">+updateStatus()</text><text fill="#000000" font-family="sans-serif" font-size="14.5833" lengthAdjust="spacing" textLength="120.3552" x="322.2936" y="836.4207">+computeCost()</text></g><!--class RepairCrew--><g class="entity" data-entity="RepairCrew" data-source-line="65" data-uid="ent0005" id="entity_RepairCrew"><rect fill="#FFF9C4" filter="url(#f1d5evpoy7zc89)" height="134.8796" rx="13.0208" ry="13.0208" style="stroke:#90A4AE;stroke-width:0.5208;" width="153.4058" x="325.9394" y="955.5176"/><ellipse cx="360.3199" cy="972.1842" fill="#ADD1B2" rx="11.4583" ry="11.4583" style="stroke:#181818;stroke-width:1.0417;"/><path d="M363.4124,978.0599 Q362.8102,978.3691 362.1428,978.5156 Q361.4755,978.6784 360.7431,978.6784 Q358.1389,978.6784 356.7555,976.9694 Q355.3883,975.2441 355.3883,971.9889 Q355.3883,968.7337 356.7555,967.0085 Q358.1389,965.2832 360.7431,965.2832 Q361.4755,965.2832 362.1428,965.446 Q362.8264,965.6087 363.4124,965.918 L363.4124,968.75 Q362.7613,968.1478 362.1428,967.8711 Q361.5244,967.5781 360.8733,967.5781 Q359.4736,967.5781 358.7574,968.7012 Q358.0413,969.8079 358.0413,971.9889 Q358.0413,974.1699 358.7574,975.293 Q359.4736,976.3997 360.8733,976.3997 Q361.5244,976.3997 362.1428,976.123 Q362.7613,975.8301 363.4124,975.2279 L363.4124,978.0599 Z " fill="#000000"/><text fill="#263238" font-family="Segoe UI" font-size="13.5417" lengthAdjust="spacing" textLength="78.3936" x="379.0711" y="976.8723">RepairCrew</text><line style="stroke:#90A4AE;stroke-width:0.5208;" x1="326.9811" x2="478.3035" y1="988.8509" y2="988.8509"/><text fill="#000000" font-family="sans-serif" font-size="14.5833" lengthAdjust="spacing" textLength="88.9028" x="332.1894" y="1006.5542">-crewID : int</text><text fill="#000000" font-family="sans-serif" font-size="14.5833" lengthAdjust="spacing" textLength="140.9058" x="332.1894" y="1023.5301">-crewName : String</text><text fill="#000000" font-family="sans-serif" font-size="14.5833" lengthAdjust="spacing" textLength="107.666" x="332.1894" y="1040.506">-members : int</text><line style="stroke:#90A4AE;stroke-width:0.5208;" x1="326.9811" x2="478.3035" y1="1048.112" y2="1048.112"/><text fill="#000000" font-family="sans-serif" font-size="14.5833" lengthAdjust="spacing" textLength="104.9103" x="332.1894" y="1065.8152">+startRepair()</text><text fill="#000000" font-family="sans-serif" font-size="14.5833" lengthAdjust="spacing" textLength="139.0615" x="332.1894" y="1082.7911">+completeRepair()</text></g><!--class DamageReport--><g class="entity" data-entity="DamageReport" data-source-line="74" data-uid="ent0006" id="entity_DamageReport"><rect fill="#FFE0B2" filter="url(#f1d5evpoy7zc89)" height="168.8314" rx="13.0208" ry="13.0208" style="stroke:#90A4AE;stroke-width:0.5208;" width="170.8018" x="61.8769" y="649.7884"/><ellipse cx="93.1746" cy="666.4551" fill="#ADD1B2" rx="11.4583" ry="11.4583" style="stroke:#181818;stroke-width:1.0417;"/><path d="M96.2671,672.3307 Q95.6649,672.64 94.9975,672.7865 Q94.3302,672.9492 93.5978,672.9492 Q90.9936,672.9492 89.6102,671.2402 Q88.243,669.515 88.243,666.2598 Q88.243,663.0046 89.6102,661.2793 Q90.9936,659.554 93.5978,659.554 Q94.3302,659.554 94.9975,659.7168 Q95.6811,659.8796 96.2671,660.1888 L96.2671,663.0208 Q95.616,662.4186 94.9975,662.1419 Q94.379,661.849 93.728,661.849 Q92.3283,661.849 91.6121,662.972 Q90.896,664.0788 90.896,666.2598 Q90.896,668.4408 91.6121,669.5638 Q92.3283,670.6706 93.728,670.6706 Q94.379,670.6706 94.9975,670.3939 Q95.616,670.1009 96.2671,669.4987 L96.2671,672.3307 Z " fill="#000000"/><text fill="#263238" font-family="Segoe UI" font-size="13.5417" lengthAdjust="spacing" textLength="102.6403" x="111.2408" y="671.1431">DamageReport</text><line style="stroke:#90A4AE;stroke-width:0.5208;" x1="62.9186" x2="231.6371" y1="683.1217" y2="683.1217"/><text fill="#000000" font-family="sans-serif" font-size="14.5833" lengthAdjust="spacing" textLength="113.5549" x="68.1269" y="700.825">-damageID : int</text><text fill="#000000" font-family="sans-serif" font-size="14.5833" lengthAdjust="spacing" textLength="153.7018" x="68.1269" y="717.8009">-citizenName : String</text><text fill="#000000" font-family="sans-serif" font-size="14.5833" lengthAdjust="spacing" textLength="120.5831" x="68.1269" y="734.7768">-address : String</text><text fill="#000000" font-family="sans-serif" font-size="14.5833" lengthAdjust="spacing" textLength="108.606" x="68.1269" y="751.7527">-phone : String</text><text fill="#000000" font-family="sans-serif" font-size="14.5833" lengthAdjust="spacing" textLength="158.3018" x="68.1269" y="768.7286">-damageType : String</text><text fill="#000000" font-family="sans-serif" font-size="14.5833" lengthAdjust="spacing" textLength="108.4778" x="68.1269" y="785.7045">-amount : float</text><line style="stroke:#90A4AE;stroke-width:0.5208;" x1="62.9186" x2="231.6371" y1="793.3105" y2="793.3105"/><text fill="#000000" font-family="sans-serif" font-size="14.5833" lengthAdjust="spacing" textLength="126.5503" x="68.1269" y="811.0138">+verifyDamage()</text></g><!--class Admin--><g class="entity" data-entity="Admin" data-source-line="85" data-uid="ent0007" id="entity_Admin"><rect fill="#D1C4E9" filter="url(#f1d5evpoy7zc89)" height="134.8796" rx="13.0208" ry="13.0208" style="stroke:#90A4AE;stroke-width:0.5208;" width="162.264" x="323.3353" y="54.9967"/><ellipse cx="378.3424" cy="71.6634" fill="#ADD1B2" rx="11.4583" ry="11.4583" style="stroke:#181818;stroke-width:1.0417;"/><path d="M381.4349,77.5391 Q380.8327,77.8483 380.1654,77.9948 Q379.498,78.1576 378.7656,78.1576 Q376.1614,78.1576 374.778,76.4486 Q373.4108,74.7233 373.4108,71.4681 Q373.4108,68.2129 374.778,66.4876 Q376.1614,64.7624 378.7656,64.7624 Q379.498,64.7624 380.1654,64.9251 Q380.8489,65.0879 381.4349,65.3971 L381.4349,68.2292 Q380.7838,67.627 380.1654,67.3503 Q379.5469,67.0573 378.8958,67.0573 Q377.4961,67.0573 376.7799,68.1803 Q376.0638,69.2871 376.0638,71.4681 Q376.0638,73.6491 376.7799,74.7721 Q377.4961,75.8789 378.8958,75.8789 Q379.5469,75.8789 380.1654,75.6022 Q380.7838,75.3092 381.4349,74.707 L381.4349,77.5391 Z " fill="#000000"/><text fill="#263238" font-family="Segoe UI" font-size="13.5417" lengthAdjust="spacing" textLength="43.3955" x="399.6966" y="76.3514">Admin</text><line style="stroke:#90A4AE;stroke-width:0.5208;" x1="324.3769" x2="484.5576" y1="88.3301" y2="88.3301"/><text fill="#000000" font-family="sans-serif" font-size="14.5833" lengthAdjust="spacing" textLength="99.6836" x="329.5853" y="106.0333">-adminID : int</text><text fill="#000000" font-family="sans-serif" font-size="14.5833" lengthAdjust="spacing" textLength="104.3264" x="329.5853" y="123.0092">-name : String</text><line style="stroke:#90A4AE;stroke-width:0.5208;" x1="324.3769" x2="484.5576" y1="130.6152" y2="130.6152"/><text fill="#000000" font-family="sans-serif" font-size="14.5833" lengthAdjust="spacing" textLength="128.7435" x="329.5853" y="148.3185">+reviewReports()</text><text fill="#000000" font-family="sans-serif" font-size="14.5833" lengthAdjust="spacing" textLength="149.764" x="329.5853" y="165.2944">+assignWorkOrder()</text><text fill="#000000" font-family="sans-serif" font-size="14.5833" lengthAdjust="spacing" textLength="138.6627" x="329.5853" y="182.2703">+generateReport()</text></g><!--link Citizen to Pothole--><g class="link" data-entity-1="Citizen" data-entity-2="Pothole" data-source-line="94" data-uid="lnk8" id="link_Citizen_Pothole"><path codeLine="94" d="M142.5228,198.5488 C141.0332,213.9238 139.7311,230.0176 138.9603,245.1009 C137.8978,265.9655 138.6469,281.9589 141.4906,303.0735" fill="none" id="Citizen-to-Pothole" style="stroke:#455A64;stroke-width:1.5625;"/><polygon fill="#455A64" points="142.3248,309.2676,145.2029,299.4203,141.6297,304.1058,136.9441,300.5326,142.3248,309.2676" style="stroke:#455A64;stroke-width:1.5625;"/><polygon fill="#000000" points="144.1172,259.2323,147.2714,249.8411,141.149,249.7806,144.1172,259.2323" style="stroke:#000000;stroke-width:1.0417;"/><text fill="#000000" font-family="sans-serif" font-size="13.5417" lengthAdjust="spacing" textLength="48.7116" x="153.5436" y="258.7123">reports</text><text fill="#000000" font-family="sans-serif" font-size="13.5417" lengthAdjust="spacing" textLength="8.6156" x="133.0184" y="218.8955">1</text><text fill="#000000" font-family="sans-serif" font-size="13.5417" lengthAdjust="spacing" textLength="38.0859" x="101.8036" y="298.1671">many</text></g><!--link Pothole to WorkOrder--><g class="link" data-entity-1="Pothole" data-entity-2="WorkOrder" data-source-line="95" data-uid="lnk9" id="link_Pothole_WorkOrder"><path codeLine="95" d="M239.5019,512.9238 C265.679,548.2988 291.5026,583.1709 318.1693,619.2021" fill="none" id="Pothole-to-WorkOrder" style="stroke:#455A64;stroke-width:1.5625;"/><polygon fill="#455A64" points="321.8873,624.2259,319.6594,614.2115,318.7889,620.0394,312.961,619.169,321.8873,624.2259" style="stroke:#455A64;stroke-width:1.5625;"/><polygon fill="#000000" points="292.059,572.7939,288.914,563.3995,283.9927,567.0422,292.059,572.7939" style="stroke:#000000;stroke-width:1.0417;"/><text fill="#000000" font-family="sans-serif" font-size="13.5417" lengthAdjust="spacing" textLength="40.8763" x="298.3353" y="573.2956">linked</text><text fill="#000000" font-family="sans-serif" font-size="13.5417" lengthAdjust="spacing" textLength="8.6156" x="236.1234" y="533.2089">1</text><text fill="#000000" font-family="sans-serif" font-size="13.5417" lengthAdjust="spacing" textLength="8.6156" x="307.6055" y="612.8973">1</text></g><!--link Pothole to DamageReport--><g class="link" data-entity-1="Pothole" data-entity-2="DamageReport" data-source-line="96" data-uid="lnk10" id="link_Pothole_DamageReport"><path codeLine="96" d="M141.554,512.9655 C138.7519,528.528 136.3353,544.4863 134.7936,559.6842 C131.8248,588.9655 132.382,614.8749 134.8924,643.4478" fill="none" id="Pothole-to-DamageReport" style="stroke:#455A64;stroke-width:1.5625;"/><polygon fill="#455A64" points="135.4394,649.6738,138.7696,639.9701,134.9836,644.4855,130.4682,640.6995,135.4394,649.6738" style="stroke:#455A64;stroke-width:1.5625;"/><polygon fill="#000000" points="139.7364,573.8091,143.2742,564.5555,137.1594,564.2433,139.7364,573.8091" style="stroke:#000000;stroke-width:1.0417;"/><text fill="#000000" font-family="sans-serif" font-size="13.5417" lengthAdjust="spacing" textLength="73.5204" x="149.3769" y="573.2956">may cause</text><text fill="#000000" font-family="sans-serif" font-size="13.5417" lengthAdjust="spacing" textLength="8.6156" x="131.2885" y="533.2535">1</text><text fill="#000000" font-family="sans-serif" font-size="13.5417" lengthAdjust="spacing" textLength="25.8403" x="108.3092" y="638.4004">0..1</text></g><!--link Admin to Pothole--><g class="link" data-entity-1="Admin" data-entity-2="Pothole" data-source-line="97" data-uid="lnk11" id="link_Admin_Pothole"><path codeLine="97" d="M332.7936,189.4238 C315.0748,206.9134 296.6165,226.2155 280.6269,245.1009 C263.6686,265.1322 250.3446,282.5088 234.8655,304.2588" fill="none" id="Admin-to-Pothole" style="stroke:#455A64;stroke-width:1.5625;"/><polygon fill="#455A64" points="231.2415,309.3509,240.0722,304.1288,234.2615,305.1075,233.2827,299.2968,231.2415,309.3509" style="stroke:#455A64;stroke-width:1.5625;"/><polygon fill="#000000" points="282.4557,257.9873,290.8988,252.8046,286.24,248.8317,282.4557,257.9873" style="stroke:#000000;stroke-width:1.0417;"/><text fill="#000000" font-family="sans-serif" font-size="13.5417" lengthAdjust="spacing" textLength="62.3525" x="295.2103" y="258.7123">manages</text></g><!--link WorkOrder to RepairCrew--><g class="link" data-entity-1="WorkOrder" data-entity-2="RepairCrew" data-source-line="98" data-uid="lnk12" id="link_WorkOrder_RepairCrew"><path codeLine="98" d="M402.5019,844.3197 C402.5019,881.6322 402.5019,915.9759 402.5019,948.903" fill="none" id="WorkOrder-to-RepairCrew" style="stroke:#455A64;stroke-width:1.5625;"/><polygon fill="#455A64" points="402.5019,955.153,406.6686,945.778,402.5019,949.9447,398.3353,945.778,402.5019,955.153" style="stroke:#455A64;stroke-width:1.5625;"/><polygon fill="#000000" points="407.7103,905.0659,410.7716,895.644,404.6489,895.644,407.7103,905.0659" style="stroke:#000000;stroke-width:1.0417;"/><text fill="#000000" font-family="sans-serif" font-size="13.5417" lengthAdjust="spacing" textLength="60.2763" x="417.0853" y="904.5456">assigned</text></g><!--link Admin to WorkOrder--><g class="link" data-entity-1="Admin" data-entity-2="WorkOrder" data-source-line="99" data-uid="lnk13" id="link_Admin_WorkOrder"><path codeLine="99" d="M404.3561,189.653 C404.0019,294.1634 403.3252,491.778 402.8981,617.9447" fill="none" id="Admin-to-WorkOrder" style="stroke:#455A64;stroke-width:1.5625;"/><polygon fill="#455A64" points="402.8769,624.1947,407.0753,614.8338,402.8946,618.9864,398.742,614.8056,402.8769,624.1947" style="stroke:#455A64;stroke-width:1.5625;"/><polygon fill="#000000" points="408.7342,416.5242,411.8276,407.1127,405.7049,407.0919,408.7342,416.5242" style="stroke:#000000;stroke-width:1.0417;"/><text fill="#000000" font-family="sans-serif" font-size="13.5417" lengthAdjust="spacing" textLength="50.3382" x="418.1269" y="416.0039">creates</text></g><!--SRC=[bLJ1RXit4BthAmRImGaCEP8isv5W253aD35Gg8BajEYHuivAXBZabkHQK8e2_O2UUYjG89_IV-aNv1Cwv7AbNJcN-cBjc-7mlU6RkO2lN_xu1-RlFqx__Vql2micqJc4BhoNk67AmVVi6LM2fZj3vOpWC9FCMdWGR6DOrdB2IOJxzUIUQwdDk7FTxwz7WydNBt_-tKobcWljjfhIdmpZEw4sm5G2IyoPCB0wM8SPl5fyV5gkNj-_2UKczs_MarRBwHoSXhLsJcUG28FS2QrQbehapDTUKy6DqOLAPluSTDAxT9IkQnbsonAzzvSwKs0j44vnRHGQ6DpK0imOlO_bXZStx7Pu7dpQ2hvJI1hxL_MJtEkUEchNkd3uoBLQYSy8lLfAaWlez-g8OMfdCOTH7LGwGG_UzLgj2-Xsk_20AIkaYxrTkOFqcYXoVZ_ysWBuJYitPnb2UuKRZV3fiHtHA6nmUpsuVXknmB9_JL_lNlGp_Fc8DkI6Y8vwRCYGq5Mpkm3BycpLrTyg-bFEoKSbUxI1zmLy88XiyKuMtdapuOY7QfKguXTqy3eTf4bGrGNbDOr9lg4x0yAInFYNQ83vLYkS5zcQMDG2bs0mryP5FxvwNSCUMCOs5VGiSBzop1MMWA2X6eUJcoFFojiTJF0klOqyyn9zVA3hXN81iyuWkkct-5h_0ATCgJdpHdywv6Tg4s7zCBepkKPe8zoXSPbdtnJFcUI5P0uNCJ-g9IVjVj9czuD_uKhmIgSEFX1ZHTMEqIZw-0qT_XPl-IZAtbTuGpWtk6y0giWMg7DPruo_52BFl4SQqhQwC7QQvr9WGf5KQbRcPwJ322O_sH2e7U7Qkbhg9H1ZiL4pOX455tb2fuyF77gZivncTaPdgmui66qc2J-Zb7fFTSk5vSl4Bfo0C2SZFenjU27O0_CNritG6zGUyoxzgnbNbgtnejMCH_3qE0jaV4jbIkSkWuiZiphakM5lFOZSaX1giYj7RVu_PklCbQ7cIxUoZBP1yosUwT7Imt7OWfeV1OsAgrO4xOea4zKQ2B-Xa_Jv42kNCOyr3NL6tG-rd-6o0zKRbpweEzsZ6wHTnLpiLiN9xwmboZ26TYloScLLIwdTRzFt1DePKuVsSGUCuownC6bLs36L_f_6PXo6ZfpxZSJUrHNzR3pXcEn-eFajBDA9iYS-ztGn4Q5qV_7f4fzHy-WuDY3SUgfH9qK-fKvGbVy0]--></g></svg>