<svg xmlns="http://www.w3.org/2000/svg" xmlns:xlink="http://www.w3.org/1999/xlink" contentStyleType="text/css" data-diagram-type="CLASS" height="1101.0417px" preserveAspectRatio="none" style="width:851px;height:1101px;background:#F5F7FA;" version="1.1" viewBox="0 0 851 1101" width="851.0417px" zoomAndPan="magnify"><title>&lt;b&gt;&lt;color:#1a237e&gt;&#128160; Class Diagram - Pothole Tracking and Repair System (PHTRS)&lt;/color&gt;&lt;/b&gt;</title><defs><filter height="300%" id="fnjiwmtu81f3w" width="300%" x="-1" y="-1"><feGaussianBlur result="blurOut" stdDeviation="2.0833"/><feColorMatrix in="blurOut" result="blurOut2" type="matrix" values="0 0 0 0 0 0 0 0 0 0 0 0 0 0 0 0 0 0 .4 0"/><feOffset dx="4.1667" dy="4.1667" in="blurOut2" result="blurOut3"/><feBlend in="SourceGraphic" in2="blurOut3" mode="normal"/></filter></defs><g><rect fill="#F5F7FA" height="1101.0417" style="stroke:none;stroke-width:1.0417;" width="851.0417" x="0" y="0"/><g class="title" data-source-line="17"><text fill="#1A237E" font-family="Verdana" font-size="22.9167" font-weight="bold" lengthAdjust="spacing" textLength="817.1895" x="15.625" y="36.8968">&#128160; Class Diagram - Pothole Tracking and Repair System (PHTRS)</text></g><!--class Citizen--><g class="entity" data-entity="Citizen" data-source-line="30" data-uid="ent0002" id="entity_Citizen"><rect fill="#BBDEFB" filter="url(#fnjiwmtu81f3w)" height="147.6888" rx="10.4167" ry="10.4167" style="stroke:#9FA8DA;stroke-width:1.0417;" width="179.6885" x="215.1443" y="61.0514"/><ellipse cx="277.9266" cy="75.6348" fill="#FFFFFF" rx="9.375" ry="9.375" style="stroke:#000000;stroke-width:1.0417;"/><path d="M281.0191,81.5104 Q280.4169,81.8197 279.7496,81.9661 Q279.0822,82.1289 278.3498,82.1289 Q275.7456,82.1289 274.3622,80.4199 Q272.995,78.6947 272.995,75.4395 Q272.995,72.1842 274.3622,70.459 Q275.7456,68.7337 278.3498,68.7337 Q279.0822,68.7337 279.7496,68.8965 Q280.4331,69.0592 281.0191,69.3685 L281.0191,72.2005 Q280.368,71.5983 279.7496,71.3216 Q279.1311,71.0286 278.48,71.0286 Q277.0803,71.0286 276.3641,72.1517 Q275.648,73.2585 275.648,75.4395 Q275.648,77.6204 276.3641,78.7435 Q277.0803,79.8503 278.48,79.8503 Q279.1311,79.8503 279.7496,79.5736 Q280.368,79.2806 281.0191,78.6784 L281.0191,81.5104 Z " fill="#000000"/><text fill="#1A237E" font-family="Segoe UI" font-size="13.5417" lengthAdjust="spacing" textLength="46.3114" x="296.1558" y="80.3228">Citizen</text><line style="stroke:#9FA8DA;stroke-width:1.0417;" x1="216.186" x2="393.7912" y1="90.2181" y2="90.2181"/><text fill="#000000" font-family="Verdana" font-size="14.5833" lengthAdjust="spacing" textLength="104.3264" x="221.3943" y="107.9213">-name : String</text><text fill="#000000" font-family="Verdana" font-size="14.5833" lengthAdjust="spacing" textLength="120.5831" x="221.3943" y="124.8973">-address : String</text><text fill="#000000" font-family="Verdana" font-size="14.5833" lengthAdjust="spacing" textLength="167.1885" x="221.3943" y="141.8732">-phoneNumber : String</text><line style="stroke:#9FA8DA;stroke-width:1.0417;" x1="216.186" x2="393.7912" y1="149.4792" y2="149.4792"/><text fill="#000000" font-family="Verdana" font-size="14.5833" lengthAdjust="spacing" textLength="123.0825" x="221.3943" y="167.1824">+reportPothole()</text><text fill="#000000" font-family="Verdana" font-size="14.5833" lengthAdjust="spacing" textLength="129.9967" x="221.3943" y="184.1583">+reportDamage()</text><text fill="#000000" font-family="Verdana" font-size="14.5833" lengthAdjust="spacing" textLength="103.6499" x="221.3943" y="201.1342">+viewStatus()</text></g><!--class Pothole--><g class="entity" data-entity="Pothole" data-source-line="40" data-uid="ent0003" id="entity_Pothole"><rect fill="#EDE7F6" filter="url(#fnjiwmtu81f3w)" height="198.6165" rx="10.4167" ry="10.4167" style="stroke:#9FA8DA;stroke-width:1.0417;" width="177.0966" x="230.2485" y="320.4264"/><ellipse cx="289.5297" cy="335.0098" fill="#FFFFFF" rx="9.375" ry="9.375" style="stroke:#000000;stroke-width:1.0417;"/><path d="M292.6221,340.8854 Q292.0199,341.1947 291.3526,341.3411 Q290.6853,341.5039 289.9529,341.5039 Q287.3487,341.5039 285.9652,339.7949 Q284.598,338.0697 284.598,334.8145 Q284.598,331.5592 285.9652,329.834 Q287.3487,328.1087 289.9529,328.1087 Q290.6853,328.1087 291.3526,328.2715 Q292.0362,328.4342 292.6221,328.7435 L292.6221,331.5755 Q291.9711,330.9733 291.3526,330.6966 Q290.7341,330.4036 290.0831,330.4036 Q288.6833,330.4036 287.9672,331.5267 Q287.251,332.6335 287.251,334.8145 Q287.251,336.9954 287.9672,338.1185 Q288.6833,339.2253 290.0831,339.2253 Q290.7341,339.2253 291.3526,338.9486 Q291.9711,338.6556 292.6221,338.0534 L292.6221,340.8854 Z " fill="#000000"/><text fill="#1A237E" font-family="Segoe UI" font-size="13.5417" lengthAdjust="spacing" textLength="50.7217" x="307.7588" y="339.6978">Pothole</text><line style="stroke:#9FA8DA;stroke-width:1.0417;" x1="231.2902" x2="406.3034" y1="349.5931" y2="349.5931"/><text fill="#000000" font-family="Verdana" font-size="14.5833" lengthAdjust="spacing" textLength="109.0759" x="236.4985" y="367.2963">-potholeID : int</text><text fill="#000000" font-family="Verdana" font-size="14.5833" lengthAdjust="spacing" textLength="164.5966" x="236.4985" y="384.2723">-streetAddress : String</text><text fill="#000000" font-family="Verdana" font-size="14.5833" lengthAdjust="spacing" textLength="66.7358" x="236.4985" y="401.2482">-size : int</text><text fill="#000000" font-family="Verdana" font-size="14.5833" lengthAdjust="spacing" textLength="156.5999" x="236.4985" y="418.2241">-locationType : String</text><text fill="#000000" font-family="Verdana" font-size="14.5833" lengthAdjust="spacing" textLength="113.3769" x="236.4985" y="435.2">-district : String</text><text fill="#000000" font-family="Verdana" font-size="14.5833" lengthAdjust="spacing" textLength="91.0817" x="236.4985" y="452.1759">-priority : int</text><text fill="#000000" font-family="Verdana" font-size="14.5833" lengthAdjust="spacing" textLength="107.7799" x="236.4985" y="469.1518">-status : String</text><line style="stroke:#9FA8DA;stroke-width:1.0417;" x1="231.2902" x2="406.3034" y1="476.7578" y2="476.7578"/><text fill="#000000" font-family="Verdana" font-size="14.5833" lengthAdjust="spacing" textLength="141.7033" x="236.4985" y="494.4611">+calculatePriority()</text><text fill="#000000" font-family="Verdana" font-size="14.5833" lengthAdjust="spacing" textLength="128.8717" x="236.4985" y="511.437">+linkWorkOrder()</text></g><!--class WorkOrder--><g class="entity" data-entity="WorkOrder" data-source-line="53" data-uid="ent0004" id="entity_WorkOrder"><rect fill="#C8E6C9" filter="url(#fnjiwmtu81f3w)" height="215.5924" rx="10.4167" ry="10.4167" style="stroke:#9FA8DA;stroke-width:1.0417;" width="172.8383" x="469.8318" y="630.8431"/><ellipse cx="515.4424" cy="645.4264" fill="#FFFFFF" rx="9.375" ry="9.375" style="stroke:#000000;stroke-width:1.0417;"/><path d="M518.5349,651.3021 Q517.9326,651.6113 517.2653,651.7578 Q516.598,651.9206 515.8656,651.9206 Q513.2614,651.9206 511.878,650.2116 Q510.5108,648.4863 510.5108,645.2311 Q510.5108,641.9759 511.878,640.2507 Q513.2614,638.5254 515.8656,638.5254 Q516.598,638.5254 517.2653,638.6882 Q517.9489,638.8509 518.5349,639.1602 L518.5349,641.9922 Q517.8838,641.39 517.2653,641.1133 Q516.6468,640.8203 515.9958,640.8203 Q514.596,640.8203 513.8799,641.9434 Q513.1638,643.0501 513.1638,645.2311 Q513.1638,647.4121 513.8799,648.5352 Q514.596,649.6419 515.9958,649.6419 Q516.6468,649.6419 517.2653,649.3652 Q517.8838,649.0723 518.5349,648.4701 L518.5349,651.3021 Z " fill="#000000"/><text fill="#1A237E" font-family="Segoe UI" font-size="13.5417" lengthAdjust="spacing" textLength="73.8047" x="533.6716" y="650.1144">WorkOrder</text><line style="stroke:#9FA8DA;stroke-width:1.0417;" x1="470.8735" x2="641.6285" y1="660.0098" y2="660.0098"/><text fill="#000000" font-family="Verdana" font-size="14.5833" lengthAdjust="spacing" textLength="130.9794" x="476.0818" y="677.713">-workOrderID : int</text><text fill="#000000" font-family="Verdana" font-size="14.5833" lengthAdjust="spacing" textLength="88.9028" x="476.0818" y="694.6889">-crewID : int</text><text fill="#000000" font-family="Verdana" font-size="14.5833" lengthAdjust="spacing" textLength="120.1202" x="476.0818" y="711.6648">-numPeople : int</text><text fill="#000000" font-family="Verdana" font-size="14.5833" lengthAdjust="spacing" textLength="141.8884" x="476.0818" y="728.6407">-equipment : String</text><text fill="#000000" font-family="Verdana" font-size="14.5833" lengthAdjust="spacing" textLength="148.0337" x="476.0818" y="745.6167">-hoursApplied : float</text><text fill="#000000" font-family="Verdana" font-size="14.5833" lengthAdjust="spacing" textLength="160.3383" x="476.0818" y="762.5926">-materialUsed : String</text><text fill="#000000" font-family="Verdana" font-size="14.5833" lengthAdjust="spacing" textLength="82.4656" x="476.0818" y="779.5685">-cost : float</text><line style="stroke:#9FA8DA;stroke-width:1.0417;" x1="470.8735" x2="641.6285" y1="787.1745" y2="787.1745"/><text fill="#000000" font-family="Verdana" font-size="14.5833" lengthAdjust="spacing" textLength="107.3598" x="476.0818" y="804.8777">+assignCrew()</text><text fill="#000000" font-family="Verdana" font-size="14.5833" lengthAdjust="spacing" textLength="121.4518" x="476.0818" y="821.8536">+updateStatus()</text><text fill="#000000" font-family="Verdana" font-size="14.5833" lengthAdjust="spacing" textLength="120.3552" x="476.0818" y="838.8295">+computeCost()</text></g><!--class RepairCrew--><g class="entity" data-entity="RepairCrew" data-source-line="67" data-uid="ent0005" id="entity_RepairCrew"><rect fill="#FFF59D" filter="url(#fnjiwmtu81f3w)" height="130.7129" rx="10.4167" ry="10.4167" style="stroke:#9FA8DA;stroke-width:1.0417;" width="153.4058" x="479.7277" y="957.9264"/><ellipse cx="513.8998" cy="972.5098" fill="#FFFFFF" rx="9.375" ry="9.375" style="stroke:#000000;stroke-width:1.0417;"/><path d="M516.9923,978.3854 Q516.3901,978.6947 515.7228,978.8411 Q515.0554,979.0039 514.323,979.0039 Q511.7189,979.0039 510.3354,977.2949 Q508.9682,975.5697 508.9682,972.3145 Q508.9682,969.0592 510.3354,967.334 Q511.7189,965.6087 514.323,965.6087 Q515.0554,965.6087 515.7228,965.7715 Q516.4064,965.9342 516.9923,966.2435 L516.9923,969.0755 Q516.3412,968.4733 515.7228,968.1966 Q515.1043,967.9036 514.4532,967.9036 Q513.0535,967.9036 512.3373,969.0267 Q511.6212,970.1335 511.6212,972.3145 Q511.6212,974.4954 512.3373,975.6185 Q513.0535,976.7253 514.4532,976.7253 Q515.1043,976.7253 515.7228,976.4486 Q516.3412,976.1556 516.9923,975.5534 L516.9923,978.3854 Z " fill="#000000"/><text fill="#1A237E" font-family="Segoe UI" font-size="13.5417" lengthAdjust="spacing" textLength="78.3936" x="530.9844" y="977.1978">RepairCrew</text><line style="stroke:#9FA8DA;stroke-width:1.0417;" x1="480.7693" x2="632.0918" y1="987.0931" y2="987.0931"/><text fill="#000000" font-family="Verdana" font-size="14.5833" lengthAdjust="spacing" textLength="88.9028" x="485.9777" y="1004.7963">-crewID : int</text><text fill="#000000" font-family="Verdana" font-size="14.5833" lengthAdjust="spacing" textLength="140.9058" x="485.9777" y="1021.7723">-crewName : String</text><text fill="#000000" font-family="Verdana" font-size="14.5833" lengthAdjust="spacing" textLength="107.666" x="485.9777" y="1038.7482">-members : int</text><line style="stroke:#9FA8DA;stroke-width:1.0417;" x1="480.7693" x2="632.0918" y1="1046.3542" y2="1046.3542"/><text fill="#000000" font-family="Verdana" font-size="14.5833" lengthAdjust="spacing" textLength="104.9103" x="485.9777" y="1064.0574">+startRepair()</text><text fill="#000000" font-family="Verdana" font-size="14.5833" lengthAdjust="spacing" textLength="139.0615" x="485.9777" y="1081.0333">+completeRepair()</text></g><!--class DamageReport--><g class="entity" data-entity="DamageReport" data-source-line="76" data-uid="ent0006" id="entity_DamageReport"><rect fill="#F3E5F5" filter="url(#fnjiwmtu81f3w)" height="164.6647" rx="10.4167" ry="10.4167" style="stroke:#9FA8DA;stroke-width:1.0417;" width="170.8018" x="215.6652" y="656.3639"/><ellipse cx="246.7545" cy="670.9473" fill="#FFFFFF" rx="9.375" ry="9.375" style="stroke:#000000;stroke-width:1.0417;"/><path d="M249.847,676.8229 Q249.2448,677.1322 248.5774,677.2786 Q247.9101,677.4414 247.1777,677.4414 Q244.5735,677.4414 243.1901,675.7324 Q241.8229,674.0072 241.8229,670.752 Q241.8229,667.4967 243.1901,665.7715 Q244.5735,664.0462 247.1777,664.0462 Q247.9101,664.0462 248.5774,664.209 Q249.261,664.3717 249.847,664.681 L249.847,667.513 Q249.1959,666.9108 248.5774,666.6341 Q247.959,666.3411 247.3079,666.3411 Q245.9082,666.3411 245.192,667.4642 Q244.4759,668.571 244.4759,670.752 Q244.4759,672.9329 245.192,674.056 Q245.9082,675.1628 247.3079,675.1628 Q247.959,675.1628 248.5774,674.8861 Q249.1959,674.5931 249.847,673.9909 L249.847,676.8229 Z " fill="#000000"/><text fill="#1A237E" font-family="Segoe UI" font-size="13.5417" lengthAdjust="spacing" textLength="102.6403" x="263.154" y="675.6353">DamageReport</text><line style="stroke:#9FA8DA;stroke-width:1.0417;" x1="216.7068" x2="385.4253" y1="685.5306" y2="685.5306"/><text fill="#000000" font-family="Verdana" font-size="14.5833" lengthAdjust="spacing" textLength="113.5549" x="221.9152" y="703.2338">-damageID : int</text><text fill="#000000" font-family="Verdana" font-size="14.5833" lengthAdjust="spacing" textLength="153.7018" x="221.9152" y="720.2098">-citizenName : String</text><text fill="#000000" font-family="Verdana" font-size="14.5833" lengthAdjust="spacing" textLength="120.5831" x="221.9152" y="737.1857">-address : String</text><text fill="#000000" font-family="Verdana" font-size="14.5833" lengthAdjust="spacing" textLength="108.606" x="221.9152" y="754.1616">-phone : String</text><text fill="#000000" font-family="Verdana" font-size="14.5833" lengthAdjust="spacing" textLength="158.3018" x="221.9152" y="771.1375">-damageType : String</text><text fill="#000000" font-family="Verdana" font-size="14.5833" lengthAdjust="spacing" textLength="108.4778" x="221.9152" y="788.1134">-amount : float</text><line style="stroke:#9FA8DA;stroke-width:1.0417;" x1="216.7068" x2="385.4253" y1="795.7194" y2="795.7194"/><text fill="#000000" font-family="Verdana" font-size="14.5833" lengthAdjust="spacing" textLength="126.5503" x="221.9152" y="813.4226">+verifyDamage()</text></g><!--class Admin--><g class="entity" data-entity="Admin" data-source-line="87" data-uid="ent0007" id="entity_Admin"><rect fill="#FFCCBC" filter="url(#fnjiwmtu81f3w)" height="130.7129" rx="10.4167" ry="10.4167" style="stroke:#9FA8DA;stroke-width:1.0417;" width="162.264" x="477.1235" y="69.9056"/><ellipse cx="532.6515" cy="84.4889" fill="#FFFFFF" rx="9.375" ry="9.375" style="stroke:#000000;stroke-width:1.0417;"/><path d="M535.744,90.3646 Q535.1418,90.6738 534.4744,90.8203 Q533.8071,90.9831 533.0747,90.9831 Q530.4705,90.9831 529.0871,89.2741 Q527.7199,87.5488 527.7199,84.2936 Q527.7199,81.0384 529.0871,79.3132 Q530.4705,77.5879 533.0747,77.5879 Q533.8071,77.5879 534.4744,77.7507 Q535.158,77.9134 535.744,78.2227 L535.744,81.0547 Q535.0929,80.4525 534.4744,80.1758 Q533.8559,79.8828 533.2049,79.8828 Q531.8052,79.8828 531.089,81.0059 Q530.3729,82.1126 530.3729,84.2936 Q530.3729,86.4746 531.089,87.5977 Q531.8052,88.7044 533.2049,88.7044 Q533.8559,88.7044 534.4744,88.4277 Q535.0929,88.1348 535.744,87.5326 L535.744,90.3646 Z " fill="#000000"/><text fill="#1A237E" font-family="Segoe UI" font-size="13.5417" lengthAdjust="spacing" textLength="43.3955" x="550.8807" y="89.1769">Admin</text><line style="stroke:#9FA8DA;stroke-width:1.0417;" x1="478.1652" x2="638.3458" y1="99.0723" y2="99.0723"/><text fill="#000000" font-family="Verdana" font-size="14.5833" lengthAdjust="spacing" textLength="99.6836" x="483.3735" y="116.7755">-adminID : int</text><text fill="#000000" font-family="Verdana" font-size="14.5833" lengthAdjust="spacing" textLength="104.3264" x="483.3735" y="133.7514">-name : String</text><line style="stroke:#9FA8DA;stroke-width:1.0417;" x1="478.1652" x2="638.3458" y1="141.3574" y2="141.3574"/><text fill="#000000" font-family="Verdana" font-size="14.5833" lengthAdjust="spacing" textLength="128.7435" x="483.3735" y="159.0607">+reviewReports()</text><text fill="#000000" font-family="Verdana" font-size="14.5833" lengthAdjust="spacing" textLength="149.764" x="483.3735" y="176.0366">+assignWorkOrder()</text><text fill="#000000" font-family="Verdana" font-size="14.5833" lengthAdjust="spacing" textLength="138.6627" x="483.3735" y="193.0125">+generateReport()</text></g><!--link Citizen to Pothole--><g class="link" data-entity-1="Citizen" data-entity-2="Pothole" data-source-line="96" data-uid="lnk8" id="link_Citizen_Pothole"><path codeLine="96" d="M296.4048,209.1243 C294.8839,224.5306 293.5402,240.7077 292.7485,255.8431 C291.6652,276.7389 292.4558,292.7769 295.3725,313.8915" fill="none" id="Citizen-to-Pothole" style="stroke:#37474F;stroke-width:1.5625;"/><polygon fill="#37474F" points="296.2277,320.0827,299.0723,310.2257,295.515,314.9233,290.8174,311.366,296.2277,320.0827" style="stroke:#37474F;stroke-width:1.5625;"/><polygon fill="#000000" points="297.9055,269.9745,301.0596,260.5832,294.9371,260.5228,297.9055,269.9745" style="stroke:#000000;stroke-width:1.0417;"/><text fill="#000000" font-family="Verdana" font-size="13.5417" lengthAdjust="spacing" textLength="48.7116" x="307.3318" y="269.4544">reports</text><text fill="#000000" font-family="Verdana" font-size="13.5417" lengthAdjust="spacing" textLength="8.6156" x="286.8696" y="229.5202">1</text><text fill="#000000" font-family="Verdana" font-size="13.5417" lengthAdjust="spacing" textLength="38.0859" x="255.5866" y="308.8049">many</text></g><!--link Pothole to WorkOrder--><g class="link" data-entity-1="Pothole" data-entity-2="WorkOrder" data-source-line="97" data-uid="lnk9" id="link_Pothole_WorkOrder"><path codeLine="97" d="M392.6339,519.4056 C419.1235,554.7181 445.3529,589.6971 472.3425,625.6867" fill="none" id="Pothole-to-WorkOrder" style="stroke:#37474F;stroke-width:1.5625;"/><polygon fill="#37474F" points="476.0923,630.6868,473.8011,620.6867,472.9675,626.52,467.1342,625.6864,476.0923,630.6868" style="stroke:#37474F;stroke-width:1.5625;"/><polygon fill="#000000" points="445.8735,579.3498,442.6695,569.9754,437.7713,573.649,445.8735,579.3498" style="stroke:#000000;stroke-width:1.0417;"/><text fill="#000000" font-family="Verdana" font-size="13.5417" lengthAdjust="spacing" textLength="40.8763" x="452.1235" y="579.8711">linked</text><text fill="#000000" font-family="Verdana" font-size="13.5417" lengthAdjust="spacing" textLength="8.6156" x="389.4274" y="539.8737">1</text><text fill="#000000" font-family="Verdana" font-size="13.5417" lengthAdjust="spacing" textLength="8.6156" x="461.8397" y="619.4967">1</text></g><!--link Pothole to DamageReport--><g class="link" data-entity-1="Pothole" data-entity-2="DamageReport" data-source-line="98" data-uid="lnk10" id="link_Pothole_DamageReport"><path codeLine="98" d="M295.4881,519.4056 C292.6235,534.9993 290.1548,551.0098 288.5818,566.2598 C285.5714,595.4889 286.1772,621.3683 288.7397,649.8058" fill="none" id="Pothole-to-DamageReport" style="stroke:#37474F;stroke-width:1.5625;"/><polygon fill="#37474F" points="289.3006,656.0306,292.6091,646.3195,288.8332,650.8433,284.3094,647.0674,289.3006,656.0306" style="stroke:#37474F;stroke-width:1.5625;"/><polygon fill="#000000" points="293.521,580.3845,297.0652,571.1333,290.9507,570.8169,293.521,580.3845" style="stroke:#000000;stroke-width:1.0417;"/><text fill="#000000" font-family="Verdana" font-size="13.5417" lengthAdjust="spacing" textLength="73.5204" x="303.1652" y="579.8711">may cause</text><text fill="#000000" font-family="Verdana" font-size="13.5417" lengthAdjust="spacing" textLength="8.6156" x="285.1474" y="539.8737">1</text><text fill="#000000" font-family="Verdana" font-size="13.5417" lengthAdjust="spacing" textLength="25.8403" x="262.1769" y="644.9232">0..1</text></g><!--link Admin to Pothole--><g class="link" data-entity-1="Admin" data-entity-2="Pothole" data-source-line="99" data-uid="lnk11" id="link_Admin_Pothole"><path codeLine="99" d="M487.2277,200.416 C469.3214,217.7806 450.6027,236.9993 434.4152,255.8431 C417.2277,275.8431 403.7135,293.2714 388.0572,315.011" fill="none" id="Admin-to-Pothole" style="stroke:#37474F;stroke-width:1.5625;"/><polygon fill="#37474F" points="384.4048,320.0827,393.2646,314.9102,387.4485,315.8563,386.5024,310.0402,384.4048,320.0827" style="stroke:#37474F;stroke-width:1.5625;"/><polygon fill="#000000" points="436.2153,268.7048,444.6957,263.5836,440.0659,259.5769,436.2153,268.7048" style="stroke:#000000;stroke-width:1.0417;"/><text fill="#000000" font-family="Verdana" font-size="13.5417" lengthAdjust="spacing" textLength="62.3525" x="448.9985" y="269.4544">manages</text></g><!--link WorkOrder to RepairCrew--><g class="link" data-entity-1="WorkOrder" data-entity-2="RepairCrew" data-source-line="100" data-uid="lnk12" id="link_WorkOrder_RepairCrew"><path codeLine="100" d="M556.2902,846.8223 C556.2902,884.2598 556.2902,918.8327 556.2902,951.6452" fill="none" id="WorkOrder-to-RepairCrew" style="stroke:#37474F;stroke-width:1.5625;"/><polygon fill="#37474F" points="556.2902,957.8952,560.4568,948.5202,556.2902,952.6868,552.1235,948.5202,556.2902,957.8952" style="stroke:#37474F;stroke-width:1.5625;"/><polygon fill="#000000" points="561.4985,907.4748,564.5599,898.0528,558.4371,898.0528,561.4985,907.4748" style="stroke:#000000;stroke-width:1.0417;"/><text fill="#000000" font-family="Verdana" font-size="13.5417" lengthAdjust="spacing" textLength="60.2763" x="570.8735" y="906.9544">assigned</text></g><!--link Admin to WorkOrder--><g class="link" data-entity-1="Admin" data-entity-2="WorkOrder" data-source-line="101" data-uid="lnk13" id="link_Admin_WorkOrder"><path codeLine="101" d="M558.1548,200.1452 C557.8006,302.9264 557.1136,499.4681 556.6865,624.4473" fill="none" id="Admin-to-WorkOrder" style="stroke:#37474F;stroke-width:1.5625;"/><polygon fill="#37474F" points="556.6652,630.6973,560.8639,621.3366,556.683,625.489,552.5306,621.3081,556.6652,630.6973" style="stroke:#37474F;stroke-width:1.5625;"/><polygon fill="#000000" points="562.5222,425.1831,565.6161,415.7718,559.4934,415.7506,562.5222,425.1831" style="stroke:#000000;stroke-width:1.0417;"/><text fill="#000000" font-family="Verdana" font-size="13.5417" lengthAdjust="spacing" textLength="50.3382" x="571.9152" y="424.6628">creates</text></g><!--SRC=[dLNDRXit4BxhAQOIKDimv5Xn5CM2Aq2HazH5u1YMag97BdTM8iGbjoJNWbhq5Nhe2xIFs4Vea4j9N3cNHXU9tmo7ttppenFuuLi_dHFuz- -__eJvzATtxpwUM9XBn3NCj9RmLjO8tyCNeIKwMAomH3XzNqi9Nz1OeTKPtVxsbxzp8M8bcL0TknQgOeQLa36-NXfTgtocfJRGAuR5g629XrsnN6-4Me8pDIQ6S8jhez30oyl4m8pHcnZkQlHgzAeuDYvMWgyLMWk3Ys5Yv99PEtNEYAnsUCUrcelV4DBWUILWS9aYXgcrnGgkKr3f73qukkmuNO7Ja6ddDDqN1haZEJkfdB0GJkBXt77XV9DDRhXFPDmRi9TN8vnG-Vw1cQS9ju8j_LDzUD1kHLM3XI4rlL9CvV285HC6vblhi8JJXnyNZ_EpcnSXtEJcHJPf4_WWTSPa33rtMuaseNCa4VpU0NYlbRjdLDFk79SQuVDTDw9H-uPon8AGWoiwlNrMyl3n5croD16zBjYRd7N-QDESSexADJHR34_WerYkNDF6VPW9Hm-gJaCtdg2NPJaMMQ3V1-N9ZobPGve5XEMvyLtH0gkLLdXVbndrMM8u1uELDYwAVtgMOBUiPCiTz2HmCtVCrPQ0a4x3D4xQldoHwwwOFSnnLBoENAi6lRib2aAvW5bd4DtqQvojL_lWAJLdlkSMs-eeurnG5C7TKSf6Q2FSjlMOpw0j06UIrv8vV8Z-CMCfrFfdRTQVV3btISzruU03CLOKRM-DIU_FqEDly3M_ZcblTdWhSMvmqm9KNJwWhcIQC_vQYwhqpT9ARQLhOwTL9GNcP2caPer_INaOmUHd6mp95QwjIrpFWHYBfPeHYvXmNULqUr_ae8qkAzeXCxhRKk0Nb59lA6epdpv8rE00X94ONkTHX6VfUk3-MVEMw5lKxltEVSsCQy8chAZfS0ys_SYUK7dn-z1qxcFeuiWhXOZP5GwBOMIM1rERMpDgz_zZjeuwCiHytgcif9NHhiCJ5QpOxeSjcQrFj9INVWzCyrBija3uxRNbFECn0-QnTYyTCVSpxKUu4M1NtgO5qYRtw1BfpuYvADQEqc5xFQ8CSsXNeagNrsu_TGTTwFSdq2sPsdRtgs0Srug5IMU7xLtf-p0zup1xrC1VSRoykA2VhMgEgUktDCQrHRhHwEDz3myJ4NBt3nyUyHv9iuwZ6E7LGuoK53KigK9H_WC0]--></g></svg>