<svg xmlns="http://www.w3.org/2000/svg" xmlns:xlink="http://www.w3.org/1999/xlink" contentStyleType="text/css" data-diagram-type="DESCRIPTION" height="688px" preserveAspectRatio="none" style="width:1200px;height:688px;background:#F5F7FA;" version="1.1" viewBox="0 0 1200 688" width="1200px" zoomAndPan="magnify"><title>&#128739;&#65039; Smart Pothole Monitoring &amp; Maintenance Portal</title><defs><filter height="300%" id="f4zkr8hg87jrl" width="300%" x="-1" y="-1"><feGaussianBlur result="blurOut" stdDeviation="2"/><feColorMatrix in="blurOut" result="blurOut2" type="matrix" values="0 0 0 0 0 0 0 0 0 0 0 0 0 0 0 0 0 0 .4 0"/><feOffset dx="4" dy="4" in="blurOut2" result="blurOut3"/><feBlend in="SourceGraphic" in2="blurOut3" mode="normal"/></filter></defs><g><rect fill="#F5F7FA" height="688" style="stroke:none;stroke-width:1;" width="1200" x="0" y="0"/><g class="title" data-source-line="3"><text fill="#000000" font-family="sans-serif" font-size="14" font-weight="bold" lengthAdjust="spacing" textLength="393.5654" x="396.2173" y="22.9951">&#128739;&#65039; Smart Pothole Monitoring &amp; Maintenance Portal</text></g><!--cluster ?? PHTRS Management Hub Use Case Diagram--><g class="cluster" data-entity="&#127961;&#65039; PHTRS Management Hub Use Case Diagram" data-source-line="47" data-uid="ent0006" id="cluster_&#127961;&#65039; PHTRS Management Hub Use Case Diagram"><rect fill="#E3F2FD" filter="url(#f4zkr8hg87jrl)" height="541" rx="12.5" ry="12.5" style="stroke:#1E88E5;stroke-width:1;" width="953" x="235" y="44.2969"/><text fill="#0D47A1" font-family="sans-serif" font-size="18" font-weight="bold" lengthAdjust="spacing" textLength="460.7578" x="481.1211" y="63.0049">&#127961;&#65039; PHTRS Management Hub Use Case Diagram</text></g><!--entity UC1--><g class="entity" data-entity="UC1" data-source-line="48" data-uid="ent0007" id="entity_UC1"><ellipse cx="392.4352" cy="109.4839" fill="#BBDEFB" rx="116.4352" ry="25.687" style="stroke:#9FA8DA;stroke-width:1.3;"/><text fill="#1A237E" font-family="sans-serif" font-size="15" lengthAdjust="spacing" textLength="209.3994" x="287.7355" y="114.7144">&#128248; Submit Pothole Complaint</text></g><!--entity UC2--><g class="entity" data-entity="UC2" data-source-line="49" data-uid="ent0008" id="entity_UC2"><ellipse cx="392.3192" cy="196.2607" fill="#EDE7F6" rx="117.8192" ry="25.9638" style="stroke:#9FA8DA;stroke-width:1.3;"/><text fill="#1A237E" font-family="sans-serif" font-size="15" lengthAdjust="spacing" textLength="212.395" x="286.1216" y="201.4912">&#128065;&#65039; Track Complaint Progress</text></g><!--entity UC3--><g class="entity" data-entity="UC3" data-source-line="50" data-uid="ent0009" id="entity_UC3"><ellipse cx="392.3348" cy="360.0638" fill="#C8E6C9" rx="109.3348" ry="24.267" style="stroke:#9FA8DA;stroke-width:1.3;"/><text fill="#1A237E" font-family="sans-serif" font-size="15" lengthAdjust="spacing" textLength="193.9233" x="295.3731" y="365.2943">&#129534; Register Pothole Details</text></g><!--entity UC4--><g class="entity" data-entity="UC4" data-source-line="51" data-uid="ent0010" id="entity_UC4"><ellipse cx="392.6574" cy="446.1284" fill="#FFF59D" rx="119.6574" ry="26.3315" style="stroke:#9FA8DA;stroke-width:1.3;"/><text fill="#1A237E" font-family="sans-serif" font-size="15" lengthAdjust="spacing" textLength="216.3647" x="284.475" y="451.3588">&#128450;&#65039; Dispatch Work Assignment</text></g><!--entity UC5--><g class="entity" data-entity="UC5" data-source-line="52" data-uid="ent0011" id="entity_UC5"><ellipse cx="754.0318" cy="534.2032" fill="#F3E5F5" rx="95.0318" ry="21.4064" style="stroke:#9FA8DA;stroke-width:1.3;"/><text fill="#1A237E" font-family="sans-serif" font-size="15" lengthAdjust="spacing" textLength="162.041" x="673.0113" y="539.4337">&#128295; Update Field Repair</text></g><!--entity UC6--><g class="entity" data-entity="UC6" data-source-line="53" data-uid="ent0012" id="entity_UC6"><ellipse cx="1072.9427" cy="541.4854" fill="#DCEDC8" rx="98.9427" ry="22.1885" style="stroke:#9FA8DA;stroke-width:1.3;"/><text fill="#1A237E" font-family="sans-serif" font-size="15" lengthAdjust="spacing" textLength="170.874" x="987.5057" y="546.7159">&#128176; Evaluate Repair Cost</text></g><!--entity UC7--><g class="entity" data-entity="UC7" data-source-line="54" data-uid="ent0013" id="entity_UC7"><ellipse cx="392.5383" cy="279.3045" fill="#F0F4C3" rx="95.5383" ry="21.5077" style="stroke:#9FA8DA;stroke-width:1.3;"/><text fill="#1A237E" font-family="sans-serif" font-size="15" lengthAdjust="spacing" textLength="163.1909" x="310.9429" y="284.535">&#128203; File Damage Report</text></g><!--entity UC8--><g class="entity" data-entity="UC8" data-source-line="55" data-uid="ent0014" id="entity_UC8"><ellipse cx="392.2945" cy="538.4558" fill="#FFCCBC" rx="141.2945" ry="30.6589" style="stroke:#9FA8DA;stroke-width:1.3;"/><text fill="#1A237E" font-family="sans-serif" font-size="15" lengthAdjust="spacing" textLength="262.4487" x="261.0701" y="543.6862">&#128202; Generate Maintenance Summary</text></g><!--entity Citizen--><g class="entity" data-entity="Citizen" data-source-line="42" data-uid="ent0002" id="entity_Citizen"><ellipse cx="97.2031" cy="172.7969" fill="#283593" filter="url(#f4zkr8hg87jrl)" rx="16" ry="16" style="stroke:#3F51B5;stroke-width:0.5;"/><path d="M97.2031,192.7969 C101.2031,192.7969 104.2031,192.7969 108.2031,188.7969 C116.2031,188.7969 124.2031,196.7969 124.2031,204.7969 L124.2031,208.7969 C124.2031,212.7969 120.2031,216.7969 116.2031,216.7969 L78.2031,216.7969 C74.2031,216.7969 70.2031,212.7969 70.2031,208.7969 L70.2031,204.7969 C70.2031,196.7969 78.2031,188.7969 86.2031,188.7969 C90.2031,192.7969 93.2031,192.7969 97.2031,192.7969" fill="#283593" filter="url(#f4zkr8hg87jrl)" style="stroke:#3F51B5;stroke-width:0.5;"/><text fill="#1A237E" font-family="sans-serif" font-size="16" lengthAdjust="spacing" textLength="69.4063" x="62.5" y="232.1484">&#128694; Citizen</text></g><!--entity Staff--><g class="entity" data-entity="Staff" data-source-line="43" data-uid="ent0003" id="entity_Staff"><ellipse cx="97.1016" cy="405.7969" fill="#1565C0" filter="url(#f4zkr8hg87jrl)" rx="16" ry="16" style="stroke:#3F51B5;stroke-width:0.5;"/><path d="M97.1016,425.7969 C101.1016,425.7969 104.1016,425.7969 108.1016,421.7969 C116.1016,421.7969 124.1016,429.7969 124.1016,437.7969 L124.1016,441.7969 C124.1016,445.7969 120.1016,449.7969 116.1016,449.7969 L78.1016,449.7969 C74.1016,449.7969 70.1016,445.7969 70.1016,441.7969 L70.1016,437.7969 C70.1016,429.7969 78.1016,421.7969 86.1016,421.7969 C90.1016,425.7969 93.1016,425.7969 97.1016,425.7969" fill="#1565C0" filter="url(#f4zkr8hg87jrl)" style="stroke:#3F51B5;stroke-width:0.5;"/><text fill="#1A237E" font-family="sans-serif" font-size="16" lengthAdjust="spacing" textLength="182.2031" x="6" y="465.1484">&#128119; Public Works Officer</text></g><!--entity Crew--><g class="entity" data-entity="Crew" data-source-line="44" data-uid="ent0004" id="entity_Crew"><ellipse cx="392.2734" cy="620.7969" fill="#2E7D32" filter="url(#f4zkr8hg87jrl)" rx="16" ry="16" style="stroke:#3F51B5;stroke-width:0.5;"/><path d="M392.2734,640.7969 C396.2734,640.7969 399.2734,640.7969 403.2734,636.7969 C411.2734,636.7969 419.2734,644.7969 419.2734,652.7969 L419.2734,656.7969 C419.2734,660.7969 415.2734,664.7969 411.2734,664.7969 L373.2734,664.7969 C369.2734,664.7969 365.2734,660.7969 365.2734,656.7969 L365.2734,652.7969 C365.2734,644.7969 373.2734,636.7969 381.2734,636.7969 C385.2734,640.7969 388.2734,640.7969 392.2734,640.7969" fill="#2E7D32" filter="url(#f4zkr8hg87jrl)" style="stroke:#3F51B5;stroke-width:0.5;"/><text fill="#1A237E" font-family="sans-serif" font-size="16" lengthAdjust="spacing" textLength="98.5469" x="343" y="680.1484">&#128736;&#65039; Field Crew</text></g><!--entity Admin--><g class="entity" data-entity="Admin" data-source-line="45" data-uid="ent0005" id="entity_Admin"><ellipse cx="96.8125" cy="520.7969" fill="#6A1B9A" filter="url(#f4zkr8hg87jrl)" rx="16" ry="16" style="stroke:#3F51B5;stroke-width:0.5;"/><path d="M96.8125,540.7969 C100.8125,540.7969 103.8125,540.7969 107.8125,536.7969 C115.8125,536.7969 123.8125,544.7969 123.8125,552.7969 L123.8125,556.7969 C123.8125,560.7969 119.8125,564.7969 115.8125,564.7969 L77.8125,564.7969 C73.8125,564.7969 69.8125,560.7969 69.8125,556.7969 L69.8125,552.7969 C69.8125,544.7969 77.8125,536.7969 85.8125,536.7969 C89.8125,540.7969 92.8125,540.7969 96.8125,540.7969" fill="#6A1B9A" filter="url(#f4zkr8hg87jrl)" style="stroke:#3F51B5;stroke-width:0.5;"/><text fill="#1A237E" font-family="sans-serif" font-size="16" lengthAdjust="spacing" textLength="136.625" x="28.5" y="580.1484">&#127963;&#65039; City Supervisor</text></g><!--link Citizen to UC1--><g class="link" data-entity-1="Citizen" data-entity-2="UC1" data-source-line="58" data-uid="lnk15" id="link_Citizen_UC1"><path d="M131.73,184.0369 C157.63,174.8069 194.37,162.1169 227,152.2969 C255.27,143.7969 280.7393,136.8721 308.3693,129.7621" fill="none" id="Citizen-to-UC1" style="stroke:#37474F;stroke-width:1.5;"/><polygon fill="#37474F" points="314.18,128.2669,304.4671,126.636,309.3378,129.5129,306.4608,134.3836,314.18,128.2669" style="stroke:#37474F;stroke-width:1.5;"/></g><!--link Citizen to UC2--><g class="link" data-entity-1="Citizen" data-entity-2="UC2" data-source-line="59" data-uid="lnk16" id="link_Citizen_UC2"><path d="M131.67,196.2969 C166.53,196.2969 216.98,196.2969 268.38,196.2969" fill="none" id="Citizen-to-UC2" style="stroke:#37474F;stroke-width:1.5;"/><polygon fill="#37474F" points="274.38,196.2969,265.38,192.2969,269.38,196.2969,265.38,200.2969,274.38,196.2969" style="stroke:#37474F;stroke-width:1.5;"/></g><!--link Citizen to UC7--><g class="link" data-entity-1="Citizen" data-entity-2="UC7" data-source-line="60" data-uid="lnk17" id="link_Citizen_UC7"><path d="M131.71,208.3869 C157.6,217.4669 194.33,229.8969 227,239.2969 C258.63,248.3969 288.2388,255.8256 318.0988,262.8356" fill="none" id="Citizen-to-UC7" style="stroke:#37474F;stroke-width:1.5;"/><polygon fill="#37474F" points="323.94,264.2069,316.0924,258.2558,319.0723,263.0641,314.264,266.0441,323.94,264.2069" style="stroke:#37474F;stroke-width:1.5;"/></g><!--link Staff to UC3--><g class="link" data-entity-1="Staff" data-entity-2="UC3" data-source-line="62" data-uid="lnk18" id="link_Staff_UC3"><path d="M188.05,408.1269 C229.17,398.4569 271.4593,388.5201 310.5893,379.3201" fill="none" id="Staff-to-UC3" style="stroke:#37474F;stroke-width:1.5;"/><polygon fill="#37474F" points="316.43,377.9469,306.7534,376.1129,311.5627,379.0912,308.5844,383.9006,316.43,377.9469" style="stroke:#37474F;stroke-width:1.5;"/></g><!--link Staff to UC4--><g class="link" data-entity-1="Staff" data-entity-2="UC4" data-source-line="63" data-uid="lnk19" id="link_Staff_UC4"><path d="M188.05,434.5169 C216.03,436.1369 241.2601,437.5887 270.6801,439.2987" fill="none" id="Staff-to-UC4" style="stroke:#37474F;stroke-width:1.5;"/><polygon fill="#37474F" points="276.67,439.6469,267.9173,435.1314,271.6784,439.3567,267.4531,443.1179,276.67,439.6469" style="stroke:#37474F;stroke-width:1.5;"/></g><!--link Staff to UC8--><g class="link" data-entity-1="Staff" data-entity-2="UC8" data-source-line="64" data-uid="lnk20" id="link_Staff_UC8"><path d="M177.66,469.3569 C193.8,476.7969 210.79,484.1469 227,490.2969 C250.78,499.3269 271.27,505.9968 295.68,513.1168" fill="none" id="Staff-to-UC8" style="stroke:#37474F;stroke-width:1.5;"/><polygon fill="#37474F" points="301.44,514.7969,293.9201,508.4368,296.64,513.3968,291.68,516.1167,301.44,514.7969" style="stroke:#37474F;stroke-width:1.5;"/></g><!--link Crew to UC5--><g class="link" data-entity-1="Crew" data-entity-2="UC5" data-source-line="66" data-uid="lnk21" id="link_Crew_UC5"><path d="M442.36,629.3469 C508.69,609.0469 621.2125,574.6223 691.1225,553.2323" fill="none" id="Crew-to-UC5" style="stroke:#37474F;stroke-width:1.5;"/><polygon fill="#37474F" points="696.86,551.4769,687.0835,550.2851,692.0788,552.9398,689.4241,557.935,696.86,551.4769" style="stroke:#37474F;stroke-width:1.5;"/></g><!--link Crew to UC6--><g class="link" data-entity-1="Crew" data-entity-2="UC6" data-source-line="67" data-uid="lnk22" id="link_Crew_UC6"><path d="M442.02,636.9269 C557.2,619.4469 842.1579,576.1872 984.7379,554.5472" fill="none" id="Crew-to-UC6" style="stroke:#37474F;stroke-width:1.5;"/><polygon fill="#37474F" points="990.67,553.6469,981.1717,551.0427,985.7266,554.3972,982.3721,558.9521,990.67,553.6469" style="stroke:#37474F;stroke-width:1.5;"/></g><!--link Admin to UC8--><g class="link" data-entity-1="Admin" data-entity-2="UC8" data-source-line="69" data-uid="lnk23" id="link_Admin_UC8"><path d="M165.7,542.9169 C191.35,542.3869 215.5913,541.8894 245.4613,541.2794" fill="none" id="Admin-to-UC8" style="stroke:#37474F;stroke-width:1.5;"/><polygon fill="#37474F" points="251.46,541.1569,242.3802,537.3415,246.461,541.259,242.5435,545.3398,251.46,541.1569" style="stroke:#37474F;stroke-width:1.5;"/></g><!--link UC4 to UC5--><g class="link" data-entity-1="UC4" data-entity-2="UC5" data-source-line="71" data-uid="lnk24" id="link_UC4_UC5"><path d="M473.28,465.8269 C538.13,481.6969 622.612,502.3806 682.882,517.1306" fill="none" id="UC4-to-UC5" style="stroke:#37474F;stroke-width:1.5;"/><polygon fill="#37474F" points="688.71,518.5569,680.9189,512.5321,683.8533,517.3683,679.0171,520.3028,688.71,518.5569" style="stroke:#37474F;stroke-width:1.5;"/><text fill="#000000" font-family="sans-serif" font-size="13" lengthAdjust="spacing" textLength="63.0068" x="565" y="486.3638">&#171;include&#187;</text></g><!--link UC5 to UC6--><g class="link" data-entity-1="UC5" data-entity-2="UC6" data-source-line="72" data-uid="lnk25" id="link_UC5_UC6"><path d="M848.82,536.3669 C888.35,537.2369 928.3515,538.1247 968.2915,539.0047" fill="none" id="UC5-to-UC6" style="stroke:#37474F;stroke-width:1.5;"/><polygon fill="#37474F" points="974.29,539.1369,965.3803,534.9396,969.2912,539.0267,965.2041,542.9377,974.29,539.1369" style="stroke:#37474F;stroke-width:1.5;"/><text fill="#000000" font-family="sans-serif" font-size="13" lengthAdjust="spacing" textLength="63.0068" x="880" y="533.3638">&#171;include&#187;</text></g><!--SRC=[XLHBRzj64BxpLmmie3cfC4LHf8h0W2FdSGbgc7PxNkxEKWkHky9o6SCjUaYEBT0WQO6YzI45UiYrfoQd_ANc9tIMf2nH5H8T1CxZc_dcjVVWuvlNFyCPrghG4C8OiX9n1GjZIdXGDWXVm3VAbEZWSeaLWZGMpfzSNcH1YTA1Cs1LiNGWb4NkbD61Kwv42dlxrx_lNq9MCUlWtBWb1O6dHYjdhD85nNtAb7QecUP83jQnCWZgbT9hPba5EUEhmff6YuKfAUb8nZAHRCUZNZ9XhdqiPnlSCRGeRgn62vF9Zk7KMdFTXukIQJAL-yRBfU8hZNKDuPTn4Do3yNWCLpN2Wj5Vvcwe25Bjm9eQkRTz7m0y-1_dzkSjnWgqlNOkMIeOQHyPxNfTo2PHWhqkKzyXXF4TRfTLHDfiMFaF6wAdd9fxa2LhBGSvOefCplOvHZ8Ey_Yp73skoyUkiJOLVeBT1Iq8qqLvk8_spdgOPIGdKkop335DqREyw5oxaSS3YkcmY6CnJLYuyMY9vAOK1tbtNJlw-EQFVs2X78NJHy3gpJUC9caKpwEjtwjtSDxafUBmhR6h6hwMKd6qBIXpJ4gY7CzYVho5tFxfp-IHmbB0mk9rbu0-A3ec8ffiNL_UUbTAVWDPiqRxJDMcYtqgAaLqPYpCvom8jhtqgDyzghrPEZdD2ZfZxU19asyN-qonWePmrFP-iz64_UKzPSehjRtWXQdMfJ_SDk_L8eHHdWkK-H3uwhbFUcbfZ5i8d5jJM5hZ7ZkXiGfCskNRmRxzGAjIgDhHB3Tfpz0nLMw04OnuYZC-7m9_U-6JdgbwpHnVjYE0qzg_RBxY7ZjjhpAUYo7srxTmjHRCOJ-A2rmpPNjCJ9W8OnaFCQ__XeVFMDbuLETFjTQRH3CO2Ow2ftij_Oao-8fOHQFmE7hwUaX2UOxbb4Txa1_XCT9c-poxZsRMLFIwtlJWr1V6USxzvcusT3m-yKFQaoTxSX84tNPsOZIGfWCffTX-EJiftXLcGT3juPsdxtRl25_1_VjAyx8HU78IU4sF6bh-0m00]--></g></svg>